<svg width="26" height="26" viewBox="0 0 26 26" fill="none" xmlns="http://www.w3.org/2000/svg">
<path d="M3.25 10.5625H8.125V21.125H3.25C3.03451 21.125 2.82785 21.0394 2.67548 20.887C2.5231 20.7347 2.4375 20.528 2.4375 20.3125V11.375C2.4375 11.1595 2.5231 10.9528 2.67548 10.8005C2.82785 10.6481 3.03451 10.5625 3.25 10.5625V10.5625Z" stroke="#231F20" stroke-width="1.5" stroke-linecap="round" stroke-linejoin="round"/>
<path d="M8.125 10.5625L12.1875 2.4375C13.0495 2.4375 13.8761 2.77991 14.4856 3.3894C15.0951 3.9989 15.4375 4.82555 15.4375 5.6875V8.125H21.7242C21.9546 8.12443 22.1825 8.17318 22.3925 8.26796C22.6025 8.36275 22.7898 8.50138 22.9418 8.67455C23.0938 8.84771 23.207 9.0514 23.2738 9.27193C23.3405 9.49246 23.3593 9.72473 23.3289 9.95312L22.1102 19.7031C22.0608 20.0945 21.8708 20.4546 21.5756 20.7163C21.2803 20.9779 20.9 21.1232 20.5055 21.125H8.125" stroke="#231F20" stroke-width="1.5" stroke-linecap="round" stroke-linejoin="round"/>
</svg>
