<svg width="15" height="15" viewBox="0 0 15 15" fill="none" xmlns="http://www.w3.org/2000/svg">
<path fill-rule="evenodd" clip-rule="evenodd" d="M6.75421 14.0088C6.75421 14.2849 6.97807 14.5088 7.25421 14.5088C7.53036 14.5088 7.75421 14.2849 7.75421 14.0088V7.75456H14.0088C14.2849 7.75456 14.5088 7.5307 14.5088 7.25456C14.5088 6.97842 14.2849 6.75456 14.0088 6.75456H7.75421V0.5C7.75421 0.223856 7.53036 0 7.25421 0C6.97807 0 6.75421 0.223858 6.75421 0.5V6.75456H0.5C0.223858 6.75456 0 6.97842 0 7.25456C0 7.5307 0.223858 7.75456 0.5 7.75456H6.75421V14.0088Z" fill="#F84CBB"/>
</svg>
