<svg width="15" height="14" viewBox="0 0 15 14" fill="none" xmlns="http://www.w3.org/2000/svg">
<path d="M14.5079 4.99282C14.4177 4.71364 14.1701 4.51536 13.8771 4.48896L9.89779 4.12763L8.32426 0.444636C8.20824 0.17472 7.944 0 7.65042 0C7.35684 0 7.0926 0.17472 6.97658 0.445267L5.40305 4.12763L1.4231 4.48896C1.13068 4.51599 0.883693 4.71364 0.792914 4.99282C0.702136 5.27199 0.785972 5.57819 1.00718 5.77122L4.01508 8.40916L3.12812 12.3162C3.06322 12.6035 3.17472 12.9004 3.41308 13.0727C3.5412 13.1653 3.69109 13.2124 3.84225 13.2124C3.97258 13.2124 4.10186 13.1773 4.21788 13.1079L7.65042 11.0564L11.0817 13.1079C11.3328 13.2589 11.6493 13.2451 11.8871 13.0727C12.1256 12.8999 12.237 12.6028 12.1721 12.3162L11.2851 8.40916L14.293 5.77174C14.5142 5.57819 14.5987 5.27251 14.5079 4.99282Z" fill="#F84CBB"/>
</svg>
