<svg width="1920" height="964" viewBox="0 0 1920 964" fill="none" xmlns="http://www.w3.org/2000/svg">
<path opacity="0.1" d="M0 48H1920V860C1920 860 1387 587 970.5 820C554 1053 0 860 0 860L0 48Z" fill="#9A2DAD"/>
<path opacity="0.1" d="M0 66H1920V878C1920 878 1456 576 1034 836C612 1096 0 878 0 878L0 66Z" fill="#9A2DAD"/>
<path d="M0 0H1920V812C1920 812 1372 604 960 812C548 1020 0 812 0 812L0 0Z" fill="url(#paint0_linear_135_374)"/>
<mask id="mask0_135_374" style="mask-type:alpha" maskUnits="userSpaceOnUse" x="0" y="0" width="1920" height="905">
<path d="M0 0H1920V812C1920 812 1372 604 960 812C548 1020 0 812 0 812L0 0Z" fill="#9A2DAD"/>
</mask>
<g mask="url(#mask0_135_374)">
<path d="M896.467 164.735L899.756 170.698L905.72 173.987L899.756 177.276L896.467 183.239L893.222 177.276L887.214 173.987L893.222 170.698L896.467 164.735Z" fill="#FEA7AF"/>
<path d="M1245.57 574.637L1247.72 578.584L1251.62 580.732L1247.72 582.837L1245.57 586.784L1243.42 582.837L1239.52 580.732L1243.42 578.584L1245.57 574.637Z" fill="#FEA7AF"/>
<path d="M1251.62 224.019L1253.77 227.921L1257.67 230.07L1253.77 232.219L1251.62 236.121L1249.47 232.219L1245.57 230.07L1249.47 227.921L1251.62 224.019Z" fill="#FEA7AF"/>
<path d="M373.453 744.509L375.602 748.412L379.504 750.561L375.602 752.709L373.453 756.612L371.348 752.709L367.401 750.561L371.348 748.412L373.453 744.509Z" fill="#FEA7AF"/>
<path opacity="0.29" d="M218.132 47.1747L220.236 51.0773L224.183 53.2259L220.236 55.3745L218.132 59.2771L215.983 55.3745L212.08 53.2259L215.983 51.0773L218.132 47.1747Z" fill="white"/>
<path opacity="0.29" d="M19.2221 127.112L21.3708 131.014L25.2735 133.163L21.3708 135.312L19.2221 139.214L17.0733 135.312L13.1706 133.163L17.0733 131.014L19.2221 127.112Z" fill="white"/>
<path opacity="0.29" d="M507.287 295.405L509.392 299.308L513.338 301.456L509.392 303.605L507.287 307.508L505.138 303.605L501.235 301.456L505.138 299.308L507.287 295.405Z" fill="white"/>
<path opacity="0.29" d="M707.424 392.444L711.634 400.161L719.396 404.414L711.634 408.624L707.424 416.385L703.171 408.624L695.409 404.414L703.171 400.161L707.424 392.444Z" fill="#FEA7AF"/>
<path opacity="0.29" d="M1754.55 301.457L1758.8 309.218L1766.56 313.427L1758.8 317.681L1754.55 325.398L1750.34 317.681L1742.58 313.427L1750.34 309.218L1754.55 301.457Z" fill="white"/>
<path opacity="0.29" d="M109.971 601L114.225 608.761L121.987 612.971L114.225 617.224L109.971 624.942L105.762 617.224L98 612.971L105.762 608.761L109.971 601Z" fill="white"/>
<path opacity="0.29" d="M1847.97 41L1852.23 48.7613L1859.99 52.9709L1852.23 57.2242L1847.97 64.9417L1843.76 57.2242L1836 52.9709L1843.76 48.7613L1847.97 41Z" fill="white"/>
<path opacity="0.29" d="M1719.78 879.784L1724.03 887.546L1731.75 891.755L1724.03 896.009L1719.78 903.726L1715.57 896.009L1707.8 891.755L1715.57 887.546L1719.78 879.784Z" fill="white"/>
<path opacity="0.29" d="M88.9018 732.758L90.9189 736.441L94.6024 738.458L90.9189 740.431L88.9018 744.115L86.9285 740.431L83.2449 738.458L86.9285 736.441L88.9018 732.758Z" fill="white"/>
<path opacity="0.29" d="M947.071 687.637L949.089 691.32L952.772 693.337L949.089 695.354L947.071 698.994L945.054 695.354L941.415 693.337L945.054 691.32L947.071 687.637Z" fill="#FEA7AF"/>
<path opacity="0.29" d="M994.299 855.404L996.273 859.044L999.956 861.061L996.273 863.078L994.299 866.717L992.282 863.078L988.599 861.061L992.282 859.044L994.299 855.404Z" fill="#FEA7AF"/>
<path opacity="0.29" d="M1430.66 230.465L1432.64 234.104L1436.32 236.121L1432.64 238.138L1430.66 241.822L1428.65 238.138L1424.96 236.121L1428.65 234.104L1430.66 230.465Z" fill="#FEA7AF"/>
<path opacity="0.29" d="M1660.75 581.083L1662.77 584.767L1666.45 586.784L1662.77 588.757L1660.75 592.44L1658.78 588.757L1655.09 586.784L1658.78 584.767L1660.75 581.083Z" fill="white"/>
<path opacity="0.29" d="M1047.14 353.9L1050.78 360.565L1057.45 364.205L1050.78 367.844L1047.14 374.553L1043.46 367.844L1036.79 364.205L1043.46 360.565L1047.14 353.9Z" fill="#FEA7AF"/>
<path opacity="0.2" d="M658.881 719.91L663.88 729.031L673.045 734.029L663.88 739.028L658.881 748.193L653.882 739.028L644.761 734.029L653.882 729.031L658.881 719.91Z" fill="white"/>
<path d="M1450.7 724.207L1452.46 727.452L1455.7 729.206L1452.46 730.96L1450.7 734.205L1448.95 730.96L1445.7 729.206L1448.95 727.452L1450.7 724.207Z" fill="white"/>
<path d="M1542.57 369.554L1544.37 372.799L1547.57 374.553L1544.37 376.307L1542.57 379.552L1540.82 376.307L1537.57 374.553L1540.82 372.799L1542.57 369.554Z" fill="white"/>
<path opacity="0.33" d="M302.721 377.71L305.922 383.542L311.71 386.699L305.922 389.9L302.721 395.689L299.563 389.9L293.731 386.699L299.563 383.542L302.721 377.71Z" fill="#FEA7AF"/>
<path opacity="0.33" d="M1251.62 737.669L1253.9 741.834L1258.06 744.115L1253.9 746.395L1251.62 750.56L1249.34 746.395L1245.22 744.115L1249.34 741.834L1251.62 737.669Z" fill="#FEA7AF"/>
<path opacity="0.33" d="M1357.96 864.919L1360.24 869.085L1364.4 871.365L1360.24 873.645L1357.96 877.811L1355.72 873.645L1351.56 871.365L1355.72 869.085L1357.96 864.919Z" fill="#FEA7AF"/>
<path opacity="0.33" d="M1345.11 397.969L1347.39 402.134L1351.56 404.415L1347.39 406.695L1345.11 410.817L1342.83 406.695L1338.66 404.415L1342.83 402.134L1345.11 397.969Z" fill="#FEA7AF"/>
<path opacity="0.33" d="M994.299 494.569L996.58 498.69L1000.7 500.971L996.58 503.251L994.299 507.416L992.019 503.251L987.853 500.971L992.019 498.69L994.299 494.569Z" fill="#FEA7AF"/>
<path opacity="0.33" d="M1913.55 550.74L1915.83 554.905L1920 557.185L1915.83 559.465L1913.55 563.631L1911.32 559.465L1907.15 557.185L1911.32 554.905L1913.55 550.74Z" fill="#FEA7AF"/>
<g opacity="0.33">
<path d="M1335.37 231.78L1417.6 307.288C1417.79 307.513 1417.9 307.801 1417.9 308.1C1417.9 308.398 1417.79 308.687 1417.6 308.911C1417.38 309.117 1417.09 309.232 1416.78 309.232C1416.48 309.232 1416.19 309.117 1415.97 308.911L1331.3 236.384C1330.98 236.119 1330.73 235.795 1330.54 235.429C1330.36 235.064 1330.25 234.665 1330.22 234.256C1330.19 233.848 1330.24 233.438 1330.38 233.05C1330.51 232.662 1330.72 232.305 1330.99 231.999C1331.54 231.391 1332.32 231.026 1333.14 230.985C1333.96 230.944 1334.76 231.23 1335.37 231.78Z" fill="url(#paint1_linear_135_374)"/>
<path style="mix-blend-mode:screen" d="M1366.07 260.677L1416.5 306.938C1416.63 307.075 1416.7 307.255 1416.7 307.442C1416.7 307.629 1416.63 307.809 1416.5 307.946C1416.37 308.069 1416.2 308.138 1416.02 308.138C1415.84 308.138 1415.67 308.069 1415.53 307.946L1363.61 263.483C1363.44 263.308 1363.3 263.099 1363.2 262.87C1363.11 262.64 1363.06 262.394 1363.06 262.146C1363.06 261.897 1363.11 261.651 1363.2 261.421C1363.3 261.192 1363.44 260.983 1363.61 260.808C1363.94 260.488 1364.36 260.297 1364.82 260.273C1365.27 260.248 1365.72 260.392 1366.07 260.677Z" fill="url(#paint2_linear_135_374)"/>
</g>
<path d="M1684.78 385.998L1789.1 481.808C1789.24 481.939 1789.35 482.096 1789.42 482.269C1789.49 482.443 1789.53 482.629 1789.53 482.817C1789.53 483.005 1789.49 483.191 1789.42 483.365C1789.35 483.538 1789.24 483.695 1789.1 483.826C1788.83 484.088 1788.47 484.235 1788.1 484.235C1787.72 484.235 1787.36 484.088 1787.09 483.826L1679.48 391.742C1679.09 391.403 1678.77 390.991 1678.54 390.53C1678.32 390.068 1678.18 389.566 1678.15 389.053C1678.12 388.539 1678.19 388.024 1678.35 387.538C1678.52 387.051 1678.78 386.602 1679.12 386.217C1679.47 385.814 1679.9 385.486 1680.37 385.254C1680.85 385.023 1681.37 384.893 1681.91 384.872C1682.44 384.852 1682.97 384.941 1683.46 385.135C1683.96 385.328 1684.41 385.622 1684.78 385.998Z" fill="url(#paint3_linear_135_374)"/>
</g>
<defs>
<linearGradient id="paint0_linear_135_374" x1="0" y1="452.222" x2="1920" y2="452.222" gradientUnits="userSpaceOnUse">
<stop stop-color="#8829A7"/>
<stop offset="1" stop-color="#DB3EBE"/>
</linearGradient>
<linearGradient id="paint1_linear_135_374" x1="1417.92" y1="308.452" x2="1331.27" y2="231.488" gradientUnits="userSpaceOnUse">
<stop offset="0.01" stop-color="#FEA7AF"/>
<stop offset="0.99" stop-color="#EA47AC" stop-opacity="0"/>
</linearGradient>
<linearGradient id="paint2_linear_135_374" x1="1416.81" y1="307.462" x2="1363.7" y2="260.288" gradientUnits="userSpaceOnUse">
<stop offset="0.01" stop-color="#FEA7AF"/>
<stop offset="0.99" stop-color="#EA47AC" stop-opacity="0"/>
</linearGradient>
<linearGradient id="paint3_linear_135_374" x1="1789.47" y1="483.367" x2="1679.54" y2="385.728" gradientUnits="userSpaceOnUse">
<stop offset="0.01" stop-color="#FEA7AF"/>
<stop offset="0.99" stop-color="#EA47AC" stop-opacity="0"/>
</linearGradient>
</defs>
</svg>
