<svg width="1920" height="522" viewBox="0 0 1920 522" fill="none" xmlns="http://www.w3.org/2000/svg">
<path opacity="0.1" d="M1920 522H0V103.548C0 103.548 533 376.548 949.5 143.548C1366 -89.4517 1920 103.548 1920 103.548L1920 522Z" fill="#9A2DAD"/>
<path opacity="0.1" d="M1920 522H0V85.5483C0 85.5483 464 387.548 886 127.548C1308 -132.452 1920 85.5483 1920 85.5483V522Z" fill="#9A2DAD"/>
<path d="M1920 522H0V151.548C0 151.548 548 359.548 960 151.548C1372 -56.4517 1920 151.548 1920 151.548L1920 522Z" fill="url(#paint0_linear_135_863)"/>
<mask id="mask0_135_863" style="mask-type:alpha" maskUnits="userSpaceOnUse" x="0" y="59" width="1920" height="463">
<path d="M1920 522H0V151.548C0 151.548 548 359.548 960 151.548C1372 -56.4517 1920 151.548 1920 151.548V522Z" fill="#9A2DAD"/>
</mask>
<g mask="url(#mask0_135_863)">
<path d="M674.433 388.911L672.284 384.965L668.381 382.816L672.284 380.711L674.433 376.765L676.581 380.711L680.484 382.816L676.581 384.965L674.433 388.911Z" fill="#FEA7AF"/>
<path d="M1546.55 219.039L1544.4 215.136L1540.5 212.988L1544.4 210.839L1546.55 206.937L1548.65 210.839L1552.6 212.988L1548.65 215.136L1546.55 219.039Z" fill="#FEA7AF"/>
<path opacity="0.29" d="M1810.03 362.548L1805.77 354.787L1798.01 350.577L1805.77 346.324L1810.03 338.607L1814.24 346.324L1822 350.577L1814.24 354.787L1810.03 362.548Z" fill="white"/>
<path opacity="0.29" d="M200.225 83.7642L195.971 76.0028L188.253 71.7933L195.971 67.5399L200.225 59.8224L204.435 67.5399L212.196 71.7933L204.435 76.0028L200.225 83.7642Z" fill="white"/>
<path opacity="0.29" d="M1831.1 230.791L1829.08 227.107L1825.4 225.09L1829.08 223.117L1831.1 219.434L1833.07 223.117L1836.76 225.09L1833.07 227.107L1831.1 230.791Z" fill="white"/>
<path opacity="0.29" d="M972.928 275.912L970.911 272.228L967.228 270.211L970.911 268.194L972.928 264.555L974.946 268.194L978.585 270.211L974.946 272.228L972.928 275.912Z" fill="#FEA7AF"/>
<path opacity="0.29" d="M925.701 108.144L923.727 104.505L920.044 102.487L923.727 100.47L925.701 96.8309L927.718 100.47L931.401 102.487L927.718 104.505L925.701 108.144Z" fill="#FEA7AF"/>
<path opacity="0.29" d="M259.249 382.465L257.232 378.782L253.548 376.764L257.232 374.791L259.249 371.108L261.222 374.791L264.906 376.764L261.222 378.782L259.249 382.465Z" fill="white"/>
<path opacity="0.2" d="M1261.12 243.638L1256.12 234.518L1246.96 229.519L1256.12 224.52L1261.12 215.355L1266.12 224.52L1275.24 229.519L1266.12 234.518L1261.12 243.638Z" fill="white"/>
<path d="M469.296 239.341L467.542 236.096L464.297 234.342L467.542 232.588L469.296 229.343L471.05 232.588L474.295 234.342L471.05 236.096L469.296 239.341Z" fill="white"/>
<path opacity="0.33" d="M668.381 225.879L666.101 221.714L661.935 219.434L666.101 217.153L668.381 212.988L670.662 217.153L674.784 219.434L670.662 221.714L668.381 225.879Z" fill="#FEA7AF"/>
<path opacity="0.33" d="M562.042 98.6289L559.762 94.4632L555.596 92.1831L559.762 89.9029L562.042 85.7372L564.278 89.9029L568.444 92.1831L564.278 94.4632L562.042 98.6289Z" fill="#FEA7AF"/>
<path opacity="0.33" d="M925.701 468.979L923.42 464.858L919.298 462.578L923.42 460.297L925.701 456.132L927.981 460.297L932.147 462.578L927.981 464.858L925.701 468.979Z" fill="#FEA7AF"/>
<path opacity="0.33" d="M6.44602 412.809L4.16566 408.643L-0.000128746 406.363L4.16566 404.083L6.44602 399.917L8.68234 404.083L12.8483 406.363L8.68234 408.643L6.44602 412.809Z" fill="#FEA7AF"/>
<path d="M235.218 577.55L130.896 481.74C130.761 481.609 130.653 481.452 130.58 481.279C130.506 481.106 130.468 480.919 130.468 480.731C130.468 480.543 130.506 480.357 130.58 480.184C130.653 480.01 130.761 479.854 130.896 479.723C131.166 479.46 131.528 479.313 131.905 479.313C132.281 479.313 132.643 479.46 132.913 479.723L240.524 571.806C240.911 572.145 241.228 572.557 241.455 573.019C241.682 573.48 241.816 573.982 241.849 574.496C241.882 575.009 241.812 575.524 241.645 576.011C241.478 576.497 241.216 576.946 240.875 577.331C240.529 577.735 240.104 578.062 239.625 578.294C239.147 578.525 238.626 578.655 238.094 578.676C237.563 578.696 237.034 578.607 236.539 578.413C236.044 578.22 235.594 577.926 235.218 577.55Z" fill="url(#paint1_linear_135_863)"/>
</g>
<defs>
<linearGradient id="paint0_linear_135_863" x1="-0.00069896" y1="446.007" x2="1928" y2="455.007" gradientUnits="userSpaceOnUse">
<stop stop-color="#8829A7"/>
<stop offset="1" stop-color="#DB3EBE"/>
</linearGradient>
<linearGradient id="paint1_linear_135_863" x1="130.527" y1="480.181" x2="240.456" y2="577.82" gradientUnits="userSpaceOnUse">
<stop offset="0.01" stop-color="#FEA7AF"/>
<stop offset="0.99" stop-color="#EA47AC" stop-opacity="0"/>
</linearGradient>
</defs>
</svg>
