<svg width="1920" height="979" viewBox="0 0 1920 979" fill="none" xmlns="http://www.w3.org/2000/svg">
<path opacity="0.1" fill-rule="evenodd" clip-rule="evenodd" d="M0.00074482 269.069C138.5 667.397 471.708 785.601 733.5 667.397C836.323 620.972 931.591 544.121 983.522 440.044C1035.56 335.743 1060.81 262.705 1115.5 248C1191.72 227.508 1267.29 291.936 1364.21 343.249C1522 426.79 1655.5 440.044 1920 0C1920 342.806 1920 636.194 1920 979C1280 979 640 979 0 979C0 636.194 0 611.876 0 269.07L0.00074482 269.069Z" fill="#9A2DAD"/>
<path opacity="0.2" fill-rule="evenodd" clip-rule="evenodd" d="M0.000743866 377.351C138.5 763.534 457.708 814.198 719.5 699.599C822.323 654.589 906.5 614.781 981 497.033C1033.04 395.912 1059.32 258.072 1114.02 243.815C1190.23 223.948 1267.29 327.603 1364.21 377.351C1522 458.345 1667.5 480.07 1920 46C1920 378.354 1920 646.646 1920 979C1280 979 640 979 0 979C0 646.646 0.000743866 709.705 0.000743866 377.351Z" fill="#9A2DAD"/>
<path fill-rule="evenodd" clip-rule="evenodd" d="M0.00074482 377.989C138.5 765 471.708 879.845 733.5 765C836.323 719.893 931.592 645.227 983.522 544.106C1035.56 442.768 1044.81 318.787 1099.5 304.5C1175.72 284.59 1267.29 400.207 1364.21 450.062C1522 531.229 1725.18 527.874 1920 67.5C1920 400.566 1920 645.934 1920 979C1280 979 640 979 0 979C0 645.934 0 711.057 0 377.99L0.00074482 377.989Z" fill="url(#paint0_linear_135_248)"/>
<mask id="mask0_135_248" style="mask-type:alpha" maskUnits="userSpaceOnUse" x="0" y="67" width="1921" height="912">
<path fill-rule="evenodd" clip-rule="evenodd" d="M0.000744816 377.989C138.5 765 471.708 879.845 733.5 765C836.323 719.893 931.592 645.227 983.522 544.106C1035.56 442.768 1044.81 318.787 1099.5 304.5C1175.72 284.59 1267.29 400.207 1364.21 450.062C1522 531.229 1725.18 527.874 1920 67.5C1920 400.566 1920 645.934 1920 979C1280 979 640 979 0 979C0 645.934 0 711.057 0 377.99L0.000744816 377.989Z" fill="#9A2DAD"/>
</mask>
<g mask="url(#mask0_135_248)">
<path d="M896.467 468.735L899.756 474.698L905.72 477.987L899.756 481.276L896.467 487.239L893.222 481.276L887.214 477.987L893.222 474.698L896.467 468.735Z" fill="#FEA7AF"/>
<path d="M1245.57 878.637L1247.72 882.584L1251.62 884.732L1247.72 886.837L1245.57 890.784L1243.42 886.837L1239.52 884.732L1243.42 882.584L1245.57 878.637Z" fill="#FEA7AF"/>
<path d="M1251.62 528.019L1253.77 531.921L1257.67 534.07L1253.77 536.219L1251.62 540.121L1249.47 536.219L1245.57 534.07L1249.47 531.921L1251.62 528.019Z" fill="#FEA7AF"/>
<path opacity="0.29" d="M218.132 351.175L220.236 355.077L224.183 357.226L220.236 359.374L218.132 363.277L215.983 359.374L212.08 357.226L215.983 355.077L218.132 351.175Z" fill="white"/>
<path opacity="0.29" d="M19.2221 431.112L21.3708 435.015L25.2735 437.163L21.3708 439.312L19.2221 443.214L17.0733 439.312L13.1706 437.163L17.0733 435.015L19.2221 431.112Z" fill="white"/>
<path opacity="0.29" d="M507.287 599.405L509.392 603.308L513.338 605.456L509.392 607.605L507.287 611.508L505.138 607.605L501.235 605.456L505.138 603.308L507.287 599.405Z" fill="white"/>
<path opacity="0.29" d="M707.424 696.444L711.634 704.161L719.396 708.414L711.634 712.624L707.424 720.385L703.171 712.624L695.409 708.414L703.171 704.161L707.424 696.444Z" fill="#FEA7AF"/>
<path opacity="0.29" d="M65.7044 274L69.958 281.761L77.6758 285.971L69.958 290.224L65.7044 297.942L61.4508 290.224L53.733 285.971L61.4508 281.761L65.7044 274Z" fill="white"/>
<path opacity="0.29" d="M1754.55 605.457L1758.8 613.218L1766.56 617.427L1758.8 621.681L1754.55 629.398L1750.34 621.681L1742.58 617.427L1750.34 613.218L1754.55 605.457Z" fill="white"/>
<path opacity="0.29" d="M109.971 905L114.225 912.761L121.987 916.971L114.225 921.224L109.971 928.942L105.762 921.224L98 916.971L105.762 912.761L109.971 905Z" fill="white"/>
<path opacity="0.29" d="M1847.97 345L1852.23 352.761L1859.99 356.971L1852.23 361.224L1847.97 368.942L1843.76 361.224L1836 356.971L1843.76 352.761L1847.97 345Z" fill="white"/>
<path opacity="0.29" d="M1430.66 534.465L1432.64 538.104L1436.32 540.121L1432.64 542.138L1430.66 545.822L1428.65 542.138L1424.96 540.121L1428.65 538.104L1430.66 534.465Z" fill="#FEA7AF"/>
<path opacity="0.29" d="M1660.75 885.083L1662.77 888.767L1666.45 890.784L1662.77 892.757L1660.75 896.44L1658.78 892.757L1655.09 890.784L1658.78 888.767L1660.75 885.083Z" fill="white"/>
<path opacity="0.29" d="M1047.14 657.9L1050.78 664.565L1057.45 668.205L1050.78 671.844L1047.14 678.553L1043.46 671.844L1036.79 668.205L1043.46 664.565L1047.14 657.9Z" fill="#FEA7AF"/>
<path d="M1542.57 673.554L1544.37 676.799L1547.57 678.553L1544.37 680.307L1542.57 683.552L1540.82 680.307L1537.57 678.553L1540.82 676.799L1542.57 673.554Z" fill="white"/>
<path opacity="0.33" d="M302.721 681.71L305.922 687.542L311.71 690.699L305.922 693.9L302.721 699.689L299.563 693.9L293.731 690.699L299.563 687.542L302.721 681.71Z" fill="#FEA7AF"/>
<path opacity="0.33" d="M1345.11 701.969L1347.39 706.134L1351.56 708.415L1347.39 710.695L1345.11 714.817L1342.83 710.695L1338.66 708.415L1342.83 706.134L1345.11 701.969Z" fill="#FEA7AF"/>
<path opacity="0.33" d="M994.299 798.569L996.58 802.69L1000.7 804.971L996.58 807.251L994.299 811.416L992.019 807.251L987.853 804.971L992.019 802.69L994.299 798.569Z" fill="#FEA7AF"/>
<path opacity="0.33" d="M1913.55 854.739L1915.83 858.905L1920 861.185L1915.83 863.465L1913.55 867.631L1911.32 863.465L1907.15 861.185L1911.32 858.905L1913.55 854.739Z" fill="#FEA7AF"/>
<path d="M420.549 718.675L591.832 875.962C592.261 876.411 592.5 877.008 592.5 877.629C592.5 878.249 592.261 878.846 591.832 879.295C591.412 879.755 590.831 880.034 590.21 880.075C589.589 880.116 588.976 879.915 588.5 879.514L411.91 728.234C411.262 727.687 410.73 727.016 410.345 726.261C409.96 725.505 409.73 724.68 409.669 723.834C409.608 722.989 409.716 722.139 409.988 721.336C410.26 720.533 410.69 719.792 411.253 719.158C411.817 718.494 412.512 717.952 413.293 717.566C414.075 717.18 414.927 716.958 415.797 716.913C416.667 716.868 417.538 717.001 418.355 717.304C419.172 717.607 419.919 718.073 420.549 718.675Z" fill="url(#paint1_linear_135_248)"/>
<path style="mix-blend-mode:screen" opacity="0.4" d="M355.398 832.92L460.334 929.389C460.47 929.523 460.579 929.684 460.653 929.861C460.727 930.038 460.765 930.227 460.765 930.419C460.765 930.611 460.727 930.801 460.653 930.978C460.579 931.155 460.47 931.315 460.334 931.45C460.056 931.715 459.687 931.863 459.303 931.863C458.919 931.863 458.55 931.715 458.273 931.45L350.355 838.796C349.961 838.457 349.639 838.042 349.408 837.577C349.176 837.111 349.04 836.604 349.008 836.086C348.975 835.567 349.046 835.047 349.217 834.556C349.388 834.065 349.656 833.613 350.004 833.227C350.695 832.5 351.638 832.063 352.64 832.006C353.642 831.949 354.628 832.276 355.398 832.92Z" fill="url(#paint2_linear_135_248)"/>
<g opacity="0.33">
<path d="M1335.37 535.78L1417.6 611.289C1417.79 611.513 1417.9 611.801 1417.9 612.1C1417.9 612.398 1417.79 612.687 1417.6 612.911C1417.38 613.118 1417.09 613.233 1416.78 613.233C1416.48 613.233 1416.19 613.118 1415.97 612.911L1331.3 540.384C1330.98 540.119 1330.73 539.795 1330.54 539.429C1330.36 539.064 1330.25 538.665 1330.22 538.257C1330.19 537.848 1330.24 537.438 1330.38 537.05C1330.51 536.662 1330.72 536.305 1330.99 535.999C1331.54 535.391 1332.32 535.026 1333.14 534.985C1333.96 534.944 1334.76 535.23 1335.37 535.78Z" fill="url(#paint3_linear_135_248)"/>
<path style="mix-blend-mode:screen" d="M1366.07 564.677L1416.5 610.938C1416.63 611.075 1416.7 611.255 1416.7 611.442C1416.7 611.629 1416.63 611.809 1416.5 611.946C1416.37 612.069 1416.2 612.138 1416.02 612.138C1415.84 612.138 1415.67 612.069 1415.53 611.946L1363.61 567.483C1363.44 567.308 1363.3 567.099 1363.2 566.87C1363.11 566.64 1363.06 566.394 1363.06 566.146C1363.06 565.897 1363.11 565.651 1363.2 565.421C1363.3 565.192 1363.44 564.983 1363.61 564.808C1363.94 564.488 1364.36 564.297 1364.82 564.273C1365.27 564.248 1365.72 564.392 1366.07 564.677Z" fill="url(#paint4_linear_135_248)"/>
</g>
<g opacity="0.35">
<path d="M74.2554 660.093L301.712 868.947C302.29 869.53 302.615 870.318 302.615 871.139C302.615 871.96 302.29 872.748 301.712 873.331C301.171 873.952 300.405 874.334 299.583 874.391C298.761 874.449 297.95 874.178 297.327 873.638L62.9418 672.765C62.0906 672.031 61.3934 671.136 60.8903 670.131C60.3873 669.126 60.0884 668.031 60.0109 666.909C59.9334 665.788 60.0789 664.663 60.439 663.598C60.799 662.533 61.3665 661.551 62.1086 660.707C62.859 659.858 63.7713 659.167 64.792 658.676C65.8128 658.185 66.9214 657.902 68.0529 657.845C69.1844 657.788 70.3158 657.957 71.3809 658.343C72.446 658.729 73.4233 659.324 74.2554 660.093Z" fill="url(#paint5_linear_135_248)"/>
<path style="mix-blend-mode:screen" d="M159.415 739.986L298.774 867.982C298.95 868.157 299.09 868.366 299.186 868.595C299.281 868.825 299.33 869.071 299.33 869.319C299.33 869.568 299.281 869.814 299.186 870.044C299.09 870.273 298.95 870.482 298.774 870.657C298.444 871.033 297.98 871.267 297.481 871.308C296.982 871.349 296.486 871.194 296.099 870.876L152.398 747.572C151.875 747.126 151.445 746.581 151.134 745.968C150.824 745.354 150.638 744.685 150.589 743.999C150.54 743.313 150.629 742.624 150.849 741.973C151.069 741.322 151.417 740.721 151.872 740.205C152.344 739.681 152.918 739.259 153.558 738.963C154.198 738.667 154.892 738.504 155.597 738.483C156.301 738.463 157.003 738.585 157.659 738.844C158.316 739.102 158.913 739.491 159.415 739.986Z" fill="url(#paint6_linear_135_248)"/>
<path d="M-3.40521 682.719L100.917 778.529C101.054 778.664 101.162 778.824 101.236 779.001C101.31 779.178 101.348 779.368 101.348 779.56C101.348 779.752 101.31 779.941 101.236 780.118C101.162 780.295 101.054 780.456 100.917 780.59C100.64 780.856 100.27 781.004 99.8865 781.004C99.5026 781.004 99.1335 780.856 98.856 780.59L-8.71122 688.507C-9.10155 688.171 -9.42156 687.761 -9.65284 687.301C-9.88411 686.841 -10.0221 686.34 -10.0587 685.827C-10.0954 685.313 -10.0301 684.797 -9.86659 684.309C-9.70305 683.821 -9.44451 683.37 -9.10588 682.982C-8.75557 682.58 -8.32736 682.253 -7.84713 682.021C-7.3669 681.789 -6.8446 681.656 -6.3118 681.632C-5.77899 681.607 -5.24673 681.691 -4.74716 681.878C-4.24759 682.064 -3.79108 682.351 -3.40521 682.719Z" fill="url(#paint7_linear_135_248)"/>
<path style="mix-blend-mode:screen" d="M35.5786 719.377L99.5138 778.266C99.668 778.442 99.753 778.668 99.753 778.902C99.753 779.136 99.668 779.362 99.5138 779.538C99.3378 779.692 99.1119 779.777 98.8779 779.777C98.644 779.777 98.418 779.692 98.2421 779.538L32.2459 722.972C32.0205 722.748 31.8416 722.482 31.7196 722.188C31.5975 721.895 31.5347 721.58 31.5347 721.262C31.5347 720.945 31.5975 720.63 31.7196 720.336C31.8416 720.043 32.0205 719.776 32.2459 719.552C32.6716 719.099 33.256 718.828 33.877 718.795C34.498 718.762 35.1076 718.971 35.5786 719.377Z" fill="url(#paint8_linear_135_248)"/>
</g>
<path d="M1684.78 689.998L1789.1 785.808C1789.24 785.939 1789.35 786.096 1789.42 786.269C1789.49 786.443 1789.53 786.629 1789.53 786.817C1789.53 787.005 1789.49 787.191 1789.42 787.365C1789.35 787.538 1789.24 787.695 1789.1 787.826C1788.83 788.088 1788.47 788.235 1788.1 788.235C1787.72 788.235 1787.36 788.088 1787.09 787.826L1679.48 695.742C1679.09 695.403 1678.77 694.991 1678.54 694.53C1678.32 694.068 1678.18 693.566 1678.15 693.053C1678.12 692.539 1678.19 692.024 1678.35 691.538C1678.52 691.051 1678.78 690.602 1679.12 690.217C1679.47 689.814 1679.9 689.486 1680.37 689.254C1680.85 689.023 1681.37 688.893 1681.91 688.872C1682.44 688.852 1682.97 688.941 1683.46 689.135C1683.96 689.328 1684.41 689.622 1684.78 689.998Z" fill="url(#paint9_linear_135_248)"/>
<path style="mix-blend-mode:screen" d="M1723.77 726.656L1787.7 785.37C1787.79 785.448 1787.85 785.543 1787.9 785.649C1787.95 785.754 1787.97 785.868 1787.97 785.984C1787.97 786.099 1787.95 786.214 1787.9 786.319C1787.85 786.425 1787.79 786.52 1787.7 786.598C1787.54 786.759 1787.32 786.848 1787.09 786.848C1786.86 786.848 1786.64 786.759 1786.47 786.598L1720.52 730.032C1720.3 729.812 1720.12 729.549 1720 729.259C1719.88 728.969 1719.81 728.658 1719.81 728.344C1719.81 728.03 1719.88 727.719 1720 727.429C1720.12 727.139 1720.3 726.876 1720.52 726.656C1720.95 726.233 1721.54 725.996 1722.14 725.996C1722.75 725.996 1723.33 726.233 1723.77 726.656Z" fill="url(#paint10_linear_135_248)"/>
</g>
<defs>
<linearGradient id="paint0_linear_135_248" x1="0" y1="523.25" x2="1920" y2="523.25" gradientUnits="userSpaceOnUse">
<stop stop-color="#8829A7"/>
<stop offset="1" stop-color="#DB3EBE"/>
</linearGradient>
<linearGradient id="paint1_linear_135_248" x1="592.154" y1="879.005" x2="411.703" y2="718.729" gradientUnits="userSpaceOnUse">
<stop offset="0.01" stop-color="#FEA7AF"/>
<stop offset="0.99" stop-color="#EA47AC" stop-opacity="0"/>
</linearGradient>
<linearGradient id="paint2_linear_135_248" x1="460.681" y1="930.989" x2="350.095" y2="832.768" gradientUnits="userSpaceOnUse">
<stop offset="0.01" stop-color="#FEA7AF"/>
<stop offset="0.99" stop-color="#EA47AC" stop-opacity="0"/>
</linearGradient>
<linearGradient id="paint3_linear_135_248" x1="1417.92" y1="612.452" x2="1331.27" y2="535.488" gradientUnits="userSpaceOnUse">
<stop offset="0.01" stop-color="#FEA7AF"/>
<stop offset="0.99" stop-color="#EA47AC" stop-opacity="0"/>
</linearGradient>
<linearGradient id="paint4_linear_135_248" x1="1416.81" y1="611.462" x2="1363.7" y2="564.288" gradientUnits="userSpaceOnUse">
<stop offset="0.01" stop-color="#FEA7AF"/>
<stop offset="0.99" stop-color="#EA47AC" stop-opacity="0"/>
</linearGradient>
<linearGradient id="paint5_linear_135_248" x1="302.061" y1="873.141" x2="62.4649" y2="660.333" gradientUnits="userSpaceOnUse">
<stop offset="0.01" stop-color="#FEA7AF"/>
<stop offset="0.99" stop-color="#EA47AC" stop-opacity="0"/>
</linearGradient>
<linearGradient id="paint6_linear_135_248" x1="298.946" y1="870.375" x2="152.133" y2="739.976" gradientUnits="userSpaceOnUse">
<stop offset="0.01" stop-color="#FEA7AF"/>
<stop offset="0.99" stop-color="#EA47AC" stop-opacity="0"/>
</linearGradient>
<linearGradient id="paint7_linear_135_248" x1="101.211" y1="780.272" x2="-8.71826" y2="682.632" gradientUnits="userSpaceOnUse">
<stop offset="0.01" stop-color="#FEA7AF"/>
<stop offset="0.99" stop-color="#EA47AC" stop-opacity="0"/>
</linearGradient>
<linearGradient id="paint8_linear_135_248" x1="99.8017" y1="779.019" x2="32.4275" y2="719.178" gradientUnits="userSpaceOnUse">
<stop offset="0.01" stop-color="#FEA7AF"/>
<stop offset="0.99" stop-color="#EA47AC" stop-opacity="0"/>
</linearGradient>
<linearGradient id="paint9_linear_135_248" x1="1789.47" y1="787.367" x2="1679.54" y2="689.728" gradientUnits="userSpaceOnUse">
<stop offset="0.01" stop-color="#FEA7AF"/>
<stop offset="0.99" stop-color="#EA47AC" stop-opacity="0"/>
</linearGradient>
<linearGradient id="paint10_linear_135_248" x1="1788.06" y1="786.115" x2="1720.69" y2="726.274" gradientUnits="userSpaceOnUse">
<stop offset="0.01" stop-color="#FEA7AF"/>
<stop offset="0.99" stop-color="#EA47AC" stop-opacity="0"/>
</linearGradient>
</defs>
</svg>
