<svg width="1920" height="834" viewBox="0 0 1920 834" fill="none" xmlns="http://www.w3.org/2000/svg">
<path opacity="0.1" d="M0 0H1920V729.5C1920 729.5 1387 456.5 970.5 689.5C554 922.5 0 729.5 0 729.5V0Z" fill="#9A2DAD"/>
<path opacity="0.1" d="M0 0H1920V747.5C1920 747.5 1456 445.5 1034 705.5C612 965.5 0 747.5 0 747.5L0 0Z" fill="#9A2DAD"/>
<path d="M0 0H1920V681.5C1920 681.5 1372 473.5 960 681.5C548 889.5 0 681.5 0 681.5L0 0Z" fill="url(#paint0_linear_135_517)"/>
<mask id="mask0_135_517" style="mask-type:alpha" maskUnits="userSpaceOnUse" x="0" y="0" width="1920" height="774">
<path d="M0 0.5H1920V681.5C1920 681.5 1372 473.5 960 681.5C548 889.5 0 681.5 0 681.5L0 0.5Z" fill="#9A2DAD"/>
</mask>
<g mask="url(#mask0_135_517)">
<path d="M1245.57 444.137L1247.72 448.084L1251.62 450.232L1247.72 452.337L1245.57 456.283L1243.42 452.337L1239.52 450.232L1243.42 448.084L1245.57 444.137Z" fill="#FEA7AF"/>
<path d="M1251.62 93.5188L1253.77 97.4214L1257.67 99.57L1253.77 101.719L1251.62 105.621L1249.47 101.719L1245.57 99.57L1249.47 97.4214L1251.62 93.5188Z" fill="#FEA7AF"/>
<path d="M373.453 614.009L375.602 617.912L379.504 620.06L375.602 622.209L373.453 626.112L371.348 622.209L367.401 620.06L371.348 617.912L373.453 614.009Z" fill="#FEA7AF"/>
<path opacity="0.29" d="M25.0514 7.5L27.2001 11.4026L31.1029 13.5512L27.2001 15.6998L25.0514 19.6024L22.9027 15.6998L19 13.5512L22.9027 11.4026L25.0514 7.5Z" fill="white"/>
<path opacity="0.29" d="M507.287 164.905L509.392 168.808L513.338 170.956L509.392 173.105L507.287 177.008L505.138 173.105L501.235 170.956L505.138 168.808L507.287 164.905Z" fill="white"/>
<path opacity="0.29" d="M707.424 261.944L711.634 269.661L719.396 273.915L711.634 278.124L707.424 285.886L703.171 278.124L695.409 273.915L703.171 269.661L707.424 261.944Z" fill="#FEA7AF"/>
<path opacity="0.29" d="M1754.55 170.957L1758.8 178.718L1766.56 182.927L1758.8 187.181L1754.55 194.898L1750.34 187.181L1742.58 182.927L1750.34 178.718L1754.55 170.957Z" fill="white"/>
<path opacity="0.29" d="M109.971 470.5L114.225 478.261L121.987 482.471L114.225 486.724L109.971 494.442L105.762 486.724L98 482.471L105.762 478.261L109.971 470.5Z" fill="white"/>
<path opacity="0.29" d="M1719.78 749.284L1724.03 757.046L1731.75 761.255L1724.03 765.508L1719.78 773.226L1715.57 765.508L1707.8 761.255L1715.57 757.046L1719.78 749.284Z" fill="white"/>
<path opacity="0.29" d="M88.9018 602.258L90.9189 605.941L94.6024 607.958L90.9189 609.931L88.9018 613.615L86.9285 609.931L83.2449 607.958L86.9285 605.941L88.9018 602.258Z" fill="white"/>
<path opacity="0.29" d="M947.071 557.137L949.089 560.82L952.772 562.837L949.089 564.854L947.071 568.494L945.054 564.854L941.415 562.837L945.054 560.82L947.071 557.137Z" fill="#FEA7AF"/>
<path opacity="0.29" d="M994.299 724.904L996.273 728.544L999.956 730.561L996.273 732.578L994.299 736.217L992.282 732.578L988.599 730.561L992.282 728.544L994.299 724.904Z" fill="#FEA7AF"/>
<path opacity="0.29" d="M1430.66 99.9646L1432.64 103.604L1436.32 105.621L1432.64 107.638L1430.66 111.322L1428.65 107.638L1424.96 105.621L1428.65 103.604L1430.66 99.9646Z" fill="#FEA7AF"/>
<path opacity="0.29" d="M1660.75 450.583L1662.77 454.266L1666.45 456.283L1662.77 458.257L1660.75 461.94L1658.78 458.257L1655.09 456.283L1658.78 454.266L1660.75 450.583Z" fill="white"/>
<path opacity="0.29" d="M1047.14 223.4L1050.78 230.065L1057.45 233.705L1050.78 237.344L1047.14 244.053L1043.46 237.344L1036.79 233.705L1043.46 230.065L1047.14 223.4Z" fill="#FEA7AF"/>
<path opacity="0.2" d="M658.881 589.41L663.88 598.531L673.045 603.529L663.88 608.528L658.881 617.693L653.882 608.528L644.761 603.529L653.882 598.531L658.881 589.41Z" fill="white"/>
<path d="M1450.7 593.707L1452.46 596.952L1455.7 598.706L1452.46 600.46L1450.7 603.705L1448.95 600.46L1445.7 598.706L1448.95 596.952L1450.7 593.707Z" fill="white"/>
<path d="M1542.57 239.054L1544.37 242.299L1547.57 244.053L1544.37 245.807L1542.57 249.052L1540.82 245.807L1537.57 244.053L1540.82 242.299L1542.57 239.054Z" fill="white"/>
<path opacity="0.33" d="M302.721 247.21L305.922 253.042L311.71 256.2L305.922 259.401L302.721 265.189L299.563 259.401L293.731 256.2L299.563 253.042L302.721 247.21Z" fill="#FEA7AF"/>
<path opacity="0.33" d="M1251.62 607.169L1253.9 611.335L1258.06 613.615L1253.9 615.895L1251.62 620.061L1249.34 615.895L1245.22 613.615L1249.34 611.335L1251.62 607.169Z" fill="#FEA7AF"/>
<path opacity="0.33" d="M1357.96 734.419L1360.24 738.585L1364.4 740.865L1360.24 743.145L1357.96 747.311L1355.72 743.145L1351.56 740.865L1355.72 738.585L1357.96 734.419Z" fill="#FEA7AF"/>
<path opacity="0.33" d="M1345.11 267.469L1347.39 271.634L1351.56 273.915L1347.39 276.195L1345.11 280.317L1342.83 276.195L1338.66 273.915L1342.83 271.634L1345.11 267.469Z" fill="#FEA7AF"/>
<path opacity="0.33" d="M994.299 364.069L996.58 368.19L1000.7 370.471L996.58 372.751L994.299 376.916L992.019 372.751L987.853 370.471L992.019 368.19L994.299 364.069Z" fill="#FEA7AF"/>
<path opacity="0.33" d="M1913.55 420.239L1915.83 424.405L1920 426.685L1915.83 428.965L1913.55 433.131L1911.32 428.965L1907.15 426.685L1911.32 424.405L1913.55 420.239Z" fill="#FEA7AF"/>
<g opacity="0.33">
<path d="M1335.37 101.28L1417.6 176.788C1417.79 177.013 1417.9 177.301 1417.9 177.6C1417.9 177.898 1417.79 178.187 1417.6 178.411C1417.38 178.617 1417.09 178.732 1416.78 178.732C1416.48 178.732 1416.19 178.617 1415.97 178.411L1331.3 105.884C1330.98 105.619 1330.73 105.295 1330.54 104.929C1330.36 104.564 1330.25 104.165 1330.22 103.756C1330.19 103.348 1330.24 102.938 1330.38 102.55C1330.51 102.162 1330.72 101.805 1330.99 101.499C1331.54 100.891 1332.32 100.526 1333.14 100.485C1333.96 100.444 1334.76 100.73 1335.37 101.28Z" fill="url(#paint1_linear_135_517)"/>
<path style="mix-blend-mode:screen" d="M1366.07 130.177L1416.5 176.438C1416.63 176.575 1416.7 176.755 1416.7 176.942C1416.7 177.129 1416.63 177.309 1416.5 177.446C1416.37 177.57 1416.2 177.638 1416.02 177.638C1415.84 177.638 1415.67 177.57 1415.53 177.446L1363.61 132.983C1363.44 132.808 1363.3 132.599 1363.2 132.37C1363.11 132.14 1363.06 131.894 1363.06 131.646C1363.06 131.397 1363.11 131.151 1363.2 130.921C1363.3 130.692 1363.44 130.484 1363.61 130.308C1363.94 129.988 1364.36 129.797 1364.82 129.773C1365.27 129.748 1365.72 129.892 1366.07 130.177Z" fill="url(#paint2_linear_135_517)"/>
</g>
<path d="M1684.78 255.498L1789.1 351.309C1789.24 351.439 1789.35 351.596 1789.42 351.769C1789.49 351.943 1789.53 352.129 1789.53 352.317C1789.53 352.505 1789.49 352.692 1789.42 352.865C1789.35 353.038 1789.24 353.195 1789.1 353.326C1788.83 353.588 1788.47 353.735 1788.1 353.735C1787.72 353.735 1787.36 353.588 1787.09 353.326L1679.48 261.242C1679.09 260.903 1678.77 260.491 1678.54 260.03C1678.32 259.568 1678.18 259.066 1678.15 258.553C1678.12 258.039 1678.19 257.524 1678.35 257.038C1678.52 256.551 1678.78 256.102 1679.12 255.717C1679.47 255.314 1679.9 254.986 1680.37 254.755C1680.85 254.523 1681.37 254.393 1681.91 254.373C1682.44 254.352 1682.97 254.441 1683.46 254.635C1683.96 254.829 1684.41 255.122 1684.78 255.498Z" fill="url(#paint3_linear_135_517)"/>
</g>
<defs>
<linearGradient id="paint0_linear_135_517" x1="0" y1="386.972" x2="1920" y2="386.972" gradientUnits="userSpaceOnUse">
<stop stop-color="#8829A7"/>
<stop offset="1" stop-color="#DB3EBE"/>
</linearGradient>
<linearGradient id="paint1_linear_135_517" x1="1417.92" y1="177.952" x2="1331.27" y2="100.988" gradientUnits="userSpaceOnUse">
<stop offset="0.01" stop-color="#FEA7AF"/>
<stop offset="0.99" stop-color="#EA47AC" stop-opacity="0"/>
</linearGradient>
<linearGradient id="paint2_linear_135_517" x1="1416.81" y1="176.962" x2="1363.7" y2="129.788" gradientUnits="userSpaceOnUse">
<stop offset="0.01" stop-color="#FEA7AF"/>
<stop offset="0.99" stop-color="#EA47AC" stop-opacity="0"/>
</linearGradient>
<linearGradient id="paint3_linear_135_517" x1="1789.47" y1="352.867" x2="1679.54" y2="255.228" gradientUnits="userSpaceOnUse">
<stop offset="0.01" stop-color="#FEA7AF"/>
<stop offset="0.99" stop-color="#EA47AC" stop-opacity="0"/>
</linearGradient>
</defs>
</svg>
