<svg width="320" height="687" viewBox="0 0 320 687" fill="none" xmlns="http://www.w3.org/2000/svg">
<path d="M372 687.151H-146V47.1509C-146 47.1509 1.84583 103.268 113 47.1509C224.154 -8.96579 372 47.1509 372 47.1509V687.151Z" fill="url(#paint0_linear_339_928)"/>
<mask id="mask0_339_928" style="mask-type:alpha" maskUnits="userSpaceOnUse" x="-146" y="22" width="518" height="666">
<path d="M372 687.151H-146V47.1509C-146 47.1509 1.84583 103.268 113 47.1509C224.154 -8.96579 372 47.1509 372 47.1509V687.151Z" fill="url(#paint1_linear_339_928)"/>
</mask>
<g mask="url(#mask0_339_928)">
<path opacity="0.29" d="M91.0508 242.557L92.6198 245.466L95.5616 247.068L92.6198 248.669L91.0508 251.578L89.4492 248.669L86.54 247.068L89.4492 245.466L91.0508 242.557Z" fill="white"/>
<path opacity="0.29" d="M240.234 314.89L243.371 320.643L249.157 323.813L243.371 326.951L240.234 332.736L237.063 326.951L231.277 323.813L237.063 320.643L240.234 314.89Z" fill="#FEA7AF"/>
<path opacity="0.2" d="M204.049 558.983L207.775 565.782L214.606 569.508L207.775 573.234L204.049 580.065L200.322 573.234L193.523 569.508L200.322 565.782L204.049 558.983Z" fill="white"/>
<path d="M26.3968 331.462L154.071 448.704C154.391 449.038 154.569 449.483 154.569 449.946C154.569 450.408 154.391 450.853 154.071 451.188C153.758 451.53 153.325 451.739 152.862 451.769C152.399 451.799 151.942 451.65 151.587 451.351L19.9575 338.587C19.4744 338.179 19.0777 337.679 18.7908 337.116C18.5038 336.553 18.3325 335.938 18.2868 335.307C18.2411 334.677 18.322 334.044 18.5247 333.445C18.7275 332.846 19.0479 332.294 19.4672 331.821C19.8882 331.326 20.4057 330.923 20.9882 330.635C21.5706 330.347 22.2057 330.182 22.8545 330.148C23.5033 330.114 24.1521 330.213 24.7612 330.439C25.3703 330.665 25.9268 331.013 26.3968 331.462V331.462Z" fill="url(#paint2_linear_339_928)"/>
<path style="mix-blend-mode:screen" opacity="0.4" d="M-22.1668 416.62L56.0527 488.527C56.1545 488.628 56.2353 488.747 56.2905 488.879C56.3456 489.011 56.374 489.152 56.374 489.295C56.374 489.438 56.3456 489.58 56.2905 489.712C56.2353 489.844 56.1545 489.963 56.0527 490.063V490.063C55.8458 490.261 55.5707 490.372 55.2845 490.372C54.9983 490.372 54.7232 490.261 54.5164 490.063L-25.9258 420.999C-26.2193 420.747 -26.4592 420.437 -26.6317 420.091C-26.8041 419.744 -26.9054 419.366 -26.9298 418.979C-26.9542 418.592 -26.901 418.205 -26.7735 417.839C-26.646 417.473 -26.4467 417.136 -26.1873 416.848V416.848C-25.6719 416.306 -24.9692 415.981 -24.2223 415.938C-23.4754 415.896 -22.7404 416.139 -22.1668 416.62Z" fill="url(#paint3_linear_339_928)"/>
</g>
<path opacity="0.1" d="M320 252.151H-198V33.08C-198 33.08 -54.201 106.733 58.1672 43.8717C170.535 -18.9897 320 33.08 320 33.08L320 252.151Z" fill="#9A2DAD"/>
<path opacity="0.1" d="M320 242.151H-198V23.08C-198 23.08 -72.8167 104.557 41.0354 34.4113C154.888 -35.7345 320 23.08 320 23.08L320 242.151Z" fill="#9A2DAD"/>
<defs>
<linearGradient id="paint0_linear_339_928" x1="-146" y1="577.988" x2="374.169" y2="578.444" gradientUnits="userSpaceOnUse">
<stop stop-color="#8829A7"/>
<stop offset="1" stop-color="#DB3EBE"/>
</linearGradient>
<linearGradient id="paint1_linear_339_928" x1="-146" y1="577.988" x2="374.169" y2="578.444" gradientUnits="userSpaceOnUse">
<stop stop-color="#8829A7"/>
<stop offset="1" stop-color="#DB3EBE"/>
</linearGradient>
<linearGradient id="paint2_linear_339_928" x1="154.311" y1="450.972" x2="19.8027" y2="331.502" gradientUnits="userSpaceOnUse">
<stop offset="0.01" stop-color="#FEA7AF"/>
<stop offset="0.99" stop-color="#EA47AC" stop-opacity="0"/>
</linearGradient>
<linearGradient id="paint3_linear_339_928" x1="56.3114" y1="489.72" x2="-26.1191" y2="416.506" gradientUnits="userSpaceOnUse">
<stop offset="0.01" stop-color="#FEA7AF"/>
<stop offset="0.99" stop-color="#EA47AC" stop-opacity="0"/>
</linearGradient>
</defs>
</svg>
