<svg width="218" height="218" viewBox="0 0 218 218" fill="none" xmlns="http://www.w3.org/2000/svg">
<g filter="url(#filter0_d_135_323)">
<path d="M160.666 124.334C169.135 95.7992 152.868 65.8023 124.334 57.3337C95.7992 48.8651 65.8023 65.1318 57.3337 93.6663C48.8651 122.201 65.1318 152.198 93.6663 160.666C122.201 169.135 152.198 152.868 160.666 124.334Z" fill="url(#paint0_linear_135_323)"/>
</g>
<path d="M120.205 67.5929C120.098 63.8029 126.041 63.1889 133.477 66.2513C140.913 69.3136 147.03 74.8924 147.121 78.6976C147.212 82.5027 141.285 83.1016 133.849 80.0392C126.413 76.9769 120.318 71.3829 120.205 67.5929Z" fill="url(#paint1_radial_135_323)"/>
<path d="M132.206 112.176C130.623 110.45 128.195 109.258 124.924 108.601C129.16 106.878 131.082 103.929 130.691 99.7547C130.563 98.2409 130.087 96.9274 129.259 95.8121C128.431 94.6966 127.298 93.7976 125.853 93.115C124.41 92.4315 122.835 91.909 121.131 91.5461C119.426 91.1831 117.465 90.9163 115.249 90.7461L115.486 82.0814L108.993 82.0522L108.762 90.4762C107.638 90.4711 105.923 90.4863 103.617 90.5219L103.849 82.0291L97.3556 82L97.1181 90.6647C96.1896 90.6836 94.8261 90.6891 93.0271 90.681L84.0891 90.6063L83.9346 96.2453L88.6146 96.2663C90.7511 96.2759 91.9806 97.061 92.3033 98.6212L92.0328 108.489C92.3143 108.491 92.5386 108.504 92.7068 108.527L92.0319 108.524L91.653 122.346C91.3964 123.514 90.5653 124.095 89.1596 124.089L84.4798 124.068L83 130.354L91.4333 130.392C91.9674 130.394 92.7398 130.404 93.752 130.418C94.7634 130.435 95.522 130.444 96.0281 130.446L95.7878 139.214L102.283 139.243L102.52 130.578C103.7 130.607 105.414 130.626 107.663 130.636L107.426 139.266L113.92 139.295L114.16 130.527C116.468 130.446 118.517 130.284 120.309 130.039C122.101 129.794 123.82 129.407 125.464 128.875C127.109 128.344 128.491 127.68 129.609 126.882C130.727 126.086 131.661 125.069 132.413 123.834C133.163 122.599 133.659 121.169 133.9 119.542C134.354 116.358 133.789 113.902 132.206 112.176ZM103.573 96.7106C103.77 96.7115 104.326 96.7082 105.239 96.7008C106.154 96.6931 106.913 96.6851 107.517 96.6763C108.122 96.6677 108.937 96.7 109.961 96.7734C110.985 96.8468 111.847 96.9425 112.546 97.0601C113.246 97.1776 114.014 97.3703 114.85 97.6377C115.687 97.9049 116.352 98.229 116.847 98.6094C117.343 98.9898 117.758 99.4733 118.093 100.059C118.429 100.646 118.586 101.317 118.566 102.073C118.548 102.715 118.406 103.299 118.139 103.825C117.872 104.351 117.479 104.791 116.964 105.144C116.449 105.497 115.919 105.805 115.378 106.066C114.837 106.327 114.149 106.536 113.316 106.692C112.482 106.849 111.755 106.972 111.135 107.061C110.514 107.15 109.739 107.209 108.81 107.239C107.881 107.27 107.178 107.29 106.7 107.299C106.221 107.308 105.568 107.305 104.739 107.29C103.909 107.275 103.425 107.267 103.284 107.266L103.573 96.7106ZM120.663 120.205C120.381 120.731 120.024 121.189 119.592 121.577C119.16 121.964 118.595 122.305 117.898 122.6C117.202 122.895 116.527 123.132 115.876 123.313C115.224 123.494 114.439 123.65 113.523 123.784C112.604 123.918 111.801 124.011 111.11 124.066C110.42 124.12 109.597 124.162 108.64 124.192C107.683 124.222 106.938 124.236 106.404 124.233C105.869 124.231 105.195 124.222 104.38 124.207C103.565 124.193 103.045 124.184 102.82 124.183L103.139 112.561C103.363 112.562 104.031 112.554 105.142 112.536C106.254 112.518 107.16 112.511 107.863 112.514C108.566 112.517 109.535 112.555 110.77 112.63C112.005 112.704 113.042 112.811 113.882 112.953C114.722 113.094 115.636 113.31 116.626 113.602C117.616 113.892 118.415 114.245 119.023 114.661C119.63 115.077 120.135 115.606 120.539 116.25C120.944 116.893 121.135 117.628 121.112 118.453C121.094 119.096 120.945 119.679 120.663 120.205Z" fill="white"/>
<defs>
<filter id="filter0_d_135_323" x="0.717171" y="0.717201" width="216.566" height="216.566" filterUnits="userSpaceOnUse" color-interpolation-filters="sRGB">
<feFlood flood-opacity="0" result="BackgroundImageFix"/>
<feColorMatrix in="SourceAlpha" type="matrix" values="0 0 0 0 0 0 0 0 0 0 0 0 0 0 0 0 0 0 127 0" result="hardAlpha"/>
<feOffset/>
<feGaussianBlur stdDeviation="27.1875"/>
<feComposite in2="hardAlpha" operator="out"/>
<feColorMatrix type="matrix" values="0 0 0 0 0 0 0 0 0 0 0 0 0 0 0 0 0 0 0.1 0"/>
<feBlend mode="normal" in2="BackgroundImageFix" result="effect1_dropShadow_135_323"/>
<feBlend mode="normal" in="SourceGraphic" in2="effect1_dropShadow_135_323" result="shape"/>
</filter>
<linearGradient id="paint0_linear_135_323" x1="70.884" y1="147.131" x2="147.108" y2="70.9143" gradientUnits="userSpaceOnUse">
<stop stop-color="#E366DE"/>
<stop offset="0.520833" stop-color="#AB36B8"/>
<stop offset="1" stop-color="#E366DE"/>
</linearGradient>
<radialGradient id="paint1_radial_135_323" cx="0" cy="0" r="1" gradientUnits="userSpaceOnUse" gradientTransform="translate(141.652 81.1875) rotate(-157.636) scale(14.559 6.3157)">
<stop offset="0.24" stop-color="white" stop-opacity="0.98"/>
<stop offset="0.34" stop-color="white" stop-opacity="0.76"/>
<stop offset="0.43" stop-color="white" stop-opacity="0.55"/>
<stop offset="0.52" stop-color="white" stop-opacity="0.38"/>
<stop offset="0.62" stop-color="white" stop-opacity="0.25"/>
<stop offset="0.71" stop-color="white" stop-opacity="0.14"/>
<stop offset="0.8" stop-color="white" stop-opacity="0.06"/>
<stop offset="0.9" stop-color="white" stop-opacity="0.02"/>
<stop offset="1" stop-color="white" stop-opacity="0"/>
</radialGradient>
</defs>
</svg>
