<svg width="155" height="155" viewBox="0 0 155 155" fill="none" xmlns="http://www.w3.org/2000/svg">
<g opacity="0.6" filter="url(#filter0_f_135_319)">
<g filter="url(#filter1_d_135_319)">
<path d="M70.9569 99.368C83.0569 102.959 95.777 96.0613 99.368 83.9613C102.959 71.8613 96.0613 59.1412 83.9613 55.5501C71.8613 51.9591 59.1412 58.8569 55.5502 70.9569C51.9591 83.0568 58.8569 95.7769 70.9569 99.368Z" fill="url(#paint0_linear_135_319)"/>
</g>
<path d="M95.2398 82.4128C96.8469 82.3678 97.1073 84.8878 95.8087 88.041C94.5102 91.1942 92.1445 93.7881 90.5309 93.8267C88.9174 93.8652 88.6634 91.3517 89.962 88.1985C91.2606 85.0453 93.6327 82.461 95.2398 82.4128Z" fill="url(#paint1_radial_135_319)"/>
<mask id="path-3-outside-1_135_319" maskUnits="userSpaceOnUse" x="65.7981" y="64.8846" width="25" height="25" fill="black">
<rect fill="white" x="65.7981" y="64.8846" width="25" height="25"/>
<path d="M66.4408 75.1586L66.4408 79.8785L68.4783 81.5308C68.4805 81.5326 68.4824 81.5346 68.484 81.5369L71.8755 86.1375L75.8418 87.9673L81.396 87.4433L88.4383 87.9623L82.8964 81.4316C82.8914 81.4257 82.8886 81.4182 82.8886 81.4104L82.8886 73.9744C82.8886 73.9659 82.892 73.9576 82.8979 73.9515L88.6903 67.997L81.6027 67.7083L76.0454 66.9511L71.9053 68.6934L68.6315 73.7297C68.629 73.7336 68.6257 73.7369 68.6219 73.7394L66.4408 75.1586ZM66.3749 79.8941L66.3749 75.1408C66.3749 75.1298 66.3806 75.1195 66.3899 75.1133L68.58 73.6883L71.8555 68.6492C71.8591 68.6437 71.8643 68.6394 71.8704 68.6368L76.0281 66.8872C76.0335 66.8849 76.0395 66.8841 76.0453 66.8849L81.6084 67.643L88.7665 67.9344C88.7795 67.9349 88.7909 67.943 88.7958 67.955C88.8004 67.967 88.7979 67.9807 88.7887 67.99L82.9545 73.9877L82.9545 81.3985L88.5392 87.9796C88.5478 87.9898 88.5495 88.004 88.5434 88.0158C88.5374 88.0275 88.5249 88.0345 88.5116 88.0336L81.3966 87.5087L75.8391 88.0335C75.8333 88.0341 75.8274 88.033 75.8222 88.0306L71.84 86.1935C71.835 86.1911 71.8306 86.1876 71.8273 86.1831L68.4335 81.5791L66.3871 79.9196C66.3794 79.9133 66.3749 79.904 66.3749 79.8941Z"/>
<path d="M75.1991 81.3521C75.1991 81.3393 75.2066 81.3275 75.2185 81.3222L82.8499 77.9072L75.585 73.6527C75.5736 73.646 75.5674 73.6331 75.5691 73.62C75.5709 73.6069 75.5804 73.5962 75.5932 73.5927L81.1817 72.1066L88.7492 67.9384C88.7651 67.9297 88.7852 67.9354 88.7939 67.9513C88.8028 67.9671 88.797 67.9871 88.7811 67.9959L81.2101 72.1659C81.2077 72.1672 81.2052 72.1682 81.2026 72.1689L75.6863 73.6359L82.9383 77.8829C82.949 77.8891 82.956 77.9005 82.9545 77.9129C82.9539 77.9251 82.9464 77.9361 82.9351 77.941L75.328 81.3451L81.3494 83.0411C81.3529 83.0421 81.3562 83.0436 81.3592 83.0457L88.5328 87.9739C88.5479 87.9841 88.5516 88.0045 88.5412 88.0195C88.5309 88.0344 88.5103 88.0381 88.4953 88.0278L81.3263 83.1028L75.223 81.3837C75.2097 81.3799 75.2001 81.3683 75.1991 81.3546C75.1991 81.3537 75.1991 81.3529 75.1991 81.3521Z"/>
<path d="M81.3749 67.7086L76.1548 70.7998L81.1632 72.0953L81.3749 67.7086ZM81.1434 83.0662L76.0113 84.1951L81.3631 87.416L81.1434 83.0662ZM76.1031 71.058L75.6341 73.6303C75.6327 73.6379 75.6288 73.6448 75.6227 73.6496L73.4179 75.4748L82.8735 77.8651L81.1679 72.1643L76.1017 70.8539L76.1031 71.058ZM73.5548 73.028L73.3855 75.4164L75.5715 73.6068L76.0377 71.0524L76.0365 70.8843L73.5548 73.028ZM73.494 80.0462L73.3809 82.2984L75.8705 84.1016L75.2027 81.3709L73.494 80.0462ZM75.8884 84.2221L72.6527 84.9288L75.6791 87.868L75.8884 84.2221ZM73.3656 82.3684L72.6331 84.8659L75.8451 84.1644L73.3656 82.3684ZM76.0085 66.9928L72.5576 70.2263L76.0357 70.7732L76.0085 66.9928ZM73.3526 75.526L70.2161 77.4604L82.6184 77.8683L73.3526 75.526ZM82.6579 77.9353L70.2101 77.5259L73.4719 79.9463L82.6579 77.9353ZM73.324 79.9183L70.1409 77.5564L70.188 79.2549L73.324 79.9183ZM73.4286 80.0354L69.6855 81.8574L73.316 82.2778L73.4286 80.0354ZM69.5372 81.877C69.5372 81.8646 69.5441 81.8531 69.5556 81.8475L73.364 79.9939L70.1489 79.3138C70.1339 79.3106 70.1232 79.2977 70.1227 79.2826L70.0732 77.491C70.0733 77.4872 70.0736 77.4833 70.0748 77.4796C70.0748 77.4796 70.0748 77.4795 70.0749 77.4794C70.0749 77.4793 70.0749 77.4792 70.075 77.4791C70.075 77.479 70.075 77.4789 70.075 77.4789C70.075 77.4789 70.075 77.4788 70.0751 77.4786C70.0751 77.4786 70.0752 77.4785 70.0752 77.4783C70.0753 77.4782 70.0753 77.4781 70.0753 77.4781C70.0773 77.4728 70.0807 77.468 70.0852 77.4643C70.0852 77.4643 70.0854 77.4644 70.0854 77.4641C70.0865 77.4632 70.0877 77.4623 70.0891 77.4616L73.3155 75.4717L73.49 73.0098C73.4906 73.0011 73.4947 72.9929 73.5013 72.9872L75.9951 70.8332L72.4809 70.2807C72.4685 70.2789 72.4583 70.27 72.4546 70.258C72.4508 70.2462 72.4543 70.233 72.4635 70.2245L76.0183 66.8935C76.0278 66.8845 76.0418 66.8821 76.0538 66.8873C76.0659 66.8924 76.0737 66.9041 76.0738 66.9171L76.1009 70.7554L81.3939 67.621C81.4043 67.6149 81.4173 67.6149 81.4277 67.6211C81.4381 67.6274 81.4446 67.6391 81.4436 67.6508L81.2277 72.1249L82.9456 73.9519C82.958 73.9652 82.9574 73.9859 82.9441 73.9983C82.9309 74.0107 82.91 74.01 82.8975 73.9968L81.2656 72.2612L82.953 77.9011C82.9537 77.9033 82.9541 77.9057 82.9544 77.9081C82.9549 77.9155 82.9533 77.9224 82.9497 77.9282L82.9497 77.9282L82.9497 77.9283C82.9497 77.9283 82.9497 77.9283 82.9496 77.9284C82.9496 77.9284 82.9495 77.9286 82.9495 77.9286L82.9495 77.9286C82.9491 77.9293 82.9486 77.9299 82.9482 77.9305C82.9481 77.9306 82.9481 77.9306 82.9481 77.9306C82.9479 77.9308 82.9479 77.9309 82.9478 77.931C82.9478 77.9311 82.9478 77.9311 82.9477 77.9311C82.9477 77.9312 82.9477 77.9312 82.9476 77.9312L82.9476 77.9313C82.9431 77.937 82.9367 77.9413 82.9291 77.943C82.9291 77.9431 82.9291 77.9431 82.929 77.9431C82.9289 77.9431 82.9288 77.9431 82.9287 77.9431L73.5399 79.9986L75.2523 81.3263C75.2581 81.3308 75.2622 81.3372 75.264 81.3443L75.9482 84.1418L81.1673 82.9938C81.1767 82.9917 81.1866 82.9939 81.1943 82.9998C81.202 83.0056 81.2067 83.0145 81.2072 83.0242L81.432 87.4742C81.4333 87.4876 81.4264 87.4979 81.4161 87.5041C81.4055 87.5103 81.3925 87.5102 81.3821 87.504L75.9536 84.237L75.7407 87.9436C75.74 87.9565 75.7317 87.9677 75.7197 87.9724C75.7077 87.977 75.694 87.9742 75.6848 87.9653L72.5932 84.9626L71.8824 86.1801C71.8732 86.1958 71.853 86.2012 71.8373 86.1921C71.8216 86.1829 71.8164 86.1628 71.8253 86.1472L72.5554 84.8967L73.3046 82.3426L69.5663 81.9096C69.5518 81.9079 69.5401 81.8969 69.5376 81.8826C69.5373 81.8806 69.5372 81.8788 69.5372 81.877Z"/>
<path d="M72.4665 70.3059L69.8818 73.3507L73.477 72.9838L72.4665 70.3059ZM69.799 73.4262L68.6549 73.7322L70.0842 76.0667L73.2554 75.4745L69.799 73.4262ZM68.5709 73.7119C68.5709 73.7078 68.5717 73.7037 68.5733 73.6997C68.5771 73.6902 68.5854 73.6829 68.5953 73.6802L69.7859 73.3621L72.4399 70.2356L71.8524 68.6786C71.8458 68.6618 71.8546 68.6427 71.8717 68.6363C71.8887 68.6299 71.9077 68.6385 71.914 68.6555L72.4887 70.1782L72.5022 70.1622C72.514 70.1484 72.5348 70.1466 72.5486 70.1584C72.5625 70.1701 72.5642 70.1908 72.5525 70.2046L72.5152 70.2486L73.5537 73.0005C73.5573 73.0099 73.5562 73.0206 73.5509 73.0293C73.5455 73.038 73.5364 73.0437 73.5262 73.0447L69.9068 73.4137L73.364 75.4626C73.3758 75.4695 73.3819 75.4829 73.3796 75.4965C73.3772 75.5099 73.3667 75.5205 73.3532 75.523L70.0739 76.1354C70.0604 76.1378 70.0469 76.1318 70.0397 76.1202L68.5758 73.729C68.5725 73.7238 68.5709 73.7178 68.5709 73.7119Z"/>
<path d="M70.0895 79.4252L68.5122 81.5379L69.5456 81.8358L70.0895 79.4252ZM70.0366 76.1642L68.0728 77.5053L70.1208 79.2098L70.0366 76.1642ZM67.9853 77.5028C67.9853 77.5022 67.9853 77.5017 67.9854 77.5013C67.9859 77.491 67.9911 77.4815 67.9996 77.4757L70.0492 76.0761C70.0592 76.0693 70.0721 76.0685 70.0828 76.0739C70.0935 76.0793 70.1005 76.0902 70.1008 76.1022L70.1886 79.2805C70.1888 79.2835 70.1883 79.2865 70.1876 79.2895L69.6061 81.8667L72.6093 84.8867C72.6222 84.8997 72.6219 84.9204 72.609 84.9331C72.5961 84.9459 72.5753 84.9458 72.5625 84.9329L69.5527 81.9062L68.4483 81.5877C68.4379 81.5848 68.4297 81.5769 68.4263 81.5667C68.4229 81.5565 68.4247 81.5453 68.431 81.5366L70.1107 79.287L67.9971 77.528C67.9896 77.5217 67.9853 77.5125 67.9853 77.5028Z"/>
<path d="M69.7714 73.3911C69.7714 73.3744 69.7841 73.3601 69.8012 73.3585C69.8193 73.3567 69.8353 73.3699 69.8372 73.388L70.1007 76.1C70.1015 76.1167 70.0891 76.134 70.071 76.1358C70.053 76.1375 70.0369 76.1243 70.0351 76.1063L69.7715 73.3943C69.7715 73.3932 69.7714 73.3922 69.7714 73.3911Z"/>
<path d="M66.3749 79.8941C66.3749 79.8877 66.3767 79.8814 66.3806 79.8758L67.9853 77.4928L67.9853 74.093C67.9853 74.0748 68.0001 74.0602 68.0183 74.0602C68.0365 74.0602 68.0512 74.0748 68.0512 74.093L68.0512 77.5028C68.0512 77.5093 68.0493 77.5156 68.0456 77.5211L66.4352 79.9124C66.4251 79.9274 66.4047 79.9315 66.3895 79.9213C66.3801 79.915 66.3749 79.9046 66.3749 79.8941Z"/>
<path d="M66.3749 75.1409C66.3749 75.1303 66.3801 75.12 66.3894 75.1137C66.4044 75.1035 66.425 75.1074 66.4352 75.1223L68.0455 77.4843C68.0492 77.4898 68.0512 77.4962 68.0512 77.5028L68.0512 81.2001C68.0512 81.2182 68.0365 81.2329 68.0183 81.2329C68.0001 81.2329 67.9853 81.2182 67.9853 81.2001L67.9853 77.5128L66.3806 75.1592C66.3768 75.1536 66.3749 75.1472 66.3749 75.1409Z"/>
<path d="M81.1414 83.0258C81.1414 83.0223 81.142 83.0188 81.1431 83.0153L82.8904 77.9005C82.8962 77.8833 82.915 77.8742 82.9322 77.8801C82.9494 77.8859 82.9585 77.9045 82.9528 77.9217L81.2055 83.0364C81.1997 83.0536 81.181 83.0627 81.1637 83.0569C81.15 83.0522 81.1414 83.0395 81.1414 83.0258Z"/>
</mask>
<path d="M66.4408 75.1586L66.4408 79.8785L68.4783 81.5308C68.4805 81.5326 68.4824 81.5346 68.484 81.5369L71.8755 86.1375L75.8418 87.9673L81.396 87.4433L88.4383 87.9623L82.8964 81.4316C82.8914 81.4257 82.8886 81.4182 82.8886 81.4104L82.8886 73.9744C82.8886 73.9659 82.892 73.9576 82.8979 73.9515L88.6903 67.997L81.6027 67.7083L76.0454 66.9511L71.9053 68.6934L68.6315 73.7297C68.629 73.7336 68.6257 73.7369 68.6219 73.7394L66.4408 75.1586ZM66.3749 79.8941L66.3749 75.1408C66.3749 75.1298 66.3806 75.1195 66.3899 75.1133L68.58 73.6883L71.8555 68.6492C71.8591 68.6437 71.8643 68.6394 71.8704 68.6368L76.0281 66.8872C76.0335 66.8849 76.0395 66.8841 76.0453 66.8849L81.6084 67.643L88.7665 67.9344C88.7795 67.9349 88.7909 67.943 88.7958 67.955C88.8004 67.967 88.7979 67.9807 88.7887 67.99L82.9545 73.9877L82.9545 81.3985L88.5392 87.9796C88.5478 87.9898 88.5495 88.004 88.5434 88.0158C88.5374 88.0275 88.5249 88.0345 88.5116 88.0336L81.3966 87.5087L75.8391 88.0335C75.8333 88.0341 75.8274 88.033 75.8222 88.0306L71.84 86.1935C71.835 86.1911 71.8306 86.1876 71.8273 86.1831L68.4335 81.5791L66.3871 79.9196C66.3794 79.9133 66.3749 79.904 66.3749 79.8941Z" fill="white"/>
<path d="M75.1991 81.3521C75.1991 81.3393 75.2066 81.3275 75.2185 81.3222L82.8499 77.9072L75.585 73.6527C75.5736 73.646 75.5674 73.6331 75.5691 73.62C75.5709 73.6069 75.5804 73.5962 75.5932 73.5927L81.1817 72.1066L88.7492 67.9384C88.7651 67.9297 88.7852 67.9354 88.7939 67.9513C88.8028 67.9671 88.797 67.9871 88.7811 67.9959L81.2101 72.1659C81.2077 72.1672 81.2052 72.1682 81.2026 72.1689L75.6863 73.6359L82.9383 77.8829C82.949 77.8891 82.956 77.9005 82.9545 77.9129C82.9539 77.9251 82.9464 77.9361 82.9351 77.941L75.328 81.3451L81.3494 83.0411C81.3529 83.0421 81.3562 83.0436 81.3592 83.0457L88.5328 87.9739C88.5479 87.9841 88.5516 88.0045 88.5412 88.0195C88.5309 88.0344 88.5103 88.0381 88.4953 88.0278L81.3263 83.1028L75.223 81.3837C75.2097 81.3799 75.2001 81.3683 75.1991 81.3546C75.1991 81.3537 75.1991 81.3529 75.1991 81.3521Z" fill="white"/>
<path d="M81.3749 67.7086L76.1548 70.7998L81.1632 72.0953L81.3749 67.7086ZM81.1434 83.0662L76.0113 84.1951L81.3631 87.416L81.1434 83.0662ZM76.1031 71.058L75.6341 73.6303C75.6327 73.6379 75.6288 73.6448 75.6227 73.6496L73.4179 75.4748L82.8735 77.8651L81.1679 72.1643L76.1017 70.8539L76.1031 71.058ZM73.5548 73.028L73.3855 75.4164L75.5715 73.6068L76.0377 71.0524L76.0365 70.8843L73.5548 73.028ZM73.494 80.0462L73.3809 82.2984L75.8705 84.1016L75.2027 81.3709L73.494 80.0462ZM75.8884 84.2221L72.6527 84.9288L75.6791 87.868L75.8884 84.2221ZM73.3656 82.3684L72.6331 84.8659L75.8451 84.1644L73.3656 82.3684ZM76.0085 66.9928L72.5576 70.2263L76.0357 70.7732L76.0085 66.9928ZM73.3526 75.526L70.2161 77.4604L82.6184 77.8683L73.3526 75.526ZM82.6579 77.9353L70.2101 77.5259L73.4719 79.9463L82.6579 77.9353ZM73.324 79.9183L70.1409 77.5564L70.188 79.2549L73.324 79.9183ZM73.4286 80.0354L69.6855 81.8574L73.316 82.2778L73.4286 80.0354ZM69.5372 81.877C69.5372 81.8646 69.5441 81.8531 69.5556 81.8475L73.364 79.9939L70.1489 79.3138C70.1339 79.3106 70.1232 79.2977 70.1227 79.2826L70.0732 77.491C70.0733 77.4872 70.0736 77.4833 70.0748 77.4796C70.0748 77.4796 70.0748 77.4795 70.0749 77.4794C70.0749 77.4793 70.0749 77.4792 70.075 77.4791C70.075 77.479 70.075 77.4789 70.075 77.4789C70.075 77.4789 70.075 77.4788 70.0751 77.4786C70.0751 77.4786 70.0752 77.4785 70.0752 77.4783C70.0753 77.4782 70.0753 77.4781 70.0753 77.4781C70.0773 77.4728 70.0807 77.468 70.0852 77.4643C70.0852 77.4643 70.0854 77.4644 70.0854 77.4641C70.0865 77.4632 70.0877 77.4623 70.0891 77.4616L73.3155 75.4717L73.49 73.0098C73.4906 73.0011 73.4947 72.9929 73.5013 72.9872L75.9951 70.8332L72.4809 70.2807C72.4685 70.2789 72.4583 70.27 72.4546 70.258C72.4508 70.2462 72.4543 70.233 72.4635 70.2245L76.0183 66.8935C76.0278 66.8845 76.0418 66.8821 76.0538 66.8873C76.0659 66.8924 76.0737 66.9041 76.0738 66.9171L76.1009 70.7554L81.3939 67.621C81.4043 67.6149 81.4173 67.6149 81.4277 67.6211C81.4381 67.6274 81.4446 67.6391 81.4436 67.6508L81.2277 72.1249L82.9456 73.9519C82.958 73.9652 82.9574 73.9859 82.9441 73.9983C82.9309 74.0107 82.91 74.01 82.8975 73.9968L81.2656 72.2612L82.953 77.9011C82.9537 77.9033 82.9541 77.9057 82.9544 77.9081C82.9549 77.9155 82.9533 77.9224 82.9497 77.9282L82.9497 77.9282L82.9497 77.9283C82.9497 77.9283 82.9497 77.9283 82.9496 77.9284C82.9496 77.9284 82.9495 77.9286 82.9495 77.9286L82.9495 77.9286C82.9491 77.9293 82.9486 77.9299 82.9482 77.9305C82.9481 77.9306 82.9481 77.9306 82.9481 77.9306C82.9479 77.9308 82.9479 77.9309 82.9478 77.931C82.9478 77.9311 82.9478 77.9311 82.9477 77.9311C82.9477 77.9312 82.9477 77.9312 82.9476 77.9312L82.9476 77.9313C82.9431 77.937 82.9367 77.9413 82.9291 77.943C82.9291 77.9431 82.9291 77.9431 82.929 77.9431C82.9289 77.9431 82.9288 77.9431 82.9287 77.9431L73.5399 79.9986L75.2523 81.3263C75.2581 81.3308 75.2622 81.3372 75.264 81.3443L75.9482 84.1418L81.1673 82.9938C81.1767 82.9917 81.1866 82.9939 81.1943 82.9998C81.202 83.0056 81.2067 83.0145 81.2072 83.0242L81.432 87.4742C81.4333 87.4876 81.4264 87.4979 81.4161 87.5041C81.4055 87.5103 81.3925 87.5102 81.3821 87.504L75.9536 84.237L75.7407 87.9436C75.74 87.9565 75.7317 87.9677 75.7197 87.9724C75.7077 87.977 75.694 87.9742 75.6848 87.9653L72.5932 84.9626L71.8824 86.1801C71.8732 86.1958 71.853 86.2012 71.8373 86.1921C71.8216 86.1829 71.8164 86.1628 71.8253 86.1472L72.5554 84.8967L73.3046 82.3426L69.5663 81.9096C69.5518 81.9079 69.5401 81.8969 69.5376 81.8826C69.5373 81.8806 69.5372 81.8788 69.5372 81.877Z" fill="white"/>
<path d="M72.4665 70.3059L69.8818 73.3507L73.477 72.9838L72.4665 70.3059ZM69.799 73.4262L68.6549 73.7322L70.0842 76.0667L73.2554 75.4745L69.799 73.4262ZM68.5709 73.7119C68.5709 73.7078 68.5717 73.7037 68.5733 73.6997C68.5771 73.6902 68.5854 73.6829 68.5953 73.6802L69.7859 73.3621L72.4399 70.2356L71.8524 68.6786C71.8458 68.6618 71.8546 68.6427 71.8717 68.6363C71.8887 68.6299 71.9077 68.6385 71.914 68.6555L72.4887 70.1782L72.5022 70.1622C72.514 70.1484 72.5348 70.1466 72.5486 70.1584C72.5625 70.1701 72.5642 70.1908 72.5525 70.2046L72.5152 70.2486L73.5537 73.0005C73.5573 73.0099 73.5562 73.0206 73.5509 73.0293C73.5455 73.038 73.5364 73.0437 73.5262 73.0447L69.9068 73.4137L73.364 75.4626C73.3758 75.4695 73.3819 75.4829 73.3796 75.4965C73.3772 75.5099 73.3667 75.5205 73.3532 75.523L70.0739 76.1354C70.0604 76.1378 70.0469 76.1318 70.0397 76.1202L68.5758 73.729C68.5725 73.7238 68.5709 73.7178 68.5709 73.7119Z" fill="white"/>
<path d="M70.0895 79.4252L68.5122 81.5379L69.5456 81.8358L70.0895 79.4252ZM70.0366 76.1642L68.0728 77.5053L70.1208 79.2098L70.0366 76.1642ZM67.9853 77.5028C67.9853 77.5022 67.9853 77.5017 67.9854 77.5013C67.9859 77.491 67.9911 77.4815 67.9996 77.4757L70.0492 76.0761C70.0592 76.0693 70.0721 76.0685 70.0828 76.0739C70.0935 76.0793 70.1005 76.0902 70.1008 76.1022L70.1886 79.2805C70.1888 79.2835 70.1883 79.2865 70.1876 79.2895L69.6061 81.8667L72.6093 84.8867C72.6222 84.8997 72.6219 84.9204 72.609 84.9331C72.5961 84.9459 72.5753 84.9458 72.5625 84.9329L69.5527 81.9062L68.4483 81.5877C68.4379 81.5848 68.4297 81.5769 68.4263 81.5667C68.4229 81.5565 68.4247 81.5453 68.431 81.5366L70.1107 79.287L67.9971 77.528C67.9896 77.5217 67.9853 77.5125 67.9853 77.5028Z" fill="white"/>
<path d="M69.7714 73.3911C69.7714 73.3744 69.7841 73.3601 69.8012 73.3585C69.8193 73.3567 69.8353 73.3699 69.8372 73.388L70.1007 76.1C70.1015 76.1167 70.0891 76.134 70.071 76.1358C70.053 76.1375 70.0369 76.1243 70.0351 76.1063L69.7715 73.3943C69.7715 73.3932 69.7714 73.3922 69.7714 73.3911Z" fill="white"/>
<path d="M66.3749 79.8941C66.3749 79.8877 66.3767 79.8814 66.3806 79.8758L67.9853 77.4928L67.9853 74.093C67.9853 74.0748 68.0001 74.0602 68.0183 74.0602C68.0365 74.0602 68.0512 74.0748 68.0512 74.093L68.0512 77.5028C68.0512 77.5093 68.0493 77.5156 68.0456 77.5211L66.4352 79.9124C66.4251 79.9274 66.4047 79.9315 66.3895 79.9213C66.3801 79.915 66.3749 79.9046 66.3749 79.8941Z" fill="white"/>
<path d="M66.3749 75.1409C66.3749 75.1303 66.3801 75.12 66.3894 75.1137C66.4044 75.1035 66.425 75.1074 66.4352 75.1223L68.0455 77.4843C68.0492 77.4898 68.0512 77.4962 68.0512 77.5028L68.0512 81.2001C68.0512 81.2182 68.0365 81.2329 68.0183 81.2329C68.0001 81.2329 67.9853 81.2182 67.9853 81.2001L67.9853 77.5128L66.3806 75.1592C66.3768 75.1536 66.3749 75.1472 66.3749 75.1409Z" fill="white"/>
<path d="M81.1414 83.0258C81.1414 83.0223 81.142 83.0188 81.1431 83.0153L82.8904 77.9005C82.8962 77.8833 82.915 77.8742 82.9322 77.8801C82.9494 77.8859 82.9585 77.9045 82.9528 77.9217L81.2055 83.0364C81.1997 83.0536 81.181 83.0627 81.1637 83.0569C81.15 83.0522 81.1414 83.0395 81.1414 83.0258Z" fill="white"/>
<path d="M66.4408 75.1586L66.1444 74.703L65.8974 74.8638L65.8974 75.1586L66.4408 75.1586ZM66.4408 79.8785L65.8974 79.8785L65.8974 80.1375L66.0985 80.3006L66.4408 79.8785ZM68.4783 81.5308L68.1359 81.953L68.1447 81.9599L68.4783 81.5308ZM68.484 81.5369L68.9215 81.2144L68.9207 81.2133L68.484 81.5369ZM71.8755 86.1375L71.438 86.46L71.5209 86.5724L71.6478 86.631L71.8755 86.1375ZM75.8418 87.9673L75.6141 88.4608L75.7471 88.5221L75.8928 88.5084L75.8418 87.9673ZM81.396 87.4433L81.436 86.9013L81.3905 86.8979L81.345 86.9022L81.396 87.4433ZM88.4383 87.9623L88.3983 88.5044L89.6919 88.5997L88.8527 87.6107L88.4383 87.9623ZM82.8964 81.4316L83.3108 81.0799L83.3108 81.0799L82.8964 81.4316ZM82.8979 73.9515L82.5084 73.5726L82.5076 73.5733L82.8979 73.9515ZM88.6903 67.997L89.0799 68.3759L89.9286 67.5035L88.7124 67.454L88.6903 67.997ZM81.6027 67.7083L81.5293 68.2468L81.5548 68.2503L81.5806 68.2514L81.6027 67.7083ZM76.0454 66.9511L76.1188 66.4126L75.9715 66.3925L75.8346 66.4502L76.0454 66.9511ZM71.9053 68.6934L71.6945 68.1924L71.5407 68.2572L71.4497 68.3972L71.9053 68.6934ZM68.6315 73.7297L68.1759 73.4335L68.1751 73.4347L68.6315 73.7297ZM68.6219 73.7394L68.9183 74.1949L68.921 74.1931L68.6219 73.7394ZM66.3899 75.1133L66.0935 74.6578L66.0917 74.659L66.3899 75.1133ZM68.58 73.6883L68.8764 74.1438L68.9729 74.081L69.0357 73.9845L68.58 73.6883ZM71.8555 68.6492L71.4005 68.352L71.3999 68.353L71.8555 68.6492ZM71.8704 68.6368L71.6596 68.1359L71.6586 68.1363L71.8704 68.6368ZM76.0281 66.8872L76.2389 67.3881L76.2402 67.3875L76.0281 66.8872ZM76.0453 66.8849L75.9715 67.4233L75.9719 67.4234L76.0453 66.8849ZM81.6084 67.643L81.5351 68.1815L81.5606 68.185L81.5863 68.1861L81.6084 67.643ZM88.7665 67.9344L88.7889 67.3914L88.7886 67.3914L88.7665 67.9344ZM88.7958 67.955L89.3021 67.7575L89.2998 67.7517L88.7958 67.955ZM88.7887 67.99L88.3997 67.6106L88.3992 67.6111L88.7887 67.99ZM82.9545 73.9877L82.565 73.6087L82.4111 73.7669L82.4111 73.9877L82.9545 73.9877ZM82.9545 81.3985L82.4111 81.3985L82.4111 81.598L82.5402 81.7501L82.9545 81.3985ZM88.5392 87.9796L88.9564 87.6313L88.9536 87.628L88.5392 87.9796ZM88.5434 88.0158L88.0604 87.7667L88.0599 87.7675L88.5434 88.0158ZM88.5116 88.0336L88.4716 88.5756L88.4743 88.5758L88.5116 88.0336ZM81.3966 87.5087L81.4366 86.9667L81.391 86.9633L81.3455 86.9676L81.3966 87.5087ZM75.8391 88.0335L75.889 88.5747L75.8902 88.5746L75.8391 88.0335ZM75.8222 88.0306L76.0501 87.5373L76.0498 87.5371L75.8222 88.0306ZM71.84 86.1935L71.6104 86.6861L71.6124 86.687L71.84 86.1935ZM71.8273 86.1831L71.3898 86.5056L71.39 86.5058L71.8273 86.1831ZM68.4335 81.5791L68.8709 81.2566L68.8297 81.2007L68.7758 81.1569L68.4335 81.5791ZM66.3871 79.9196L66.0438 80.3409L66.0448 80.3417L66.3871 79.9196ZM75.2185 81.3222L75.4399 81.8185L75.4405 81.8183L75.2185 81.3222ZM82.8499 77.9072L83.0719 78.4033L84.0359 77.9719L83.1246 77.4382L82.8499 77.9072ZM75.585 73.6527L75.3098 74.1213L75.3104 74.1217L75.585 73.6527ZM75.5691 73.62L75.0306 73.5469L75.0303 73.5488L75.5691 73.62ZM75.5932 73.5927L75.4535 73.0675L75.4526 73.0677L75.5932 73.5927ZM81.1817 72.1066L81.3214 72.6318L81.3857 72.6147L81.4439 72.5826L81.1817 72.1066ZM88.7492 67.9384L88.4878 67.4619L88.487 67.4624L88.7492 67.9384ZM88.7939 67.9513L88.3187 68.2149L88.3194 68.2162L88.7939 67.9513ZM88.7811 67.9959L89.0433 68.4719L89.0451 68.471L88.7811 67.9959ZM81.2101 72.1659L81.4651 72.646L81.4723 72.642L81.2101 72.1659ZM81.2026 72.1689L81.0713 71.6414L81.0629 71.6437L81.2026 72.1689ZM75.6863 73.6359L75.5466 73.1107L74.2863 73.4458L75.4116 74.1049L75.6863 73.6359ZM82.9383 77.8829L82.6637 78.3518L82.6644 78.3523L82.9383 77.8829ZM82.9545 77.9129L82.415 77.8472L82.4126 77.8669L82.4116 77.8866L82.9545 77.9129ZM82.9351 77.941L82.7169 77.4432L82.7131 77.4449L82.9351 77.941ZM75.328 81.3451L75.106 80.849L73.7371 81.4616L75.1807 81.8682L75.328 81.3451ZM81.3494 83.0411L81.5013 82.5192L81.4968 82.5179L81.3494 83.0411ZM81.3592 83.0457L81.667 82.5977L81.6635 82.5954L81.3592 83.0457ZM88.5328 87.9739L88.2251 88.4218L88.2274 88.4234L88.5328 87.9739ZM88.5412 88.0195L88.0955 87.7084L88.0943 87.7101L88.5412 88.0195ZM88.4953 88.0278L88.1876 88.4758L88.1881 88.4761L88.4953 88.0278ZM81.3263 83.1028L81.634 82.6548L81.56 82.604L81.4736 82.5797L81.3263 83.1028ZM75.223 81.3837L75.0754 81.9067L75.0757 81.9068L75.223 81.3837ZM75.1991 81.3546L74.6567 81.3886L74.6571 81.3951L75.1991 81.3546ZM81.3749 67.7086L81.9178 67.7348L81.9664 66.7267L81.098 67.241L81.3749 67.7086ZM76.1548 70.7998L75.8779 70.3322L74.7527 70.9985L76.0187 71.326L76.1548 70.7998ZM81.1632 72.0953L81.0271 72.6215L81.6738 72.7887L81.706 72.1215L81.1632 72.0953ZM81.1434 83.0662L81.6862 83.0388L81.6538 82.3975L81.0266 82.5354L81.1434 83.0662ZM76.0113 84.1951L75.8945 83.6643L74.5623 83.9574L75.731 84.6608L76.0113 84.1951ZM81.3631 87.416L81.0828 87.8817L81.9573 88.408L81.9058 87.3886L81.3631 87.416ZM76.1031 71.058L76.6378 71.1555L76.6469 71.1053L76.6466 71.0543L76.1031 71.058ZM75.6341 73.6303L76.1687 73.7285L76.1688 73.7277L75.6341 73.6303ZM75.6227 73.6496L75.2808 73.2271L75.2762 73.231L75.6227 73.6496ZM73.4179 75.4748L73.0714 75.0562L72.2463 75.7392L73.2847 76.0017L73.4179 75.4748ZM82.8735 77.8651L82.7403 78.392L83.6686 78.6267L83.3941 77.7093L82.8735 77.8651ZM81.1679 72.1643L81.6886 72.0086L81.6007 71.7149L81.304 71.6382L81.1679 72.1643ZM76.1017 70.8539L76.2378 70.3277L75.5534 70.1507L75.5582 70.8576L76.1017 70.8539ZM73.5548 73.028L73.1995 72.6167L73.0286 72.7643L73.0127 72.9895L73.5548 73.028ZM73.3855 75.4164L72.8433 75.378L72.7535 76.6451L73.732 75.8351L73.3855 75.4164ZM75.5715 73.6068L75.918 74.0255L76.0705 73.8992L76.1061 73.7044L75.5715 73.6068ZM76.0377 71.0524L76.5724 71.15L76.5815 71.0997L76.5812 71.0486L76.0377 71.0524ZM76.0365 70.8843L76.58 70.8805L76.5717 69.7039L75.6813 70.473L76.0365 70.8843ZM73.494 80.0462L73.827 79.6167L73.0035 78.9782L72.9512 80.019L73.494 80.0462ZM73.3809 82.2984L72.8381 82.2711L72.8234 82.5656L73.0621 82.7385L73.3809 82.2984ZM75.8705 84.1016L75.5517 84.5418L76.7499 85.4097L76.3984 83.9725L75.8705 84.1016ZM75.2027 81.3709L75.7306 81.2418L75.6856 81.0576L75.5357 80.9414L75.2027 81.3709ZM75.8884 84.2221L76.431 84.2533L76.4721 83.5383L75.7725 83.6911L75.8884 84.2221ZM72.6527 84.9288L72.5367 84.3978L71.5482 84.6137L72.274 85.3187L72.6527 84.9288ZM75.6791 87.868L75.3004 88.2579L76.1535 89.0863L76.2216 87.8991L75.6791 87.868ZM73.3656 82.3684L73.6844 81.9282L73.0608 81.4765L72.8441 82.2154L73.3656 82.3684ZM72.6331 84.8659L72.1116 84.713L71.8536 85.5925L72.7491 85.3969L72.6331 84.8659ZM75.8451 84.1644L75.9611 84.6954L77.147 84.4363L76.1639 83.7243L75.8451 84.1644ZM76.0085 66.9928L76.5519 66.9888L76.543 65.7471L75.6369 66.5962L76.0085 66.9928ZM72.5576 70.2263L72.186 69.8298L71.3743 70.5904L72.4732 70.7632L72.5576 70.2263ZM76.0357 70.7732L75.9513 71.3101L76.5838 71.4095L76.5792 70.7693L76.0357 70.7732ZM73.3526 75.526L73.4858 74.9991L73.263 74.9428L73.0673 75.0634L73.3526 75.526ZM70.2161 77.4604L69.9308 76.9978L68.3962 77.9443L70.1982 78.0036L70.2161 77.4604ZM82.6184 77.8683L82.6005 78.4115L82.7516 77.3414L82.6184 77.8683ZM82.6579 77.9353L82.7741 78.4662L82.6758 77.3921L82.6579 77.9353ZM70.2101 77.5259L70.228 76.9827L68.4891 76.9255L69.8863 77.9623L70.2101 77.5259ZM73.4719 79.9463L73.148 80.3827L73.3466 80.5301L73.5881 80.4772L73.4719 79.9463ZM73.324 79.9183L73.2115 80.4501L73.6478 79.4819L73.324 79.9183ZM70.1409 77.5564L70.4648 77.1199L69.5667 76.4535L69.5977 77.5714L70.1409 77.5564ZM70.188 79.2549L69.6447 79.27L69.6565 79.698L70.0755 79.7867L70.188 79.2549ZM73.4286 80.0354L73.9714 80.0627L74.0175 79.1443L73.1907 79.5468L73.4286 80.0354ZM69.6855 81.8574L69.4476 81.3687L67.7744 82.1831L69.623 82.3972L69.6855 81.8574ZM73.316 82.2778L73.2535 82.8177L73.8297 82.8844L73.8588 82.3051L73.316 82.2778ZM69.5556 81.8475L69.7933 82.3363L69.7935 82.3362L69.5556 81.8475ZM73.364 79.9939L73.6019 80.4825L75.0252 79.7897L73.4765 79.4622L73.364 79.9939ZM70.1489 79.3138L70.0361 79.8454L70.0364 79.8455L70.1489 79.3138ZM70.1227 79.2826L69.5795 79.2976L69.5795 79.298L70.1227 79.2826ZM70.0732 77.491L69.5298 77.4833L69.5297 77.4947L69.53 77.506L70.0732 77.491ZM70.0748 77.4796L69.6912 77.0946L69.5956 77.1898L69.5557 77.3187L70.0748 77.4796ZM70.0749 77.4794L70.5902 77.6519L70.6183 77.5679L70.6183 77.4794L70.0749 77.4794ZM70.075 77.4791L70.4585 77.8642L70.5211 77.8019L70.5607 77.7229L70.075 77.4791ZM70.0751 77.4786L70.4586 77.8637L70.5509 77.7718L70.5915 77.648L70.0751 77.4786ZM70.0752 77.4783L69.6235 77.176L69.5317 77.3132L69.5317 77.4783L70.0752 77.4783ZM70.0753 77.4781L70.4589 77.8632L70.5426 77.7797L70.5842 77.669L70.0753 77.4781ZM70.0852 77.4643L70.3255 76.9768L70.0097 76.8212L69.7386 77.0457L70.0852 77.4643ZM70.0854 77.4641L69.7539 77.0334L69.486 77.2396L69.5525 77.5711L70.0854 77.4641ZM70.0891 77.4616L70.346 77.9405L70.3605 77.9327L70.3744 77.9241L70.0891 77.4616ZM73.3155 75.4717L73.6008 75.9342L73.8379 75.788L73.8576 75.5101L73.3155 75.4717ZM73.49 73.0098L72.948 72.9695L72.9479 72.9713L73.49 73.0098ZM73.5013 72.9872L73.8553 73.3996L73.8566 73.3985L73.5013 72.9872ZM75.9951 70.8332L76.3503 71.2445L77.2373 70.4784L76.0795 70.2963L75.9951 70.8332ZM72.4809 70.2807L72.5654 69.7438L72.562 69.7433L72.4809 70.2807ZM72.4546 70.258L72.9743 70.0989L72.9725 70.0933L72.4546 70.258ZM72.4635 70.2245L72.0919 69.8279L72.0918 69.828L72.4635 70.2245ZM76.0183 66.8935L76.3899 67.2901L76.3904 67.2895L76.0183 66.8935ZM76.0538 66.8873L75.8386 67.3863L75.8423 67.3879L76.0538 66.8873ZM76.0738 66.9171L75.5303 66.9194L75.5303 66.921L76.0738 66.9171ZM76.1009 70.7554L75.5575 70.7592L75.5642 71.7049L76.3779 71.223L76.1009 70.7554ZM81.3939 67.621L81.6708 68.0887L81.6713 68.0884L81.3939 67.621ZM81.4277 67.6211L81.7097 67.1565L81.7069 67.1548L81.4277 67.6211ZM81.4436 67.6508L80.9022 67.6036L80.9013 67.6141L80.9008 67.6246L81.4436 67.6508ZM81.2277 72.1249L80.6849 72.0987L80.6738 72.3291L80.8318 72.4972L81.2277 72.1249ZM82.9456 73.9519L83.3434 73.5816L83.3416 73.5796L82.9456 73.9519ZM82.9441 73.9983L82.5737 73.6006L82.5729 73.6014L82.9441 73.9983ZM82.8975 73.9968L82.5016 74.3691L82.5022 74.3696L82.8975 73.9968ZM81.2656 72.2612L81.6615 71.8889L80.7449 72.417L81.2656 72.2612ZM82.953 77.9011L82.4323 78.0569L82.434 78.0624L82.953 77.9011ZM82.9544 77.9081L83.4967 77.8724L83.4959 77.8607L83.4947 77.8492L82.9544 77.9081ZM82.9497 77.9282L82.4884 77.6408L82.4062 77.7728L82.4062 77.9282L82.9497 77.9282ZM82.9497 77.9282L83.3354 78.3111L83.4932 78.1522L83.4932 77.9282L82.9497 77.9282ZM82.9497 77.9283L82.564 77.5454L82.4062 77.7043L82.4062 77.9283L82.9497 77.9283ZM82.9496 77.9284L82.7073 77.4419L82.5456 77.5224L82.4642 77.6838L82.9496 77.9284ZM82.9495 77.9286L83.3352 78.3114L82.566 77.5435L82.9495 77.9286ZM82.9495 77.9286L82.5637 77.5457L82.5153 77.5946L82.4805 77.6539L82.9495 77.9286ZM82.9482 77.9305L83.3317 78.3156L83.3591 78.2883L83.3823 78.2575L82.9482 77.9305ZM82.9481 77.9306L82.9481 77.3872L82.6579 77.3872L82.4964 77.6283L82.9481 77.9306ZM82.9478 77.931L82.5643 77.5459L82.4043 77.7052L82.4043 77.931L82.9478 77.931ZM82.9476 77.9312L82.9476 77.3878L82.4041 77.3878L82.4041 77.9312L82.9476 77.9312ZM82.9476 77.9313L83.3748 78.2672L83.491 78.1194L83.491 77.9313L82.9476 77.9313ZM82.9291 77.943L82.8093 77.4129L82.3856 77.5086L82.3856 77.943L82.9291 77.943ZM82.9287 77.9431L82.9287 77.3997L82.8699 77.3997L82.8124 77.4122L82.9287 77.9431ZM73.5399 79.9986L73.4237 79.4677L72.2887 79.7162L73.2069 80.4281L73.5399 79.9986ZM75.2523 81.3263L74.9193 81.7558L74.9195 81.7559L75.2523 81.3263ZM75.264 81.3443L74.7357 81.472L74.736 81.4735L75.264 81.3443ZM75.9482 84.1418L75.4202 84.2709L75.5464 84.7867L76.0649 84.6726L75.9482 84.1418ZM81.1673 82.9938L81.0524 82.4626L81.0505 82.463L81.1673 82.9938ZM81.1943 82.9998L80.8638 83.4312L80.8676 83.4341L81.1943 82.9998ZM81.2072 83.0242L80.6644 83.0514L80.6644 83.0516L81.2072 83.0242ZM81.432 87.4742L80.8892 87.5017L80.8899 87.5152L80.8913 87.5288L81.432 87.4742ZM81.4161 87.5041L81.1387 87.0367L81.1373 87.0375L81.4161 87.5041ZM81.3821 87.504L81.663 87.0387L81.6623 87.0383L81.3821 87.504ZM75.9536 84.237L76.2338 83.7714L75.4626 83.3072L75.411 84.2058L75.9536 84.237ZM75.7407 87.9436L75.1981 87.9124L75.198 87.9141L75.7407 87.9436ZM75.6848 87.9653L76.0637 87.5757L76.0635 87.5754L75.6848 87.9653ZM72.5932 84.9626L72.9718 84.5728L72.4738 84.0891L72.1238 84.6886L72.5932 84.9626ZM71.8824 86.1801L72.3509 86.4556L72.3517 86.4542L71.8824 86.1801ZM71.8373 86.1921L71.5635 86.6615L71.5647 86.6622L71.8373 86.1921ZM71.8253 86.1472L71.356 85.8732L71.3549 85.8752L71.8253 86.1472ZM72.5554 84.8967L73.0247 85.1707L73.0582 85.1134L73.0769 85.0497L72.5554 84.8967ZM73.3046 82.3426L73.8261 82.4956L74.0076 81.8769L73.3671 81.8027L73.3046 82.3426ZM69.5663 81.9096L69.5026 82.4493L69.5038 82.4495L69.5663 81.9096ZM69.5376 81.8826L68.9993 81.9576L69.0007 81.9674L69.0024 81.9772L69.5376 81.8826ZM72.4665 70.3059L72.9749 70.114L72.6492 69.2509L72.0521 69.9542L72.4665 70.3059ZM69.8818 73.3507L69.4675 72.999L68.5936 74.0285L69.937 73.8914L69.8818 73.3507ZM73.477 72.9838L73.5322 73.5245L74.2349 73.4528L73.9855 72.7919L73.477 72.9838ZM69.799 73.4262L70.0761 72.9586L69.8794 72.8421L69.6585 72.9012L69.799 73.4262ZM68.6549 73.7322L68.5144 73.2072L67.8113 73.3953L68.1914 74.016L68.6549 73.7322ZM70.0842 76.0667L69.6207 76.3505L69.8161 76.6697L70.184 76.601L70.0842 76.0667ZM73.2554 75.4745L73.3551 76.0087L74.7753 75.7435L73.5324 75.0069L73.2554 75.4745ZM68.5733 73.6997L69.0767 73.9046L69.0778 73.9018L68.5733 73.6997ZM68.5953 73.6802L68.455 73.1552L68.4533 73.1556L68.5953 73.6802ZM69.7859 73.3621L69.9262 73.8871L70.0903 73.8433L70.2002 73.7138L69.7859 73.3621ZM72.4399 70.2356L72.8542 70.5873L73.0614 70.3432L72.9484 70.0437L72.4399 70.2356ZM71.8524 68.6786L72.3609 68.4867L72.3579 68.4791L71.8524 68.6786ZM71.8717 68.6363L72.062 69.1454L72.0625 69.1452L71.8717 68.6363ZM71.914 68.6555L71.405 68.8458L71.4056 68.8474L71.914 68.6555ZM72.4887 70.1782L71.9802 70.3701L72.306 71.2334L72.9031 70.5298L72.4887 70.1782ZM72.5022 70.1622L72.0885 69.8097L72.0878 69.8106L72.5022 70.1622ZM72.5486 70.1584L72.9003 69.744L72.8995 69.7433L72.5486 70.1584ZM72.5525 70.2046L72.1387 69.8522L72.1379 69.8532L72.5525 70.2046ZM72.5152 70.2486L72.1005 69.8972L71.8937 70.1412L72.0067 70.4405L72.5152 70.2486ZM73.5537 73.0005L73.0452 73.1924L73.0464 73.1955L73.5537 73.0005ZM73.5509 73.0293L73.0897 72.7417L73.0876 72.745L73.5509 73.0293ZM73.5262 73.0447L73.472 72.5039L73.4711 72.504L73.5262 73.0447ZM69.9068 73.4137L69.8517 72.873L68.2108 73.0403L69.6297 73.8812L69.9068 73.4137ZM73.364 75.4626L73.087 75.9301L73.0881 75.9308L73.364 75.4626ZM73.3796 75.4965L73.9148 75.5911L73.9153 75.5879L73.3796 75.4965ZM73.3532 75.523L73.2536 74.9888L73.2535 74.9888L73.3532 75.523ZM70.0739 76.1354L70.1719 76.67L70.1737 76.6696L70.0739 76.1354ZM70.0397 76.1202L69.5762 76.404L69.5768 76.405L70.0397 76.1202ZM68.5758 73.729L69.0393 73.4452L69.0353 73.4388L68.5758 73.729ZM70.0895 79.4252L70.6197 79.5449L69.654 79.1001L70.0895 79.4252ZM68.5122 81.5379L68.0767 81.2128L67.6066 81.8425L68.3617 82.0601L68.5122 81.5379ZM69.5456 81.8358L69.3951 82.358L69.9489 82.5177L70.0758 81.9554L69.5456 81.8358ZM70.0366 76.1642L70.5799 76.1492L70.5524 75.1539L69.7301 75.7154L70.0366 76.1642ZM68.0728 77.5053L67.7663 77.0565L67.1718 77.4625L67.7251 77.9231L68.0728 77.5053ZM70.1208 79.2098L69.7731 79.6276L70.6973 80.3967L70.664 79.1948L70.1208 79.2098ZM67.9854 77.5013L68.5255 77.5615L68.5274 77.5443L68.5283 77.5269L67.9854 77.5013ZM67.9996 77.4757L68.3055 77.925L68.3061 77.9245L67.9996 77.4757ZM70.0492 76.0761L69.7452 75.6255L69.7427 75.6273L70.0492 76.0761ZM70.0828 76.0739L69.8357 76.558L69.8376 76.559L70.0828 76.0739ZM70.1008 76.1022L69.5575 76.1168L69.5575 76.1173L70.1008 76.1022ZM70.1886 79.2805L69.6453 79.2955L69.6456 79.3029L69.646 79.3103L70.1886 79.2805ZM70.1876 79.2895L69.6588 79.164L69.6575 79.1699L70.1876 79.2895ZM69.6061 81.8667L69.076 81.7471L69.0103 82.0383L69.2208 82.25L69.6061 81.8667ZM72.6093 84.8867L72.9952 84.504L72.9947 84.5035L72.6093 84.8867ZM72.609 84.9331L72.228 84.5456L72.2263 84.5472L72.609 84.9331ZM72.5625 84.9329L72.1771 85.3161L72.1773 85.3163L72.5625 84.9329ZM69.5527 81.9062L69.9381 81.523L69.8387 81.423L69.7033 81.384L69.5527 81.9062ZM68.4483 81.5877L68.5989 81.0655L68.5967 81.0649L68.4483 81.5877ZM68.4263 81.5667L67.9098 81.7359L67.9115 81.7408L68.4263 81.5667ZM68.431 81.5366L67.9955 81.2115L67.992 81.2163L68.431 81.5366ZM70.1107 79.287L70.5462 79.6121L70.8546 79.199L70.4584 78.8692L70.1107 79.287ZM67.9971 77.528L67.648 77.9445L67.6495 77.9457L67.9971 77.528ZM69.8012 73.3585L69.8522 73.8996L69.8541 73.8994L69.8012 73.3585ZM69.8372 73.388L70.3781 73.3354L70.3779 73.333L69.8372 73.388ZM70.1007 76.1L70.6435 76.0738L70.6429 76.0606L70.6416 76.0474L70.1007 76.1ZM70.071 76.1358L70.1225 76.6769L70.1253 76.6766L70.071 76.1358ZM70.0351 76.1063L69.4941 76.1588L69.4942 76.1595L70.0351 76.1063ZM69.7715 73.3943L69.2287 73.4203L69.2293 73.4336L69.2306 73.4469L69.7715 73.3943ZM66.3806 79.8758L66.8288 80.1831L66.8313 80.1794L66.3806 79.8758ZM67.9853 77.4928L68.4361 77.7964L68.5288 77.6587L68.5288 77.4928L67.9853 77.4928ZM68.0456 77.5211L67.5974 77.2136L67.5948 77.2175L68.0456 77.5211ZM66.4352 79.9124L65.9844 79.6088L65.9833 79.6104L66.4352 79.9124ZM66.3895 79.9213L66.0866 80.3725L66.0871 80.3729L66.3895 79.9213ZM66.3894 75.1137L66.0854 74.6631L66.084 74.6641L66.3894 75.1137ZM66.4352 75.1223L65.9858 75.428L65.9861 75.4285L66.4352 75.1223ZM68.0455 77.4843L68.4951 77.1789L68.4946 77.1782L68.0455 77.4843ZM67.9853 77.5128L68.5288 77.5128L68.5288 77.3452L68.4343 77.2067L67.9853 77.5128ZM66.3806 75.1592L65.9276 75.4596L65.9316 75.4654L66.3806 75.1592ZM81.1431 83.0153L80.6287 82.8396L80.6261 82.8476L81.1431 83.0153ZM82.8904 77.9005L83.4047 78.0762L83.4051 78.0749L82.8904 77.9005ZM82.9322 77.8801L82.7562 78.3943L82.7576 78.3947L82.9322 77.8801ZM82.9528 77.9217L83.4672 78.0974L83.4692 78.0913L82.9528 77.9217ZM81.2055 83.0364L80.6912 82.8607L80.6906 82.8624L81.2055 83.0364ZM81.1637 83.0569L80.9871 83.5709L80.9906 83.572L81.1637 83.0569ZM65.8974 75.1586L65.8974 79.8785L66.9843 79.8785L66.9843 75.1586L65.8974 75.1586ZM66.0985 80.3006L68.1359 81.953L68.8206 81.1087L66.7832 79.4564L66.0985 80.3006ZM68.1447 81.9599C68.1004 81.9255 68.0688 81.8894 68.0474 81.8604L68.9207 81.2133C68.8959 81.1798 68.8606 81.1397 68.8118 81.1018L68.1447 81.9599ZM68.0466 81.8593L71.438 86.46L72.3129 85.815L68.9215 81.2144L68.0466 81.8593ZM71.6478 86.631L75.6141 88.4608L76.0694 87.4738L72.1031 85.644L71.6478 86.631ZM75.8928 88.5084L81.4471 87.9843L81.345 86.9022L75.7907 87.4262L75.8928 88.5084ZM81.3561 87.9853L88.3983 88.5044L88.4782 87.4203L81.436 86.9013L81.3561 87.9853ZM88.8527 87.6107L83.3108 81.0799L82.4821 81.7832L88.0239 88.314L88.8527 87.6107ZM83.3108 81.0799C83.388 81.1709 83.4321 81.2876 83.4321 81.4104L82.3452 81.4104C82.3452 81.5487 82.3949 81.6805 82.4821 81.7833L83.3108 81.0799ZM83.4321 81.4104L83.4321 73.9744L82.3452 73.9744L82.3452 81.4104L83.4321 81.4104ZM83.4321 73.9744C83.4321 74.1095 83.3789 74.2362 83.2883 74.3297L82.5076 73.5733C82.4052 73.6791 82.3452 73.8223 82.3452 73.9744L83.4321 73.9744ZM83.2875 74.3305L89.0799 68.3759L88.3007 67.618L82.5084 73.5726L83.2875 74.3305ZM88.7124 67.454L81.6248 67.1653L81.5806 68.2514L88.6682 68.54L88.7124 67.454ZM81.6761 67.1698L76.1188 66.4126L75.972 67.4896L81.5293 68.2468L81.6761 67.1698ZM75.8346 66.4502L71.6945 68.1924L72.1162 69.1943L76.2562 67.452L75.8346 66.4502ZM71.4497 68.3972L68.1759 73.4335L69.0872 74.0259L72.361 68.9896L71.4497 68.3972ZM68.1751 73.4347C68.2161 73.3713 68.2679 73.3218 68.3227 73.2856L68.921 74.1931C68.9836 74.1519 69.0419 74.0959 69.0879 74.0248L68.1751 73.4347ZM68.3255 73.2838L66.1444 74.703L66.7373 75.6141L68.9183 74.1949L68.3255 73.2838ZM66.9184 79.8941L66.9184 75.1408L65.8315 75.1408L65.8315 79.8941L66.9184 79.8941ZM66.9184 75.1408C66.9184 75.3169 66.8284 75.4756 66.6881 75.5677L66.0917 74.659C65.9327 74.7633 65.8315 74.9426 65.8315 75.1408L66.9184 75.1408ZM66.6863 75.5689L68.8764 74.1438L68.2836 73.2327L66.0935 74.6578L66.6863 75.5689ZM69.0357 73.9845L72.3112 68.9454L71.3999 68.353L68.1243 73.3921L69.0357 73.9845ZM72.3106 68.9464C72.2543 69.0326 72.1742 69.0984 72.0821 69.1374L71.6586 68.1363C71.5544 68.1804 71.464 68.2549 71.4005 68.352L72.3106 68.9464ZM72.0812 69.1378L76.2389 67.3881L75.8172 66.3862L71.6596 68.1359L72.0812 69.1378ZM76.2402 67.3875C76.1559 67.4233 76.0631 67.4359 75.9715 67.4233L76.1191 66.3464C76.0159 66.3323 75.9111 66.3464 75.8159 66.3868L76.2402 67.3875ZM75.9719 67.4234L81.5351 68.1815L81.6818 67.1045L76.1187 66.3464L75.9719 67.4234ZM81.5863 68.1861L88.7444 68.4774L88.7886 67.3914L81.6305 67.1L81.5863 68.1861ZM88.7441 68.4774C88.5443 68.4692 88.367 68.3448 88.2917 68.1583L89.2998 67.7517C89.2148 67.5412 89.0147 67.4007 88.7889 67.3914L88.7441 68.4774ZM88.2894 68.1524C88.2186 67.9708 88.2562 67.7577 88.3997 67.6106L89.1778 68.3695C89.3395 68.2037 89.3823 67.9632 89.3021 67.7575L88.2894 68.1524ZM88.3992 67.6111L82.565 73.6087L83.3441 74.3666L89.1783 68.369L88.3992 67.6111ZM82.4111 73.9877L82.4111 81.3985L83.498 81.3985L83.498 73.9877L82.4111 73.9877ZM82.5402 81.7501L88.1249 88.3313L88.9536 87.628L83.3689 81.0468L82.5402 81.7501ZM88.1221 88.3279C87.9941 88.1746 87.9637 87.954 88.0604 87.7667L89.0264 88.2649C89.1352 88.0539 89.1015 87.805 88.9564 87.6313L88.1221 88.3279ZM88.0599 87.7675C88.1545 87.5833 88.3485 87.4776 88.5489 87.4914L88.4743 88.5758C88.7013 88.5914 88.9202 88.4717 89.0269 88.264L88.0599 87.7675ZM88.5516 87.4916L81.4366 86.9667L81.3567 88.0507L88.4716 88.5756L88.5516 87.4916ZM81.3455 86.9676L75.788 87.4924L75.8902 88.5746L81.4477 88.0498L81.3455 86.9676ZM75.7892 87.4923C75.8783 87.4841 75.9683 87.4995 76.0501 87.5373L75.5942 88.524C75.6865 88.5666 75.7882 88.584 75.889 88.5747L75.7892 87.4923ZM76.0498 87.5371L72.0677 85.7L71.6124 86.687L75.5945 88.5241L76.0498 87.5371ZM72.0697 85.7009C72.1452 85.7361 72.2128 85.7903 72.2646 85.8604L71.39 86.5058C71.4484 86.5849 71.5247 86.6461 71.6104 86.6861L72.0697 85.7009ZM72.2648 85.8606L68.8709 81.2566L67.996 81.9015L71.3898 86.5056L72.2648 85.8606ZM68.7758 81.1569L66.7294 79.4974L66.0448 80.3417L68.0911 82.0012L68.7758 81.1569ZM66.7304 79.4982C66.8475 79.5936 66.9184 79.7382 66.9184 79.8941L65.8315 79.8941C65.8315 80.0698 65.9113 80.2329 66.0438 80.3409L66.7304 79.4982ZM75.7425 81.3521C75.7425 81.5524 75.6252 81.7359 75.4399 81.8185L74.9971 80.8259C74.788 80.9191 74.6556 81.1262 74.6556 81.3521L75.7425 81.3521ZM75.4405 81.8183L83.0719 78.4033L82.6279 77.4111L74.9965 80.8261L75.4405 81.8183ZM83.1246 77.4382L75.8597 73.1837L75.3104 74.1217L82.5753 78.3762L83.1246 77.4382ZM75.8602 73.184C76.0396 73.2893 76.1345 73.4904 76.1079 73.6913L75.0303 73.5488C75.0003 73.7757 75.1076 74.0026 75.3098 74.1213L75.8602 73.184ZM76.1077 73.6932C76.0799 73.8973 75.9324 74.0645 75.7338 74.1177L75.4526 73.0677C75.2284 73.1278 75.0619 73.3166 75.0306 73.5469L76.1077 73.6932ZM75.7329 74.1179L81.3214 72.6318L81.0421 71.5813L75.4535 73.0675L75.7329 74.1179ZM81.4439 72.5826L89.0114 68.4145L88.487 67.4624L80.9195 71.6305L81.4439 72.5826ZM89.0105 68.415C88.7663 68.5489 88.4562 68.4628 88.3187 68.2149L89.2692 67.6876C89.1141 67.4081 88.7639 67.3105 88.4878 67.4619L89.0105 68.415ZM88.3194 68.2162C88.18 67.9665 88.2733 67.6563 88.5172 67.5208L89.0451 68.471C89.3206 68.3179 89.4255 67.9677 89.2685 67.6864L88.3194 68.2162ZM88.5189 67.5198L80.9479 71.6899L81.4723 72.642L89.0433 68.4719L88.5189 67.5198ZM80.9552 71.686C80.9831 71.6711 81.0222 71.6537 81.0713 71.6415L81.3339 72.6963C81.3882 72.6827 81.4323 72.6633 81.4651 72.6459L80.9552 71.686ZM81.0629 71.6437L75.5466 73.1107L75.8259 74.1611L81.3423 72.6941L81.0629 71.6437ZM75.4116 74.1049L82.6637 78.3518L83.2129 77.4139L75.9609 73.1669L75.4116 74.1049ZM82.6644 78.3523C82.5254 78.2712 82.3853 78.0905 82.415 77.8472L83.494 77.9786C83.5266 77.7105 83.3725 77.507 83.2122 77.4134L82.6644 78.3523ZM82.4116 77.8866C82.421 77.6938 82.5383 77.5215 82.7169 77.4433L83.1533 78.4387C83.3544 78.3506 83.4868 78.1564 83.4973 77.9392L82.4116 77.8866ZM82.7131 77.4449L75.106 80.849L75.55 81.8412L83.1571 78.4371L82.7131 77.4449ZM75.1807 81.8682L81.2021 83.5642L81.4968 82.5179L75.4754 80.822L75.1807 81.8682ZM81.1975 83.5629C81.1456 83.5478 81.0976 83.5248 81.0549 83.496L81.6635 82.5954C81.6148 82.5625 81.5603 82.5364 81.5013 82.5193L81.1975 83.5629ZM81.0515 83.4936L88.2251 88.4218L88.8405 87.5259L81.667 82.5977L81.0515 83.4936ZM88.2274 88.4234C87.9905 88.2625 87.9336 87.9403 88.0955 87.7084L88.9868 88.3306C89.1696 88.0687 89.1052 87.7057 88.8382 87.5243L88.2274 88.4234ZM88.0943 87.7101C88.2556 87.4771 88.5728 87.422 88.8026 87.5795L88.1881 88.4761C88.4479 88.6542 88.8061 88.5916 88.988 88.3289L88.0943 87.7101ZM88.8031 87.5799L81.634 82.6548L81.0185 83.5508L88.1876 88.4758L88.8031 87.5799ZM81.4736 82.5797L75.3704 80.8606L75.0757 81.9068L81.1789 83.6259L81.4736 82.5797ZM75.3706 80.8607C75.5754 80.9184 75.7249 81.0982 75.7411 81.314L74.6571 81.3951C74.6753 81.6383 74.8441 81.8415 75.0754 81.9067L75.3706 80.8607ZM75.7415 81.3205C75.7422 81.3308 75.7424 81.3392 75.7425 81.3447C75.7425 81.3494 75.7425 81.3535 75.7425 81.3521L74.6556 81.3521C74.6556 81.3521 74.6556 81.3522 74.6556 81.3523C74.6556 81.3525 74.6556 81.3526 74.6556 81.3529C74.6556 81.3533 74.6556 81.3539 74.6556 81.3548C74.6556 81.3564 74.6556 81.3589 74.6557 81.362C74.6558 81.3682 74.656 81.3775 74.6567 81.3886L75.7415 81.3205ZM81.098 67.241L75.8779 70.3322L76.4317 71.2674L81.6518 68.1763L81.098 67.241ZM76.0187 71.326L81.0271 72.6215L81.2993 71.5691L76.2909 70.2736L76.0187 71.326ZM81.706 72.1215L81.9178 67.7348L80.8321 67.6824L80.6203 72.0691L81.706 72.1215ZM81.0266 82.5354L75.8945 83.6643L76.128 84.7259L81.2602 83.597L81.0266 82.5354ZM75.731 84.6608L81.0828 87.8817L81.6433 86.9503L76.2915 83.7295L75.731 84.6608ZM81.9058 87.3886L81.6862 83.0388L80.6006 83.0936L80.8203 87.4434L81.9058 87.3886ZM75.5684 70.9605L75.0995 73.5328L76.1688 73.7277L76.6378 71.1555L75.5684 70.9605ZM75.0996 73.532C75.1209 73.416 75.1829 73.3064 75.2808 73.2272L75.9646 74.0721C76.0746 73.9831 76.1445 73.8598 76.1687 73.7285L75.0996 73.532ZM75.2762 73.231L73.0714 75.0562L73.7645 75.8935L75.9693 74.0683L75.2762 73.231ZM73.2847 76.0017L82.7403 78.392L83.0067 77.3382L73.5511 74.9479L73.2847 76.0017ZM83.3941 77.7093L81.6886 72.0086L80.6472 72.3201L82.3528 78.0209L83.3941 77.7093ZM81.304 71.6382L76.2378 70.3277L75.9656 71.38L81.0318 72.6905L81.304 71.6382ZM75.5582 70.8576L75.5596 71.0617L76.6466 71.0543L76.6452 70.8501L75.5582 70.8576ZM73.0127 72.9895L72.8433 75.378L73.9276 75.4548L74.0969 73.0664L73.0127 72.9895ZM73.732 75.8351L75.918 74.0255L75.2249 73.1882L73.0389 74.9978L73.732 75.8351ZM76.1061 73.7044L76.5724 71.15L75.5031 70.9548L75.0368 73.5092L76.1061 73.7044ZM76.5812 71.0486L76.58 70.8805L75.4931 70.8881L75.4942 71.0563L76.5812 71.0486ZM75.6813 70.473L73.1995 72.6167L73.91 73.4392L76.3918 71.2956L75.6813 70.473ZM72.9512 80.019L72.8381 82.2711L73.9237 82.3256L74.0368 80.0735L72.9512 80.019ZM73.0621 82.7385L75.5517 84.5418L76.1893 83.6615L73.6997 81.8582L73.0621 82.7385ZM76.3984 83.9725L75.7306 81.2418L74.6748 81.5L75.3426 84.2307L76.3984 83.9725ZM75.5357 80.9414L73.827 79.6167L73.161 80.4757L74.8697 81.8005L75.5357 80.9414ZM75.7725 83.6911L72.5367 84.3978L72.7686 85.4598L76.0044 84.7531L75.7725 83.6911ZM72.274 85.3187L75.3004 88.2579L76.0577 87.4781L73.0313 84.5389L72.274 85.3187ZM76.2216 87.8991L76.431 84.2533L75.3458 84.1909L75.1365 87.8368L76.2216 87.8991ZM72.8441 82.2154L72.1116 84.713L73.1546 85.0189L73.8871 82.5213L72.8441 82.2154ZM72.7491 85.3969L75.9611 84.6954L75.7291 83.6334L72.5171 84.335L72.7491 85.3969ZM76.1639 83.7243L73.6844 81.9282L73.0468 82.8085L75.5263 84.6045L76.1639 83.7243ZM75.6369 66.5962L72.186 69.8298L72.9292 70.6229L76.3801 67.3893L75.6369 66.5962ZM72.4732 70.7632L75.9513 71.3101L76.1201 70.2363L72.6421 69.6895L72.4732 70.7632ZM76.5792 70.7693L76.5519 66.9888L75.465 66.9967L75.4923 70.7771L76.5792 70.7693ZM73.0673 75.0634L69.9308 76.9978L70.5014 77.923L73.6379 75.9886L73.0673 75.0634ZM70.1982 78.0036L82.6005 78.4115L82.6362 77.3251L70.234 76.9172L70.1982 78.0036ZM82.7516 77.3414L73.4858 74.9991L73.2194 76.0529L82.4852 78.3952L82.7516 77.3414ZM82.6758 77.3921L70.228 76.9827L70.1923 78.069L82.64 78.4784L82.6758 77.3921ZM69.8863 77.9623L73.148 80.3827L73.7958 79.5099L70.534 77.0894L69.8863 77.9623ZM73.5881 80.4772L82.7741 78.4662L82.5417 77.4044L73.3557 79.4154L73.5881 80.4772ZM73.6478 79.4819L70.4648 77.1199L69.8171 77.9928L73.0001 80.3548L73.6478 79.4819ZM69.5977 77.5714L69.6447 79.27L70.7312 79.2399L70.6842 77.5413L69.5977 77.5714ZM70.0755 79.7867L73.2115 80.4501L73.4364 79.3866L70.3004 78.7232L70.0755 79.7867ZM73.1907 79.5468L69.4476 81.3687L69.9234 82.346L73.6665 80.5241L73.1907 79.5468ZM69.623 82.3972L73.2535 82.8177L73.3785 81.7379L69.748 81.3175L69.623 82.3972ZM73.8588 82.3051L73.9714 80.0627L72.8858 80.0082L72.7732 82.2505L73.8588 82.3051ZM70.0807 81.877C70.0807 82.068 69.973 82.2489 69.7933 82.3363L69.3179 81.3588C69.1152 81.4574 68.9937 81.6613 68.9937 81.877L70.0807 81.877ZM69.7935 82.3362L73.6019 80.4825L73.1262 79.5052L69.3178 81.3589L69.7935 82.3362ZM73.4765 79.4622L70.2613 78.7821L70.0364 79.8455L73.2516 80.5256L73.4765 79.4622ZM70.2616 78.7821C70.4912 78.8308 70.6593 79.0305 70.666 79.2671L69.5795 79.298C69.5871 79.5649 69.7767 79.7904 70.0361 79.8454L70.2616 78.7821ZM70.666 79.2676L70.6165 77.476L69.53 77.506L69.5795 79.2976L70.666 79.2676ZM70.6167 77.4987C70.6164 77.5153 70.6153 77.5715 70.5938 77.6406L69.5557 77.3187C69.532 77.3951 69.5302 77.4591 69.5298 77.4833L70.6167 77.4987ZM70.4583 77.8647C70.4937 77.8294 70.5251 77.7884 70.5505 77.7424C70.5735 77.7007 70.5858 77.6652 70.5908 77.65C70.5947 77.6385 70.5987 77.6243 70.5964 77.6323C70.5955 77.6354 70.5933 77.6427 70.5902 77.6519L69.5595 77.3069C69.5564 77.3162 69.5542 77.3235 69.5533 77.3266C69.5509 77.3347 69.555 77.3205 69.5588 77.309C69.5638 77.2939 69.576 77.2585 69.5991 77.2167C69.6245 77.1708 69.6558 77.1298 69.6912 77.0946L70.4583 77.8647ZM70.6183 77.4794C70.6183 77.4783 70.6186 77.4996 70.6164 77.5255C70.614 77.5529 70.6089 77.5883 70.5975 77.6283C70.5731 77.7137 70.5269 77.796 70.4585 77.8642L69.6914 77.094C69.6229 77.1623 69.5766 77.2447 69.5522 77.3302C69.5408 77.3703 69.5357 77.4057 69.5333 77.4331C69.5311 77.459 69.5314 77.4804 69.5314 77.4794L70.6183 77.4794ZM70.5607 77.7229C70.577 77.6903 70.596 77.6445 70.6076 77.5872C70.6194 77.5292 70.6185 77.4815 70.6185 77.4789L69.5315 77.4789C69.5315 77.4763 69.5306 77.4287 69.5424 77.3707C69.554 77.3135 69.573 77.2677 69.5893 77.2353L70.5607 77.7229ZM69.5315 77.4789C69.5315 77.4625 69.5321 77.4219 69.5423 77.3714C69.547 77.3479 69.5587 77.2971 69.5877 77.2382C69.609 77.1951 69.6891 77.0446 69.881 76.9712C70.1206 76.8797 70.3214 76.9802 70.414 77.0541C70.4955 77.1191 70.5369 77.191 70.5513 77.2172C70.5849 77.2782 70.5984 77.3313 70.6029 77.3495C70.6233 77.4329 70.6198 77.5038 70.614 77.5486C70.5995 77.661 70.5487 77.774 70.4586 77.8637L69.6916 77.0935C69.6014 77.1834 69.5506 77.2966 69.536 77.4091C69.5302 77.4539 69.5267 77.5248 69.5472 77.6083C69.5516 77.6264 69.5652 77.6796 69.5987 77.7406C69.6131 77.7668 69.6545 77.8386 69.736 77.9037C69.8287 77.9776 70.0295 78.0781 70.269 77.9866C70.4609 77.9132 70.541 77.7627 70.5623 77.7196C70.5914 77.6607 70.603 77.6099 70.6078 77.5863C70.618 77.5358 70.6185 77.4953 70.6185 77.4789L69.5315 77.4789ZM70.0751 77.4786C70.5915 77.648 70.5915 77.648 70.5916 77.6479C70.5916 77.6479 70.5916 77.6478 70.5916 77.6478C70.5916 77.6477 70.5916 77.6477 70.5917 77.6476C70.5917 77.6475 70.5918 77.6473 70.5918 77.6472C70.5919 77.6469 70.592 77.6467 70.5921 77.6464C70.5922 77.6458 70.5924 77.6453 70.5926 77.6447C70.593 77.6435 70.5934 77.6423 70.5938 77.641C70.5946 77.6385 70.5954 77.6356 70.5964 77.6325C70.5981 77.6265 70.6004 77.6183 70.6029 77.6085C70.6047 77.601 70.6187 77.5476 70.6187 77.4783L69.5317 77.4783C69.5317 77.4092 69.5456 77.356 69.5474 77.3486C69.5499 77.3388 69.5522 77.3306 69.5539 77.3246C69.5548 77.3215 69.5557 77.3187 69.5565 77.3162C69.5569 77.3149 69.5573 77.3137 69.5576 77.3125C69.5578 77.312 69.558 77.3114 69.5582 77.3108C69.5583 77.3106 69.5584 77.3103 69.5585 77.31C69.5585 77.3099 69.5586 77.3097 69.5586 77.3096C69.5586 77.3095 69.5586 77.3095 69.5587 77.3094C69.5587 77.3094 69.5587 77.3093 69.5587 77.3093C69.5587 77.3093 69.5587 77.3092 70.0751 77.4786ZM70.5268 77.7807C70.5348 77.7687 70.5422 77.7567 70.5491 77.7444C70.5524 77.7385 70.5552 77.7333 70.5573 77.7292C70.5593 77.7254 70.5609 77.7222 70.5608 77.7225C70.5608 77.7225 70.5608 77.7225 70.5608 77.7225C70.5608 77.7225 70.5608 77.7225 70.5608 77.7225C70.5607 77.7225 70.5607 77.7225 70.5607 77.7225C70.5607 77.7225 70.5607 77.7226 70.5607 77.7226C70.5606 77.7227 70.5606 77.7228 70.5605 77.723C70.5603 77.7234 70.56 77.7239 70.5596 77.7247C70.5589 77.7261 70.5576 77.7287 70.5559 77.7319C70.5526 77.7381 70.5466 77.7493 70.5382 77.7629C70.5193 77.7937 70.4935 77.8286 70.4589 77.8632L69.6918 77.093C69.6571 77.1276 69.6314 77.1625 69.6124 77.1934C69.604 77.207 69.598 77.2182 69.5947 77.2244C69.593 77.2276 69.5917 77.2302 69.5909 77.2316C69.5906 77.2324 69.5903 77.233 69.5901 77.2333C69.59 77.2335 69.5899 77.2336 69.5899 77.2337C69.5899 77.2338 69.5898 77.2338 69.5898 77.2338C69.5898 77.2338 69.5898 77.2339 69.5898 77.2339C69.5898 77.2339 69.5898 77.2339 69.5898 77.2339C69.5897 77.2342 69.5912 77.231 69.5932 77.2272C69.5954 77.2231 69.5981 77.2179 69.6014 77.212C69.6083 77.1999 69.6156 77.1879 69.6235 77.176L70.5268 77.7807ZM70.5842 77.669C70.5526 77.7531 70.4998 77.8266 70.4318 77.8829L69.7386 77.0457C69.6617 77.1094 69.6021 77.1924 69.5665 77.2871L70.5842 77.669ZM70.0852 77.4643C69.8449 77.9518 69.8451 77.9519 69.8454 77.952C69.8454 77.952 69.8456 77.9521 69.8458 77.9522C69.8461 77.9523 69.8464 77.9525 69.8467 77.9526C69.8473 77.9529 69.8478 77.9532 69.8484 77.9535C69.8496 77.9541 69.8509 77.9547 69.8521 77.9553C69.8546 77.9565 69.8573 77.9577 69.8601 77.9589C69.8656 77.9614 69.8717 77.9641 69.8785 77.9669C69.8916 77.9723 69.9091 77.9789 69.9302 77.9852C69.9604 77.9942 70.0499 78.019 70.1651 78.0019C70.3112 77.9802 70.4898 77.888 70.5802 77.6891C70.6499 77.5357 70.6269 77.4002 70.6182 77.3571L69.5525 77.5711C69.5439 77.5282 69.5209 77.3928 69.5906 77.2395C69.6293 77.1541 69.6919 77.0753 69.7771 77.0167C69.8592 76.9602 69.9418 76.9362 70.0055 76.9267C70.1206 76.9096 70.2101 76.9344 70.2403 76.9434C70.2614 76.9497 70.2788 76.9563 70.2919 76.9617C70.2987 76.9644 70.3048 76.9671 70.3103 76.9696C70.3131 76.9709 70.3158 76.9721 70.3183 76.9733C70.3195 76.9739 70.3208 76.9745 70.322 76.9751C70.3226 76.9754 70.3231 76.9757 70.3237 76.976C70.324 76.9761 70.3243 76.9762 70.3246 76.9764C70.3248 76.9765 70.325 76.9766 70.325 76.9766C70.3253 76.9767 70.3255 76.9768 70.0852 77.4643ZM70.4168 77.8948C70.4189 77.8932 70.4104 77.8999 70.3999 77.9072C70.3881 77.9155 70.3698 77.9278 70.346 77.9405L69.8323 76.9826C69.8071 76.9961 69.7874 77.0092 69.7744 77.0183C69.7679 77.0229 69.7627 77.0267 69.7594 77.0292C69.7578 77.0305 69.7564 77.0315 69.7555 77.0322C69.7547 77.0328 69.7539 77.0334 69.7539 77.0334L70.4168 77.8948ZM70.3744 77.9241L73.6008 75.9342L73.0302 75.0091L69.8038 76.999L70.3744 77.9241ZM73.8576 75.5101L74.0321 73.0482L72.9479 72.9713L72.7734 75.4332L73.8576 75.5101ZM74.032 73.0501C74.0221 73.1824 73.9606 73.3092 73.8553 73.3996L73.1473 72.5748C73.0287 72.6766 72.9591 72.8198 72.948 72.9695L74.032 73.0501ZM73.8566 73.3985L76.3503 71.2445L75.6398 70.4219L73.146 72.576L73.8566 73.3985ZM76.0795 70.2963L72.5654 69.7438L72.3965 70.8176L75.9107 71.3701L76.0795 70.2963ZM72.562 69.7433C72.7564 69.7727 72.9167 69.9109 72.9743 70.0989L71.9349 70.4171C71.9998 70.6291 72.1806 70.785 72.3999 70.8181L72.562 69.7433ZM72.9725 70.0933C73.0333 70.2845 72.9762 70.4888 72.8352 70.621L72.0918 69.828C71.9325 69.9773 71.8683 70.2078 71.9367 70.4228L72.9725 70.0933ZM72.8351 70.621L76.3899 67.2901L75.6467 66.4969L72.0919 69.8279L72.8351 70.621ZM76.3904 67.2895C76.2423 67.4287 76.0255 67.4669 75.8386 67.3863L76.269 66.3882C76.058 66.2972 75.8133 66.3403 75.6461 66.4974L76.3904 67.2895ZM75.8423 67.3879C75.6555 67.309 75.5312 67.1257 75.5303 66.9194L76.6173 66.9149C76.6163 66.6825 76.4762 66.4757 76.2653 66.3866L75.8423 67.3879ZM75.5303 66.921L75.5575 70.7592L76.6444 70.7516L76.6173 66.9133L75.5303 66.921ZM76.3779 71.223L81.6708 68.0887L81.117 67.1534L75.824 70.2878L76.3779 71.223ZM81.6713 68.0884C81.5106 68.1838 81.31 68.184 81.1486 68.0874L81.7069 67.1548C81.5247 67.0457 81.298 67.046 81.1166 67.1537L81.6713 68.0884ZM81.1458 68.0857C81 67.9972 80.8833 67.821 80.9022 67.6036L81.9851 67.698C82.006 67.4571 81.8762 67.2575 81.7097 67.1565L81.1458 68.0857ZM80.9008 67.6246L80.6849 72.0987L81.7706 72.1511L81.9865 67.677L80.9008 67.6246ZM80.8318 72.4972L82.5497 74.3242L83.3416 73.5796L81.6237 71.7526L80.8318 72.4972ZM82.5478 74.3222C82.3593 74.1197 82.3636 73.7964 82.5737 73.6006L83.3145 74.396C83.5513 74.1755 83.5566 73.8106 83.3434 73.5816L82.5478 74.3222ZM82.5729 73.6014C82.7798 73.4079 83.1015 73.4209 83.2929 73.6239L82.5022 74.3696C82.7185 74.5991 83.082 74.6135 83.3153 74.3953L82.5729 73.6014ZM83.2935 73.6245L81.6615 71.8889L80.8697 72.6335L82.5016 74.3691L83.2935 73.6245ZM80.7449 72.417L82.4323 78.0569L83.4737 77.7453L81.7863 72.1054L80.7449 72.417ZM82.434 78.0624C82.4221 78.0239 82.4167 77.9907 82.4141 77.9671L83.4947 77.8492C83.4916 77.8206 83.4854 77.7828 83.472 77.7398L82.434 78.0624ZM82.4121 77.9439C82.406 77.8518 82.4248 77.7429 82.4884 77.6408L83.411 78.2155C83.4818 78.1018 83.5038 77.9792 83.4967 77.8724L82.4121 77.9439ZM82.4062 77.9282L82.4062 77.9282L83.4932 77.9282L83.4932 77.9282L82.4062 77.9282ZM82.564 77.5454L82.564 77.5454L83.3354 78.3112L83.3354 78.3111L82.564 77.5454ZM82.4062 77.9283C82.4062 77.9494 82.4038 77.8874 82.4164 77.8235C82.4247 77.781 82.4402 77.7292 82.469 77.6746C82.4979 77.6199 82.5327 77.5766 82.5661 77.5433C82.6232 77.4864 82.6802 77.4563 82.687 77.4526C82.6995 77.4456 82.7121 77.4395 82.7073 77.4419L83.1918 78.4149C83.1871 78.4172 83.1997 78.4111 83.2123 78.4042C83.2191 78.4004 83.2761 78.3703 83.3332 78.3134C83.3666 78.2801 83.4014 78.2367 83.4303 78.1821C83.4591 78.1274 83.4746 78.0756 83.4829 78.0332C83.4955 77.9692 83.4931 77.9072 83.4931 77.9283L82.4062 77.9283ZM82.9496 77.9284C82.4642 77.6838 82.4642 77.6838 82.4642 77.6838C82.4642 77.6838 82.4642 77.6839 82.4642 77.6839C82.4642 77.6839 82.4642 77.6839 82.4641 77.684C82.4641 77.684 82.4641 77.6841 82.4641 77.6842C82.464 77.6843 82.4639 77.6844 82.4639 77.6846C82.4637 77.6848 82.4636 77.6851 82.4634 77.6854C82.4631 77.686 82.4628 77.6866 82.4625 77.6873C82.4618 77.6887 82.461 77.6904 82.46 77.6923C82.4586 77.6953 82.455 77.7029 82.4507 77.7127C82.4486 77.7175 82.4447 77.7269 82.4402 77.7389C82.438 77.7449 82.4257 77.7771 82.417 77.82C82.4138 77.8357 82.4012 77.897 82.4081 77.9759C82.4119 78.0196 82.4473 78.3343 82.778 78.4443C82.9179 78.4908 83.0381 78.469 83.1029 78.4499C83.1686 78.4306 83.2162 78.403 83.2408 78.3874C83.2898 78.3563 83.3223 78.3244 83.333 78.3136L82.566 77.5435C82.5768 77.5328 82.6092 77.5008 82.6582 77.4697C82.6828 77.4541 82.7304 77.4265 82.7961 77.4072C82.8609 77.3881 82.981 77.3663 83.121 77.4128C83.2745 77.4639 83.3745 77.5711 83.4285 77.6719C83.4761 77.7607 83.4874 77.841 83.4909 77.8812C83.4978 77.9601 83.4852 78.0214 83.482 78.0371C83.4733 78.08 83.461 78.1122 83.4588 78.1182C83.4544 78.1302 83.4504 78.1395 83.4483 78.1443C83.4441 78.1541 83.4405 78.1616 83.4391 78.1645C83.4381 78.1665 83.4373 78.1681 83.4366 78.1695C83.4363 78.1702 83.436 78.1708 83.4357 78.1714C83.4356 78.1717 83.4354 78.172 83.4353 78.1722C83.4352 78.1724 83.4351 78.1725 83.4351 78.1726C83.435 78.1727 83.435 78.1728 83.435 78.1728C83.435 78.1728 83.4349 78.1729 83.4349 78.1729C83.4349 78.1729 83.4349 78.173 83.4349 78.173C83.4349 78.173 83.4349 78.173 82.9496 77.9284ZM82.5638 77.5457L82.5637 77.5457L83.3352 78.3115L83.3352 78.3114L82.5638 77.5457ZM82.4805 77.6539C82.4916 77.6349 82.503 77.6182 82.514 77.6036L83.3823 78.2575C83.3943 78.2416 83.4065 78.2236 83.4184 78.2033L82.4805 77.6539ZM82.5646 77.5455C82.5314 77.5786 82.509 77.6095 82.4959 77.6291C82.4901 77.6378 82.4857 77.6451 82.4857 77.6451C82.4839 77.6479 82.4893 77.639 82.4955 77.6297C82.5059 77.6141 82.551 77.5456 82.6351 77.4863C82.7347 77.4162 82.8462 77.3872 82.9481 77.3872L82.9481 78.4741C83.05 78.4741 83.1615 78.4451 83.2611 78.3749C83.3452 78.3157 83.3903 78.2472 83.4007 78.2315C83.4069 78.2222 83.4123 78.2133 83.4106 78.2161C83.4106 78.2161 83.4061 78.2234 83.4003 78.2321C83.3873 78.2516 83.3649 78.2825 83.3317 78.3156L82.5646 77.5455ZM82.4964 77.6283C82.5045 77.6162 82.5178 77.5974 82.5362 77.576C82.5521 77.5576 82.5673 77.5429 82.5643 77.5459L83.3313 78.316C83.3284 78.3189 83.3437 78.3041 83.3596 78.2856C83.3781 78.2642 83.3915 78.2453 83.3997 78.233L82.4964 77.6283ZM82.4043 77.931C82.4043 77.931 82.4043 77.9308 82.4043 77.9306C82.4043 77.9304 82.4043 77.93 82.4043 77.9295C82.4043 77.9287 82.4043 77.927 82.4043 77.9249C82.4044 77.9215 82.4045 77.9125 82.4051 77.9011C82.4062 77.8812 82.41 77.8245 82.4332 77.7562C82.4596 77.6784 82.4986 77.6215 82.5288 77.585C82.5495 77.5599 82.5717 77.5386 82.5642 77.5461L83.3312 78.3162C83.3238 78.3237 83.346 78.3023 83.3668 78.2772C83.397 78.2407 83.4359 78.1837 83.4624 78.1059C83.4856 78.0376 83.4893 77.9809 83.4904 77.9609C83.4911 77.9495 83.4912 77.9406 83.4912 77.9371C83.4913 77.935 83.4913 77.9333 83.4913 77.9325C83.4913 77.932 83.4913 77.9316 83.4913 77.9314C83.4913 77.9312 83.4913 77.931 83.4913 77.931L82.4043 77.931ZM82.5642 77.5461C82.5328 77.5773 82.5122 77.606 82.5105 77.6084C82.5015 77.6205 82.5287 77.5813 82.5651 77.5452C82.613 77.4977 82.6782 77.451 82.7616 77.4206C82.8379 77.3928 82.9048 77.3878 82.9476 77.3878L82.9476 78.4747C82.9904 78.4747 83.0573 78.4697 83.1337 78.4419C83.2171 78.4115 83.2823 78.3647 83.3303 78.3172C83.3667 78.2811 83.3938 78.2419 83.3849 78.254C83.3832 78.2563 83.3626 78.285 83.3312 78.3162L82.5642 77.5461ZM82.4041 77.9312L82.4041 77.9313L83.491 77.9313L83.491 77.9312L82.4041 77.9312ZM82.5203 77.5954C82.5894 77.5076 82.6895 77.4399 82.8093 77.4129L83.0489 78.4731C83.1839 78.4426 83.2968 78.3664 83.3748 78.2672L82.5203 77.5954ZM82.3856 77.943C82.3856 77.943 82.3856 77.9428 82.3856 77.9426C82.3856 77.9424 82.3856 77.942 82.3856 77.9415C82.3856 77.9407 82.3856 77.939 82.3857 77.9369C82.3857 77.9336 82.3858 77.924 82.3865 77.9116C82.3867 77.9083 82.3887 77.8081 82.4434 77.6992C82.4774 77.6315 82.5308 77.5608 82.6093 77.5037C82.6844 77.449 82.7579 77.4248 82.8074 77.4134C82.8539 77.4027 82.8912 77.4008 82.9049 77.4002C82.9132 77.3998 82.9199 77.3997 82.9232 77.3996C82.9251 77.3996 82.9265 77.3996 82.9274 77.3996C82.9283 77.3996 82.929 77.3996 82.929 77.3996L82.929 78.4866C82.9291 78.4866 82.9298 78.4866 82.9307 78.4866C82.9316 78.4866 82.933 78.4866 82.9349 78.4865C82.9383 78.4865 82.9449 78.4864 82.9533 78.486C82.9669 78.4854 83.0043 78.4835 83.0507 78.4728C83.1003 78.4614 83.1738 78.4372 83.2489 78.3825C83.3273 78.3254 83.3808 78.2547 83.4148 78.1869C83.4695 78.0781 83.4715 77.9778 83.4717 77.9744C83.4724 77.9621 83.4725 77.9524 83.4725 77.9491C83.4726 77.947 83.4726 77.9453 83.4726 77.9445C83.4726 77.944 83.4726 77.9436 83.4726 77.9434C83.4726 77.9432 83.4726 77.943 83.4726 77.943L82.3856 77.943ZM82.929 77.3996C82.907 77.3996 82.8885 77.401 82.8754 77.4023C82.8621 77.4036 82.8512 77.4052 82.8437 77.4064C82.8362 77.4075 82.8302 77.4087 82.8269 77.4093C82.8251 77.4096 82.8237 77.4099 82.8229 77.4101C82.8225 77.4102 82.8221 77.4102 82.8219 77.4103C82.8218 77.4103 82.8217 77.4103 82.8217 77.4103C82.8216 77.4103 82.8216 77.4103 82.8216 77.4103C82.8216 77.4103 82.8216 77.4103 82.8216 77.4103C82.8216 77.4103 82.8216 77.4103 82.8216 77.4103C82.8211 77.4104 82.8237 77.4099 82.8268 77.4093C82.83 77.4087 82.836 77.4076 82.8435 77.4064C82.8509 77.4052 82.8618 77.4036 82.8751 77.4023C82.8882 77.401 82.9066 77.3997 82.9287 77.3997L82.9287 78.4866C82.9508 78.4866 82.9692 78.4853 82.9823 78.484C82.9956 78.4827 83.0066 78.4811 83.014 78.4799C83.0215 78.4787 83.0275 78.4776 83.0308 78.4769C83.0326 78.4766 83.034 78.4763 83.0348 78.4762C83.0352 78.4761 83.0356 78.476 83.0358 78.476C83.0359 78.4759 83.036 78.4759 83.0361 78.4759C83.0361 78.4759 83.0361 78.4759 83.0361 78.4759C83.0361 78.4759 83.0361 78.4759 83.0361 78.4759C83.0361 78.4759 83.0361 78.4759 83.0361 78.4759C83.0366 78.4758 83.034 78.4763 83.0309 78.4769C83.0277 78.4775 83.0217 78.4787 83.0142 78.4798C83.0068 78.481 82.9959 78.4826 82.9826 78.4839C82.9695 78.4852 82.9511 78.4866 82.929 78.4866L82.929 77.3996ZM82.8124 77.4122L73.4237 79.4677L73.6561 80.5295L83.0449 78.4741L82.8124 77.4122ZM73.2069 80.4281L74.9193 81.7558L75.5853 80.8968L73.8729 79.5691L73.2069 80.4281ZM74.9195 81.7559C74.8272 81.6844 74.7628 81.5841 74.7357 81.472L75.7922 81.2167C75.7617 81.0903 75.689 80.9771 75.5851 80.8966L74.9195 81.7559ZM74.736 81.4735L75.4202 84.2709L76.4761 84.0127L75.7919 81.2152L74.736 81.4735ZM76.0649 84.6726L81.284 83.5246L81.0505 82.463L75.8314 83.611L76.0649 84.6726ZM81.2821 83.525C81.1381 83.5561 80.9847 83.5239 80.8638 83.4312L81.5248 82.5683C81.3884 82.4639 81.2152 82.4274 81.0524 82.4626L81.2821 83.525ZM80.8676 83.4341C80.7457 83.3424 80.672 83.2019 80.6644 83.0514L81.75 82.9969C81.7415 82.8271 81.6582 82.6687 81.521 82.5654L80.8676 83.4341ZM80.6644 83.0516L80.8892 87.5017L81.9748 87.4468L81.75 82.9968L80.6644 83.0516ZM80.8913 87.5288C80.8807 87.4238 80.9028 87.3167 80.9561 87.223C81.007 87.1335 81.0762 87.0738 81.1387 87.0367L81.6934 87.9714C81.8472 87.8802 81.9994 87.6846 81.9727 87.4197L80.8913 87.5288ZM81.1373 87.0375C81.3009 86.9398 81.5031 86.9422 81.663 87.0387L81.1012 87.9692C81.2819 88.0783 81.5102 88.0809 81.6948 87.9706L81.1373 87.0375ZM81.6623 87.0383L76.2338 83.7714L75.6734 84.7027L81.1018 87.9696L81.6623 87.0383ZM75.411 84.2058L75.1981 87.9124L76.2832 87.9748L76.4962 84.2682L75.411 84.2058ZM75.198 87.9141C75.209 87.7121 75.3377 87.5369 75.5248 87.465L75.9146 88.4797C76.1257 88.3986 76.271 88.2008 76.2833 87.9731L75.198 87.9141ZM75.5248 87.465C75.7082 87.3946 75.9191 87.435 76.0637 87.5757L75.3059 88.3549C75.4689 88.5134 75.7072 88.5594 75.9146 88.4797L75.5248 87.465ZM76.0635 87.5754L72.9718 84.5728L72.2145 85.3525L75.3062 88.3551L76.0635 87.5754ZM72.1238 84.6886L71.413 85.9061L72.3517 86.4542L73.0625 85.2367L72.1238 84.6886ZM71.4139 85.9047C71.5551 85.6645 71.8653 85.5801 72.1099 85.7219L71.5647 86.6622C71.8407 86.8223 72.1912 86.7271 72.3509 86.4556L71.4139 85.9047ZM72.1111 85.7226C72.3546 85.8646 72.4363 86.1763 72.2958 86.4193L71.3549 85.8752C71.1964 86.1493 71.2886 86.5012 71.5635 86.6615L72.1111 85.7226ZM72.2947 86.4212L73.0247 85.1707L72.086 84.6227L71.356 85.8732L72.2947 86.4212ZM73.0769 85.0497L73.8261 82.4956L72.7831 82.1896L72.0339 84.7438L73.0769 85.0497ZM73.3671 81.8027L69.6289 81.3697L69.5038 82.4495L73.242 82.8825L73.3671 81.8027ZM69.63 81.3699C69.8518 81.396 70.0332 81.5643 70.0728 81.788L69.0024 81.9772C69.047 82.2295 69.2518 82.4197 69.5026 82.4493L69.63 81.3699ZM70.0758 81.8075C70.0794 81.833 70.0807 81.8564 70.0807 81.877L68.9937 81.877C68.9937 81.9012 68.9952 81.9282 68.9993 81.9576L70.0758 81.8075ZM72.0521 69.9542L69.4675 72.999L70.2961 73.7024L72.8808 70.6576L72.0521 69.9542ZM69.937 73.8914L73.5322 73.5245L73.4218 72.4431L69.8266 72.81L69.937 73.8914ZM73.9855 72.7919L72.9749 70.114L71.958 70.4978L72.9685 73.1757L73.9855 72.7919ZM69.6585 72.9012L68.5144 73.2072L68.7953 74.2572L69.9394 73.9512L69.6585 72.9012ZM68.1914 74.016L69.6207 76.3505L70.5477 75.7829L69.1184 73.4484L68.1914 74.016ZM70.184 76.601L73.3551 76.0087L73.1556 74.9402L69.9844 75.5325L70.184 76.601ZM73.5324 75.0069L70.0761 72.9586L69.5219 73.8937L72.9783 75.942L73.5324 75.0069ZM69.1144 73.7119C69.1144 73.7746 69.1028 73.8404 69.0767 73.9046L68.0699 73.4948C68.0405 73.567 68.0274 73.6411 68.0274 73.7119L69.1144 73.7119ZM69.0778 73.9018C69.0172 74.0531 68.8897 74.1636 68.7372 74.2049L68.4533 73.1556C68.281 73.2023 68.137 73.3273 68.0688 73.4977L69.0778 73.9018ZM68.7356 74.2053L69.9262 73.8871L69.6456 72.837L68.455 73.1552L68.7356 74.2053ZM70.2002 73.7138L72.8542 70.5873L72.0256 69.8838L69.3716 73.0104L70.2002 73.7138ZM72.9484 70.0437L72.3609 68.4867L71.3439 68.8705L71.9314 70.4274L72.9484 70.0437ZM72.3579 68.4791C72.467 68.7556 72.3189 69.0493 72.062 69.1454L71.6813 68.1273C71.3902 68.2361 71.2245 68.568 71.3468 68.8781L72.3579 68.4791ZM72.0625 69.1452C71.8004 69.2435 71.5046 69.1123 71.405 68.8458L72.4231 68.4653C72.3108 68.1648 71.977 68.0164 71.6808 68.1275L72.0625 69.1452ZM71.4056 68.8474L71.9802 70.3701L72.9971 69.9863L72.4225 68.4636L71.4056 68.8474ZM72.9031 70.5298L72.9166 70.5139L72.0878 69.8106L72.0743 69.8265L72.9031 70.5298ZM72.9158 70.5148C72.7347 70.7272 72.414 70.7562 72.1978 70.5734L72.8995 69.7433C72.6555 69.5371 72.2932 69.5696 72.0885 69.8097L72.9158 70.5148ZM72.197 70.5727C71.9833 70.3914 71.9543 70.0687 72.1387 69.8522L72.9662 70.5569C73.1742 70.3128 73.1417 69.9489 72.9003 69.744L72.197 70.5727ZM72.1379 69.8532L72.1005 69.8972L72.9298 70.6L72.9671 70.5559L72.1379 69.8532ZM72.0067 70.4405L73.0452 73.1924L74.0621 72.8087L73.0236 70.0567L72.0067 70.4405ZM73.0464 73.1955C72.9884 73.0448 73.0053 72.877 73.0897 72.7417L74.012 73.3169C74.1071 73.1643 74.1261 72.975 74.0609 72.8055L73.0464 73.1955ZM73.0876 72.745C73.1723 72.6071 73.3155 72.5196 73.472 72.5039L73.5803 73.5855C73.7572 73.5677 73.9188 73.4689 74.0141 73.3135L73.0876 72.745ZM73.4711 72.504L69.8517 72.873L69.9619 73.9544L73.5813 73.5854L73.4711 72.504ZM69.6297 73.8812L73.087 75.9301L73.6411 74.995L70.1839 72.9461L69.6297 73.8812ZM73.0881 75.9308C72.9021 75.8212 72.8089 75.6099 72.8439 75.4051L73.9153 75.5879C73.9549 75.3559 73.8495 75.1178 73.64 74.9944L73.0881 75.9308ZM72.8444 75.4019C72.8816 75.1915 73.0453 75.0276 73.2536 74.9888L73.4528 76.0573C73.6882 76.0134 73.8729 75.8283 73.9148 75.5911L72.8444 75.4019ZM73.2535 74.9888L69.9741 75.6011L70.1737 76.6696L73.453 76.0573L73.2535 74.9888ZM69.9759 75.6008C70.1818 75.5631 70.3915 75.6549 70.5026 75.8354L69.5768 76.405C69.7022 76.6087 69.9391 76.7126 70.1719 76.67L69.9759 75.6008ZM70.5032 75.8364L69.0393 73.4452L68.1123 74.0128L69.5762 76.404L70.5032 75.8364ZM69.0353 73.4388C69.0908 73.5267 69.1144 73.6228 69.1144 73.7119L68.0274 73.7119C68.0274 73.8129 68.0542 73.9209 68.1162 74.0192L69.0353 73.4388ZM69.654 79.1001L68.0767 81.2128L68.9477 81.863L70.525 79.7504L69.654 79.1001ZM68.3617 82.0601L69.3951 82.358L69.6962 81.3136L68.6628 81.0157L68.3617 82.0601ZM70.0758 81.9554L70.6197 79.5449L69.5594 79.3056L69.0155 81.7162L70.0758 81.9554ZM69.7301 75.7154L67.7663 77.0565L68.3793 77.9541L70.3431 76.6131L69.7301 75.7154ZM67.7251 77.9231L69.7731 79.6276L70.4684 78.7921L68.4205 77.0876L67.7251 77.9231ZM70.664 79.1948L70.5799 76.1492L69.4933 76.1793L69.5775 79.2249L70.664 79.1948ZM68.5288 77.5028C68.5288 77.5012 68.5289 77.5085 68.5286 77.5169C68.5284 77.5265 68.5277 77.5422 68.5255 77.5615L67.4453 77.441C67.4431 77.4608 67.4424 77.4769 67.4421 77.487C67.4419 77.4921 67.4419 77.4962 67.4419 77.4986C67.4419 77.4999 67.4419 77.5009 67.4419 77.5016C67.4419 77.5022 67.4419 77.5027 67.4419 77.5028L68.5288 77.5028ZM68.5283 77.5269C68.5208 77.6845 68.4404 77.8331 68.3055 77.925L67.6938 77.0265C67.5418 77.1299 67.4509 77.2976 67.4425 77.4756L68.5283 77.5269ZM68.3061 77.9245L70.3557 76.5249L69.7427 75.6273L67.6931 77.0269L68.3061 77.9245ZM70.3532 76.5266C70.2019 76.6287 70.0039 76.6438 69.8357 76.558L70.3299 75.5899C70.1403 75.4931 69.9165 75.51 69.7452 75.6255L70.3532 76.5266ZM69.8376 76.559C69.6718 76.4751 69.5626 76.3064 69.5575 76.1168L70.6441 76.0877C70.6383 75.874 70.5152 75.6836 70.328 75.5889L69.8376 76.559ZM69.5575 76.1173L69.6453 79.2955L70.7319 79.2655L70.6441 76.0872L69.5575 76.1173ZM69.646 79.3103C69.6423 79.2433 69.6525 79.191 69.6589 79.164L70.7164 79.415C70.7242 79.3821 70.7353 79.3237 70.7313 79.2508L69.646 79.3103ZM69.6575 79.1699L69.076 81.7471L70.1363 81.9864L70.7178 79.4091L69.6575 79.1699ZM69.2208 82.25L72.2239 85.2699L72.9947 84.5035L69.9915 81.4835L69.2208 82.25ZM72.2234 85.2694C72.023 85.0673 72.0275 84.7428 72.228 84.5456L72.9901 85.3206C73.2163 85.0981 73.2213 84.732 72.9952 84.504L72.2234 85.2694ZM72.2263 84.5472C72.428 84.3472 72.7507 84.3517 72.9476 84.5494L72.1773 85.3163C72.3999 85.5398 72.7642 85.5446 72.9917 85.319L72.2263 84.5472ZM72.9478 84.5497L69.9381 81.523L69.1673 82.2894L72.1771 85.3161L72.9478 84.5497ZM69.7033 81.384L68.5989 81.0655L68.2977 82.1099L69.4022 82.4284L69.7033 81.384ZM68.5967 81.0649C68.7606 81.1114 68.888 81.2355 68.9411 81.3926L67.9115 81.7408C67.9715 81.9183 68.1153 82.0582 68.2999 82.1106L68.5967 81.0649ZM68.9427 81.3975C68.9937 81.553 68.9671 81.724 68.8701 81.857L67.992 81.2163C67.8824 81.3665 67.8522 81.56 67.9098 81.7359L68.9427 81.3975ZM68.8665 81.8618L70.5462 79.6121L69.6752 78.9618L67.9955 81.2115L68.8665 81.8618ZM70.4584 78.8692L68.3448 77.1102L67.6495 77.9457L69.763 79.7047L70.4584 78.8692ZM68.3463 77.1115C68.4615 77.208 68.5288 77.3511 68.5288 77.5028L67.4419 77.5028C67.4419 77.6739 67.5178 77.8353 67.648 77.9445L68.3463 77.1115ZM70.3149 73.3911C70.3149 73.6528 70.1163 73.8747 69.8522 73.8996L69.7502 72.8174C69.452 72.8455 69.2279 73.096 69.2279 73.3911L70.3149 73.3911ZM69.8541 73.8994C69.5736 73.9268 69.3248 73.7221 69.2965 73.4429L70.3779 73.333C70.3458 73.0178 70.0649 72.7866 69.7483 72.8176L69.8541 73.8994ZM69.2962 73.4405L69.5597 76.1526L70.6416 76.0474L70.3781 73.3354L69.2962 73.4405ZM69.5578 76.1262C69.5467 75.8968 69.7063 75.6263 70.0167 75.5951L70.1253 76.6766C70.472 76.6418 70.6562 76.3366 70.6435 76.0738L69.5578 76.1262ZM70.0195 75.5948C70.2985 75.5683 70.5483 75.772 70.5759 76.0531L69.4942 76.1595C69.5254 76.4767 69.8074 76.7068 70.1225 76.6769L70.0195 75.5948ZM70.576 76.0537L70.3124 73.3418L69.2306 73.4469L69.4941 76.1588L70.576 76.0537ZM70.3144 73.3684C70.3143 73.3673 70.3144 73.3681 70.3144 73.3683C70.3144 73.3688 70.3145 73.3703 70.3145 73.3721C70.3147 73.3759 70.3149 73.3827 70.3149 73.3911L69.2279 73.3911C69.2279 73.4006 69.2282 73.4084 69.2284 73.4133C69.2285 73.4173 69.2287 73.4215 69.2287 73.4203L70.3144 73.3684ZM66.9184 79.8941C66.9184 79.9919 66.8901 80.0938 66.8288 80.1831L65.9323 79.5686C65.8634 79.6691 65.8315 79.7836 65.8315 79.8941L66.9184 79.8941ZM66.8313 80.1794L68.4361 77.7964L67.5345 77.1892L65.9298 79.5723L66.8313 80.1794ZM68.5288 77.4928L68.5288 74.093L67.4418 74.093L67.4418 77.4928L68.5288 77.4928ZM68.5288 74.093C68.5288 74.3776 68.2976 74.6036 68.0183 74.6036L68.0183 73.5167C67.7025 73.5167 67.4418 73.772 67.4418 74.093L68.5288 74.093ZM68.0183 74.6036C67.7385 74.6036 67.5077 74.3771 67.5077 74.093L68.5947 74.093C68.5947 73.7726 68.3346 73.5167 68.0183 73.5167L68.0183 74.6036ZM67.5077 74.093L67.5077 77.5028L68.5947 77.5028L68.5947 74.093L67.5077 74.093ZM67.5077 77.5028C67.5077 77.4006 67.5384 77.2996 67.5974 77.2136L68.4937 77.8285C68.5601 77.7317 68.5947 77.618 68.5947 77.5028L67.5077 77.5028ZM67.5948 77.2175L65.9844 79.6088L66.886 80.2159L68.4964 77.8246L67.5948 77.2175ZM65.9833 79.6104C66.1413 79.3741 66.4592 79.3138 66.692 79.4698L66.0871 80.3729C66.3501 80.5491 66.709 80.4808 66.8871 80.2143L65.9833 79.6104ZM66.6925 79.4701C66.8371 79.5673 66.9184 79.7281 66.9184 79.8941L65.8315 79.8941C65.8315 80.0811 65.9231 80.2627 66.0866 80.3725L66.6925 79.4701ZM66.9184 75.1409C66.9184 75.3046 66.8391 75.4652 66.6948 75.5632L66.084 74.6641C65.921 74.7748 65.8315 74.9561 65.8315 75.1409L66.9184 75.1409ZM66.6933 75.5642C66.4628 75.7197 66.1457 75.6631 65.9858 75.428L66.8845 74.8167C66.7043 74.5516 66.346 74.4873 66.0854 74.6631L66.6933 75.5642ZM65.9861 75.4285L67.5965 77.7905L68.4946 77.1782L66.8842 74.8162L65.9861 75.4285ZM67.5959 77.7897C67.5395 77.7065 67.5077 77.6068 67.5077 77.5028L68.5947 77.5028C68.5947 77.3855 68.559 77.273 68.4951 77.1789L67.5959 77.7897ZM67.5077 77.5028L67.5077 81.2001L68.5947 81.2001L68.5947 77.5028L67.5077 77.5028ZM67.5077 81.2001C67.5077 80.9165 67.7379 80.6894 68.0183 80.6894L68.0183 81.7764C68.3351 81.7764 68.5947 81.5199 68.5947 81.2001L67.5077 81.2001ZM68.0183 80.6894C68.2982 80.6894 68.5288 80.916 68.5288 81.2001L67.4418 81.2001C67.4418 81.5204 67.702 81.7764 68.0183 81.7764L68.0183 80.6894ZM68.5288 81.2001L68.5288 77.5128L67.4418 77.5128L67.4418 81.2001L68.5288 81.2001ZM68.4343 77.2067L66.8296 74.8531L65.9316 75.4654L67.5363 77.819L68.4343 77.2067ZM66.8336 74.8589C66.8877 74.9406 66.9184 75.0383 66.9184 75.1409L65.8315 75.1409C65.8315 75.256 65.866 75.3665 65.9277 75.4596L66.8336 74.8589ZM81.6849 83.0258C81.6849 83.0839 81.675 83.1369 81.6601 83.183L80.6261 82.8476C80.6089 82.9006 80.5979 82.9607 80.5979 83.0258L81.6849 83.0258ZM81.6574 83.191L83.4047 78.0762L82.3761 77.7248L80.6288 82.8396L81.6574 83.191ZM83.4051 78.0749C83.3137 78.3448 83.0214 78.4851 82.7562 78.3943L83.1082 77.3659C82.8086 77.2633 82.4788 77.4219 82.3757 77.7261L83.4051 78.0749ZM82.7576 78.3947C82.4876 78.3032 82.3508 78.0131 82.4365 77.7521L83.4692 78.0913C83.5662 77.7958 83.4112 77.4687 83.1068 77.3654L82.7576 78.3947ZM82.4385 77.746L80.6912 82.8607L81.7198 83.2121L83.4671 78.0974L82.4385 77.746ZM80.6906 82.8624C80.7823 82.5909 81.0746 82.4536 81.3369 82.5417L80.9906 83.572C81.2874 83.6718 81.6171 83.5162 81.7204 83.2103L80.6906 82.8624ZM81.3404 82.5429C81.55 82.615 81.6849 82.8116 81.6849 83.0258L80.5979 83.0258C80.5979 83.2674 80.7499 83.4894 80.9871 83.5709L81.3404 82.5429Z" fill="white" mask="url(#path-3-outside-1_135_319)"/>
</g>
<defs>
<filter id="filter0_f_135_319" x="46.5997" y="46.5996" width="61.7189" height="61.7189" filterUnits="userSpaceOnUse" color-interpolation-filters="sRGB">
<feFlood flood-opacity="0" result="BackgroundImageFix"/>
<feBlend mode="normal" in="SourceGraphic" in2="BackgroundImageFix" result="shape"/>
<feGaussianBlur stdDeviation="4" result="effect1_foregroundBlur_135_319"/>
</filter>
<filter id="filter1_d_135_319" x="0.224682" y="0.224648" width="154.469" height="154.469" filterUnits="userSpaceOnUse" color-interpolation-filters="sRGB">
<feFlood flood-opacity="0" result="BackgroundImageFix"/>
<feColorMatrix in="SourceAlpha" type="matrix" values="0 0 0 0 0 0 0 0 0 0 0 0 0 0 0 0 0 0 127 0" result="hardAlpha"/>
<feOffset/>
<feGaussianBlur stdDeviation="27.1875"/>
<feComposite in2="hardAlpha" operator="out"/>
<feColorMatrix type="matrix" values="0 0 0 0 0 0 0 0 0 0 0 0 0 0 0 0 0 0 0.1 0"/>
<feBlend mode="normal" in2="BackgroundImageFix" result="effect1_dropShadow_135_319"/>
<feBlend mode="normal" in="SourceGraphic" in2="effect1_dropShadow_135_319" result="shape"/>
</filter>
<linearGradient id="paint0_linear_135_319" x1="61.2898" y1="61.2961" x2="93.6092" y2="93.6188" gradientUnits="userSpaceOnUse">
<stop stop-color="#FF8FD7"/>
<stop offset="0.520833" stop-color="#F84CBB"/>
<stop offset="1" stop-color="#FF8FD7"/>
</linearGradient>
<radialGradient id="paint1_radial_135_319" cx="0" cy="0" r="1" gradientUnits="userSpaceOnUse" gradientTransform="translate(89.4751 91.5074) rotate(-67.6363) scale(6.17368 2.67815)">
<stop offset="0.24" stop-color="white" stop-opacity="0.98"/>
<stop offset="0.34" stop-color="white" stop-opacity="0.76"/>
<stop offset="0.43" stop-color="white" stop-opacity="0.55"/>
<stop offset="0.52" stop-color="white" stop-opacity="0.38"/>
<stop offset="0.62" stop-color="white" stop-opacity="0.25"/>
<stop offset="0.71" stop-color="white" stop-opacity="0.14"/>
<stop offset="0.8" stop-color="white" stop-opacity="0.06"/>
<stop offset="0.9" stop-color="white" stop-opacity="0.02"/>
<stop offset="1" stop-color="white" stop-opacity="0"/>
</radialGradient>
</defs>
</svg>
