<svg width="289" height="289" viewBox="0 0 289 289" fill="none" xmlns="http://www.w3.org/2000/svg">
<g filter="url(#filter0_d_135_311)">
<path d="M230.52 170.055C244.613 122.569 217.542 72.6487 170.056 58.5555C122.569 44.4623 72.6488 71.5329 58.5556 119.019C44.4624 166.506 71.533 216.426 119.02 230.519C166.506 244.613 216.426 217.542 230.52 170.055Z" fill="url(#paint0_linear_135_311)"/>
</g>
<path d="M163.979 74.7568C163.802 68.4496 173.692 67.4278 186.066 72.524C198.441 77.6203 208.621 86.9045 208.772 93.237C208.924 99.5694 199.059 100.566 186.685 95.4697C174.31 90.3735 164.168 81.064 163.979 74.7568Z" fill="url(#paint1_radial_135_311)"/>
<mask id="path-3-outside-1_135_311" maskUnits="userSpaceOnUse" x="85.2315" y="83.8163" width="118.612" height="120.442" fill="black">
<rect fill="white" x="85.2315" y="83.8163" width="118.612" height="120.442"/>
<path d="M114.848 177.404L130.89 186.666L140.504 182.984C140.514 182.98 140.524 182.977 140.535 182.976L162.826 180.477L176.828 170.587L185.946 150.681L201.529 127.765L168.458 133.785C168.429 133.791 168.397 133.786 168.371 133.77L143.098 119.179C143.069 119.162 143.048 119.135 143.039 119.102L134.167 87.7315L119.278 111.254L105.8 128.656L103.597 146.146L114.29 167.155C114.299 167.171 114.303 167.189 114.304 167.207L114.848 177.404ZM130.813 186.921L114.658 177.593C114.621 177.572 114.597 177.532 114.594 177.489L114.048 167.249L103.35 146.228C103.338 146.205 103.333 146.179 103.337 146.153L105.548 128.589C105.551 128.566 105.56 128.544 105.574 128.526L119.068 111.106L134.104 87.3497C134.131 87.3066 134.181 87.2836 134.231 87.2907C134.281 87.2983 134.323 87.334 134.336 87.3832L143.273 118.981L168.46 133.523L201.786 127.456C201.837 127.447 201.889 127.469 201.917 127.513C201.945 127.556 201.944 127.613 201.915 127.656L186.17 150.808L177.048 170.726C177.039 170.747 177.024 170.765 177.005 170.778L162.947 180.707C162.929 180.72 162.909 180.728 162.887 180.73L140.58 183.231L130.924 186.929C130.887 186.943 130.847 186.94 130.813 186.921Z"/>
<path d="M153.084 159.791C153.04 159.766 153.015 159.717 153.02 159.666L156.389 127.028L127.673 143.371C127.628 143.396 127.572 143.392 127.531 143.361C127.49 143.329 127.472 143.276 127.485 143.225L133.4 121.315L134.083 87.4165C134.085 87.3452 134.144 87.2883 134.215 87.2895C134.286 87.2906 134.343 87.3496 134.341 87.4207L133.658 121.335C133.658 121.346 133.656 121.356 133.653 121.366L127.815 142.994L156.479 126.68C156.521 126.656 156.574 126.654 156.613 126.684C156.654 126.71 156.676 126.757 156.671 126.805L153.313 159.339L170.893 142.202C170.903 142.192 170.915 142.184 170.928 142.177L201.754 127.467C201.818 127.435 201.895 127.463 201.925 127.528C201.956 127.592 201.928 127.669 201.864 127.7L171.057 142.401L153.238 159.771C153.2 159.809 153.141 159.819 153.093 159.795C153.09 159.794 153.087 159.792 153.084 159.791Z"/>
<path d="M118.832 112.029L119.095 135.836L133.326 121.356L118.832 112.029ZM170.574 142.951L164.341 162.609L185.789 150.74L170.574 142.951ZM119.871 136.519L127.693 143.16C127.716 143.18 127.732 143.207 127.737 143.237L129.614 154.312L156.292 126.865L133.57 121.476L119.175 136.123L119.871 136.519ZM121.566 149.045L129.351 154.307L127.491 143.327L119.724 136.73L119.15 136.404L121.566 149.045ZM145.3 163.023L152.733 167.827L163.747 162.904L153.155 159.815L145.3 163.023ZM164.191 163.08L160.244 175.464L176.172 170.945L164.191 163.08ZM152.94 168.016L159.992 175.407L163.91 163.114L152.94 168.016ZM105.869 128.863L110.087 146.937L118.771 136.189L105.869 128.863ZM129.659 154.634L130.079 169.09L155.802 127.738L129.659 154.634ZM156.107 127.735L130.29 169.239L144.917 162.902L156.107 127.735ZM144.532 163.35L130.258 169.534L136.123 172.707L144.532 163.35ZM145.135 163.224L143.982 179.521L152.535 168.007L145.135 163.224ZM143.758 180.064C143.716 180.04 143.69 179.993 143.694 179.944L144.867 163.362L136.247 172.955C136.206 173 136.141 173.011 136.089 172.983L129.903 169.636C129.89 169.628 129.878 169.619 129.867 169.608C129.867 169.608 129.867 169.608 129.867 169.607C129.866 169.607 129.866 169.607 129.866 169.606C129.866 169.606 129.866 169.606 129.865 169.606C129.866 169.606 129.865 169.606 129.865 169.605C129.865 169.605 129.864 169.604 129.864 169.604C129.863 169.604 129.863 169.603 129.863 169.603C129.849 169.586 129.84 169.565 129.836 169.543C129.836 169.543 129.836 169.542 129.835 169.542C129.835 169.536 129.834 169.53 129.834 169.524L129.402 154.654L121.377 149.23C121.349 149.21 121.329 149.181 121.323 149.147L118.895 136.445L110.122 147.304C110.091 147.343 110.041 147.36 109.993 147.349C109.945 147.339 109.908 147.301 109.896 147.253L105.551 128.635C105.539 128.585 105.558 128.533 105.599 128.502C105.64 128.471 105.696 128.467 105.74 128.493L118.838 135.932L118.572 111.792C118.571 111.745 118.597 111.701 118.638 111.677C118.68 111.655 118.733 111.655 118.77 111.682L133.553 121.195L143.134 118.941C143.203 118.925 143.272 118.968 143.288 119.037C143.304 119.107 143.261 119.176 143.192 119.193L134.091 121.334L156.57 126.665C156.579 126.667 156.588 126.671 156.597 126.674C156.623 126.687 156.643 126.706 156.656 126.73L156.656 126.73L156.656 126.73C156.656 126.73 156.656 126.73 156.656 126.731C156.656 126.731 156.657 126.732 156.657 126.731L156.657 126.732C156.658 126.734 156.66 126.737 156.661 126.74C156.661 126.74 156.661 126.74 156.661 126.74C156.661 126.741 156.661 126.741 156.662 126.742C156.662 126.742 156.662 126.742 156.662 126.742C156.662 126.743 156.662 126.743 156.662 126.743L156.662 126.743C156.673 126.77 156.675 126.8 156.666 126.829C156.666 126.829 156.666 126.829 156.666 126.829C156.666 126.83 156.666 126.83 156.665 126.831L145.228 162.774L153.101 159.559C153.127 159.548 153.157 159.547 153.185 159.555L164.035 162.719L170.375 142.728C170.386 142.692 170.413 142.662 170.448 142.648C170.483 142.633 170.523 142.634 170.557 142.652L186.122 150.62C186.17 150.642 186.192 150.685 186.192 150.733C186.193 150.781 186.167 150.825 186.125 150.848L164.37 162.887L176.55 170.884C176.592 170.912 176.614 170.962 176.606 171.012C176.598 171.062 176.562 171.103 176.514 171.117L160.242 175.732L162.985 180.537C163.02 180.599 162.999 180.678 162.937 180.714C162.875 180.749 162.796 180.728 162.761 180.666L159.944 175.731L152.733 168.173L143.926 180.029C143.892 180.075 143.831 180.093 143.778 180.074C143.771 180.071 143.764 180.068 143.758 180.064Z"/>
<path d="M110.179 147.403L115.456 162.162L121.263 149.223L110.179 147.403ZM115.55 162.592L114.345 167.081L125.084 166.804L129.294 154.864L115.55 162.592ZM114.111 167.326C114.097 167.318 114.084 167.307 114.074 167.294C114.049 167.262 114.041 167.22 114.051 167.181L115.306 162.51L109.888 147.355L103.443 146.297C103.373 146.286 103.326 146.219 103.337 146.148C103.349 146.078 103.416 146.03 103.486 146.042L109.788 147.077L109.761 146.999C109.737 146.932 109.772 146.858 109.839 146.834C109.906 146.81 109.979 146.845 110.003 146.911L110.08 147.125L121.471 148.995C121.51 149.001 121.544 149.026 121.563 149.061C121.582 149.096 121.583 149.139 121.567 149.175L115.719 162.201L129.466 154.471C129.513 154.444 129.571 154.45 129.612 154.484C129.653 154.519 129.669 154.575 129.651 154.626L125.297 166.973C125.279 167.024 125.232 167.058 125.178 167.06L114.179 167.343C114.154 167.344 114.131 167.338 114.111 167.326Z"/>
<path d="M136.509 173.376L140.594 182.882L143.634 179.954L136.509 173.376ZM125.322 167.157L126.026 176.463L135.838 172.847L125.322 167.157ZM125.846 176.755C125.844 176.754 125.842 176.753 125.841 176.752C125.807 176.73 125.785 176.694 125.782 176.653L125.047 166.941C125.044 166.894 125.066 166.848 125.106 166.822C125.145 166.797 125.195 166.794 125.237 166.817L136.212 172.755C136.222 172.76 136.231 172.768 136.24 172.776L143.858 179.809L160.015 175.528C160.085 175.51 160.155 175.552 160.173 175.62C160.191 175.69 160.149 175.76 160.08 175.778L143.888 180.068L140.638 183.197C140.608 183.227 140.565 183.239 140.524 183.231C140.482 183.222 140.448 183.194 140.431 183.156L136.081 173.032L125.955 176.764C125.919 176.777 125.879 176.774 125.846 176.755Z"/>
<path d="M115.376 162.616C115.319 162.584 115.296 162.512 115.324 162.451C115.353 162.386 115.43 162.358 115.495 162.387L125.229 166.813C125.288 166.843 125.322 166.919 125.293 166.984C125.263 167.049 125.187 167.078 125.122 167.048L115.388 162.622C115.384 162.62 115.38 162.619 115.376 162.616Z"/>
<path d="M130.813 186.921C130.792 186.908 130.774 186.89 130.762 186.866L125.812 176.735L114.257 170.064C114.195 170.028 114.174 169.95 114.21 169.888C114.246 169.826 114.325 169.804 114.386 169.84L125.975 176.531C125.998 176.544 126.015 176.563 126.026 176.586L130.994 186.752C131.025 186.815 130.999 186.893 130.935 186.924C130.895 186.944 130.849 186.941 130.813 186.921Z"/>
<path d="M114.658 177.594C114.623 177.573 114.598 177.535 114.594 177.491C114.589 177.42 114.643 177.358 114.714 177.353L125.901 176.514C125.927 176.512 125.953 176.518 125.975 176.531L138.541 183.786C138.603 183.822 138.624 183.9 138.588 183.962C138.553 184.024 138.474 184.046 138.412 184.01L125.88 176.775L114.732 177.61C114.705 177.612 114.68 177.606 114.658 177.594Z"/>
<path d="M170.433 142.879C170.421 142.872 170.41 142.863 170.4 142.852L156.445 126.877C156.399 126.824 156.404 126.742 156.458 126.695C156.512 126.648 156.592 126.653 156.64 126.706L170.595 142.681C170.642 142.735 170.636 142.817 170.582 142.864C170.539 142.901 170.479 142.905 170.433 142.879Z"/>
</mask>
<path d="M114.848 177.404L130.89 186.666L140.504 182.984C140.514 182.98 140.524 182.977 140.535 182.976L162.826 180.477L176.828 170.587L185.946 150.681L201.529 127.765L168.458 133.785C168.429 133.791 168.397 133.786 168.371 133.77L143.098 119.179C143.069 119.162 143.048 119.135 143.039 119.102L134.167 87.7315L119.278 111.254L105.8 128.656L103.597 146.146L114.29 167.155C114.299 167.171 114.303 167.189 114.304 167.207L114.848 177.404ZM130.813 186.921L114.658 177.593C114.621 177.572 114.597 177.532 114.594 177.489L114.048 167.249L103.35 146.228C103.338 146.205 103.333 146.179 103.337 146.153L105.548 128.589C105.551 128.566 105.56 128.544 105.574 128.526L119.068 111.106L134.104 87.3497C134.131 87.3066 134.181 87.2836 134.231 87.2907C134.281 87.2983 134.323 87.334 134.336 87.3832L143.273 118.981L168.46 133.523L201.786 127.456C201.837 127.447 201.889 127.469 201.917 127.513C201.945 127.556 201.944 127.613 201.915 127.656L186.17 150.808L177.048 170.726C177.039 170.747 177.024 170.765 177.005 170.778L162.947 180.707C162.929 180.72 162.909 180.728 162.887 180.73L140.58 183.231L130.924 186.929C130.887 186.943 130.847 186.94 130.813 186.921Z" fill="white"/>
<path d="M153.084 159.791C153.04 159.766 153.015 159.717 153.02 159.666L156.389 127.028L127.673 143.371C127.628 143.396 127.572 143.392 127.531 143.361C127.49 143.329 127.472 143.276 127.485 143.225L133.4 121.315L134.083 87.4165C134.085 87.3452 134.144 87.2883 134.215 87.2895C134.286 87.2906 134.343 87.3496 134.341 87.4207L133.658 121.335C133.658 121.346 133.656 121.356 133.653 121.366L127.815 142.994L156.479 126.68C156.521 126.656 156.574 126.654 156.613 126.684C156.654 126.71 156.676 126.757 156.671 126.805L153.313 159.339L170.893 142.202C170.903 142.192 170.915 142.184 170.928 142.177L201.754 127.467C201.818 127.435 201.895 127.463 201.925 127.528C201.956 127.592 201.928 127.669 201.864 127.7L171.057 142.401L153.238 159.771C153.2 159.809 153.141 159.819 153.093 159.795C153.09 159.794 153.087 159.792 153.084 159.791Z" fill="white"/>
<path d="M118.832 112.029L119.095 135.836L133.326 121.356L118.832 112.029ZM170.574 142.951L164.341 162.609L185.789 150.74L170.574 142.951ZM119.871 136.519L127.693 143.16C127.716 143.18 127.732 143.207 127.737 143.237L129.614 154.312L156.292 126.865L133.57 121.476L119.175 136.123L119.871 136.519ZM121.566 149.045L129.351 154.307L127.491 143.327L119.724 136.73L119.15 136.404L121.566 149.045ZM145.3 163.023L152.733 167.827L163.747 162.904L153.155 159.815L145.3 163.023ZM164.191 163.08L160.244 175.464L176.172 170.945L164.191 163.08ZM152.94 168.016L159.992 175.407L163.91 163.114L152.94 168.016ZM105.869 128.863L110.087 146.937L118.771 136.189L105.869 128.863ZM129.659 154.634L130.079 169.09L155.802 127.738L129.659 154.634ZM156.107 127.735L130.29 169.239L144.917 162.902L156.107 127.735ZM144.532 163.35L130.258 169.534L136.123 172.707L144.532 163.35ZM145.135 163.224L143.982 179.521L152.535 168.007L145.135 163.224ZM143.758 180.064C143.716 180.04 143.69 179.993 143.694 179.944L144.867 163.362L136.247 172.955C136.206 173 136.141 173.011 136.089 172.983L129.903 169.636C129.89 169.628 129.878 169.619 129.867 169.608C129.867 169.608 129.867 169.608 129.867 169.607C129.866 169.607 129.866 169.607 129.866 169.606C129.866 169.606 129.866 169.606 129.865 169.606C129.866 169.606 129.865 169.606 129.865 169.605C129.865 169.605 129.864 169.604 129.864 169.604C129.863 169.604 129.863 169.603 129.863 169.603C129.849 169.586 129.84 169.565 129.836 169.543C129.836 169.543 129.836 169.542 129.835 169.542C129.835 169.536 129.834 169.53 129.834 169.524L129.402 154.654L121.377 149.23C121.349 149.21 121.329 149.181 121.323 149.147L118.895 136.445L110.122 147.304C110.091 147.343 110.041 147.36 109.993 147.349C109.945 147.339 109.908 147.301 109.896 147.253L105.551 128.635C105.539 128.585 105.558 128.533 105.599 128.502C105.64 128.471 105.696 128.467 105.74 128.493L118.838 135.932L118.572 111.792C118.571 111.745 118.597 111.701 118.638 111.677C118.68 111.655 118.733 111.655 118.77 111.682L133.553 121.195L143.134 118.941C143.203 118.925 143.272 118.968 143.288 119.037C143.304 119.107 143.261 119.176 143.192 119.193L134.091 121.334L156.57 126.665C156.579 126.667 156.588 126.671 156.597 126.674C156.623 126.687 156.643 126.706 156.656 126.73L156.656 126.73L156.656 126.73C156.656 126.73 156.656 126.73 156.656 126.731C156.656 126.731 156.657 126.732 156.657 126.731L156.657 126.732C156.658 126.734 156.66 126.737 156.661 126.74C156.661 126.74 156.661 126.74 156.661 126.74C156.661 126.741 156.661 126.741 156.662 126.742C156.662 126.742 156.662 126.742 156.662 126.742C156.662 126.743 156.662 126.743 156.662 126.743L156.662 126.743C156.673 126.77 156.675 126.8 156.666 126.829C156.666 126.829 156.666 126.829 156.666 126.829C156.666 126.83 156.666 126.83 156.665 126.831L145.228 162.774L153.101 159.559C153.127 159.548 153.157 159.547 153.185 159.555L164.035 162.719L170.375 142.728C170.386 142.692 170.413 142.662 170.448 142.648C170.483 142.633 170.523 142.634 170.557 142.652L186.122 150.62C186.17 150.642 186.192 150.685 186.192 150.733C186.193 150.781 186.167 150.825 186.125 150.848L164.37 162.887L176.55 170.884C176.592 170.912 176.614 170.962 176.606 171.012C176.598 171.062 176.562 171.103 176.514 171.117L160.242 175.732L162.985 180.537C163.02 180.599 162.999 180.678 162.937 180.714C162.875 180.749 162.796 180.728 162.761 180.666L159.944 175.731L152.733 168.173L143.926 180.029C143.892 180.075 143.831 180.093 143.778 180.074C143.771 180.071 143.764 180.068 143.758 180.064Z" fill="white"/>
<path d="M110.179 147.403L115.456 162.162L121.263 149.223L110.179 147.403ZM115.55 162.592L114.345 167.081L125.084 166.804L129.294 154.864L115.55 162.592ZM114.111 167.326C114.097 167.318 114.084 167.307 114.074 167.294C114.049 167.262 114.041 167.22 114.051 167.181L115.306 162.51L109.888 147.355L103.443 146.297C103.373 146.286 103.326 146.219 103.337 146.148C103.349 146.078 103.416 146.03 103.486 146.042L109.788 147.077L109.761 146.999C109.737 146.932 109.772 146.858 109.839 146.834C109.906 146.81 109.979 146.845 110.003 146.911L110.08 147.125L121.471 148.995C121.51 149.001 121.544 149.026 121.563 149.061C121.582 149.096 121.583 149.139 121.567 149.175L115.719 162.201L129.466 154.471C129.513 154.444 129.571 154.45 129.612 154.484C129.653 154.519 129.669 154.575 129.651 154.626L125.297 166.973C125.279 167.024 125.232 167.058 125.178 167.06L114.179 167.343C114.154 167.344 114.131 167.338 114.111 167.326Z" fill="white"/>
<path d="M136.509 173.376L140.594 182.882L143.634 179.954L136.509 173.376ZM125.322 167.157L126.026 176.463L135.838 172.847L125.322 167.157ZM125.846 176.755C125.844 176.754 125.842 176.753 125.841 176.752C125.807 176.73 125.785 176.694 125.782 176.653L125.047 166.941C125.044 166.894 125.066 166.848 125.106 166.822C125.145 166.797 125.195 166.794 125.237 166.817L136.212 172.755C136.222 172.76 136.231 172.768 136.24 172.776L143.858 179.809L160.015 175.528C160.085 175.51 160.155 175.552 160.173 175.62C160.191 175.69 160.149 175.76 160.08 175.778L143.888 180.068L140.638 183.197C140.608 183.227 140.565 183.239 140.524 183.231C140.482 183.222 140.448 183.194 140.431 183.156L136.081 173.032L125.955 176.764C125.919 176.777 125.879 176.774 125.846 176.755Z" fill="white"/>
<path d="M115.376 162.616C115.319 162.584 115.296 162.512 115.324 162.451C115.353 162.386 115.43 162.358 115.495 162.387L125.229 166.813C125.288 166.843 125.322 166.919 125.293 166.984C125.263 167.049 125.187 167.078 125.122 167.048L115.388 162.622C115.384 162.62 115.38 162.619 115.376 162.616Z" fill="white"/>
<path d="M130.813 186.921C130.792 186.908 130.774 186.89 130.762 186.866L125.812 176.735L114.257 170.064C114.195 170.028 114.174 169.95 114.21 169.888C114.246 169.826 114.325 169.804 114.386 169.84L125.975 176.531C125.998 176.544 126.015 176.563 126.026 176.586L130.994 186.752C131.025 186.815 130.999 186.893 130.935 186.924C130.895 186.944 130.849 186.941 130.813 186.921Z" fill="white"/>
<path d="M114.658 177.594C114.623 177.573 114.598 177.535 114.594 177.491C114.589 177.42 114.643 177.358 114.714 177.353L125.901 176.514C125.927 176.512 125.953 176.518 125.975 176.531L138.541 183.786C138.603 183.822 138.624 183.9 138.588 183.962C138.553 184.024 138.474 184.046 138.412 184.01L125.88 176.775L114.732 177.61C114.705 177.612 114.68 177.606 114.658 177.594Z" fill="white"/>
<path d="M170.433 142.879C170.421 142.872 170.41 142.863 170.4 142.852L156.445 126.877C156.399 126.824 156.404 126.742 156.458 126.695C156.512 126.648 156.592 126.653 156.64 126.706L170.595 142.681C170.642 142.735 170.636 142.817 170.582 142.864C170.539 142.901 170.479 142.905 170.433 142.879Z" fill="white"/>
<path d="M114.848 177.404L114.305 177.433L114.321 177.728L114.576 177.875L114.848 177.404ZM130.89 186.666L130.618 187.137L130.842 187.266L131.084 187.174L130.89 186.666ZM140.504 182.984L140.698 183.491L140.708 183.487L140.504 182.984ZM140.535 182.976L140.475 182.436L140.473 182.436L140.535 182.976ZM162.826 180.477L162.887 181.017L163.026 181.002L163.14 180.921L162.826 180.477ZM176.828 170.587L177.142 171.031L177.262 170.947L177.323 170.813L176.828 170.587ZM185.946 150.681L185.497 150.376L185.471 150.414L185.452 150.455L185.946 150.681ZM201.529 127.765L201.979 128.071L202.708 126.998L201.432 127.231L201.529 127.765ZM168.458 133.785L168.361 133.251L168.361 133.251L168.458 133.785ZM143.039 119.102L142.516 119.25L142.516 119.251L143.039 119.102ZM134.167 87.7315L134.69 87.5836L134.359 86.4124L133.708 87.4408L134.167 87.7315ZM119.278 111.254L119.708 111.587L119.723 111.566L119.737 111.545L119.278 111.254ZM105.8 128.656L105.37 128.323L105.279 128.441L105.26 128.588L105.8 128.656ZM103.597 146.146L103.058 146.078L103.037 146.243L103.113 146.392L103.597 146.146ZM114.29 167.155L113.806 167.402L113.807 167.403L114.29 167.155ZM114.304 167.207L114.847 167.178L114.847 167.175L114.304 167.207ZM114.594 177.489L114.052 177.518L114.052 177.52L114.594 177.489ZM114.048 167.249L114.591 167.22L114.585 167.105L114.533 167.002L114.048 167.249ZM103.35 146.228L102.865 146.474L102.865 146.475L103.35 146.228ZM103.337 146.153L102.797 146.086L102.797 146.087L103.337 146.153ZM105.548 128.589L106.088 128.657L106.088 128.656L105.548 128.589ZM105.574 128.526L106.004 128.859L106.004 128.859L105.574 128.526ZM119.068 111.106L119.497 111.439L119.513 111.419L119.527 111.397L119.068 111.106ZM134.104 87.3497L133.645 87.0587L133.644 87.059L134.104 87.3497ZM134.231 87.2907L134.313 86.7534L134.307 86.7525L134.231 87.2907ZM134.336 87.3832L133.813 87.5304L133.813 87.5311L134.336 87.3832ZM143.273 118.981L142.75 119.129L142.81 119.341L143.001 119.452L143.273 118.981ZM168.46 133.523L168.188 133.994L168.361 134.093L168.557 134.058L168.46 133.523ZM201.786 127.456L201.693 126.921L201.689 126.921L201.786 127.456ZM201.917 127.513L201.46 127.807L201.46 127.807L201.917 127.513ZM201.915 127.656L202.365 127.961L202.366 127.959L201.915 127.656ZM186.17 150.808L185.721 150.502L185.695 150.54L185.676 150.581L186.17 150.808ZM177.048 170.726L177.542 170.954L177.542 170.953L177.048 170.726ZM177.005 170.778L176.692 170.334L176.692 170.334L177.005 170.778ZM162.947 180.707L163.259 181.152L163.261 181.151L162.947 180.707ZM162.887 180.73L162.948 181.27L162.948 181.27L162.887 180.73ZM140.58 183.231L140.519 182.691L140.45 182.698L140.385 182.723L140.58 183.231ZM130.924 186.929L131.117 187.437L131.118 187.437L130.924 186.929ZM153.02 159.666L153.561 159.722L153.561 159.722L153.02 159.666ZM156.389 127.028L156.929 127.084L157.038 126.033L156.12 126.555L156.389 127.028ZM127.673 143.371L127.941 143.843L127.942 143.843L127.673 143.371ZM127.531 143.361L127.198 143.791L127.2 143.792L127.531 143.361ZM127.485 143.225L126.961 143.084L126.96 143.085L127.485 143.225ZM133.4 121.315L133.925 121.457L133.942 121.393L133.944 121.326L133.4 121.315ZM134.083 87.4165L133.54 87.4046L133.54 87.4055L134.083 87.4165ZM134.215 87.2895L134.206 87.8329L134.207 87.833L134.215 87.2895ZM134.341 87.4207L134.885 87.4316L134.885 87.4296L134.341 87.4207ZM133.658 121.335L134.201 121.354L134.201 121.346L133.658 121.335ZM133.653 121.366L133.131 121.216L133.129 121.225L133.653 121.366ZM127.815 142.994L127.29 142.852L126.95 144.111L128.084 143.466L127.815 142.994ZM156.479 126.68L156.748 127.152L156.749 127.152L156.479 126.68ZM156.613 126.684L156.287 127.118L156.302 127.13L156.319 127.141L156.613 126.684ZM156.671 126.805L156.131 126.745L156.13 126.749L156.671 126.805ZM153.313 159.339L152.773 159.283L152.619 160.775L153.693 159.728L153.313 159.339ZM170.893 142.202L170.517 141.809L170.514 141.812L170.893 142.202ZM170.928 142.177L170.694 141.687L170.69 141.689L170.928 142.177ZM201.754 127.467L201.988 127.957L201.99 127.956L201.754 127.467ZM201.925 127.528L201.433 127.758L201.434 127.76L201.925 127.528ZM201.864 127.7L202.098 128.19L202.098 128.19L201.864 127.7ZM171.057 142.401L170.823 141.911L170.742 141.95L170.678 142.012L171.057 142.401ZM153.238 159.771L153.618 160.161L153.618 160.161L153.238 159.771ZM153.093 159.795L152.851 160.282L152.857 160.285L153.093 159.795ZM118.832 112.029L119.126 111.572L118.278 111.026L118.289 112.035L118.832 112.029ZM119.095 135.836L118.552 135.842L118.566 137.15L119.483 136.217L119.095 135.836ZM133.326 121.356L133.713 121.737L134.182 121.261L133.62 120.899L133.326 121.356ZM170.574 142.951L170.822 142.467L170.25 142.175L170.056 142.787L170.574 142.951ZM164.341 162.609L163.822 162.445L163.41 163.745L164.604 163.085L164.341 162.609ZM185.789 150.74L186.052 151.215L186.945 150.721L186.037 150.256L185.789 150.74ZM119.871 136.519L120.223 136.104L120.184 136.071L120.14 136.046L119.871 136.519ZM127.693 143.16L128.046 142.746L128.045 142.746L127.693 143.16ZM127.737 143.237L127.2 143.321L127.201 143.327L127.737 143.237ZM129.614 154.312L129.078 154.402L129.257 155.459L130.003 154.69L129.614 154.312ZM156.292 126.865L156.682 127.244L157.349 126.557L156.417 126.336L156.292 126.865ZM133.57 121.476L133.695 120.947L133.397 120.876L133.182 121.095L133.57 121.476ZM119.175 136.123L118.787 135.742L118.291 136.246L118.906 136.595L119.175 136.123ZM121.566 149.045L121.032 149.147L121.075 149.369L121.262 149.495L121.566 149.045ZM129.351 154.307L129.047 154.758L130.1 155.469L129.887 154.217L129.351 154.307ZM127.491 143.327L128.027 143.236L127.993 143.041L127.843 142.913L127.491 143.327ZM119.724 136.73L120.076 136.316L120.037 136.282L119.992 136.257L119.724 136.73ZM119.15 136.404L119.418 135.931L118.395 135.35L118.616 136.506L119.15 136.404ZM145.3 163.023L145.095 162.52L144.13 162.914L145.005 163.48L145.3 163.023ZM152.733 167.827L152.438 168.283L152.685 168.443L152.954 168.323L152.733 167.827ZM163.747 162.904L163.968 163.4L165.319 162.797L163.899 162.382L163.747 162.904ZM153.155 159.815L153.307 159.294L153.125 159.24L152.95 159.312L153.155 159.815ZM164.191 163.08L164.489 162.625L163.891 162.232L163.673 162.914L164.191 163.08ZM160.244 175.464L159.726 175.299L159.419 176.263L160.392 175.986L160.244 175.464ZM176.172 170.945L176.32 171.468L177.464 171.144L176.47 170.491L176.172 170.945ZM152.94 168.016L152.719 167.52L152.016 167.835L152.547 168.392L152.94 168.016ZM159.992 175.407L159.598 175.782L160.231 176.445L160.509 175.572L159.992 175.407ZM163.91 163.114L164.428 163.279L164.796 162.122L163.688 162.617L163.91 163.114ZM105.869 128.863L106.137 128.39L105.057 127.777L105.34 128.987L105.869 128.863ZM110.087 146.937L109.558 147.06L109.811 148.144L110.51 147.278L110.087 146.937ZM118.771 136.189L119.194 136.53L119.596 136.032L119.039 135.716L118.771 136.189ZM129.659 154.634L129.27 154.255L129.11 154.42L129.116 154.65L129.659 154.634ZM130.079 169.09L129.536 169.106L129.588 170.908L130.541 169.377L130.079 169.09ZM155.802 127.738L156.264 128.026L155.413 127.36L155.802 127.738ZM156.107 127.735L156.625 127.9L155.646 127.448L156.107 127.735ZM130.29 169.239L129.829 168.952L128.91 170.429L130.506 169.737L130.29 169.239ZM144.917 162.902L145.133 163.401L145.36 163.303L145.435 163.067L144.917 162.902ZM144.532 163.35L144.936 163.714L144.316 162.852L144.532 163.35ZM130.258 169.534L130.042 169.035L129.016 169.48L129.999 170.012L130.258 169.534ZM136.123 172.707L135.865 173.185L136.241 173.389L136.528 173.07L136.123 172.707ZM145.135 163.224L145.43 162.768L144.658 162.269L144.593 163.186L145.135 163.224ZM143.982 179.521L143.44 179.483L143.309 181.339L144.419 179.845L143.982 179.521ZM152.535 168.007L152.971 168.331L153.317 167.866L152.83 167.551L152.535 168.007ZM143.694 179.944L144.236 179.982L144.236 179.982L143.694 179.944ZM144.867 163.362L145.409 163.401L145.521 161.822L144.463 162.999L144.867 163.362ZM136.247 172.955L136.651 173.319L136.651 173.319L136.247 172.955ZM136.089 172.983L135.831 173.461L135.831 173.461L136.089 172.983ZM129.903 169.636L129.625 170.102L129.634 170.108L129.644 170.114L129.903 169.636ZM129.867 169.608L129.342 169.748L129.377 169.878L129.468 169.977L129.867 169.608ZM129.867 169.607L130.274 169.247L130.215 169.181L130.138 169.137L129.867 169.607ZM129.866 169.606L130.391 169.467L130.369 169.381L130.32 169.308L129.866 169.606ZM129.865 169.605L130.39 169.465L130.356 169.339L130.27 169.242L129.865 169.605ZM129.864 169.604L129.376 169.844L129.449 169.992L129.592 170.075L129.864 169.604ZM129.863 169.603L130.388 169.464L130.358 169.349L130.283 169.258L129.863 169.603ZM129.836 169.543L129.534 169.091L129.241 169.286L129.3 169.633L129.836 169.543ZM129.835 169.542L129.297 169.613L129.341 169.949L129.662 170.057L129.835 169.542ZM129.834 169.524L130.377 169.541L130.378 169.524L130.377 169.508L129.834 169.524ZM129.402 154.654L129.945 154.638L129.937 154.359L129.706 154.203L129.402 154.654ZM121.377 149.23L121.071 149.679L121.073 149.68L121.377 149.23ZM121.323 149.147L121.857 149.047L121.857 149.045L121.323 149.147ZM118.895 136.445L119.429 136.343L119.209 135.191L118.472 136.103L118.895 136.445ZM110.122 147.304L109.699 146.962L109.697 146.965L110.122 147.304ZM109.993 147.349L110.115 146.819L110.109 146.818L109.993 147.349ZM109.896 147.253L109.367 147.376L109.367 147.377L109.896 147.253ZM105.551 128.635L106.08 128.511L106.08 128.511L105.551 128.635ZM105.599 128.502L105.924 128.938L105.927 128.935L105.599 128.502ZM105.74 128.493L105.47 128.964L105.472 128.965L105.74 128.493ZM118.838 135.932L118.57 136.405L119.392 136.872L119.382 135.926L118.838 135.932ZM118.572 111.792L119.115 111.786L119.115 111.786L118.572 111.792ZM118.638 111.677L118.377 111.201L118.374 111.203L118.638 111.677ZM118.77 111.682L118.459 112.127L118.468 112.133L118.476 112.139L118.77 111.682ZM133.553 121.195L133.259 121.652L133.453 121.777L133.678 121.724L133.553 121.195ZM143.134 118.941L143.012 118.412L143.009 118.412L143.134 118.941ZM143.288 119.037L142.759 119.159L142.759 119.16L143.288 119.037ZM143.192 119.193L143.316 119.722L143.317 119.721L143.192 119.193ZM134.091 121.334L133.966 120.805L133.965 121.862L134.091 121.334ZM156.57 126.665L156.445 127.194L156.45 127.196L156.57 126.665ZM156.597 126.674L156.837 126.187L156.827 126.182L156.816 126.177L156.597 126.674ZM156.656 126.73L156.176 126.986L156.25 127.123L156.384 127.2L156.656 126.73ZM156.656 126.73L157.18 126.587L157.122 126.371L156.928 126.259L156.656 126.73ZM156.656 126.73L156.132 126.873L156.19 127.089L156.384 127.201L156.656 126.73ZM156.656 126.731L156.114 126.697L156.103 126.878L156.202 127.029L156.656 126.731ZM156.657 126.731L157.181 126.589L156.131 126.871L156.657 126.731ZM156.657 126.732L156.132 126.874L156.15 126.941L156.184 127L156.657 126.732ZM156.661 126.74L157.186 126.6L157.176 126.563L157.161 126.527L156.661 126.74ZM156.661 126.74L156.19 126.469L156.045 126.72L156.173 126.98L156.661 126.74ZM156.662 126.742L156.136 126.881L156.194 127.1L156.39 127.212L156.662 126.742ZM156.662 126.743L156.191 126.471L155.92 126.942L156.39 127.214L156.662 126.743ZM156.662 126.743L157.167 126.541L157.097 126.367L156.934 126.273L156.662 126.743ZM156.666 126.829L156.147 126.668L156.018 127.082L156.394 127.3L156.666 126.829ZM156.665 126.831L156.195 126.559L156.165 126.61L156.148 126.666L156.665 126.831ZM145.228 162.774L144.71 162.609L144.358 163.716L145.434 163.277L145.228 162.774ZM153.101 159.559L153.306 160.062L153.306 160.062L153.101 159.559ZM153.185 159.555L153.031 160.076L153.033 160.077L153.185 159.555ZM164.035 162.719L163.883 163.241L164.393 163.389L164.554 162.883L164.035 162.719ZM170.375 142.728L169.857 142.562L169.857 142.564L170.375 142.728ZM170.448 142.648L170.657 143.15L170.661 143.148L170.448 142.648ZM170.557 142.652L170.309 143.135L170.309 143.136L170.557 142.652ZM186.122 150.62L185.875 151.104L185.887 151.11L185.899 151.116L186.122 150.62ZM186.192 150.733L185.649 150.739L185.649 150.741L186.192 150.733ZM186.125 150.848L185.863 150.372L185.862 150.372L186.125 150.848ZM164.37 162.887L164.107 162.412L163.319 162.848L164.071 163.342L164.37 162.887ZM176.55 170.884L176.251 171.339L176.253 171.339L176.55 170.884ZM176.514 171.117L176.366 170.594L176.365 170.594L176.514 171.117ZM160.242 175.732L160.094 175.209L159.426 175.399L159.77 176.002L160.242 175.732ZM162.985 180.537L163.458 180.269L163.457 180.268L162.985 180.537ZM162.937 180.714L163.207 181.186L163.208 181.185L162.937 180.714ZM162.761 180.666L162.289 180.936L162.29 180.938L162.761 180.666ZM159.944 175.731L160.416 175.462L160.383 175.404L160.337 175.356L159.944 175.731ZM152.733 168.173L153.126 167.798L152.681 167.332L152.297 167.849L152.733 168.173ZM143.926 180.029L144.361 180.354L144.362 180.353L143.926 180.029ZM143.778 180.074L143.573 180.577L143.583 180.581L143.592 180.584L143.778 180.074ZM110.179 147.403L110.267 146.866L109.357 146.717L109.667 147.586L110.179 147.403ZM115.456 162.162L114.944 162.345L115.398 163.616L115.951 162.384L115.456 162.162ZM121.263 149.223L121.759 149.445L122.048 148.801L121.351 148.686L121.263 149.223ZM115.55 162.592L115.283 162.118L115.084 162.23L115.025 162.451L115.55 162.592ZM114.345 167.081L113.82 166.94L113.631 167.643L114.359 167.624L114.345 167.081ZM125.084 166.804L125.098 167.347L125.472 167.337L125.596 166.984L125.084 166.804ZM129.294 154.864L129.806 155.044L130.287 153.682L129.027 154.39L129.294 154.864ZM114.074 167.294L114.503 166.961L114.501 166.958L114.074 167.294ZM114.051 167.181L113.526 167.04L113.526 167.042L114.051 167.181ZM115.306 162.51L115.831 162.651L115.875 162.487L115.818 162.327L115.306 162.51ZM109.888 147.355L110.4 147.172L110.292 146.87L109.976 146.819L109.888 147.355ZM103.443 146.297L103.531 145.76L103.523 145.759L103.443 146.297ZM103.337 146.148L103.873 146.238L103.873 146.237L103.337 146.148ZM103.486 146.042L103.396 146.578L103.398 146.578L103.486 146.042ZM109.788 147.077L109.7 147.613L110.611 147.762L110.3 146.894L109.788 147.077ZM109.761 146.999L109.249 147.181L109.249 147.182L109.761 146.999ZM109.839 146.834L109.656 146.322L109.655 146.322L109.839 146.834ZM110.003 146.911L109.491 147.094L109.492 147.095L110.003 146.911ZM110.08 147.125L109.568 147.308L109.676 147.609L109.992 147.661L110.08 147.125ZM121.471 148.995L121.383 149.531L121.386 149.532L121.471 148.995ZM121.563 149.061L121.083 149.317L121.085 149.32L121.563 149.061ZM121.567 149.175L121.071 148.952L121.071 148.953L121.567 149.175ZM115.719 162.201L115.223 161.978L114.547 163.483L115.985 162.674L115.719 162.201ZM129.466 154.471L129.733 154.945L129.734 154.944L129.466 154.471ZM129.612 154.484L129.962 154.068L129.959 154.066L129.612 154.484ZM129.651 154.626L129.138 154.445L129.138 154.445L129.651 154.626ZM125.297 166.973L125.809 167.156L125.809 167.154L125.297 166.973ZM125.178 167.06L125.192 167.603L125.193 167.603L125.178 167.06ZM114.179 167.343L114.165 166.8L114.157 166.8L114.179 167.343ZM136.509 173.376L136.878 172.976L136.01 173.59L136.509 173.376ZM140.594 182.882L140.095 183.097L140.405 183.819L140.971 183.274L140.594 182.882ZM143.634 179.954L144.011 180.346L144.427 179.946L144.003 179.555L143.634 179.954ZM125.322 167.157L125.58 166.679L124.705 166.205L124.78 167.198L125.322 167.157ZM126.026 176.463L125.484 176.504L125.539 177.222L126.214 176.973L126.026 176.463ZM135.838 172.847L136.026 173.357L137.154 172.941L136.097 172.369L135.838 172.847ZM125.841 176.752L126.163 176.314L126.149 176.304L126.135 176.294L125.841 176.752ZM125.782 176.653L126.324 176.613L126.324 176.612L125.782 176.653ZM125.047 166.941L124.505 166.979L124.505 166.982L125.047 166.941ZM125.106 166.822L125.401 167.278L125.403 167.277L125.106 166.822ZM125.237 166.817L124.978 167.295L124.978 167.295L125.237 166.817ZM136.212 172.755L135.953 173.233L135.959 173.236L135.966 173.24L136.212 172.755ZM136.24 172.776L135.867 173.171L135.871 173.175L136.24 172.776ZM143.858 179.809L143.49 180.209L143.709 180.411L143.998 180.335L143.858 179.809ZM160.015 175.528L159.877 175.003L159.876 175.003L160.015 175.528ZM160.173 175.62L159.646 175.757L159.647 175.759L160.173 175.62ZM160.08 175.778L160.22 176.304L160.22 176.304L160.08 175.778ZM143.888 180.068L143.748 179.543L143.612 179.579L143.511 179.677L143.888 180.068ZM140.638 183.197L140.261 182.806L140.26 182.807L140.638 183.197ZM140.524 183.231L140.412 183.763L140.417 183.764L140.524 183.231ZM140.431 183.156L139.931 183.37L139.934 183.376L140.431 183.156ZM136.081 173.032L136.58 172.818L136.376 172.344L135.893 172.523L136.081 173.032ZM125.955 176.764L126.141 177.275L126.143 177.274L125.955 176.764ZM115.324 162.451L115.818 162.678L115.819 162.676L115.324 162.451ZM115.495 162.387L115.72 161.892L115.717 161.891L115.495 162.387ZM125.229 166.813L125.478 166.33L125.466 166.324L125.454 166.318L125.229 166.813ZM125.293 166.984L125.787 167.21L125.788 167.207L125.293 166.984ZM125.122 167.048L124.897 167.543L124.897 167.543L125.122 167.048ZM115.388 162.622L115.139 163.105L115.15 163.112L115.163 163.117L115.388 162.622ZM130.762 186.866L131.253 186.631L131.251 186.627L130.762 186.866ZM125.812 176.735L126.3 176.497L126.227 176.348L126.084 176.265L125.812 176.735ZM126.026 176.586L125.536 176.821L125.538 176.825L126.026 176.586ZM130.994 186.752L130.506 186.99L130.506 186.992L130.994 186.752ZM130.935 186.924L131.174 187.412L131.174 187.412L130.935 186.924ZM114.594 177.491L114.052 177.529L114.052 177.531L114.594 177.491ZM114.714 177.353L114.754 177.895L114.754 177.895L114.714 177.353ZM125.901 176.514L125.862 175.972L125.861 175.972L125.901 176.514ZM125.88 176.775L126.152 176.304L126.007 176.22L125.84 176.233L125.88 176.775ZM114.732 177.61L114.766 178.153L114.773 178.152L114.732 177.61ZM170.4 142.852L169.991 143.21L169.997 143.216L170.4 142.852ZM156.445 126.877L156.855 126.519L156.854 126.518L156.445 126.877ZM156.458 126.695L156.815 127.104L156.816 127.103L156.458 126.695ZM156.64 126.706L157.049 126.349L157.045 126.344L156.64 126.706ZM170.595 142.681L170.185 143.039L170.187 143.04L170.595 142.681ZM170.582 142.864L170.939 143.274L170.942 143.271L170.582 142.864ZM114.576 177.875L130.618 187.137L131.162 186.195L115.12 176.934L114.576 177.875ZM131.084 187.174L140.698 183.491L140.309 182.476L130.695 186.159L131.084 187.174ZM140.708 183.487C140.664 183.505 140.625 183.513 140.597 183.516L140.473 182.436C140.424 182.442 140.364 182.454 140.299 182.48L140.708 183.487ZM140.596 183.516L162.887 181.017L162.766 179.937L140.475 182.436L140.596 183.516ZM163.14 180.921L177.142 171.031L176.515 170.143L162.513 180.033L163.14 180.921ZM177.323 170.813L186.44 150.908L185.452 150.455L176.334 170.361L177.323 170.813ZM186.396 150.987L201.979 128.071L201.08 127.46L185.497 150.376L186.396 150.987ZM201.432 127.231L168.361 133.251L168.556 134.32L201.627 128.3L201.432 127.231ZM168.361 133.251C168.456 133.233 168.556 133.25 168.643 133.3L168.099 134.241C168.239 134.322 168.401 134.348 168.556 134.32L168.361 133.251ZM168.643 133.3L143.37 118.708L142.826 119.65L168.099 134.241L168.643 133.3ZM143.37 118.708C143.465 118.763 143.532 118.852 143.561 118.954L142.516 119.251C142.563 119.417 142.673 119.561 142.826 119.65L143.37 118.708ZM143.562 118.955L134.69 87.5836L133.644 87.8794L142.516 119.25L143.562 118.955ZM133.708 87.4408L118.819 110.963L119.737 111.545L134.626 88.0221L133.708 87.4408ZM118.848 110.921L105.37 128.323L106.229 128.989L119.708 111.587L118.848 110.921ZM105.26 128.588L103.058 146.078L104.137 146.213L106.339 128.724L105.26 128.588ZM103.113 146.392L113.806 167.402L114.775 166.909L104.082 145.899L103.113 146.392ZM113.807 167.403C113.779 167.348 113.765 167.291 113.762 167.239L114.847 167.175C114.842 167.086 114.819 166.995 114.774 166.907L113.807 167.403ZM113.762 167.236L114.305 177.433L115.391 177.375L114.847 167.178L113.762 167.236ZM131.085 186.45L114.93 177.123L114.387 178.064L130.542 187.391L131.085 186.45ZM114.93 177.123C115.055 177.195 115.129 177.323 115.137 177.458L114.052 177.52C114.064 177.742 114.187 177.949 114.387 178.064L114.93 177.123ZM115.137 177.46L114.591 167.22L113.506 167.278L114.052 177.518L115.137 177.46ZM114.533 167.002L103.834 145.982L102.865 146.475L113.564 167.495L114.533 167.002ZM103.834 145.983C103.872 146.057 103.886 146.14 103.876 146.22L102.797 146.087C102.781 146.218 102.804 146.353 102.865 146.474L103.834 145.983ZM103.876 146.221L106.088 128.657L105.009 128.521L102.797 146.086L103.876 146.221ZM106.088 128.656C106.079 128.73 106.05 128.8 106.004 128.859L105.145 128.193C105.07 128.289 105.024 128.403 105.009 128.523L106.088 128.656ZM106.004 128.859L119.497 111.439L118.638 110.774L105.145 128.193L106.004 128.859ZM119.527 111.397L134.563 87.6403L133.644 87.059L118.608 110.816L119.527 111.397ZM134.563 87.6406C134.476 87.7774 134.317 87.8516 134.155 87.8288L134.307 86.7525C134.045 86.7155 133.786 86.8358 133.645 87.0587L134.563 87.6406ZM134.149 87.8279C133.993 87.8041 133.859 87.6915 133.813 87.5304L134.86 87.236C134.786 86.9764 134.569 86.7925 134.313 86.7535L134.149 87.8279ZM133.813 87.5311L142.75 119.129L143.796 118.833L134.859 87.2353L133.813 87.5311ZM143.001 119.452L168.188 133.994L168.732 133.052L143.544 118.51L143.001 119.452ZM168.557 134.058L201.883 127.991L201.689 126.921L168.363 132.988L168.557 134.058ZM201.879 127.991C201.721 128.019 201.553 127.951 201.46 127.807L202.374 127.219C202.225 126.987 201.954 126.875 201.693 126.921L201.879 127.991ZM201.46 127.807C201.369 127.666 201.374 127.487 201.464 127.352L202.366 127.959C202.515 127.738 202.521 127.447 202.374 127.218L201.46 127.807ZM201.466 127.35L185.721 150.502L186.619 151.113L202.365 127.961L201.466 127.35ZM185.676 150.581L176.554 170.5L177.542 170.953L186.664 151.034L185.676 150.581ZM176.555 170.499C176.585 170.433 176.632 170.376 176.692 170.334L177.319 171.222C177.415 171.154 177.492 171.061 177.542 170.954L176.555 170.499ZM176.692 170.334L162.634 180.263L163.261 181.151L177.319 171.222L176.692 170.334ZM162.636 180.262C162.69 180.224 162.756 180.198 162.826 180.19L162.948 181.27C163.062 181.257 163.168 181.216 163.259 181.152L162.636 180.262ZM162.827 180.19L140.519 182.691L140.64 183.771L162.948 181.27L162.827 180.19ZM140.385 182.723L130.729 186.422L131.118 187.437L140.774 183.738L140.385 182.723ZM130.731 186.421C130.845 186.378 130.975 186.387 131.085 186.45L130.542 187.391C130.719 187.494 130.93 187.508 131.117 187.437L130.731 186.421ZM153.356 159.32C153.497 159.402 153.578 159.559 153.561 159.722L152.48 159.61C152.452 159.875 152.584 160.13 152.812 160.262L153.356 159.32ZM153.561 159.722L156.929 127.084L155.848 126.972L152.48 159.61L153.561 159.722ZM156.12 126.555L127.404 142.898L127.942 143.843L156.658 127.5L156.12 126.555ZM127.405 142.898C127.552 142.815 127.732 142.83 127.862 142.93L127.2 143.792C127.412 143.955 127.704 143.978 127.941 143.843L127.405 142.898ZM127.864 142.931C127.996 143.033 128.054 143.205 128.01 143.366L126.96 143.085C126.89 143.346 126.984 143.625 127.198 143.791L127.864 142.931ZM128.01 143.367L133.925 121.457L132.876 121.174L126.961 143.084L128.01 143.367ZM133.944 121.326L134.627 87.4274L133.54 87.4055L132.857 121.304L133.944 121.326ZM134.627 87.4284C134.622 87.6537 134.436 87.8369 134.206 87.8329L134.224 86.7461C133.852 86.7398 133.548 87.0366 133.54 87.4046L134.627 87.4284ZM134.207 87.833C133.974 87.8296 133.794 87.6377 133.798 87.4117L134.885 87.4296C134.891 87.0615 134.598 86.7516 134.223 86.7461L134.207 87.833ZM133.798 87.4097L133.115 121.324L134.201 121.346L134.885 87.4316L133.798 87.4097ZM133.115 121.316C133.116 121.292 133.119 121.258 133.131 121.216L134.176 121.516C134.193 121.455 134.199 121.399 134.201 121.354L133.115 121.316ZM133.129 121.225L127.29 142.852L128.339 143.135L134.178 121.508L133.129 121.225ZM128.084 143.466L156.748 127.152L156.211 126.207L127.546 142.521L128.084 143.466ZM156.749 127.152C156.641 127.213 156.453 127.243 156.287 127.118L156.94 126.249C156.695 126.065 156.402 126.098 156.21 126.208L156.749 127.152ZM156.319 127.141C156.187 127.056 156.113 126.903 156.131 126.745L157.211 126.864C157.239 126.61 157.12 126.364 156.907 126.227L156.319 127.141ZM156.13 126.749L152.773 159.283L153.854 159.394L157.211 126.86L156.13 126.749ZM153.693 159.728L171.272 142.591L170.514 141.812L152.934 158.95L153.693 159.728ZM171.269 142.594C171.238 142.624 171.202 142.648 171.166 142.666L170.69 141.689C170.628 141.719 170.569 141.759 170.517 141.809L171.269 142.594ZM171.162 142.668L201.988 127.957L201.52 126.976L170.694 141.687L171.162 142.668ZM201.99 127.956C201.781 128.057 201.53 127.966 201.433 127.758L202.418 127.297C202.26 126.96 201.856 126.814 201.517 126.977L201.99 127.956ZM201.434 127.76C201.335 127.552 201.426 127.307 201.629 127.21L202.098 128.19C202.431 128.031 202.576 127.632 202.417 127.295L201.434 127.76ZM201.63 127.209L170.823 141.911L171.291 142.892L202.098 128.19L201.63 127.209ZM170.678 142.012L152.859 159.382L153.618 160.161L171.437 142.791L170.678 142.012ZM152.859 159.382C152.983 159.262 153.17 159.229 153.328 159.306L152.857 160.285C153.113 160.408 153.416 160.357 153.618 160.161L152.859 159.382ZM153.334 159.309C153.342 159.313 153.349 159.316 153.352 159.318C153.355 159.32 153.358 159.321 153.356 159.32L152.812 160.262C152.813 160.262 152.83 160.272 152.851 160.282L153.334 159.309ZM118.289 112.035L118.552 135.842L119.638 135.83L119.376 112.023L118.289 112.035ZM119.483 136.217L133.713 121.737L132.938 120.975L118.707 135.455L119.483 136.217ZM133.62 120.899L119.126 111.572L118.538 112.486L133.032 121.813L133.62 120.899ZM170.056 142.787L163.822 162.445L164.859 162.773L171.092 143.115L170.056 142.787ZM164.604 163.085L186.052 151.215L185.526 150.264L164.077 162.134L164.604 163.085ZM186.037 150.256L170.822 142.467L170.327 143.435L185.541 151.224L186.037 150.256ZM119.519 136.933L127.342 143.574L128.045 142.746L120.223 136.104L119.519 136.933ZM127.341 143.574C127.268 143.512 127.216 143.423 127.2 143.321L128.274 143.152C128.248 142.99 128.165 142.847 128.046 142.746L127.341 143.574ZM127.201 143.327L129.078 154.402L130.15 154.221L128.273 143.146L127.201 143.327ZM130.003 154.69L156.682 127.244L155.902 126.486L129.224 153.933L130.003 154.69ZM156.417 126.336L133.695 120.947L133.444 122.004L156.166 127.394L156.417 126.336ZM133.182 121.095L118.787 135.742L119.562 136.504L133.957 121.856L133.182 121.095ZM118.906 136.595L119.603 136.991L120.14 136.046L119.443 135.65L118.906 136.595ZM121.262 149.495L129.047 154.758L129.656 153.857L121.87 148.595L121.262 149.495ZM129.887 154.217L128.027 143.236L126.955 143.418L128.816 154.398L129.887 154.217ZM127.843 142.913L120.076 136.316L119.372 137.144L127.139 143.741L127.843 142.913ZM119.992 136.257L119.418 135.931L118.882 136.876L119.455 137.202L119.992 136.257ZM118.616 136.506L121.032 149.147L122.1 148.943L119.684 136.302L118.616 136.506ZM145.005 163.48L152.438 168.283L153.028 167.371L145.595 162.567L145.005 163.48ZM152.954 168.323L163.968 163.4L163.525 162.408L152.511 167.331L152.954 168.323ZM163.899 162.382L153.307 159.294L153.003 160.337L163.594 163.426L163.899 162.382ZM152.95 159.312L145.095 162.52L145.505 163.526L153.361 160.318L152.95 159.312ZM163.673 162.914L159.726 175.299L160.761 175.629L164.709 163.245L163.673 162.914ZM160.392 175.986L176.32 171.468L176.023 170.422L160.095 174.941L160.392 175.986ZM176.47 170.491L164.489 162.625L163.893 163.534L175.873 171.4L176.47 170.491ZM152.547 168.392L159.598 175.782L160.385 175.032L153.334 167.641L152.547 168.392ZM160.509 175.572L164.428 163.279L163.392 162.949L159.474 175.242L160.509 175.572ZM163.688 162.617L152.719 167.52L153.162 168.513L164.132 163.61L163.688 162.617ZM105.34 128.987L109.558 147.06L110.617 146.813L106.398 128.74L105.34 128.987ZM110.51 147.278L119.194 136.53L118.348 135.847L109.665 146.595L110.51 147.278ZM119.039 135.716L106.137 128.39L105.6 129.336L118.503 136.661L119.039 135.716ZM129.116 154.65L129.536 169.106L130.623 169.074L130.203 154.618L129.116 154.65ZM130.541 169.377L156.264 128.026L155.341 127.451L129.618 168.803L130.541 169.377ZM155.413 127.36L129.27 154.255L130.049 155.013L156.192 128.117L155.413 127.36ZM155.646 127.448L129.829 168.952L130.752 169.526L156.569 128.023L155.646 127.448ZM130.506 169.737L145.133 163.401L144.701 162.404L130.074 168.74L130.506 169.737ZM145.435 163.067L156.625 127.9L155.589 127.571L144.399 162.738L145.435 163.067ZM144.316 162.852L130.042 169.035L130.474 170.033L144.748 163.849L144.316 162.852ZM129.999 170.012L135.865 173.185L136.382 172.229L130.517 169.056L129.999 170.012ZM136.528 173.07L144.936 163.714L144.127 162.987L135.719 172.344L136.528 173.07ZM144.593 163.186L143.44 179.483L144.524 179.56L145.677 163.263L144.593 163.186ZM144.419 179.845L152.971 168.331L152.099 167.683L143.546 179.197L144.419 179.845ZM152.83 167.551L145.43 162.768L144.84 163.681L152.24 168.464L152.83 167.551ZM144.03 179.593C144.164 179.671 144.248 179.82 144.236 179.982L143.152 179.905C143.133 180.167 143.268 180.409 143.486 180.535L144.03 179.593ZM144.236 179.982L145.409 163.401L144.325 163.324L143.152 179.905L144.236 179.982ZM144.463 162.999L135.842 172.592L136.651 173.319L145.271 163.726L144.463 162.999ZM135.842 172.592C135.97 172.451 136.178 172.413 136.347 172.505L135.831 173.461C136.105 173.609 136.443 173.549 136.651 173.319L135.842 172.592ZM136.348 172.505L130.162 169.158L129.644 170.114L135.831 173.461L136.348 172.505ZM130.181 169.169C130.185 169.171 130.196 169.178 130.21 169.188C130.224 169.199 130.244 169.215 130.266 169.239L129.468 169.977C129.53 170.044 129.594 170.084 129.625 170.102L130.181 169.169ZM130.393 169.469C130.38 169.42 130.36 169.372 130.333 169.327C130.308 169.287 130.283 169.258 130.273 169.246C130.265 169.237 130.254 169.226 130.26 169.232C130.262 169.235 130.267 169.24 130.274 169.247L129.46 169.967C129.466 169.975 129.471 169.98 129.474 169.983C129.48 169.989 129.469 169.978 129.461 169.969C129.451 169.958 129.426 169.929 129.402 169.889C129.375 169.844 129.355 169.796 129.342 169.748L130.393 169.469ZM130.138 169.137C130.137 169.136 130.156 169.146 130.177 169.161C130.2 169.177 130.228 169.199 130.257 169.229C130.318 169.293 130.366 169.374 130.391 169.467L129.341 169.746C129.366 169.84 129.414 169.921 129.476 169.985C129.505 170.015 129.533 170.037 129.556 170.053C129.577 170.068 129.596 170.078 129.595 170.078L130.138 169.137ZM130.32 169.308C130.3 169.277 130.269 169.238 130.226 169.199C130.181 169.16 130.139 169.136 130.137 169.135L129.594 170.076C129.591 170.075 129.55 170.052 129.506 170.013C129.462 169.974 129.432 169.935 129.412 169.905L130.32 169.308ZM129.594 170.076C129.579 170.068 129.545 170.048 129.506 170.013C129.488 169.998 129.45 169.962 129.413 169.907C129.387 169.867 129.296 169.723 129.329 169.52C129.369 169.267 129.557 169.143 129.667 169.1C129.764 169.062 129.847 169.062 129.877 169.062C129.946 169.064 129.999 169.079 130.017 169.084C130.1 169.108 130.159 169.146 130.195 169.174C130.285 169.243 130.357 169.343 130.39 169.465L129.339 169.744C129.372 169.868 129.445 169.969 129.535 170.038C129.571 170.065 129.631 170.104 129.713 170.128C129.731 170.133 129.784 170.148 129.854 170.149C129.884 170.15 129.967 170.15 130.064 170.112C130.174 170.069 130.362 169.945 130.402 169.692C130.434 169.489 130.344 169.344 130.317 169.304C130.281 169.25 130.243 169.214 130.225 169.198C130.186 169.164 130.151 169.143 130.137 169.135L129.594 170.076ZM129.865 169.605C130.27 169.242 130.269 169.242 130.269 169.242C130.269 169.242 130.269 169.242 130.269 169.242C130.269 169.242 130.269 169.242 130.269 169.242C130.269 169.242 130.269 169.242 130.269 169.242C130.269 169.242 130.269 169.241 130.268 169.241C130.268 169.241 130.268 169.24 130.267 169.24C130.266 169.239 130.265 169.238 130.265 169.237C130.263 169.235 130.261 169.233 130.258 169.23C130.254 169.226 130.248 169.22 130.241 169.213C130.235 169.207 130.196 169.168 130.136 169.134L129.592 170.075C129.532 170.04 129.493 170.002 129.488 169.997C129.481 169.99 129.475 169.984 129.471 169.979C129.468 169.977 129.466 169.975 129.465 169.973C129.464 169.972 129.463 169.971 129.462 169.97C129.462 169.97 129.461 169.969 129.461 169.969C129.461 169.968 129.46 169.968 129.46 169.968C129.46 169.968 129.46 169.968 129.46 169.968C129.46 169.968 129.46 169.968 129.46 169.968C129.46 169.968 129.46 169.968 129.46 169.967C129.46 169.967 129.46 169.967 129.865 169.605ZM130.351 169.364C130.345 169.351 130.338 169.339 130.331 169.327C130.324 169.315 130.318 169.306 130.318 169.305C130.317 169.304 130.32 169.309 130.323 169.314C130.327 169.32 130.334 169.331 130.341 169.345C130.359 169.377 130.376 169.416 130.388 169.464L129.338 169.743C129.351 169.79 129.368 169.83 129.385 169.862C129.393 169.876 129.4 169.887 129.403 169.893C129.405 169.896 129.407 169.898 129.408 169.9C129.408 169.9 129.409 169.901 129.409 169.901C129.409 169.901 129.409 169.902 129.409 169.902C129.409 169.902 129.409 169.902 129.409 169.902C129.409 169.902 129.409 169.902 129.409 169.902C129.409 169.902 129.407 169.899 129.405 169.896C129.403 169.892 129.4 169.887 129.396 169.881C129.389 169.869 129.382 169.857 129.376 169.844L130.351 169.364ZM130.283 169.258C130.33 169.314 130.36 169.381 130.372 169.452L129.3 169.633C129.319 169.749 129.369 169.857 129.443 169.948L130.283 169.258ZM129.836 169.543C130.138 169.994 130.138 169.994 130.138 169.994C130.138 169.994 130.138 169.994 130.139 169.994C130.139 169.994 130.139 169.993 130.139 169.993C130.14 169.993 130.14 169.993 130.141 169.992C130.142 169.991 130.143 169.991 130.144 169.99C130.147 169.988 130.149 169.987 130.152 169.985C130.156 169.981 130.162 169.977 130.168 169.973C130.179 169.964 130.193 169.952 130.209 169.937C130.232 169.916 130.299 169.85 130.341 169.742C130.396 169.605 130.405 169.404 130.278 169.226C130.18 169.089 130.051 169.041 130.009 169.027L129.662 170.057C129.62 170.043 129.492 169.995 129.394 169.858C129.339 169.782 129.302 169.688 129.294 169.585C129.286 169.486 129.307 169.402 129.331 169.343C129.373 169.234 129.439 169.169 129.462 169.148C129.478 169.133 129.493 169.121 129.504 169.112C129.51 169.108 129.515 169.104 129.52 169.1C129.522 169.098 129.525 169.097 129.527 169.095C129.528 169.094 129.529 169.094 129.53 169.093C129.531 169.093 129.532 169.092 129.532 169.092C129.532 169.092 129.533 169.091 129.533 169.091C129.533 169.091 129.533 169.091 129.533 169.091C129.533 169.091 129.534 169.091 129.836 169.543ZM130.374 169.47C130.374 169.465 130.375 169.474 130.376 169.484C130.377 169.496 130.378 169.516 130.377 169.541L129.291 169.507C129.289 169.564 129.297 169.613 129.297 169.613L130.374 169.47ZM130.377 169.508L129.945 154.638L128.859 154.669L129.291 169.54L130.377 169.508ZM129.706 154.203L121.681 148.779L121.073 149.68L129.098 155.104L129.706 154.203ZM121.683 148.78C121.772 148.841 121.836 148.935 121.857 149.047L120.789 149.247C120.822 149.426 120.926 149.58 121.071 149.679L121.683 148.78ZM121.857 149.045L119.429 136.343L118.361 136.547L120.789 149.249L121.857 149.045ZM118.472 136.103L109.699 146.962L110.545 147.646L119.318 136.786L118.472 136.103ZM109.697 146.965C109.797 146.84 109.959 146.783 110.115 146.819L109.871 147.879C110.123 147.937 110.385 147.845 110.547 147.643L109.697 146.965ZM110.109 146.818C110.27 146.853 110.39 146.977 110.426 147.129L109.367 147.377C109.425 147.625 109.621 147.824 109.877 147.88L110.109 146.818ZM110.426 147.129L106.08 128.511L105.021 128.759L109.367 147.376L110.426 147.129ZM106.08 128.511C106.117 128.671 106.056 128.839 105.924 128.938L105.275 128.066C105.059 128.226 104.96 128.499 105.022 128.759L106.08 128.511ZM105.927 128.935C105.796 129.035 105.616 129.048 105.47 128.964L106.01 128.021C105.775 127.887 105.485 127.907 105.271 128.068L105.927 128.935ZM105.472 128.965L118.57 136.405L119.107 135.46L106.008 128.02L105.472 128.965ZM119.382 135.926L119.115 111.786L118.028 111.798L118.295 135.938L119.382 135.926ZM119.115 111.786C119.117 111.937 119.036 112.078 118.903 112.152L118.374 111.203C118.158 111.323 118.025 111.552 118.028 111.799L119.115 111.786ZM118.9 112.154C118.781 112.219 118.609 112.232 118.459 112.127L119.082 111.236C118.856 111.078 118.579 111.09 118.377 111.201L118.9 112.154ZM118.476 112.139L133.259 121.652L133.847 120.738L119.065 111.225L118.476 112.139ZM133.678 121.724L143.258 119.47L143.009 118.412L133.429 120.666L133.678 121.724ZM143.255 119.471C143.037 119.521 142.811 119.387 142.759 119.159L143.818 118.915C143.733 118.548 143.368 118.33 143.012 118.412L143.255 119.471ZM142.759 119.16C142.707 118.936 142.847 118.716 143.066 118.664L143.317 119.721C143.676 119.637 143.902 119.277 143.818 118.914L142.759 119.16ZM143.067 118.664L133.966 120.805L134.215 121.863L143.316 119.722L143.067 118.664ZM133.965 121.862L156.445 127.194L156.696 126.137L134.216 120.805L133.965 121.862ZM156.45 127.196C156.418 127.188 156.393 127.178 156.378 127.172L156.816 126.177C156.783 126.163 156.741 126.147 156.69 126.135L156.45 127.196ZM156.357 127.162C156.293 127.131 156.224 127.074 156.176 126.986L157.135 126.474C157.063 126.338 156.952 126.244 156.837 126.187L156.357 127.162ZM156.384 127.2L156.384 127.201L156.928 126.259L156.928 126.259L156.384 127.2ZM156.132 126.872L156.132 126.873L157.181 126.588L157.18 126.587L156.132 126.872ZM156.384 127.201C156.403 127.211 156.348 127.182 156.299 127.14C156.266 127.111 156.229 127.072 156.196 127.02C156.163 126.967 156.143 126.915 156.131 126.87C156.11 126.792 156.113 126.728 156.113 126.72C156.113 126.706 156.114 126.692 156.114 126.697L157.199 126.764C157.198 126.769 157.199 126.755 157.2 126.741C157.2 126.733 157.202 126.669 157.182 126.591C157.169 126.545 157.149 126.493 157.116 126.441C157.083 126.389 157.046 126.349 157.014 126.321C156.965 126.278 156.91 126.249 156.928 126.259L156.384 127.201ZM156.656 126.731C156.202 127.029 156.202 127.029 156.202 127.029C156.202 127.029 156.202 127.029 156.202 127.029C156.202 127.029 156.202 127.029 156.202 127.029C156.202 127.029 156.202 127.029 156.202 127.029C156.202 127.029 156.202 127.029 156.202 127.029C156.202 127.03 156.203 127.03 156.203 127.03C156.203 127.031 156.204 127.031 156.204 127.032C156.205 127.033 156.206 127.035 156.207 127.037C156.209 127.039 156.214 127.046 156.22 127.055C156.223 127.059 156.23 127.068 156.238 127.077C156.242 127.082 156.264 127.109 156.296 127.138C156.308 127.149 156.355 127.19 156.427 127.224C156.467 127.242 156.757 127.369 157.018 127.138C157.128 127.04 157.169 126.925 157.185 126.859C157.201 126.793 157.201 126.738 157.2 126.708C157.197 126.65 157.186 126.606 157.182 126.592L156.131 126.871C156.128 126.856 156.116 126.812 156.114 126.754C156.113 126.725 156.112 126.67 156.128 126.603C156.144 126.538 156.186 126.423 156.296 126.325C156.417 126.217 156.56 126.184 156.674 126.188C156.775 126.191 156.85 126.222 156.886 126.239C156.958 126.272 157.005 126.314 157.017 126.324C157.05 126.353 157.071 126.38 157.076 126.385C157.084 126.395 157.09 126.403 157.093 126.407C157.099 126.416 157.104 126.422 157.106 126.425C157.107 126.427 157.108 126.428 157.109 126.429C157.109 126.43 157.109 126.431 157.11 126.431C157.11 126.431 157.11 126.432 157.11 126.432C157.11 126.432 157.11 126.432 157.111 126.432C157.111 126.432 157.111 126.432 157.111 126.433C157.111 126.433 157.111 126.433 157.111 126.433C157.111 126.433 157.111 126.433 157.111 126.433C157.111 126.433 157.111 126.433 156.656 126.731ZM156.132 126.874L156.132 126.874L157.181 126.589L157.181 126.589L156.132 126.874ZM156.184 127C156.175 126.983 156.167 126.967 156.161 126.952L157.161 126.527C157.152 126.507 157.142 126.485 157.129 126.463L156.184 127ZM156.136 126.879C156.148 126.925 156.163 126.96 156.174 126.981C156.178 126.99 156.182 126.998 156.182 126.998C156.184 127.001 156.179 126.992 156.174 126.981C156.166 126.965 156.129 126.892 156.12 126.789C156.109 126.668 156.139 126.557 156.19 126.469L157.132 127.012C157.183 126.924 157.213 126.813 157.202 126.691C157.193 126.589 157.156 126.515 157.148 126.499C157.143 126.488 157.138 126.479 157.139 126.482C157.139 126.482 157.141 126.484 157.142 126.487C157.143 126.49 157.146 126.494 157.148 126.499C157.158 126.52 157.174 126.555 157.186 126.6L156.136 126.879ZM156.173 126.98C156.167 126.967 156.157 126.947 156.148 126.92C156.14 126.897 156.135 126.877 156.136 126.881L157.187 126.602C157.187 126.602 157.187 126.602 157.187 126.602C157.187 126.602 157.187 126.602 157.187 126.602C157.187 126.602 157.187 126.602 157.187 126.602C157.187 126.602 157.187 126.602 157.187 126.602C157.187 126.601 157.186 126.601 157.186 126.6C157.186 126.598 157.185 126.596 157.184 126.592C157.182 126.585 157.179 126.574 157.174 126.562C157.165 126.535 157.155 126.514 157.149 126.5L156.173 126.98ZM156.39 127.212C156.39 127.212 156.39 127.212 156.389 127.212C156.389 127.212 156.389 127.212 156.389 127.212C156.388 127.211 156.386 127.211 156.385 127.209C156.382 127.208 156.374 127.203 156.365 127.197C156.348 127.186 156.301 127.154 156.253 127.1C156.199 127.038 156.169 126.976 156.153 126.932C156.141 126.901 156.134 126.872 156.137 126.882L157.187 126.603C157.19 126.613 157.183 126.583 157.171 126.552C157.155 126.508 157.125 126.446 157.071 126.384C157.023 126.33 156.976 126.298 156.959 126.287C156.949 126.281 156.942 126.276 156.939 126.274C156.937 126.273 156.935 126.272 156.935 126.272C156.934 126.272 156.934 126.271 156.934 126.271C156.933 126.271 156.933 126.271 156.933 126.271L156.39 127.212ZM156.137 126.882C156.148 126.925 156.163 126.957 156.164 126.96C156.17 126.974 156.15 126.93 156.137 126.881C156.119 126.816 156.111 126.736 156.127 126.649C156.141 126.569 156.17 126.508 156.191 126.471L157.133 127.015C157.154 126.978 157.183 126.917 157.197 126.837C157.213 126.75 157.205 126.67 157.188 126.604C157.175 126.555 157.154 126.512 157.16 126.525C157.161 126.528 157.176 126.56 157.187 126.603L156.137 126.882ZM156.39 127.214L156.39 127.214L156.934 126.273L156.934 126.272L156.39 127.214ZM156.158 126.945C156.124 126.861 156.117 126.763 156.147 126.668L157.185 126.99C157.233 126.836 157.222 126.678 157.167 126.541L156.158 126.945ZM156.394 127.3C156.394 127.3 156.394 127.299 156.394 127.299C156.393 127.299 156.393 127.299 156.393 127.299C156.392 127.298 156.391 127.298 156.389 127.297C156.386 127.295 156.378 127.29 156.367 127.283C156.365 127.281 156.279 127.23 156.212 127.128C156.17 127.065 156.136 126.983 156.126 126.886C156.116 126.794 156.132 126.718 156.146 126.67C156.16 126.624 156.177 126.591 156.184 126.579C156.188 126.571 156.191 126.566 156.192 126.563C156.193 126.561 156.194 126.56 156.195 126.559C156.195 126.558 156.195 126.558 156.195 126.558L157.137 127.101C157.137 127.101 157.137 127.1 157.137 127.1C157.138 127.099 157.139 127.098 157.14 127.096C157.141 127.093 157.144 127.087 157.148 127.08C157.155 127.068 157.172 127.034 157.186 126.989C157.2 126.94 157.216 126.864 157.206 126.772C157.196 126.675 157.162 126.594 157.12 126.53C157.053 126.429 156.967 126.377 156.964 126.375C156.954 126.368 156.946 126.363 156.943 126.361C156.941 126.36 156.94 126.359 156.939 126.359C156.938 126.359 156.938 126.359 156.938 126.358C156.938 126.358 156.937 126.358 156.937 126.358L156.394 127.3ZM156.195 126.558C156.184 126.577 156.176 126.593 156.171 126.605C156.165 126.618 156.161 126.628 156.158 126.635C156.156 126.642 156.154 126.648 156.152 126.651C156.152 126.653 156.151 126.654 156.151 126.655C156.151 126.656 156.151 126.656 156.151 126.656C156.151 126.656 156.151 126.656 156.151 126.656C156.151 126.656 156.151 126.657 156.151 126.657C156.15 126.657 156.151 126.655 156.152 126.652C156.153 126.649 156.155 126.643 156.158 126.636C156.161 126.629 156.165 126.619 156.17 126.607C156.176 126.595 156.184 126.578 156.195 126.559L157.136 127.102C157.147 127.083 157.155 127.067 157.161 127.055C157.166 127.042 157.17 127.032 157.173 127.025C157.176 127.018 157.178 127.012 157.179 127.009C157.18 127.007 157.18 127.006 157.18 127.005C157.18 127.004 157.181 127.004 157.181 127.004C157.181 127.004 157.181 127.004 157.181 127.004C157.181 127.004 157.181 127.003 157.181 127.003C157.181 127.003 157.18 127.005 157.179 127.008C157.178 127.011 157.176 127.017 157.173 127.024C157.171 127.031 157.167 127.041 157.161 127.053C157.156 127.065 157.148 127.082 157.137 127.101L156.195 126.558ZM156.148 126.666L144.71 162.609L145.746 162.939L157.183 126.995L156.148 126.666ZM145.434 163.277L153.306 160.062L152.895 159.056L145.023 162.271L145.434 163.277ZM153.306 160.062C153.218 160.098 153.121 160.103 153.031 160.076L153.339 159.034C153.193 158.991 153.037 158.998 152.895 159.056L153.306 160.062ZM153.033 160.077L163.883 163.241L164.188 162.197L153.337 159.033L153.033 160.077ZM164.554 162.883L170.893 142.892L169.857 142.564L163.517 162.555L164.554 162.883ZM170.892 142.894C170.856 143.007 170.771 143.102 170.657 143.15L170.24 142.146C170.055 142.223 169.917 142.376 169.857 142.562L170.892 142.894ZM170.661 143.148C170.547 143.197 170.418 143.191 170.309 143.135L170.804 142.168C170.628 142.078 170.419 142.069 170.235 142.148L170.661 143.148ZM170.309 143.136L185.875 151.104L186.37 150.136L170.804 142.168L170.309 143.136ZM185.899 151.116C185.821 151.08 185.752 151.02 185.706 150.941C185.663 150.867 185.65 150.794 185.649 150.739L186.736 150.726C186.733 150.512 186.624 150.25 186.345 150.124L185.899 151.116ZM185.649 150.741C185.647 150.586 185.73 150.445 185.863 150.372L186.388 151.324C186.604 151.205 186.739 150.975 186.736 150.725L185.649 150.741ZM185.862 150.372L164.107 162.412L164.633 163.363L186.388 151.323L185.862 150.372ZM164.071 163.342L176.251 171.339L176.848 170.43L164.668 162.433L164.071 163.342ZM176.253 171.339C176.115 171.25 176.044 171.088 176.069 170.927L177.143 171.097C177.184 170.836 177.069 170.574 176.846 170.429L176.253 171.339ZM176.069 170.927C176.094 170.77 176.208 170.638 176.366 170.594L176.662 171.64C176.917 171.567 177.102 171.353 177.143 171.097L176.069 170.927ZM176.365 170.594L160.094 175.209L160.39 176.255L176.662 171.639L176.365 170.594ZM159.77 176.002L162.513 180.807L163.457 180.268L160.714 175.463L159.77 176.002ZM162.512 180.805C162.401 180.609 162.467 180.357 162.666 180.243L163.208 181.185C163.531 180.999 163.639 180.589 163.458 180.269L162.512 180.805ZM162.667 180.242C162.866 180.128 163.118 180.197 163.232 180.395L162.29 180.938C162.475 181.258 162.884 181.37 163.207 181.186L162.667 180.242ZM163.233 180.397L160.416 175.462L159.472 176.001L162.289 180.936L163.233 180.397ZM160.337 175.356L153.126 167.798L152.34 168.548L159.55 176.107L160.337 175.356ZM152.297 167.849L143.49 179.705L144.362 180.353L153.169 168.497L152.297 167.849ZM143.49 179.704C143.598 179.559 143.79 179.5 143.963 179.563L143.592 180.584C143.873 180.686 144.185 180.591 144.361 180.354L143.49 179.704ZM143.982 179.57C144 179.577 144.016 179.586 144.03 179.593L143.486 180.535C143.512 180.549 143.541 180.564 143.573 180.577L143.982 179.57ZM109.667 147.586L114.944 162.345L115.967 161.979L110.691 147.22L109.667 147.586ZM115.951 162.384L121.759 149.445L120.768 149L114.96 161.939L115.951 162.384ZM121.351 148.686L110.267 146.866L110.091 147.939L121.175 149.759L121.351 148.686ZM115.025 162.451L113.82 166.94L114.87 167.221L116.075 162.732L115.025 162.451ZM114.359 167.624L125.098 167.347L125.07 166.26L114.331 166.537L114.359 167.624ZM125.596 166.984L129.806 155.044L128.781 154.683L124.571 166.623L125.596 166.984ZM129.027 154.39L115.283 162.118L115.816 163.065L129.56 155.337L129.027 154.39ZM114.383 166.855C114.427 166.881 114.468 166.916 114.503 166.961L113.645 167.628C113.701 167.699 113.767 167.755 113.839 167.797L114.383 166.855ZM114.501 166.958C114.584 167.063 114.609 167.197 114.576 167.321L113.526 167.042C113.472 167.243 113.515 167.462 113.647 167.63L114.501 166.958ZM114.576 167.322L115.831 162.651L114.781 162.369L113.526 167.04L114.576 167.322ZM115.818 162.327L110.4 147.172L109.376 147.538L114.794 162.693L115.818 162.327ZM109.976 146.819L103.531 145.76L103.355 146.833L109.8 147.891L109.976 146.819ZM103.523 145.759C103.765 145.795 103.91 146.02 103.873 146.238L102.801 146.058C102.741 146.417 102.981 146.777 103.363 146.834L103.523 145.759ZM103.873 146.237C103.836 146.461 103.624 146.616 103.396 146.578L103.576 145.506C103.207 145.444 102.862 145.694 102.801 146.059L103.873 146.237ZM103.398 146.578L109.7 147.613L109.876 146.54L103.574 145.505L103.398 146.578ZM110.3 146.894L110.272 146.816L109.249 147.182L109.277 147.26L110.3 146.894ZM110.273 146.817C110.348 147.03 110.239 147.267 110.023 147.345L109.655 146.322C109.304 146.449 109.125 146.834 109.249 147.181L110.273 146.817ZM110.022 147.346C109.808 147.422 109.569 147.312 109.491 147.094L110.515 146.729C110.39 146.377 110.004 146.198 109.656 146.322L110.022 147.346ZM109.492 147.095L109.568 147.308L110.591 146.941L110.515 146.728L109.492 147.095ZM109.992 147.661L121.383 149.531L121.559 148.459L110.168 146.588L109.992 147.661ZM121.386 149.532C121.255 149.511 121.144 149.431 121.083 149.317L122.042 148.806C121.944 148.621 121.764 148.491 121.555 148.458L121.386 149.532ZM121.085 149.32C121.022 149.204 121.019 149.068 121.071 148.952L122.062 149.399C122.148 149.209 122.142 148.988 122.041 148.802L121.085 149.32ZM121.071 148.953L115.223 161.978L116.214 162.423L122.063 149.398L121.071 148.953ZM115.985 162.674L129.733 154.945L129.2 153.997L115.452 161.727L115.985 162.674ZM129.734 154.944C129.581 155.031 129.394 155.01 129.265 154.903L129.959 154.066C129.747 153.89 129.445 153.858 129.199 153.998L129.734 154.944ZM129.263 154.901C129.129 154.789 129.081 154.607 129.138 154.445L130.163 154.807C130.256 154.543 130.177 154.249 129.962 154.068L129.263 154.901ZM129.138 154.445L124.784 166.793L125.809 167.154L130.163 154.807L129.138 154.445ZM124.785 166.791C124.842 166.631 124.991 166.521 125.163 166.516L125.193 167.603C125.472 167.595 125.716 167.416 125.809 167.156L124.785 166.791ZM125.164 166.516L114.165 166.8L114.193 167.886L125.192 167.603L125.164 166.516ZM114.157 166.8C114.243 166.797 114.321 166.82 114.383 166.855L113.839 167.797C113.942 167.856 114.066 167.891 114.2 167.886L114.157 166.8ZM136.01 173.59L140.095 183.097L141.094 182.668L137.008 173.161L136.01 173.59ZM140.971 183.274L144.011 180.346L143.257 179.563L140.217 182.491L140.971 183.274ZM144.003 179.555L136.878 172.976L136.14 173.775L143.266 180.354L144.003 179.555ZM124.78 167.198L125.484 176.504L126.568 176.422L125.864 167.116L124.78 167.198ZM126.214 176.973L136.026 173.357L135.65 172.337L125.838 175.953L126.214 176.973ZM136.097 172.369L125.58 166.679L125.063 167.635L135.58 173.325L136.097 172.369ZM126.118 176.284C126.116 176.283 126.121 176.286 126.128 176.29C126.135 176.295 126.148 176.303 126.163 176.314L125.519 177.189C125.535 177.202 125.55 177.211 125.559 177.216C125.563 177.219 125.567 177.221 125.57 177.223C125.572 177.224 125.574 177.225 125.574 177.226L126.118 176.284ZM126.135 176.294C126.242 176.363 126.314 176.48 126.324 176.613L125.24 176.694C125.256 176.907 125.372 177.097 125.547 177.209L126.135 176.294ZM126.324 176.612L125.589 166.9L124.505 166.982L125.24 176.694L126.324 176.612ZM125.589 166.903C125.599 167.05 125.53 167.195 125.401 167.278L124.81 166.366C124.602 166.501 124.488 166.737 124.505 166.979L125.589 166.903ZM125.403 167.277C125.277 167.36 125.114 167.368 124.978 167.295L125.496 166.339C125.277 166.22 125.013 166.234 124.808 166.368L125.403 167.277ZM124.978 167.295L135.953 173.233L136.47 172.277L125.496 166.339L124.978 167.295ZM135.966 173.24C135.914 173.213 135.881 173.184 135.867 173.171L136.613 172.381C136.582 172.351 136.53 172.307 136.457 172.27L135.966 173.24ZM135.871 173.175L143.49 180.209L144.227 179.41L136.609 172.377L135.871 173.175ZM143.998 180.335L160.155 176.054L159.876 175.003L143.719 179.284L143.998 180.335ZM160.154 176.054C159.93 176.113 159.704 175.978 159.646 175.757L160.699 175.484C160.606 175.126 160.239 174.908 159.877 175.003L160.154 176.054ZM159.647 175.759C159.588 175.536 159.723 175.311 159.941 175.253L160.22 176.304C160.576 176.209 160.793 175.843 160.698 175.482L159.647 175.759ZM159.941 175.253L143.748 179.543L144.027 180.594L160.22 176.304L159.941 175.253ZM143.511 179.677L140.261 182.806L141.015 183.589L144.265 180.46L143.511 179.677ZM140.26 182.807C140.359 182.711 140.498 182.671 140.63 182.698L140.417 183.764C140.631 183.807 140.856 183.743 141.017 183.587L140.26 182.807ZM140.635 182.699C140.765 182.726 140.874 182.814 140.927 182.936L139.934 183.376C140.022 183.574 140.2 183.718 140.412 183.763L140.635 182.699ZM140.93 182.941L136.58 172.818L135.581 173.247L139.931 183.37L140.93 182.941ZM135.893 172.523L125.767 176.254L126.143 177.274L136.268 173.542L135.893 172.523ZM125.769 176.254C125.883 176.212 126.011 176.223 126.118 176.284L125.574 177.226C125.747 177.325 125.954 177.343 126.141 177.275L125.769 176.254ZM115.648 162.146C115.832 162.252 115.908 162.482 115.818 162.678L114.83 162.225C114.684 162.543 114.807 162.915 115.105 163.087L115.648 162.146ZM115.819 162.676C115.724 162.884 115.48 162.976 115.272 162.882L115.717 161.891C115.38 161.739 114.983 161.888 114.829 162.227L115.819 162.676ZM115.27 162.881L125.004 167.308L125.454 166.318L115.72 161.892L115.27 162.881ZM124.98 167.296C124.886 167.248 124.822 167.17 124.789 167.086C124.754 166.998 124.744 166.879 124.797 166.761L125.788 167.207C125.953 166.841 125.755 166.473 125.478 166.33L124.98 167.296ZM124.798 166.758C124.893 166.551 125.137 166.458 125.346 166.553L124.897 167.543C125.236 167.697 125.633 167.546 125.787 167.21L124.798 166.758ZM125.347 166.553L115.612 162.128L115.163 163.117L124.897 167.543L125.347 166.553ZM115.636 162.139C115.635 162.138 115.635 162.138 115.634 162.138C115.634 162.138 115.635 162.138 115.636 162.139C115.638 162.14 115.642 162.142 115.648 162.146L115.105 163.087C115.114 163.093 115.122 163.097 115.128 163.1C115.133 163.103 115.138 163.105 115.139 163.105L115.636 162.139ZM131.085 186.45C131.154 186.49 131.214 186.551 131.253 186.631L130.272 187.1C130.333 187.228 130.43 187.327 130.542 187.391L131.085 186.45ZM131.251 186.627L126.3 176.497L125.324 176.974L130.274 187.104L131.251 186.627ZM126.084 176.265L114.529 169.593L113.985 170.535L125.54 177.206L126.084 176.265ZM114.529 169.593C114.729 169.709 114.794 169.964 114.681 170.159L113.739 169.616C113.555 169.936 113.661 170.348 113.985 170.535L114.529 169.593ZM114.681 170.159C114.568 170.356 114.315 170.426 114.115 170.311L114.658 169.369C114.335 169.183 113.924 169.296 113.739 169.616L114.681 170.159ZM114.115 170.311L125.704 177.002L126.247 176.06L114.658 169.369L114.115 170.311ZM125.704 177.002C125.632 176.96 125.573 176.897 125.536 176.821L126.517 176.352C126.458 176.228 126.363 176.128 126.247 176.06L125.704 177.002ZM125.538 176.825L130.506 186.99L131.482 186.513L126.515 176.347L125.538 176.825ZM130.506 186.992C130.404 186.785 130.491 186.537 130.695 186.437L131.174 187.412C131.506 187.249 131.646 186.846 131.481 186.511L130.506 186.992ZM130.695 186.436C130.822 186.374 130.968 186.382 131.085 186.45L130.542 187.391C130.73 187.5 130.967 187.514 131.174 187.412L130.695 186.436ZM114.93 177.123C115.045 177.189 115.126 177.31 115.136 177.451L114.052 177.531C114.069 177.76 114.2 177.956 114.387 178.064L114.93 177.123ZM115.137 177.453C115.152 177.678 114.985 177.878 114.754 177.895L114.674 176.811C114.301 176.838 114.027 177.163 114.052 177.529L115.137 177.453ZM114.754 177.895L125.942 177.056L125.861 175.972L114.673 176.811L114.754 177.895ZM125.941 177.056C125.86 177.062 125.777 177.044 125.704 177.002L126.247 176.06C126.129 175.992 125.994 175.962 125.862 175.972L125.941 177.056ZM125.704 177.002L138.27 184.257L138.813 183.315L126.247 176.06L125.704 177.002ZM138.27 184.257C138.07 184.141 138.004 183.887 138.118 183.691L139.059 184.234C139.244 183.914 139.136 183.502 138.813 183.315L138.27 184.257ZM138.118 183.691C138.231 183.494 138.484 183.424 138.684 183.539L138.14 184.481C138.464 184.667 138.874 184.554 139.059 184.234L138.118 183.691ZM138.684 183.539L126.152 176.304L125.608 177.245L138.14 184.481L138.684 183.539ZM125.84 176.233L114.691 177.068L114.773 178.152L125.921 177.317L125.84 176.233ZM114.698 177.068C114.776 177.063 114.857 177.081 114.93 177.123L114.387 178.064C114.503 178.131 114.634 178.161 114.766 178.153L114.698 177.068ZM170.705 142.408C170.746 142.432 170.779 142.46 170.804 142.488L169.997 143.216C170.041 143.265 170.096 143.312 170.161 143.349L170.705 142.408ZM170.81 142.495L156.855 126.519L156.036 127.235L169.991 143.21L170.81 142.495ZM156.854 126.518C157.007 126.693 156.986 126.955 156.815 127.104L156.101 126.285C155.822 126.529 155.79 126.954 156.037 127.236L156.854 126.518ZM156.816 127.103C156.642 127.256 156.383 127.234 156.235 127.069L157.045 126.344C156.802 126.073 156.381 126.039 156.1 126.286L156.816 127.103ZM156.231 127.064L170.185 143.039L171.004 142.324L157.049 126.349L156.231 127.064ZM170.187 143.04C170.032 142.865 170.055 142.604 170.223 142.456L170.942 143.271C171.217 143.029 171.251 142.605 171.003 142.322L170.187 143.04ZM170.226 142.454C170.361 142.336 170.554 142.321 170.705 142.408L170.161 143.349C170.405 143.49 170.718 143.466 170.939 143.274L170.226 142.454Z" fill="white" mask="url(#path-3-outside-1_135_311)"/>
<defs>
<filter id="filter0_d_135_311" x="0.450356" y="0.450203" width="288.174" height="288.175" filterUnits="userSpaceOnUse" color-interpolation-filters="sRGB">
<feFlood flood-opacity="0" result="BackgroundImageFix"/>
<feColorMatrix in="SourceAlpha" type="matrix" values="0 0 0 0 0 0 0 0 0 0 0 0 0 0 0 0 0 0 127 0" result="hardAlpha"/>
<feOffset/>
<feGaussianBlur stdDeviation="27.1875"/>
<feComposite in2="hardAlpha" operator="out"/>
<feColorMatrix type="matrix" values="0 0 0 0 0 0 0 0 0 0 0 0 0 0 0 0 0 0 0.1 0"/>
<feBlend mode="normal" in2="BackgroundImageFix" result="effect1_dropShadow_135_311"/>
<feBlend mode="normal" in="SourceGraphic" in2="effect1_dropShadow_135_311" result="shape"/>
</filter>
<linearGradient id="paint0_linear_135_311" x1="81.1058" y1="207.994" x2="207.957" y2="81.1561" gradientUnits="userSpaceOnUse">
<stop stop-color="#FF8FD7"/>
<stop offset="0.520833" stop-color="#F84CBB"/>
<stop offset="1" stop-color="#FF8FD7"/>
</linearGradient>
<radialGradient id="paint1_radial_135_311" cx="0" cy="0" r="1" gradientUnits="userSpaceOnUse" gradientTransform="translate(199.67 97.3806) rotate(-157.636) scale(24.2287 10.5105)">
<stop offset="0.24" stop-color="white" stop-opacity="0.98"/>
<stop offset="0.34" stop-color="white" stop-opacity="0.76"/>
<stop offset="0.43" stop-color="white" stop-opacity="0.55"/>
<stop offset="0.52" stop-color="white" stop-opacity="0.38"/>
<stop offset="0.62" stop-color="white" stop-opacity="0.25"/>
<stop offset="0.71" stop-color="white" stop-opacity="0.14"/>
<stop offset="0.8" stop-color="white" stop-opacity="0.06"/>
<stop offset="0.9" stop-color="white" stop-opacity="0.02"/>
<stop offset="1" stop-color="white" stop-opacity="0"/>
</radialGradient>
</defs>
</svg>
