<svg width="219" height="219" viewBox="0 0 219 219" fill="none" xmlns="http://www.w3.org/2000/svg">
<g filter="url(#filter0_d_135_333)">
<path d="M161.792 124.917C170.387 95.9563 153.877 65.5116 124.917 56.9167C95.9563 48.3217 65.5117 64.8312 56.9167 93.7916C48.3218 122.752 64.8312 153.197 93.7916 161.792C122.752 170.387 153.197 153.877 161.792 124.917Z" fill="url(#paint0_linear_135_333)"/>
</g>
<path d="M121.211 66.7975C121.103 62.951 127.134 62.3278 134.681 65.4359C142.228 68.5439 148.436 74.206 148.529 78.068C148.621 81.9299 142.605 82.5377 135.058 79.4296C127.511 76.3216 121.326 70.6441 121.211 66.7975Z" fill="url(#paint1_radial_135_333)"/>
<path fill-rule="evenodd" clip-rule="evenodd" d="M93.9803 82.2929L130.685 97.9716L113.937 116.859L89.2061 121.919L93.9803 82.2929ZM93.8342 116.873L107.95 106.489L97.3063 88.0537L93.8342 116.873ZM125.911 137.598L90.2039 123.648L115.932 120.315L131.683 99.6998L125.911 137.598ZM116.445 124.273L106.178 125.603L122.716 132.065L118.094 124.06L116.445 124.273Z" fill="white"/>
<defs>
<filter id="filter0_d_135_333" x="0.266786" y="0.266731" width="218.175" height="218.175" filterUnits="userSpaceOnUse" color-interpolation-filters="sRGB">
<feFlood flood-opacity="0" result="BackgroundImageFix"/>
<feColorMatrix in="SourceAlpha" type="matrix" values="0 0 0 0 0 0 0 0 0 0 0 0 0 0 0 0 0 0 127 0" result="hardAlpha"/>
<feOffset/>
<feGaussianBlur stdDeviation="27.1875"/>
<feComposite in2="hardAlpha" operator="out"/>
<feColorMatrix type="matrix" values="0 0 0 0 0 0 0 0 0 0 0 0 0 0 0 0 0 0 0.1 0"/>
<feBlend mode="normal" in2="BackgroundImageFix" result="effect1_dropShadow_135_333"/>
<feBlend mode="normal" in="SourceGraphic" in2="effect1_dropShadow_135_333" result="shape"/>
</filter>
<linearGradient id="paint0_linear_135_333" x1="70.6693" y1="148.054" x2="148.031" y2="70.7" gradientUnits="userSpaceOnUse">
<stop stop-color="#BA7AFA"/>
<stop offset="0.520833" stop-color="#A156EB"/>
<stop offset="1" stop-color="#BA7AFA"/>
</linearGradient>
<radialGradient id="paint1_radial_135_333" cx="0" cy="0" r="1" gradientUnits="userSpaceOnUse" gradientTransform="translate(142.978 80.595) rotate(-157.636) scale(14.7763 6.40996)">
<stop offset="0.24" stop-color="white" stop-opacity="0.98"/>
<stop offset="0.34" stop-color="white" stop-opacity="0.76"/>
<stop offset="0.43" stop-color="white" stop-opacity="0.55"/>
<stop offset="0.52" stop-color="white" stop-opacity="0.38"/>
<stop offset="0.62" stop-color="white" stop-opacity="0.25"/>
<stop offset="0.71" stop-color="white" stop-opacity="0.14"/>
<stop offset="0.8" stop-color="white" stop-opacity="0.06"/>
<stop offset="0.9" stop-color="white" stop-opacity="0.02"/>
<stop offset="1" stop-color="white" stop-opacity="0"/>
</radialGradient>
</defs>
</svg>
