<svg width="182" height="182" viewBox="0 0 182 182" fill="none" xmlns="http://www.w3.org/2000/svg">
<g filter="url(#filter0_f_142_2713)">
<g filter="url(#filter1_d_142_2713)">
<path d="M125.701 101.299C131.389 82.1338 120.464 61.9866 101.299 56.2988C82.1338 50.6109 61.9866 61.5363 56.2987 80.7013C50.6109 99.8662 61.5363 120.013 80.7013 125.701C99.8662 131.389 120.013 120.464 125.701 101.299Z" fill="url(#paint0_linear_142_2713)"/>
</g>
<path d="M98.846 62.8372C98.7748 60.2917 102.766 59.8793 107.76 61.9361C112.755 63.9929 116.863 67.7399 116.924 70.2956C116.985 72.8513 113.004 73.2535 108.01 71.1967C103.016 69.1399 98.9224 65.3827 98.846 62.8372Z" fill="url(#paint1_radial_142_2713)"/>
<path d="M104.263 100.595C103.922 99.0599 102.91 97.5516 101.227 96.0711C104.27 96.4913 106.378 95.4215 107.553 92.862C107.987 91.9387 108.151 91.0146 108.044 90.088C107.937 89.1611 107.579 88.2575 106.969 87.3754C106.359 86.4933 105.618 85.6603 104.749 84.8769C103.879 84.0934 102.828 83.2796 101.596 82.4362L104.644 77.4761L100.877 75.2787L97.9137 80.101C97.2614 79.7205 96.2586 79.1533 94.9053 78.3996L97.8927 73.5379L94.1253 71.3401L91.0774 76.3003C90.531 75.9994 89.736 75.5448 88.6924 74.9359L83.5186 71.8909L81.535 75.119L84.2502 76.7028C85.4896 77.4259 85.9411 78.2955 85.6049 79.3113L82.1336 84.9605C82.2969 85.0557 82.4231 85.1385 82.5129 85.2087L82.1214 84.9803L77.2594 92.8926C76.718 93.4856 76.0393 93.5446 75.2238 93.0689L72.5088 91.4851L69.537 94.6448L74.4295 97.4988C74.7395 97.6796 75.1856 97.9444 75.7693 98.2929C76.3523 98.642 76.7904 98.9021 77.084 99.0733L73.9999 104.092L77.7679 106.291L80.8157 101.33C81.4922 101.743 82.4831 102.33 83.7877 103.091L80.752 108.031L84.519 110.229L87.6032 105.21C88.9729 105.938 90.2194 106.532 91.3436 106.991C92.4682 107.45 93.598 107.802 94.7333 108.045C95.8683 108.289 96.8951 108.366 97.8133 108.278C98.7315 108.19 99.616 107.912 100.468 107.446C101.319 106.98 102.088 106.315 102.774 105.449C104.108 103.75 104.604 102.132 104.263 100.595ZM92.8018 81.9848C92.916 82.0514 93.2401 82.2359 93.7742 82.5385C94.3086 82.8411 94.7528 83.0914 95.1074 83.2893C95.4621 83.4874 95.925 83.7797 96.4963 84.1664C97.0673 84.553 97.5364 84.8981 97.9037 85.2014C98.2711 85.5046 98.6534 85.8748 99.0495 86.3109C99.4465 86.7473 99.7247 87.1592 99.8849 87.5468C100.046 87.9346 100.125 88.3554 100.123 88.8087C100.121 89.2623 99.9874 89.7056 99.7214 90.1386C99.4956 90.506 99.2166 90.798 98.8845 91.0144C98.5527 91.2308 98.1768 91.3547 97.7586 91.3871C97.3403 91.4194 96.929 91.4204 96.5265 91.3904C96.1243 91.3606 95.6538 91.2511 95.1165 91.0623C94.5792 90.8737 94.1149 90.701 93.7241 90.5442C93.333 90.3874 92.8624 90.162 92.3121 89.8676C91.7617 89.5732 91.3457 89.3486 91.0646 89.1935C90.7833 89.0381 90.4042 88.817 89.9269 88.5298C89.4495 88.2425 89.1707 88.0752 89.089 88.0275L92.8018 81.9848ZM94.8522 101.39C94.5113 101.601 94.1505 101.747 93.7688 101.828C93.3871 101.908 92.9438 101.917 92.4398 101.854C91.9355 101.792 91.4633 101.703 91.024 101.59C90.584 101.476 90.0751 101.303 89.497 101.074C88.9179 100.843 88.4194 100.627 87.9991 100.427C87.5795 100.227 87.0867 99.9748 86.5198 99.6711C85.9536 99.3671 85.5151 99.1248 85.2053 98.9441C84.8954 98.7633 84.5061 98.5314 84.0371 98.2491C83.5677 97.9669 83.2683 97.7877 83.1377 97.7116L87.2259 91.0584C87.3563 91.1345 87.7476 91.354 88.4001 91.7165C89.0526 92.0792 89.5821 92.3797 89.9898 92.6176C90.3975 92.8554 90.9484 93.2031 91.6419 93.6615C92.335 94.1189 92.9024 94.5297 93.3436 94.8941C93.7843 95.2583 94.2435 95.6908 94.722 96.193C95.2 96.6946 95.5462 97.1683 95.7599 97.6139C95.9734 98.0598 96.0897 98.537 96.1084 99.0472C96.1279 99.5575 95.992 100.049 95.7017 100.521C95.4756 100.889 95.1929 101.178 94.8522 101.39Z" fill="white"/>
</g>
<defs>
<filter id="filter0_f_142_2713" x="50.7932" y="50.7933" width="80.4136" height="80.4135" filterUnits="userSpaceOnUse" color-interpolation-filters="sRGB">
<feFlood flood-opacity="0" result="BackgroundImageFix"/>
<feBlend mode="normal" in="SourceGraphic" in2="BackgroundImageFix" result="shape"/>
<feGaussianBlur stdDeviation="2" result="effect1_foregroundBlur_142_2713"/>
</filter>
<filter id="filter1_d_142_2713" x="0.418221" y="0.418282" width="181.164" height="181.163" filterUnits="userSpaceOnUse" color-interpolation-filters="sRGB">
<feFlood flood-opacity="0" result="BackgroundImageFix"/>
<feColorMatrix in="SourceAlpha" type="matrix" values="0 0 0 0 0 0 0 0 0 0 0 0 0 0 0 0 0 0 127 0" result="hardAlpha"/>
<feOffset/>
<feGaussianBlur stdDeviation="27.1875"/>
<feComposite in2="hardAlpha" operator="out"/>
<feColorMatrix type="matrix" values="0 0 0 0 0 0 0 0 0 0 0 0 0 0 0 0 0 0 0.1 0"/>
<feBlend mode="normal" in2="BackgroundImageFix" result="effect1_dropShadow_142_2713"/>
<feBlend mode="normal" in="SourceGraphic" in2="effect1_dropShadow_142_2713" result="shape"/>
</filter>
<linearGradient id="paint0_linear_142_2713" x1="65.3997" y1="116.61" x2="116.595" y2="65.4201" gradientUnits="userSpaceOnUse">
<stop stop-color="#E366DE"/>
<stop offset="0.520833" stop-color="#AB36B8"/>
<stop offset="1" stop-color="#E366DE"/>
</linearGradient>
<radialGradient id="paint1_radial_142_2713" cx="0" cy="0" r="1" gradientUnits="userSpaceOnUse" gradientTransform="translate(113.251 71.9679) rotate(-157.636) scale(9.77841 4.24189)">
<stop offset="0.24" stop-color="white" stop-opacity="0.98"/>
<stop offset="0.34" stop-color="white" stop-opacity="0.76"/>
<stop offset="0.43" stop-color="white" stop-opacity="0.55"/>
<stop offset="0.52" stop-color="white" stop-opacity="0.38"/>
<stop offset="0.62" stop-color="white" stop-opacity="0.25"/>
<stop offset="0.71" stop-color="white" stop-opacity="0.14"/>
<stop offset="0.8" stop-color="white" stop-opacity="0.06"/>
<stop offset="0.9" stop-color="white" stop-opacity="0.02"/>
<stop offset="1" stop-color="white" stop-opacity="0"/>
</radialGradient>
</defs>
</svg>
