<svg width="193" height="194" viewBox="0 0 193 194" fill="none" xmlns="http://www.w3.org/2000/svg">
<g filter="url(#filter0_f_135_339)">
<g filter="url(#filter1_d_135_339)">
<path d="M136.882 108.602C143.473 86.3929 130.812 63.0452 108.602 56.4537C86.3929 49.8623 63.0451 62.5233 56.4537 84.7329C49.8623 106.942 62.5232 130.29 84.7328 136.882C106.942 143.473 130.29 130.812 136.882 108.602Z" fill="url(#paint0_linear_135_339)"/>
</g>
<path d="M105.76 64.031C105.678 61.0811 110.303 60.6032 116.091 62.9867C121.878 65.3703 126.64 69.7125 126.71 72.6742C126.781 75.6359 122.168 76.102 116.38 73.7185C110.592 71.335 105.849 66.9809 105.76 64.031Z" fill="url(#paint1_radial_135_339)"/>
<path fill-rule="evenodd" clip-rule="evenodd" d="M103.459 73.4682L114.861 101.874L95.5366 103.034L79.3814 92.3677L103.459 73.4682ZM84.6275 92.1411L97.9133 94.1644L102.139 78.3957L84.6275 92.1411ZM90.7834 120.774L78.9854 93.846L94.7445 105.991L114.465 103.353L90.7834 120.774ZM92.8761 108.415L86.587 103.569L92.0515 116.041L93.8863 109.194L92.8761 108.415Z" fill="white"/>
</g>
<defs>
<filter id="filter0_f_135_339" x="50.709" y="50.7091" width="91.9171" height="91.9171" filterUnits="userSpaceOnUse" color-interpolation-filters="sRGB">
<feFlood flood-opacity="0" result="BackgroundImageFix"/>
<feBlend mode="normal" in="SourceGraphic" in2="BackgroundImageFix" result="shape"/>
<feGaussianBlur stdDeviation="2" result="effect1_foregroundBlur_135_339"/>
</filter>
<filter id="filter1_d_135_339" x="0.334053" y="0.334114" width="192.667" height="192.667" filterUnits="userSpaceOnUse" color-interpolation-filters="sRGB">
<feFlood flood-opacity="0" result="BackgroundImageFix"/>
<feColorMatrix in="SourceAlpha" type="matrix" values="0 0 0 0 0 0 0 0 0 0 0 0 0 0 0 0 0 0 127 0" result="hardAlpha"/>
<feOffset/>
<feGaussianBlur stdDeviation="27.1875"/>
<feComposite in2="hardAlpha" operator="out"/>
<feColorMatrix type="matrix" values="0 0 0 0 0 0 0 0 0 0 0 0 0 0 0 0 0 0 0.1 0"/>
<feBlend mode="normal" in2="BackgroundImageFix" result="effect1_dropShadow_135_339"/>
<feBlend mode="normal" in="SourceGraphic" in2="effect1_dropShadow_135_339" result="shape"/>
</filter>
<linearGradient id="paint0_linear_135_339" x1="67.0004" y1="126.347" x2="126.329" y2="67.0241" gradientUnits="userSpaceOnUse">
<stop stop-color="#BA7AFA"/>
<stop offset="0.520833" stop-color="#A156EB"/>
<stop offset="1" stop-color="#BA7AFA"/>
</linearGradient>
<radialGradient id="paint1_radial_135_339" cx="0" cy="0" r="1" gradientUnits="userSpaceOnUse" gradientTransform="translate(122.453 74.6122) rotate(-157.636) scale(11.3318 4.91576)">
<stop offset="0.24" stop-color="white" stop-opacity="0.98"/>
<stop offset="0.34" stop-color="white" stop-opacity="0.76"/>
<stop offset="0.43" stop-color="white" stop-opacity="0.55"/>
<stop offset="0.52" stop-color="white" stop-opacity="0.38"/>
<stop offset="0.62" stop-color="white" stop-opacity="0.25"/>
<stop offset="0.71" stop-color="white" stop-opacity="0.14"/>
<stop offset="0.8" stop-color="white" stop-opacity="0.06"/>
<stop offset="0.9" stop-color="white" stop-opacity="0.02"/>
<stop offset="1" stop-color="white" stop-opacity="0"/>
</radialGradient>
</defs>
</svg>
