<svg width="180" height="180" viewBox="0 0 180 180" fill="none" xmlns="http://www.w3.org/2000/svg">
<g opacity="0.6" filter="url(#filter0_f_135_315)">
<g filter="url(#filter1_d_135_315)">
<path d="M123.93 100.07C129.492 81.3307 118.809 61.6313 100.07 56.0698C81.3308 50.5084 61.6313 61.191 56.0699 79.9301C50.5084 98.6691 61.191 118.369 79.9301 123.93C98.6692 129.491 118.369 118.809 123.93 100.07Z" fill="url(#paint0_linear_135_315)"/>
</g>
<path d="M97.6718 62.4632C97.6021 59.9742 101.505 59.571 106.388 61.5821C111.271 63.5932 115.289 67.2569 115.348 69.7558C115.408 72.2547 111.515 72.648 106.632 70.6369C101.749 68.6258 97.7465 64.9521 97.6718 62.4632Z" fill="url(#paint1_radial_135_315)"/>
<mask id="path-3-outside-1_135_315" maskUnits="userSpaceOnUse" x="71.6233" y="70.4395" width="36" height="38" fill="black">
<rect fill="white" x="71.6233" y="70.4395" width="36" height="38"/>
<path d="M86.4371 107.064H93.7469L96.3058 103.909C96.3085 103.905 96.3116 103.902 96.3151 103.9L103.44 98.6473L106.274 92.5047L105.462 83.9029L106.266 72.9967L96.1521 81.5792C96.1429 81.587 96.1313 81.5913 96.1193 81.5913H84.6032C84.5901 81.5913 84.5773 81.5861 84.5678 81.5769L75.3461 72.6063L74.899 83.5829L73.7263 92.1894L76.4246 98.601L84.2243 103.671C84.2304 103.675 84.2354 103.68 84.2393 103.686L86.4371 107.064ZM93.771 107.166H86.4096C86.3925 107.166 86.3766 107.157 86.3671 107.143L84.1601 103.751L76.3562 98.6782C76.3477 98.6726 76.341 98.6646 76.337 98.6551L73.6273 92.2162C73.6238 92.2078 73.6225 92.1986 73.6238 92.1895L74.7979 83.5739L75.2491 72.4883C75.25 72.4682 75.2624 72.4505 75.281 72.443C75.2996 72.4358 75.3208 72.4398 75.3353 72.4539L84.6238 81.4892H96.1008L106.293 72.8403C106.309 72.8271 106.331 72.8244 106.349 72.8339C106.367 72.8432 106.378 72.8625 106.377 72.8831L105.564 83.902L106.376 92.5089C106.377 92.5179 106.376 92.527 106.372 92.5351L103.527 98.7022C103.523 98.71 103.518 98.7168 103.511 98.7219L96.3805 103.978L93.8104 107.147C93.8007 107.159 93.7863 107.166 93.771 107.166Z"/>
<path d="M96.029 93.5001C96.0092 93.5001 95.9909 93.4884 95.9827 93.47L90.6939 81.6513L84.105 92.9024C84.0946 92.92 84.0746 92.9296 84.0544 92.927C84.0341 92.9242 84.0175 92.9095 84.0121 92.8897L81.7105 84.2348L75.2554 72.5152C75.2419 72.4905 75.2508 72.4594 75.2753 72.4459C75.2998 72.4322 75.3308 72.4412 75.3444 72.4657L81.8025 84.1908C81.8045 84.1946 81.8061 84.1984 81.8071 84.2024L84.079 92.7456L90.6562 81.5144C90.6659 81.4979 90.6835 81.4871 90.7027 81.4894C90.7217 81.4903 90.7386 81.5019 90.7463 81.5193L96.0181 93.3003L98.6447 83.9751C98.6463 83.9697 98.6487 83.9646 98.6518 83.9599L106.284 72.8503C106.3 72.8269 106.332 72.8212 106.355 72.8373C106.378 72.8533 106.384 72.885 106.368 72.9083L98.7403 84.0109L96.0779 93.463C96.0721 93.4836 96.054 93.4984 96.0328 93.5C96.0315 93.5001 96.0303 93.5001 96.029 93.5001Z"/>
<path d="M74.8995 83.9356L79.6868 92.02L81.6931 84.2636L74.8995 83.9356ZM98.6836 84.2942L100.432 92.2422L105.42 83.954L98.6836 84.2942ZM80.0866 92.1L84.0703 92.8263C84.0821 92.8284 84.0927 92.8346 84.1003 92.844L86.9269 96.2585L90.6287 81.6148L81.8 84.2562L79.7705 92.1022L80.0866 92.1ZM83.1375 96.0466L86.8365 96.3088L84.034 92.9234L80.078 92.2013L79.8176 92.2031L83.1375 96.0466ZM94.0066 96.1406L97.4945 96.3158L100.287 92.4602L96.0582 93.4944L94.0066 96.1406ZM100.474 92.4325L101.568 97.4436L106.12 92.7567L100.474 92.4325ZM97.6029 96.3396L101.471 97.474L100.384 92.4996L97.6029 96.3396ZM73.7909 92.2466L78.7987 97.5908L79.6456 92.2044L73.7909 92.2466ZM87.0062 96.3597L90.0019 101.217L90.6337 82.0099L87.0062 96.3597ZM90.7374 81.9487L90.1034 101.226L93.8518 96.1749L90.7374 81.9487ZM93.8086 96.404L90.1506 101.334L92.7812 101.261L93.8086 96.404ZM93.9899 96.242L96.8115 102.039L97.4626 96.4164L93.9899 96.242ZM96.842 102.269C96.8228 102.269 96.8049 102.258 96.7963 102.24L93.9255 96.342L92.8723 101.321C92.8674 101.344 92.8474 101.361 92.8239 101.362L90.0494 101.438C90.0435 101.438 90.0374 101.438 90.0318 101.436C90.0317 101.436 90.0316 101.436 90.0313 101.436C90.0313 101.436 90.0311 101.436 90.0309 101.436C90.0308 101.436 90.0307 101.436 90.0306 101.436C90.0307 101.436 90.0304 101.436 90.0302 101.435C90.0302 101.435 90.0299 101.435 90.0298 101.435C90.0295 101.435 90.0294 101.435 90.0293 101.435C90.0211 101.432 90.0137 101.427 90.008 101.42C90.008 101.42 90.0082 101.42 90.0077 101.42C90.0063 101.418 90.0049 101.416 90.0038 101.414L86.922 96.4171L83.1093 96.1469C83.0959 96.1459 83.0832 96.1396 83.0744 96.1294L79.7385 92.2673L78.8829 97.7096C78.88 97.7289 78.8663 97.7447 78.8478 97.7504C78.8294 97.7562 78.809 97.7508 78.7958 97.7366L73.6371 92.2314C73.6232 92.2166 73.6194 92.195 73.6275 92.1763C73.6354 92.1576 73.6535 92.1455 73.6737 92.1454L79.618 92.1034L74.7639 83.9062C74.7543 83.8901 74.7543 83.8699 74.7639 83.8538C74.7737 83.8378 74.7918 83.8276 74.81 83.8292L81.7389 84.1636L84.5684 81.503C84.5889 81.484 84.6211 81.4848 84.6403 81.5054C84.6595 81.5259 84.6584 81.5582 84.6379 81.5775L81.95 84.1049L90.6845 81.4916C90.688 81.4905 90.6915 81.4899 90.6954 81.4895C90.7067 81.4887 90.7174 81.4911 90.7264 81.4967H90.7265L90.7266 81.4968C90.7267 81.4968 90.7267 81.4968 90.7267 81.497C90.7267 81.497 90.7271 81.4971 90.727 81.497L90.7271 81.4971C90.7281 81.4977 90.7291 81.4984 90.7301 81.4991C90.7302 81.4992 90.7302 81.4992 90.7302 81.4993C90.7305 81.4995 90.7306 81.4995 90.7307 81.4997C90.7309 81.4997 90.7309 81.4997 90.731 81.4998C90.7311 81.4999 90.7311 81.4999 90.7311 81.5H90.7312C90.74 81.507 90.7467 81.5169 90.7493 81.5287C90.7495 81.5287 90.7495 81.5287 90.7495 81.5287C90.7495 81.5289 90.7496 81.5292 90.7496 81.5293L93.9329 96.0696L95.989 93.4177C95.996 93.4087 96.0059 93.4022 96.017 93.3996L100.349 92.34L98.5714 84.2572C98.5683 84.2426 98.5716 84.2273 98.5807 84.2153C98.5897 84.2034 98.6036 84.1961 98.6185 84.1953L105.51 83.8472C105.531 83.8451 105.547 83.8558 105.556 83.8719C105.566 83.8882 105.566 83.9084 105.556 83.9245L100.497 92.3315L106.237 92.6613C106.257 92.6624 106.275 92.6752 106.282 92.6938C106.289 92.7124 106.285 92.7335 106.271 92.7478L101.621 97.5358L103.506 98.6366C103.53 98.6509 103.539 98.682 103.525 98.7064C103.51 98.7308 103.479 98.7388 103.455 98.7249L101.519 97.5943L97.563 96.434L96.8924 102.223C96.8897 102.246 96.8727 102.264 96.8505 102.268C96.8475 102.268 96.8447 102.269 96.842 102.269Z"/>
<path d="M78.9219 97.732L83.6373 101.735L83.0691 96.167L78.9219 97.732ZM83.7542 101.863L84.2282 103.635L87.8436 101.421L86.9264 96.5103L83.7542 101.863ZM84.1968 103.765C84.1904 103.765 84.184 103.764 84.1778 103.761C84.1631 103.755 84.1518 103.743 84.1477 103.727L83.655 101.883L78.8129 97.7731L76.4017 98.683C76.3757 98.6933 76.3461 98.6796 76.3362 98.6532C76.3263 98.6268 76.3396 98.5974 76.366 98.5875L78.7241 97.6976L78.6994 97.6767C78.678 97.6585 78.6752 97.6263 78.6934 97.6047C78.7116 97.5833 78.7436 97.5806 78.7649 97.5988L78.8331 97.6566L83.095 96.0483C83.1096 96.0427 83.1262 96.0443 83.1395 96.0526C83.153 96.0609 83.1618 96.0751 83.1634 96.0908L83.7349 101.696L86.908 96.342C86.9187 96.3238 86.9395 96.3143 86.9605 96.3179C86.9812 96.3215 86.9977 96.3378 87.0016 96.3587L87.9499 101.437C87.9537 101.458 87.9444 101.479 87.9264 101.49L84.2232 103.758C84.2151 103.763 84.2059 103.765 84.1968 103.765Z"/>
<path d="M93.0449 101.413L96.3168 103.856L96.7781 102.256L93.0449 101.413ZM87.9946 101.495L90.0716 104.536L92.7113 101.365L87.9946 101.495ZM90.0676 104.672C90.0667 104.672 90.066 104.672 90.0652 104.672C90.0494 104.671 90.0347 104.663 90.0257 104.65L87.8581 101.476C87.8476 101.46 87.8463 101.44 87.8548 101.424C87.8631 101.407 87.8799 101.396 87.8986 101.396L92.8208 101.26C92.8254 101.259 92.8301 101.26 92.8347 101.261L96.826 102.162L101.503 97.5108C101.523 97.4909 101.555 97.4913 101.575 97.5112C101.595 97.5312 101.594 97.5635 101.575 97.5834L96.8871 102.244L96.3939 103.955C96.3894 103.971 96.3771 103.984 96.3614 103.989C96.3456 103.994 96.3281 103.991 96.3148 103.982L92.8308 101.38L90.1066 104.654C90.0969 104.665 90.0826 104.672 90.0676 104.672Z"/>
<path d="M83.6999 101.906C83.674 101.906 83.6519 101.886 83.6494 101.86C83.6467 101.832 83.6671 101.807 83.695 101.804L87.8951 101.396C87.921 101.395 87.9478 101.414 87.9506 101.442C87.9533 101.47 87.9328 101.495 87.9049 101.497L83.7049 101.906C83.7032 101.906 83.7016 101.906 83.6999 101.906Z"/>
<path d="M93.771 107.166C93.7612 107.166 93.7514 107.163 93.7427 107.157L90.0521 104.672H84.7869C84.7588 104.672 84.7361 104.649 84.7361 104.621C84.7361 104.593 84.7588 104.57 84.7869 104.57H90.0676C90.0777 104.57 90.0875 104.573 90.0959 104.579L93.7993 107.073C93.8226 107.088 93.8289 107.12 93.8132 107.143C93.8034 107.158 93.7873 107.166 93.771 107.166Z"/>
<path d="M86.4097 107.166C86.3934 107.166 86.3774 107.158 86.3676 107.144C86.3519 107.12 86.3579 107.088 86.3811 107.073L90.039 104.579C90.0475 104.573 90.0574 104.57 90.0676 104.57H95.7936C95.8216 104.57 95.8444 104.593 95.8444 104.621C95.8444 104.649 95.8216 104.672 95.7936 104.672H90.0832L86.4382 107.157C86.4294 107.163 86.4195 107.166 86.4097 107.166Z"/>
<path d="M98.621 84.2973C98.6156 84.2973 98.6101 84.2964 98.6047 84.2946L90.6836 81.5886C90.657 81.5796 90.6428 81.5505 90.6519 81.5238C90.661 81.4972 90.6897 81.4831 90.7164 81.4919L98.6374 84.1979C98.664 84.207 98.6782 84.236 98.6692 84.2627C98.6619 84.2839 98.6422 84.2973 98.621 84.2973Z"/>
</mask>
<path d="M86.4371 107.064H93.7469L96.3058 103.909C96.3085 103.905 96.3116 103.902 96.3151 103.9L103.44 98.6473L106.274 92.5047L105.462 83.9029L106.266 72.9967L96.1521 81.5792C96.1429 81.587 96.1313 81.5913 96.1193 81.5913H84.6032C84.5901 81.5913 84.5773 81.5861 84.5678 81.5769L75.3461 72.6063L74.899 83.5829L73.7263 92.1894L76.4246 98.601L84.2243 103.671C84.2304 103.675 84.2354 103.68 84.2393 103.686L86.4371 107.064ZM93.771 107.166H86.4096C86.3925 107.166 86.3766 107.157 86.3671 107.143L84.1601 103.751L76.3562 98.6782C76.3477 98.6726 76.341 98.6646 76.337 98.6551L73.6273 92.2162C73.6238 92.2078 73.6225 92.1986 73.6238 92.1895L74.7979 83.5739L75.2491 72.4883C75.25 72.4682 75.2624 72.4505 75.281 72.443C75.2996 72.4358 75.3208 72.4398 75.3353 72.4539L84.6238 81.4892H96.1008L106.293 72.8403C106.309 72.8271 106.331 72.8244 106.349 72.8339C106.367 72.8432 106.378 72.8625 106.377 72.8831L105.564 83.902L106.376 92.5089C106.377 92.5179 106.376 92.527 106.372 92.5351L103.527 98.7022C103.523 98.71 103.518 98.7168 103.511 98.7219L96.3805 103.978L93.8104 107.147C93.8007 107.159 93.7863 107.166 93.771 107.166Z" fill="white"/>
<path d="M96.029 93.5001C96.0092 93.5001 95.9909 93.4884 95.9827 93.47L90.6939 81.6513L84.105 92.9024C84.0946 92.92 84.0746 92.9296 84.0544 92.927C84.0341 92.9242 84.0175 92.9095 84.0121 92.8897L81.7105 84.2348L75.2554 72.5152C75.2419 72.4905 75.2508 72.4594 75.2753 72.4459C75.2998 72.4322 75.3308 72.4412 75.3444 72.4657L81.8025 84.1908C81.8045 84.1946 81.8061 84.1984 81.8071 84.2024L84.079 92.7456L90.6562 81.5144C90.6659 81.4979 90.6835 81.4871 90.7027 81.4894C90.7217 81.4903 90.7386 81.5019 90.7463 81.5193L96.0181 93.3003L98.6447 83.9751C98.6463 83.9697 98.6487 83.9646 98.6518 83.9599L106.284 72.8503C106.3 72.8269 106.332 72.8212 106.355 72.8373C106.378 72.8533 106.384 72.885 106.368 72.9083L98.7403 84.0109L96.0779 93.463C96.0721 93.4836 96.054 93.4984 96.0328 93.5C96.0315 93.5001 96.0303 93.5001 96.029 93.5001Z" fill="white"/>
<path d="M74.8995 83.9356L79.6868 92.02L81.6931 84.2636L74.8995 83.9356ZM98.6836 84.2942L100.432 92.2422L105.42 83.954L98.6836 84.2942ZM80.0866 92.1L84.0703 92.8263C84.0821 92.8284 84.0927 92.8346 84.1003 92.844L86.9269 96.2585L90.6287 81.6148L81.8 84.2562L79.7705 92.1022L80.0866 92.1ZM83.1375 96.0466L86.8365 96.3088L84.034 92.9234L80.078 92.2013L79.8176 92.2031L83.1375 96.0466ZM94.0066 96.1406L97.4945 96.3158L100.287 92.4602L96.0582 93.4944L94.0066 96.1406ZM100.474 92.4325L101.568 97.4436L106.12 92.7567L100.474 92.4325ZM97.6029 96.3396L101.471 97.474L100.384 92.4996L97.6029 96.3396ZM73.7909 92.2466L78.7987 97.5908L79.6456 92.2044L73.7909 92.2466ZM87.0062 96.3597L90.0019 101.217L90.6337 82.0099L87.0062 96.3597ZM90.7374 81.9487L90.1034 101.226L93.8518 96.1749L90.7374 81.9487ZM93.8086 96.404L90.1506 101.334L92.7812 101.261L93.8086 96.404ZM93.9899 96.242L96.8115 102.039L97.4626 96.4164L93.9899 96.242ZM96.842 102.269C96.8228 102.269 96.8049 102.258 96.7963 102.24L93.9255 96.342L92.8723 101.321C92.8674 101.344 92.8474 101.361 92.8239 101.362L90.0494 101.438C90.0435 101.438 90.0374 101.438 90.0318 101.436C90.0317 101.436 90.0316 101.436 90.0313 101.436C90.0313 101.436 90.0311 101.436 90.0309 101.436C90.0308 101.436 90.0307 101.436 90.0306 101.436C90.0307 101.436 90.0304 101.436 90.0302 101.435C90.0302 101.435 90.0299 101.435 90.0298 101.435C90.0295 101.435 90.0294 101.435 90.0293 101.435C90.0211 101.432 90.0137 101.427 90.008 101.42C90.008 101.42 90.0082 101.42 90.0077 101.42C90.0063 101.418 90.0049 101.416 90.0038 101.414L86.922 96.4171L83.1093 96.1469C83.0959 96.1459 83.0832 96.1396 83.0744 96.1294L79.7385 92.2673L78.8829 97.7096C78.88 97.7289 78.8663 97.7447 78.8478 97.7504C78.8294 97.7562 78.809 97.7508 78.7958 97.7366L73.6371 92.2314C73.6232 92.2166 73.6194 92.195 73.6275 92.1763C73.6354 92.1576 73.6535 92.1455 73.6737 92.1454L79.618 92.1034L74.7639 83.9062C74.7543 83.8901 74.7543 83.8699 74.7639 83.8538C74.7737 83.8378 74.7918 83.8276 74.81 83.8292L81.7389 84.1636L84.5684 81.503C84.5889 81.484 84.6211 81.4848 84.6403 81.5054C84.6595 81.5259 84.6584 81.5582 84.6379 81.5775L81.95 84.1049L90.6845 81.4916C90.688 81.4905 90.6915 81.4899 90.6954 81.4895C90.7067 81.4887 90.7174 81.4911 90.7264 81.4967H90.7265L90.7266 81.4968C90.7267 81.4968 90.7267 81.4968 90.7267 81.497C90.7267 81.497 90.7271 81.4971 90.727 81.497L90.7271 81.4971C90.7281 81.4977 90.7291 81.4984 90.7301 81.4991C90.7302 81.4992 90.7302 81.4992 90.7302 81.4993C90.7305 81.4995 90.7306 81.4995 90.7307 81.4997C90.7309 81.4997 90.7309 81.4997 90.731 81.4998C90.7311 81.4999 90.7311 81.4999 90.7311 81.5H90.7312C90.74 81.507 90.7467 81.5169 90.7493 81.5287C90.7495 81.5287 90.7495 81.5287 90.7495 81.5287C90.7495 81.5289 90.7496 81.5292 90.7496 81.5293L93.9329 96.0696L95.989 93.4177C95.996 93.4087 96.0059 93.4022 96.017 93.3996L100.349 92.34L98.5714 84.2572C98.5683 84.2426 98.5716 84.2273 98.5807 84.2153C98.5897 84.2034 98.6036 84.1961 98.6185 84.1953L105.51 83.8472C105.531 83.8451 105.547 83.8558 105.556 83.8719C105.566 83.8882 105.566 83.9084 105.556 83.9245L100.497 92.3315L106.237 92.6613C106.257 92.6624 106.275 92.6752 106.282 92.6938C106.289 92.7124 106.285 92.7335 106.271 92.7478L101.621 97.5358L103.506 98.6366C103.53 98.6509 103.539 98.682 103.525 98.7064C103.51 98.7308 103.479 98.7388 103.455 98.7249L101.519 97.5943L97.563 96.434L96.8924 102.223C96.8897 102.246 96.8727 102.264 96.8505 102.268C96.8475 102.268 96.8447 102.269 96.842 102.269Z" fill="white"/>
<path d="M78.9219 97.732L83.6373 101.735L83.0691 96.167L78.9219 97.732ZM83.7542 101.863L84.2282 103.635L87.8436 101.421L86.9264 96.5103L83.7542 101.863ZM84.1968 103.765C84.1904 103.765 84.184 103.764 84.1778 103.761C84.1631 103.755 84.1518 103.743 84.1477 103.727L83.655 101.883L78.8129 97.7731L76.4017 98.683C76.3757 98.6933 76.3461 98.6796 76.3362 98.6532C76.3263 98.6268 76.3396 98.5974 76.366 98.5875L78.7241 97.6976L78.6994 97.6767C78.678 97.6585 78.6752 97.6263 78.6934 97.6047C78.7116 97.5833 78.7436 97.5806 78.7649 97.5988L78.8331 97.6566L83.095 96.0483C83.1096 96.0427 83.1262 96.0443 83.1395 96.0526C83.153 96.0609 83.1618 96.0751 83.1634 96.0908L83.7349 101.696L86.908 96.342C86.9187 96.3238 86.9395 96.3143 86.9605 96.3179C86.9812 96.3215 86.9977 96.3378 87.0016 96.3587L87.9499 101.437C87.9537 101.458 87.9444 101.479 87.9264 101.49L84.2232 103.758C84.2151 103.763 84.2059 103.765 84.1968 103.765Z" fill="white"/>
<path d="M93.0449 101.413L96.3168 103.856L96.7781 102.256L93.0449 101.413ZM87.9946 101.495L90.0716 104.536L92.7113 101.365L87.9946 101.495ZM90.0676 104.672C90.0667 104.672 90.066 104.672 90.0652 104.672C90.0494 104.671 90.0347 104.663 90.0257 104.65L87.8581 101.476C87.8476 101.46 87.8463 101.44 87.8548 101.424C87.8631 101.407 87.8799 101.396 87.8986 101.396L92.8208 101.26C92.8254 101.259 92.8301 101.26 92.8347 101.261L96.826 102.162L101.503 97.5108C101.523 97.4909 101.555 97.4913 101.575 97.5112C101.595 97.5312 101.594 97.5635 101.575 97.5834L96.8871 102.244L96.3939 103.955C96.3894 103.971 96.3771 103.984 96.3614 103.989C96.3456 103.994 96.3281 103.991 96.3148 103.982L92.8308 101.38L90.1066 104.654C90.0969 104.665 90.0826 104.672 90.0676 104.672Z" fill="white"/>
<path d="M83.6999 101.906C83.674 101.906 83.6519 101.886 83.6494 101.86C83.6467 101.832 83.6671 101.807 83.695 101.804L87.8951 101.396C87.921 101.395 87.9478 101.414 87.9506 101.442C87.9533 101.47 87.9328 101.495 87.9049 101.497L83.7049 101.906C83.7032 101.906 83.7016 101.906 83.6999 101.906Z" fill="white"/>
<path d="M93.771 107.166C93.7612 107.166 93.7514 107.163 93.7427 107.157L90.0521 104.672H84.7869C84.7588 104.672 84.7361 104.649 84.7361 104.621C84.7361 104.593 84.7588 104.57 84.7869 104.57H90.0676C90.0777 104.57 90.0875 104.573 90.0959 104.579L93.7993 107.073C93.8226 107.088 93.8289 107.12 93.8132 107.143C93.8034 107.158 93.7873 107.166 93.771 107.166Z" fill="white"/>
<path d="M86.4097 107.166C86.3934 107.166 86.3774 107.158 86.3676 107.144C86.3519 107.12 86.3579 107.088 86.3811 107.073L90.039 104.579C90.0475 104.573 90.0574 104.57 90.0676 104.57H95.7936C95.8216 104.57 95.8444 104.593 95.8444 104.621C95.8444 104.649 95.8216 104.672 95.7936 104.672H90.0832L86.4382 107.157C86.4294 107.163 86.4195 107.166 86.4097 107.166Z" fill="white"/>
<path d="M98.621 84.2973C98.6156 84.2973 98.6101 84.2964 98.6047 84.2946L90.6836 81.5886C90.657 81.5796 90.6428 81.5505 90.6519 81.5238C90.661 81.4972 90.6897 81.4831 90.7164 81.4919L98.6374 84.1979C98.664 84.207 98.6782 84.236 98.6692 84.2627C98.6619 84.2839 98.6422 84.2973 98.621 84.2973Z" fill="white"/>
<path d="M86.4371 107.064L85.9816 107.36L86.1424 107.607H86.4371V107.064ZM93.7469 107.064V107.607H94.0059L94.169 107.406L93.7469 107.064ZM96.3058 103.909L96.728 104.251L96.7349 104.242L96.3058 103.909ZM96.3151 103.9L95.9926 103.462L95.9915 103.463L96.3151 103.9ZM103.44 98.6473L103.763 99.0848L103.875 99.0019L103.934 98.875L103.44 98.6473ZM106.274 92.5047L106.767 92.7324L106.829 92.5994L106.815 92.4537L106.274 92.5047ZM105.462 83.9029L104.92 83.8629L104.917 83.9085L104.921 83.9539L105.462 83.9029ZM106.266 72.9967L106.808 73.0366L106.904 71.743L105.915 72.5823L106.266 72.9967ZM96.1521 81.5792L95.8004 81.1648L95.8004 81.1649L96.1521 81.5792ZM84.5678 81.5769L84.1888 81.9665L84.1896 81.9672L84.5678 81.5769ZM75.3461 72.6063L75.725 72.2168L74.8526 71.3681L74.8031 72.5842L75.3461 72.6063ZM74.899 83.5829L75.4375 83.6562L75.441 83.6307L75.4421 83.605L74.899 83.5829ZM73.7263 92.1894L73.1878 92.116L73.1678 92.2632L73.2254 92.4002L73.7263 92.1894ZM76.4246 98.601L75.9236 98.8118L75.9884 98.9657L76.1284 99.0567L76.4246 98.601ZM84.2243 103.671L83.9281 104.127L83.9293 104.128L84.2243 103.671ZM84.2393 103.686L84.6948 103.39L84.693 103.387L84.2393 103.686ZM86.3671 107.143L85.9116 107.439L85.9127 107.441L86.3671 107.143ZM84.1601 103.751L84.6156 103.455L84.5528 103.358L84.4563 103.295L84.1601 103.751ZM76.3562 98.6782L76.059 99.1332L76.06 99.1338L76.3562 98.6782ZM76.337 98.6551L75.8361 98.866L75.8365 98.8669L76.337 98.6551ZM73.6273 92.2162L74.1283 92.0054L74.1277 92.0041L73.6273 92.2162ZM73.6238 92.1895L74.1622 92.2633L74.1623 92.2629L73.6238 92.1895ZM74.7979 83.5739L75.3364 83.6473L75.3399 83.6218L75.341 83.596L74.7979 83.5739ZM75.2491 72.4883L74.7061 72.4659L74.7061 72.4662L75.2491 72.4883ZM75.281 72.443L75.0836 71.9367L75.0777 71.939L75.281 72.443ZM75.3353 72.4539L74.9558 72.843L74.9563 72.8434L75.3353 72.4539ZM84.6238 81.4892L84.2448 81.8788L84.403 82.0327H84.6238V81.4892ZM96.1008 81.4892V82.0327H96.3003L96.4525 81.9036L96.1008 81.4892ZM106.293 72.8403L105.945 72.4231L105.941 72.4259L106.293 72.8403ZM106.349 72.8339L106.1 73.3169L106.101 73.3173L106.349 72.8339ZM106.377 72.8831L106.919 72.923L106.919 72.9204L106.377 72.8831ZM105.564 83.902L105.022 83.862L105.018 83.9076L105.023 83.9531L105.564 83.902ZM106.376 92.5089L106.918 92.459L106.918 92.4578L106.376 92.5089ZM106.372 92.5351L105.879 92.3071L105.878 92.3074L106.372 92.5351ZM103.527 98.7022L104.019 98.9318L104.02 98.9299L103.527 98.7022ZM103.511 98.7219L103.833 99.1593L103.833 99.1592L103.511 98.7219ZM96.3805 103.978L96.058 103.54L96.0021 103.582L95.9584 103.636L96.3805 103.978ZM93.8104 107.147L94.2317 107.49L94.2325 107.489L93.8104 107.147ZM95.9827 93.47L96.479 93.2485L96.4787 93.248L95.9827 93.47ZM90.6939 81.6513L91.19 81.4293L90.7586 80.4653L90.225 81.3766L90.6939 81.6513ZM84.105 92.9024L84.5736 93.1776L84.574 93.177L84.105 92.9024ZM84.0544 92.927L83.9813 93.4655L83.9832 93.4657L84.0544 92.927ZM84.0121 92.8897L83.4869 93.0293L83.4872 93.0303L84.0121 92.8897ZM81.7105 84.2348L82.2358 84.0951L82.2187 84.0308L82.1866 83.9726L81.7105 84.2348ZM75.2554 72.5152L74.7789 72.7765L74.7794 72.7774L75.2554 72.5152ZM75.2753 72.4459L75.5389 72.9211L75.5402 72.9204L75.2753 72.4459ZM75.3444 72.4657L75.8204 72.2035L75.8195 72.2018L75.3444 72.4657ZM81.8025 84.1908L82.2825 83.9359L82.2785 83.9286L81.8025 84.1908ZM81.8071 84.2024L81.2796 84.3338L81.2818 84.3421L81.8071 84.2024ZM84.079 92.7456L83.5538 92.8852L83.8889 94.1456L84.548 93.0202L84.079 92.7456ZM90.6562 81.5144L91.1252 81.789L91.1256 81.7883L90.6562 81.5144ZM90.7027 81.4894L90.6371 82.0289L90.6567 82.0313L90.6764 82.0322L90.7027 81.4894ZM90.7463 81.5193L90.2485 81.7375L90.2502 81.7413L90.7463 81.5193ZM96.0181 93.3003L95.5221 93.5223L96.1347 94.8913L96.5413 93.4477L96.0181 93.3003ZM98.6447 83.9751L98.1228 83.8232L98.1216 83.8277L98.6447 83.9751ZM98.6518 83.9599L98.2039 83.6521L98.2015 83.6556L98.6518 83.9599ZM106.284 72.8503L106.732 73.158L106.734 73.1557L106.284 72.8503ZM106.355 72.8373L106.044 73.283L106.045 73.2842L106.355 72.8373ZM106.368 72.9083L106.816 73.2161L106.816 73.2156L106.368 72.9083ZM98.7403 84.0109L98.2923 83.7032L98.2415 83.7772L98.2172 83.8636L98.7403 84.0109ZM96.0779 93.463L96.601 93.6106L96.6011 93.6103L96.0779 93.463ZM96.0328 93.5L96.0669 94.0425L96.0734 94.042L96.0328 93.5ZM74.8995 83.9356L74.9257 83.3928L73.9176 83.3441L74.4319 84.2125L74.8995 83.9356ZM79.6868 92.02L79.2191 92.2969L79.8855 93.4221L80.2129 92.1561L79.6868 92.02ZM81.6931 84.2636L82.2193 84.3996L82.3865 83.7529L81.7193 83.7207L81.6931 84.2636ZM98.6836 84.2942L98.6562 83.7514L98.0149 83.7838L98.1529 84.4109L98.6836 84.2942ZM100.432 92.2422L99.9012 92.359L100.194 93.6912L100.898 92.5225L100.432 92.2422ZM105.42 83.954L105.886 84.2342L106.412 83.3597L105.393 83.4112L105.42 83.954ZM80.0866 92.1L80.1841 91.5654L80.1339 91.5562L80.0829 91.5566L80.0866 92.1ZM84.0703 92.8263L84.1686 92.2918L84.1678 92.2916L84.0703 92.8263ZM84.1003 92.844L83.6778 93.1859L83.6816 93.1905L84.1003 92.844ZM86.9269 96.2585L86.5083 96.6051L87.1913 97.4301L87.4538 96.3917L86.9269 96.2585ZM90.6287 81.6148L91.1556 81.748L91.3903 80.8197L90.473 81.0941L90.6287 81.6148ZM81.8 84.2562L81.6442 83.7355L81.3506 83.8234L81.2738 84.1201L81.8 84.2562ZM79.7705 92.1022L79.2443 91.9661L79.0673 92.6505L79.7742 92.6457L79.7705 92.1022ZM83.1375 96.0466L82.7262 96.4018L82.8738 96.5727L83.0991 96.5887L83.1375 96.0466ZM86.8365 96.3088L86.798 96.8509L88.0651 96.9407L87.2551 95.9622L86.8365 96.3088ZM84.034 92.9234L84.4526 92.5768L84.3264 92.4243L84.1316 92.3887L84.034 92.9234ZM80.078 92.2013L80.1756 91.6666L80.1253 91.6574L80.0742 91.6578L80.078 92.2013ZM79.8176 92.2031L79.8138 91.6596L78.6372 91.6679L79.4063 92.5584L79.8176 92.2031ZM94.0066 96.1406L93.5771 95.8076L92.9386 96.6312L93.9793 96.6834L94.0066 96.1406ZM97.4945 96.3158L97.4673 96.8586L97.7617 96.8734L97.9347 96.6346L97.4945 96.3158ZM100.287 92.4602L100.727 92.779L101.595 91.5809L100.158 91.9323L100.287 92.4602ZM96.0582 93.4944L95.9291 92.9665L95.7449 93.0115L95.6287 93.1614L96.0582 93.4944ZM100.474 92.4325L100.505 91.8899L99.79 91.8488L99.9428 92.5484L100.474 92.4325ZM101.568 97.4436L101.037 97.5596L101.253 98.5481L101.958 97.8223L101.568 97.4436ZM106.12 92.7567L106.51 93.1354L107.338 92.2823L106.151 92.2141L106.12 92.7567ZM97.6029 96.3396L97.1628 96.0207L96.7111 96.6444L97.45 96.8611L97.6029 96.3396ZM101.471 97.474L101.318 97.9955L102.197 98.2534L102.002 97.358L101.471 97.474ZM100.384 92.4996L100.915 92.3836L100.656 91.1977L99.9442 92.1808L100.384 92.4996ZM73.7909 92.2466L73.7869 91.7031L72.5452 91.712L73.3943 92.6182L73.7909 92.2466ZM78.7987 97.5908L78.4021 97.9624L79.1628 98.7742L79.3355 97.6752L78.7987 97.5908ZM79.6456 92.2044L80.1825 92.2888L80.2819 91.6563L79.6417 91.6609L79.6456 92.2044ZM87.0062 96.3597L86.4793 96.2265L86.4229 96.4493L86.5436 96.6449L87.0062 96.3597ZM90.0019 101.217L89.5394 101.502L90.4858 103.037L90.5451 101.235L90.0019 101.217ZM90.6337 82.0099L91.1769 82.0277L90.1068 81.8767L90.6337 82.0099ZM90.7374 81.9487L91.2683 81.8324L90.1942 81.9308L90.7374 81.9487ZM90.1034 101.226L89.5602 101.209L89.503 102.947L90.5398 101.55L90.1034 101.226ZM93.8518 96.1749L94.2883 96.4988L94.4356 96.3002L94.3828 96.0587L93.8518 96.1749ZM93.8086 96.404L94.3403 96.5165L93.3721 96.0802L93.8086 96.404ZM90.1506 101.334L89.7142 101.01L89.0478 101.908L90.1657 101.877L90.1506 101.334ZM92.7812 101.261L92.7962 101.804L93.2242 101.792L93.3129 101.373L92.7812 101.261ZM93.9899 96.242L94.0172 95.6992L93.0988 95.6531L93.5012 96.4798L93.9899 96.242ZM96.8115 102.039L96.3228 102.277L97.1373 103.95L97.3513 102.101L96.8115 102.039ZM97.4626 96.4164L98.0025 96.4789L98.0692 95.9027L97.4899 95.8736L97.4626 96.4164ZM96.7963 102.24L97.285 102.002L97.2849 102.002L96.7963 102.24ZM93.9255 96.342L94.4142 96.1041L93.7214 94.6808L93.3938 96.2295L93.9255 96.342ZM92.8723 101.321L93.4039 101.434L93.404 101.434L92.8723 101.321ZM92.8239 101.362L92.8389 101.905L92.8394 101.905L92.8239 101.362ZM90.0494 101.438L90.0417 101.982L90.053 101.982L90.0644 101.982L90.0494 101.438ZM90.0318 101.436L89.6467 101.82L89.7419 101.915L89.8708 101.955L90.0318 101.436ZM90.0313 101.436L90.2038 100.92L90.1199 100.892H90.0313V101.436ZM90.0309 101.436L90.416 101.052L90.3537 100.99L90.2748 100.95L90.0309 101.436ZM90.0302 101.435L90.4153 101.052L90.3233 100.96L90.1996 100.919L90.0302 101.435ZM90.0298 101.435L89.7274 101.887L89.8647 101.979H90.0298V101.435ZM90.0293 101.435L90.4144 101.052L90.331 100.968L90.2203 100.926L90.0293 101.435ZM90.008 101.42L89.5205 101.18L89.3649 101.495L89.5894 101.766L90.008 101.42ZM90.0077 101.42L89.5771 101.751L89.7833 102.019L90.1148 101.952L90.0077 101.42ZM90.0038 101.414L90.4827 101.157L90.475 101.142L90.4663 101.128L90.0038 101.414ZM86.922 96.4171L87.3846 96.1318L87.2383 95.8947L86.9604 95.875L86.922 96.4171ZM83.1093 96.1469L83.069 96.6889L83.0709 96.689L83.1093 96.1469ZM83.0744 96.1294L83.4868 95.7754L83.4857 95.7741L83.0744 96.1294ZM79.7385 92.2673L80.1498 91.9121L79.3837 91.0251L79.2016 92.1829L79.7385 92.2673ZM78.8829 97.7096L78.346 97.6252L78.3455 97.6285L78.8829 97.7096ZM78.8478 97.7504L78.6886 97.2307L78.683 97.2325L78.8478 97.7504ZM78.7958 97.7366L78.3992 98.1082L78.3992 98.1083L78.7958 97.7366ZM73.6371 92.2314L74.0337 91.8598L74.0332 91.8592L73.6371 92.2314ZM73.6275 92.1763L74.1265 92.3916L74.1281 92.3878L73.6275 92.1763ZM73.6737 92.1454L73.676 92.6889L73.6776 92.6889L73.6737 92.1454ZM79.618 92.1034L79.6218 92.6468L80.5675 92.6401L80.0856 91.8264L79.618 92.1034ZM74.7639 83.9062L75.2315 83.6293L75.2312 83.6288L74.7639 83.9062ZM74.7639 83.8538L74.2993 83.5718L74.2976 83.5747L74.7639 83.8538ZM74.81 83.8292L74.7628 84.3706L74.7733 84.3715L74.7838 84.372L74.81 83.8292ZM81.7389 84.1636L81.7128 84.7064L81.9432 84.7175L82.1112 84.5595L81.7389 84.1636ZM84.5684 81.503L84.1981 81.1052L84.1961 81.1071L84.5684 81.503ZM84.6403 81.5054L84.2426 81.8758L84.2433 81.8766L84.6403 81.5054ZM84.6379 81.5775L85.0102 81.9735L85.0107 81.9729L84.6379 81.5775ZM81.95 84.1049L81.5777 83.709L82.1058 84.6256L81.95 84.1049ZM90.6845 81.4916L90.8403 82.0123L90.8458 82.0106L90.6845 81.4916ZM90.6954 81.4895L90.6596 80.9472L90.648 80.9479L90.6364 80.9492L90.6954 81.4895ZM90.7264 81.4967L90.4391 81.958L90.571 82.0402H90.7264V81.4967ZM90.7265 81.4967L91.1094 81.111L90.9504 80.9532H90.7265V81.4967ZM90.7266 81.4968L90.3437 81.8825L90.5026 82.0403H90.7266V81.4968ZM90.7267 81.497L90.2403 81.7392L90.3208 81.901L90.4821 81.9823L90.7267 81.497ZM90.727 81.497L91.1099 81.1113L90.3419 81.8806L90.727 81.497ZM90.7271 81.4971L90.3442 81.8828L90.393 81.9313L90.4524 81.9661L90.7271 81.4971ZM90.7301 81.4991L91.1151 81.1156L91.0879 81.0882L91.057 81.065L90.7301 81.4991ZM90.7302 81.4993H90.1868V81.7895L90.4279 81.9509L90.7302 81.4993ZM90.7307 81.4997L90.3457 81.8832L90.505 82.0432H90.7307V81.4997ZM90.7311 81.5H90.1877V82.0435H90.7311V81.5ZM90.7312 81.5L91.0671 81.0728L90.9193 80.9566H90.7312V81.5ZM90.7493 81.5287L90.2192 81.6485L90.315 82.0721H90.7493V81.5287ZM90.7496 81.5293H90.2061V81.5881L90.2187 81.6456L90.7496 81.5293ZM93.9329 96.0696L93.402 96.1858L93.6505 97.3208L94.3624 96.4026L93.9329 96.0696ZM95.989 93.4177L96.4185 93.7507L96.4186 93.7505L95.989 93.4177ZM96.017 93.3996L96.1446 93.9279L96.1461 93.9275L96.017 93.3996ZM100.349 92.34L100.479 92.8679L100.994 92.7417L100.88 92.2232L100.349 92.34ZM98.5714 84.2572L98.0402 84.3721L98.0406 84.374L98.5714 84.2572ZM98.5807 84.2153L99.0122 84.5459L99.0151 84.542L98.5807 84.2153ZM98.6185 84.1953L98.6458 84.7381L98.6459 84.7381L98.6185 84.1953ZM105.51 83.8472L105.538 84.39L105.551 84.3893L105.565 84.3879L105.51 83.8472ZM105.556 83.8719L105.089 84.1493L105.09 84.1507L105.556 83.8719ZM105.556 83.9245L105.091 83.6436L105.091 83.6443L105.556 83.9245ZM100.497 92.3315L100.031 92.0513L99.5671 92.8225L100.466 92.8741L100.497 92.3315ZM106.237 92.6613L106.206 93.2039L106.208 93.204L106.237 92.6613ZM106.271 92.7478L105.881 92.3689L105.881 92.3692L106.271 92.7478ZM101.621 97.5358L101.231 97.1571L100.747 97.6551L101.347 98.0051L101.621 97.5358ZM103.506 98.6366L103.782 98.1681L103.78 98.1672L103.506 98.6366ZM103.525 98.7064L103.994 98.9802L103.995 98.979L103.525 98.7064ZM103.455 98.7249L103.181 99.1943L103.183 99.1954L103.455 98.7249ZM101.519 97.5943L101.793 97.125L101.735 97.0915L101.671 97.0728L101.519 97.5943ZM97.563 96.434L97.7159 95.9125L97.0973 95.7311L97.0231 96.3715L97.563 96.434ZM96.8924 102.223L97.4321 102.287L97.4323 102.286L96.8924 102.223ZM96.8505 102.268L96.9256 102.806L96.9354 102.805L96.9451 102.803L96.8505 102.268ZM78.9219 97.732L78.73 97.2235L77.8668 97.5493L78.5702 98.1463L78.9219 97.732ZM83.6373 101.735L83.2856 102.149L84.3151 103.023L84.178 101.68L83.6373 101.735ZM83.0691 96.167L83.6098 96.1118L83.5381 95.4091L82.8772 95.6585L83.0691 96.167ZM83.7542 101.863L83.2867 101.586L83.1701 101.783L83.2292 102.004L83.7542 101.863ZM84.2282 103.635L83.7032 103.775L83.8912 104.479L84.512 104.098L84.2282 103.635ZM87.8436 101.421L88.1274 101.885L88.4465 101.69L88.3778 101.322L87.8436 101.421ZM86.9264 96.5103L87.4607 96.4105L87.1954 94.9903L86.4589 96.2332L86.9264 96.5103ZM84.1778 103.761L84.3827 103.258L84.3799 103.257L84.1778 103.761ZM84.1477 103.727L83.6226 103.868L83.6231 103.869L84.1477 103.727ZM83.655 101.883L84.18 101.743L84.1362 101.579L84.0067 101.469L83.655 101.883ZM78.8129 97.7731L79.1646 97.3588L78.9206 97.1516L78.6211 97.2646L78.8129 97.7731ZM76.4017 98.683L76.2098 98.1745L76.2022 98.1775L76.4017 98.683ZM76.3362 98.6532L76.8453 98.4629L76.8451 98.4623L76.3362 98.6532ZM76.366 98.5875L76.5562 99.0966L76.5579 99.096L76.366 98.5875ZM78.7241 97.6976L78.9159 98.2061L79.7793 97.8803L79.0757 97.2832L78.7241 97.6976ZM78.6994 97.6767L78.3469 98.0903L78.3478 98.0911L78.6994 97.6767ZM78.6934 97.6047L78.279 97.2531L78.2784 97.2539L78.6934 97.6047ZM78.7649 97.5988L78.4125 98.0126L78.4135 98.0134L78.7649 97.5988ZM78.8331 97.6566L78.4817 98.0712L78.7257 98.278L79.025 98.1651L78.8331 97.6566ZM83.095 96.0483L83.2869 96.5568L83.29 96.5556L83.095 96.0483ZM83.1395 96.0526L82.8519 96.5138L82.8553 96.5159L83.1395 96.0526ZM83.1634 96.0908L82.6226 96.145L82.6227 96.146L83.1634 96.0908ZM83.7349 101.696L83.1942 101.751L83.3615 103.392L84.2024 101.973L83.7349 101.696ZM86.908 96.342L87.3755 96.619L87.3762 96.6179L86.908 96.342ZM86.9605 96.3179L87.055 95.7827L87.0519 95.7821L86.9605 96.3179ZM87.0016 96.3587L86.4673 96.4584L86.4673 96.4585L87.0016 96.3587ZM87.9499 101.437L88.4845 101.339L88.4842 101.338L87.9499 101.437ZM87.9264 101.49L88.2102 101.954L88.2113 101.953L87.9264 101.49ZM84.2232 103.758L83.9394 103.294L83.933 103.298L84.2232 103.758ZM93.0449 101.413L93.1645 100.883L92.7198 101.849L93.0449 101.413ZM96.3168 103.856L95.9916 104.291L96.6213 104.762L96.839 104.006L96.3168 103.856ZM96.7781 102.256L97.3003 102.406L97.46 101.852L96.8977 101.725L96.7781 102.256ZM87.9946 101.495L87.9796 100.952L86.9843 100.979L87.5458 101.802L87.9946 101.495ZM90.0716 104.536L89.6227 104.843L90.0287 105.437L90.4893 104.884L90.0716 104.536ZM92.7113 101.365L93.129 101.712L93.8982 100.788L92.6963 100.822L92.7113 101.365ZM90.0652 104.672L90.1255 104.132L90.1083 104.13L90.0909 104.129L90.0652 104.672ZM90.0257 104.65L90.475 104.344L90.4745 104.343L90.0257 104.65ZM87.8581 101.476L87.4075 101.78L87.4093 101.782L87.8581 101.476ZM87.8548 101.424L88.3388 101.671L88.3398 101.669L87.8548 101.424ZM87.8986 101.396L87.9132 101.939L87.9136 101.939L87.8986 101.396ZM92.8208 101.26L92.8358 101.803L92.8432 101.803L92.8505 101.802L92.8208 101.26ZM92.8347 101.261L92.7092 101.79L92.715 101.791L92.8347 101.261ZM96.826 102.162L96.7064 102.692L96.9976 102.758L97.2092 102.547L96.826 102.162ZM101.503 97.5108L101.12 97.1249L101.12 97.1254L101.503 97.5108ZM101.575 97.5112L101.187 97.8923L101.189 97.8939L101.575 97.5112ZM101.575 97.5834L101.958 97.9687L101.958 97.9685L101.575 97.5834ZM96.8871 102.244L96.5039 101.859L96.4039 101.959L96.3649 102.094L96.8871 102.244ZM96.3939 103.955L95.8717 103.804L95.8711 103.807L96.3939 103.955ZM96.3614 103.989L96.5306 104.505L96.5355 104.504L96.3614 103.989ZM96.3148 103.982L95.9896 104.417L95.9944 104.421L96.3148 103.982ZM92.8308 101.38L93.1559 100.945L92.7428 100.636L92.413 101.033L92.8308 101.38ZM90.1066 104.654L90.5231 105.003L90.5243 105.001L90.1066 104.654ZM83.6494 101.86L84.1905 101.809L84.1903 101.807L83.6494 101.86ZM83.695 101.804L83.6425 101.263L83.6401 101.263L83.695 101.804ZM87.8951 101.396L87.8689 100.853L87.8557 100.854L87.8426 100.855L87.8951 101.396ZM87.9506 101.442L88.4917 101.39L88.4914 101.388L87.9506 101.442ZM87.9049 101.497L87.9574 102.038L87.958 102.038L87.9049 101.497ZM83.7049 101.906L83.7309 102.449L83.7442 102.448L83.7575 102.447L83.7049 101.906ZM93.7427 107.157L94.05 106.709L94.0463 106.706L93.7427 107.157ZM90.0521 104.672L90.3557 104.221L90.2181 104.128H90.0521V104.672ZM90.0959 104.579L89.7885 105.027L89.7923 105.029L90.0959 104.579ZM93.7993 107.073L93.4957 107.523L93.4974 107.524L93.7993 107.073ZM93.8132 107.143L94.2644 107.446L94.2647 107.446L93.8132 107.143ZM86.3676 107.144L85.9171 107.447L85.918 107.449L86.3676 107.144ZM86.3811 107.073L86.6867 107.522L86.6872 107.522L86.3811 107.073ZM90.039 104.579L89.7336 104.129L89.7329 104.13L90.039 104.579ZM90.0832 104.672V104.128H89.9155L89.777 104.223L90.0832 104.672ZM86.4382 107.157L86.7386 107.61L86.7444 107.606L86.4382 107.157ZM98.6047 84.2946L98.429 84.809L98.437 84.8116L98.6047 84.2946ZM90.6836 81.5886L90.8593 81.0743L90.858 81.0738L90.6836 81.5886ZM90.6519 81.5238L91.1661 81.6999L91.1666 81.6984L90.6519 81.5238ZM90.7164 81.4919L90.8921 80.9776L90.886 80.9756L90.7164 81.4919ZM98.6374 84.1979L98.4617 84.7122L98.4634 84.7128L98.6374 84.1979ZM98.6692 84.2627L99.1832 84.4393L99.1843 84.4358L98.6692 84.2627ZM86.4371 107.607H93.7469V106.52H86.4371V107.607ZM94.169 107.406L96.7279 104.251L95.8837 103.566L93.3248 106.721L94.169 107.406ZM96.7349 104.242C96.7014 104.285 96.6664 104.316 96.6387 104.336L95.9915 103.463C95.9569 103.489 95.9156 103.525 95.8767 103.575L96.7349 104.242ZM96.6376 104.337L103.763 99.0848L103.118 98.2098L95.9926 103.462L96.6376 104.337ZM103.934 98.875L106.767 92.7324L105.78 92.2771L102.947 98.4196L103.934 98.875ZM106.815 92.4537L106.003 83.8518L104.921 83.9539L105.733 92.5558L106.815 92.4537ZM106.004 83.9428L106.808 73.0366L105.724 72.9567L104.92 83.8629L106.004 83.9428ZM105.915 72.5823L95.8004 81.1648L96.5037 81.9936L106.618 73.411L105.915 72.5823ZM95.8004 81.1649C95.8881 81.0904 96.0007 81.0478 96.1193 81.0478V82.1348C96.2619 82.1348 96.3978 82.0836 96.5038 81.9936L95.8004 81.1649ZM96.1193 81.0478H84.6032V82.1348H96.1193V81.0478ZM84.6032 81.0478C84.7336 81.0478 84.8558 81.0992 84.946 81.1866L84.1896 81.9672C84.2987 82.0729 84.4465 82.1348 84.6032 82.1348V81.0478ZM84.9467 81.1873L75.725 72.2168L74.9671 72.9959L84.1888 81.9665L84.9467 81.1873ZM74.8031 72.5842L74.356 83.5607L75.4421 83.605L75.8891 72.6285L74.8031 72.5842ZM74.3605 83.5095L73.1878 92.116L74.2648 92.2627L75.4375 83.6562L74.3605 83.5095ZM73.2254 92.4002L75.9236 98.8118L76.9255 98.3902L74.2273 91.9786L73.2254 92.4002ZM76.1284 99.0567L83.9281 104.127L84.5205 103.215L76.7208 98.1453L76.1284 99.0567ZM83.9293 104.128C83.8681 104.088 83.8203 104.038 83.7855 103.985L84.693 103.387C84.6504 103.322 84.5927 103.262 84.5194 103.215L83.9293 104.128ZM83.7837 103.982L85.9816 107.36L86.8927 106.767L84.6948 103.39L83.7837 103.982ZM93.771 106.622H86.4096V107.709H93.771V106.622ZM86.4096 106.622C86.5797 106.622 86.7327 106.709 86.8215 106.845L85.9127 107.441C86.0204 107.605 86.2054 107.709 86.4096 107.709V106.622ZM86.8226 106.846L84.6156 103.455L83.7046 104.047L85.9116 107.439L86.8226 106.846ZM84.4563 103.295L76.6524 98.2225L76.06 99.1338L83.8639 104.207L84.4563 103.295ZM76.6534 98.2231C76.7365 98.2774 76.8 98.3547 76.8376 98.4434L75.8365 98.8669C75.882 98.9745 75.9588 99.0677 76.059 99.1332L76.6534 98.2231ZM76.838 98.4443L74.1283 92.0054L73.1264 92.427L75.8361 98.866L76.838 98.4443ZM74.1277 92.0041C74.1622 92.0854 74.1743 92.175 74.1622 92.2633L73.0853 92.1157C73.0707 92.2221 73.0853 92.3302 73.127 92.4284L74.1277 92.0041ZM74.1623 92.2629L75.3364 83.6473L74.2594 83.5006L73.0853 92.1161L74.1623 92.2629ZM75.341 83.596L75.7922 72.5104L74.7061 72.4662L74.2549 83.5518L75.341 83.596ZM75.7922 72.5108C75.7842 72.7034 75.6643 72.8745 75.4844 72.947L75.0777 71.939C74.8606 72.0266 74.7158 72.233 74.7061 72.4659L75.7922 72.5108ZM75.4785 72.9494C75.3034 73.0177 75.0978 72.9814 74.9558 72.843L75.7147 72.0648C75.5438 71.8981 75.2959 71.8539 75.0836 71.9367L75.4785 72.9494ZM74.9563 72.8434L84.2448 81.8788L85.0027 81.0997L75.7142 72.0643L74.9563 72.8434ZM84.6238 82.0327H96.1008V80.9458H84.6238V82.0327ZM96.4525 81.9036L106.645 73.2547L105.941 72.4259L95.7492 81.0749L96.4525 81.9036ZM106.641 73.2575C106.494 73.3808 106.281 73.4102 106.1 73.3169L106.598 72.3508C106.381 72.2387 106.124 72.2734 105.945 72.4231L106.641 73.2575ZM106.101 73.3173C105.923 73.226 105.821 73.0389 105.834 72.8457L106.919 72.9204C106.935 72.6862 106.811 72.4604 106.597 72.3504L106.101 73.3173ZM105.835 72.8431L105.022 83.862L106.106 83.9419L106.919 72.923L105.835 72.8431ZM105.023 83.9531L105.835 92.56L106.918 92.4578L106.105 83.8509L105.023 83.9531ZM105.835 92.5588C105.827 92.4728 105.842 92.3861 105.879 92.3071L106.865 92.763C106.909 92.6679 106.927 92.563 106.918 92.459L105.835 92.5588ZM105.878 92.3074L103.033 98.4745L104.02 98.9299L106.865 92.7627L105.878 92.3074ZM103.034 98.4725C103.068 98.3998 103.12 98.3345 103.188 98.2846L103.833 99.1592C103.915 99.099 103.978 99.0203 104.019 98.9318L103.034 98.4725ZM103.188 98.2844L96.058 103.54L96.703 104.415L103.833 99.1593L103.188 98.2844ZM95.9584 103.636L93.3883 106.805L94.2325 107.489L96.8026 104.32L95.9584 103.636ZM93.3891 106.804C93.4811 106.691 93.6206 106.622 93.771 106.622V107.709C93.9521 107.709 94.1203 107.627 94.2317 107.49L93.3891 106.804ZM96.029 92.9566C96.2223 92.9566 96.3992 93.0698 96.479 93.2485L95.4863 93.6914C95.5825 93.907 95.7961 94.0436 96.029 94.0436V92.9566ZM96.4787 93.248L91.19 81.4293L90.1979 81.8733L95.4866 93.692L96.4787 93.248ZM90.225 81.3766L83.636 92.6277L84.574 93.177L91.1629 81.9259L90.225 81.3766ZM83.6364 92.6271C83.738 92.4541 83.932 92.3626 84.1257 92.3882L83.9832 93.4657C84.2172 93.4967 84.4513 93.386 84.5736 93.1776L83.6364 92.6271ZM84.1275 92.3884C84.3245 92.4152 84.4858 92.5575 84.5371 92.7491L83.4872 93.0303C83.5491 93.2615 83.7438 93.4332 83.9813 93.4655L84.1275 92.3884ZM84.5374 92.75L82.2358 84.0951L81.1853 84.3745L83.4869 93.0293L84.5374 92.75ZM82.1866 83.9726L75.7315 72.253L74.7794 72.7774L81.2345 84.497L82.1866 83.9726ZM75.7319 72.2538C75.8611 72.4893 75.7781 72.7884 75.5389 72.9211L75.0116 71.9706C74.7234 72.1305 74.6227 72.4916 74.7789 72.7765L75.7319 72.2538ZM75.5402 72.9204C75.2992 73.0549 74.9999 72.9648 74.8693 72.7296L75.8195 72.2018C75.6616 71.9176 75.3004 71.8094 75.0104 71.9713L75.5402 72.9204ZM74.8683 72.7279L81.3264 84.453L82.2785 83.9286L75.8204 72.2035L74.8683 72.7279ZM81.3225 84.4458C81.3084 84.4192 81.2915 84.3814 81.2797 84.3337L82.3344 84.0711C82.3206 84.0154 82.3006 83.97 82.2825 83.9359L81.3225 84.4458ZM81.2818 84.3421L83.5538 92.8852L84.6042 92.6059L82.3323 84.0628L81.2818 84.3421ZM84.548 93.0202L91.1252 81.789L90.1872 81.2398L83.61 92.4709L84.548 93.0202ZM91.1256 81.7883C91.0479 81.9214 90.8736 82.0577 90.6371 82.0289L90.7684 80.9499C90.4935 80.9164 90.2838 81.0743 90.1868 81.2405L91.1256 81.7883ZM90.6764 82.0322C90.4904 82.0232 90.3241 81.9099 90.2485 81.7375L91.244 81.3011C91.1531 81.0939 90.953 80.9574 90.729 80.9465L90.6764 82.0322ZM90.2502 81.7413L95.5221 93.5223L96.5142 93.0784L91.2423 81.2973L90.2502 81.7413ZM96.5413 93.4477L99.1678 84.1224L98.1216 83.8277L95.495 93.153L96.5413 93.4477ZM99.1665 84.127C99.1519 84.177 99.1298 84.2232 99.1021 84.2642L98.2015 83.6556C98.1675 83.706 98.1406 83.7623 98.1229 83.8232L99.1665 84.127ZM99.0998 84.2676L106.732 73.158L105.836 72.5425L98.2039 83.6522L99.0998 84.2676ZM106.734 73.1557C106.578 73.3843 106.267 73.4392 106.044 73.283L106.666 72.3917C106.396 72.2032 106.022 72.2696 105.834 72.5449L106.734 73.1557ZM106.045 73.2842C105.82 73.1285 105.767 72.8226 105.919 72.6011L106.816 73.2156C107 72.9475 106.935 72.578 106.664 72.3905L106.045 73.2842ZM105.92 72.6006L98.2923 83.7032L99.1882 84.3187L106.816 73.216L105.92 72.6006ZM98.2172 83.8636L95.5548 93.3156L96.6011 93.6103L99.2634 84.1583L98.2172 83.8636ZM95.5549 93.3153C95.6106 93.1179 95.784 92.9736 95.9923 92.958L96.0734 94.042C96.3241 94.0232 96.5336 93.8492 96.601 93.6106L95.5549 93.3153ZM95.9988 92.9576C96.0089 92.957 96.017 92.9568 96.0222 92.9567C96.0267 92.9566 96.0306 92.9566 96.029 92.9566V94.0436C96.0291 94.0436 96.0295 94.0436 96.0299 94.0436C96.0304 94.0436 96.0311 94.0436 96.032 94.0436C96.0337 94.0436 96.0364 94.0435 96.0396 94.0435C96.046 94.0434 96.0555 94.0431 96.0669 94.0424L95.9988 92.9576ZM74.4319 84.2125L79.2191 92.2969L80.1544 91.743L75.3671 83.6587L74.4319 84.2125ZM80.2129 92.1561L82.2193 84.3996L81.1669 84.1275L79.1606 91.8839L80.2129 92.1561ZM81.7193 83.7207L74.9257 83.3928L74.8733 84.4785L81.6669 84.8064L81.7193 83.7207ZM98.1529 84.4109L99.9012 92.359L100.963 92.1255L99.2144 84.1774L98.1529 84.4109ZM100.898 92.5225L105.886 84.2342L104.954 83.6737L99.9663 91.962L100.898 92.5225ZM105.393 83.4112L98.6562 83.7514L98.7111 84.8369L105.448 84.4968L105.393 83.4112ZM79.9892 92.6347L83.9728 93.3609L84.1678 92.2916L80.1841 91.5654L79.9892 92.6347ZM83.972 93.3608C83.8602 93.3402 83.7544 93.2804 83.6778 93.1858L84.5228 92.5021C84.4311 92.3888 84.304 92.3167 84.1686 92.2918L83.972 93.3608ZM83.6816 93.1905L86.5083 96.6051L87.3456 95.9119L84.5189 92.4974L83.6816 93.1905ZM87.4538 96.3917L91.1556 81.748L90.1018 81.4816L86.4 96.1253L87.4538 96.3917ZM90.473 81.0941L81.6442 83.7355L81.9558 84.7769L90.7845 82.1355L90.473 81.0941ZM81.2738 84.1201L79.2443 91.9661L80.2967 92.2383L82.3262 84.3923L81.2738 84.1201ZM79.7742 92.6457L80.0904 92.6435L80.0829 91.5566L79.7668 91.5587L79.7742 92.6457ZM83.0991 96.5887L86.798 96.8509L86.8749 95.7667L83.1759 95.5044L83.0991 96.5887ZM87.2551 95.9622L84.4526 92.5768L83.6153 93.2699L86.4178 96.6553L87.2551 95.9622ZM84.1316 92.3887L80.1756 91.6666L79.9804 92.7359L83.9364 93.458L84.1316 92.3887ZM80.0742 91.6578L79.8138 91.6596L79.8214 92.7466L80.0818 92.7447L80.0742 91.6578ZM79.4063 92.5584L82.7262 96.4018L83.5488 95.6913L80.2289 91.8478L79.4063 92.5584ZM93.9793 96.6834L97.4673 96.8586L97.5218 95.773L94.0338 95.5978L93.9793 96.6834ZM97.9347 96.6346L100.727 92.779L99.847 92.1414L97.0544 95.997L97.9347 96.6346ZM100.158 91.9323L95.9291 92.9665L96.1873 94.0223L100.416 92.9881L100.158 91.9323ZM95.6287 93.1614L93.5771 95.8076L94.4361 96.4736L96.4877 93.8274L95.6287 93.1614ZM99.9428 92.5484L101.037 97.5596L102.099 97.3277L101.005 92.3165L99.9428 92.5484ZM101.958 97.8223L106.51 93.1354L105.73 92.3781L101.178 97.065L101.958 97.8223ZM106.151 92.2141L100.505 91.8899L100.443 92.975L106.089 93.2993L106.151 92.2141ZM97.45 96.8611L101.318 97.9955L101.624 96.9525L97.7559 95.818L97.45 96.8611ZM102.002 97.358L100.915 92.3836L99.8534 92.6156L100.94 97.5899L102.002 97.358ZM99.9442 92.1808L97.1628 96.0207L98.043 96.6584L100.825 92.8184L99.9442 92.1808ZM73.3943 92.6182L78.4021 97.9624L79.1952 97.2192L74.1874 91.8749L73.3943 92.6182ZM79.3355 97.6752L80.1825 92.2888L79.1087 92.1199L78.2618 97.5064L79.3355 97.6752ZM79.6417 91.6609L73.7869 91.7031L73.7948 92.79L79.6495 92.7478L79.6417 91.6609ZM86.5436 96.6449L89.5394 101.502L90.4645 100.932L87.4687 96.0744L86.5436 96.6449ZM90.5451 101.235L91.1769 82.0277L90.0905 81.992L89.4588 101.199L90.5451 101.235ZM90.1068 81.8767L86.4793 96.2265L87.5331 96.4929L91.1606 82.1431L90.1068 81.8767ZM90.1942 81.9308L89.5602 101.209L90.6465 101.244L91.2806 81.9665L90.1942 81.9308ZM90.5398 101.55L94.2883 96.4988L93.4154 95.8511L89.6669 100.903L90.5398 101.55ZM94.3828 96.0587L91.2683 81.8324L90.2065 82.0649L93.3209 96.2911L94.3828 96.0587ZM93.3721 96.0802L89.7142 101.01L90.5871 101.657L94.245 96.7279L93.3721 96.0802ZM90.1657 101.877L92.7962 101.804L92.7661 100.717L90.1356 100.79L90.1657 101.877ZM93.3129 101.373L94.3403 96.5165L93.2769 96.2915L92.2494 101.148L93.3129 101.373ZM93.5012 96.4798L96.3228 102.277L97.3001 101.801L94.4786 96.0041L93.5012 96.4798ZM97.3513 102.101L98.0025 96.4789L96.9227 96.3538L96.2716 101.976L97.3513 102.101ZM97.4899 95.8736L94.0172 95.6992L93.9626 96.7848L97.4354 96.9592L97.4899 95.8736ZM96.842 101.725C97.0261 101.725 97.2007 101.829 97.285 102.002L96.3075 102.478C96.4092 102.687 96.6194 102.812 96.842 102.812V101.725ZM97.2849 102.002L94.4142 96.1041L93.4369 96.5798L96.3076 102.478L97.2849 102.002ZM93.3938 96.2295L92.3406 101.209L93.404 101.434L94.4572 96.4544L93.3938 96.2295ZM92.3406 101.208C92.3876 100.987 92.5801 100.825 92.8085 100.818L92.8394 101.905C93.1146 101.897 93.3472 101.702 93.4039 101.434L92.3406 101.208ZM92.8089 100.818L90.0344 100.895L90.0644 101.982L92.8389 101.905L92.8089 100.818ZM90.0571 100.895C90.0716 100.895 90.1256 100.896 90.1927 100.917L89.8708 101.955C89.9492 101.979 90.0154 101.981 90.0417 101.982L90.0571 100.895ZM90.4168 101.053C90.3815 101.017 90.3405 100.986 90.2945 100.96C90.2528 100.937 90.2173 100.925 90.2021 100.92C90.1905 100.916 90.1764 100.912 90.1844 100.914C90.1874 100.915 90.1946 100.917 90.2038 100.92L89.8588 101.951C89.8682 101.954 89.8755 101.957 89.8786 101.957C89.8867 101.96 89.8726 101.956 89.8611 101.952C89.846 101.947 89.8105 101.935 89.7688 101.912C89.7229 101.886 89.682 101.855 89.6467 101.82L90.4168 101.053ZM90.0313 100.892C90.0303 100.892 90.0516 100.892 90.0774 100.894C90.1048 100.897 90.1402 100.902 90.1802 100.913C90.2656 100.938 90.3479 100.984 90.416 101.052L89.6458 101.819C89.7141 101.888 89.7965 101.934 89.8821 101.958C89.9222 101.97 89.9576 101.975 89.9851 101.977C90.011 101.98 90.0324 101.979 90.0313 101.979V100.892ZM90.2748 100.95C90.2421 100.934 90.1963 100.915 90.139 100.903C90.0809 100.891 90.0332 100.892 90.0306 100.892V101.979C90.0281 101.979 89.9804 101.98 89.9225 101.968C89.8653 101.957 89.8195 101.938 89.7871 101.921L90.2748 100.95ZM90.0306 101.979C90.0142 101.979 89.9737 101.979 89.9232 101.968C89.8996 101.964 89.8488 101.952 89.7899 101.923C89.7468 101.902 89.5963 101.822 89.5229 101.63C89.4314 101.39 89.5319 101.189 89.6058 101.097C89.6709 101.015 89.7427 100.974 89.7689 100.959C89.8299 100.926 89.883 100.912 89.9012 100.908C89.9846 100.887 90.0555 100.891 90.1003 100.897C90.2126 100.911 90.3256 100.962 90.4153 101.052L89.6451 101.819C89.735 101.909 89.8482 101.96 89.9608 101.975C90.0056 101.98 90.0765 101.984 90.16 101.963C90.1782 101.959 90.2313 101.945 90.2923 101.912C90.3185 101.898 90.3904 101.856 90.4554 101.775C90.5293 101.682 90.6298 101.481 90.5383 101.242C90.4649 101.05 90.3144 100.97 90.2713 100.948C90.2124 100.919 90.1616 100.908 90.138 100.903C90.0875 100.893 90.047 100.892 90.0306 100.892V101.979ZM90.0302 101.435C90.1996 100.919 90.1995 100.919 90.1995 100.919C90.1995 100.919 90.1994 100.919 90.1994 100.919C90.1993 100.919 90.1992 100.919 90.1992 100.919C90.199 100.919 90.1989 100.919 90.1988 100.919C90.1985 100.919 90.1982 100.919 90.198 100.919C90.1974 100.918 90.1968 100.918 90.1962 100.918C90.1951 100.918 90.1939 100.917 90.1926 100.917C90.1901 100.916 90.1872 100.915 90.1841 100.914C90.1781 100.912 90.1699 100.91 90.16 100.908C90.1525 100.906 90.0991 100.892 90.0298 100.892V101.979C89.9606 101.979 89.9074 101.965 89.9001 101.963C89.8903 101.961 89.8821 101.958 89.8762 101.957C89.8731 101.956 89.8703 101.955 89.8677 101.954C89.8665 101.954 89.8653 101.953 89.8641 101.953C89.8635 101.953 89.863 101.953 89.8624 101.952C89.8621 101.952 89.8619 101.952 89.8616 101.952C89.8614 101.952 89.8613 101.952 89.8612 101.952C89.8611 101.952 89.861 101.952 89.861 101.952C89.8609 101.952 89.8609 101.952 89.8609 101.952C89.8608 101.952 89.8608 101.952 90.0302 101.435ZM90.3321 100.984C90.3201 100.976 90.308 100.968 90.2958 100.961C90.2899 100.958 90.2847 100.955 90.2805 100.953C90.2767 100.951 90.2735 100.95 90.2738 100.95C90.2738 100.95 90.2738 100.95 90.2738 100.95C90.2738 100.95 90.2738 100.95 90.2738 100.95C90.2738 100.95 90.2738 100.95 90.2738 100.95C90.2738 100.95 90.2739 100.95 90.2739 100.95C90.274 100.95 90.2742 100.95 90.2743 100.95C90.2747 100.95 90.2753 100.95 90.276 100.951C90.2774 100.952 90.28 100.953 90.2832 100.955C90.2894 100.958 90.3006 100.964 90.3142 100.972C90.345 100.991 90.3799 101.017 90.4144 101.052L89.6443 101.819C89.6788 101.853 89.7138 101.879 89.7446 101.898C89.7583 101.906 89.7695 101.913 89.7757 101.916C89.7789 101.918 89.7815 101.919 89.7829 101.92C89.7837 101.92 89.7843 101.92 89.7846 101.92C89.7848 101.921 89.785 101.921 89.785 101.921C89.7851 101.921 89.7851 101.921 89.7852 101.921C89.7852 101.921 89.7852 101.921 89.7852 101.921C89.7855 101.921 89.7823 101.919 89.7786 101.917C89.7744 101.915 89.7693 101.912 89.7634 101.909C89.7513 101.902 89.7393 101.895 89.7274 101.887L90.3321 100.984ZM90.2203 100.926C90.3015 100.957 90.3724 101.008 90.4266 101.073L89.5894 101.766C89.6551 101.846 89.7408 101.907 89.8384 101.944L90.2203 100.926ZM90.008 101.42C90.4955 101.66 90.4956 101.66 90.4957 101.66C90.4957 101.66 90.4958 101.659 90.4959 101.659C90.496 101.659 90.4962 101.659 90.4963 101.658C90.4966 101.658 90.4969 101.657 90.4972 101.657C90.4978 101.655 90.4984 101.654 90.499 101.653C90.5002 101.65 90.5014 101.648 90.5027 101.645C90.5052 101.639 90.5079 101.633 90.5106 101.627C90.516 101.613 90.5226 101.596 90.5289 101.575C90.5379 101.545 90.5627 101.455 90.5456 101.34C90.5239 101.194 90.4317 101.015 90.2328 100.925C90.0793 100.855 89.9439 100.878 89.9007 100.887L90.1148 101.952C90.0718 101.961 89.9365 101.984 89.7832 101.914C89.6978 101.876 89.619 101.813 89.5604 101.728C89.5039 101.646 89.4799 101.563 89.4704 101.499C89.4534 101.384 89.4782 101.295 89.4871 101.265C89.4934 101.244 89.5 101.226 89.5054 101.213C89.5082 101.206 89.5109 101.2 89.5134 101.195C89.5146 101.192 89.5158 101.189 89.517 101.187C89.5176 101.186 89.5182 101.184 89.5188 101.183C89.5191 101.183 89.5194 101.182 89.5197 101.181C89.5198 101.181 89.52 101.181 89.5201 101.18C89.5202 101.18 89.5203 101.18 89.5203 101.18C89.5204 101.18 89.5205 101.18 90.008 101.42ZM90.4384 101.088C90.4366 101.086 90.443 101.094 90.4501 101.104C90.4582 101.115 90.4702 101.134 90.4827 101.157L89.5248 101.671C89.5385 101.696 89.5518 101.716 89.5612 101.73C89.5659 101.736 89.5698 101.742 89.5725 101.745C89.5749 101.748 89.577 101.751 89.5771 101.751L90.4384 101.088ZM90.4663 101.128L87.3846 96.1318L86.4595 96.7024L89.5412 101.699L90.4663 101.128ZM86.9604 95.875L83.1477 95.6048L83.0709 96.689L86.8836 96.9592L86.9604 95.875ZM83.1496 95.6049C83.2772 95.6144 83.3995 95.6737 83.4868 95.7754L82.662 96.4833C82.767 96.6056 82.9146 96.6774 83.069 96.6889L83.1496 95.6049ZM83.4857 95.7741L80.1498 91.9121L79.3272 92.6226L82.6632 96.4846L83.4857 95.7741ZM79.2016 92.1829L78.346 97.6252L79.4198 97.794L80.2754 92.3517L79.2016 92.1829ZM78.3455 97.6285C78.3738 97.441 78.5072 97.2863 78.6886 97.2307L79.0069 98.27C79.2254 98.2031 79.3862 98.0167 79.4203 97.7907L78.3455 97.6285ZM78.683 97.2325C78.8678 97.1737 79.0648 97.2289 79.1923 97.3649L78.3992 98.1083C78.5533 98.2726 78.791 98.3387 79.0125 98.2683L78.683 97.2325ZM79.1923 97.365L74.0337 91.8598L73.2405 92.603L78.3992 98.1082L79.1923 97.365ZM74.0332 91.8592C74.1674 92.0021 74.2043 92.2112 74.1265 92.3916L73.1284 91.9611C73.0345 92.1788 73.079 92.4311 73.241 92.6035L74.0332 91.8592ZM74.1281 92.3878C74.052 92.568 73.8751 92.688 73.676 92.6889L73.6715 91.6019C73.432 91.6029 73.2187 91.7473 73.1268 91.9649L74.1281 92.3878ZM73.6776 92.6889L79.6218 92.6468L79.6142 91.5599L73.6699 91.6019L73.6776 92.6889ZM80.0856 91.8264L75.2315 83.6293L74.2962 84.1831L79.1504 92.3803L80.0856 91.8264ZM75.2312 83.6288C75.3232 83.7838 75.3235 83.9772 75.2303 84.1329L74.2976 83.5747C74.1852 83.7625 74.1854 83.9964 74.2965 84.1835L75.2312 83.6288ZM75.2285 84.1358C75.1435 84.2759 74.9737 84.389 74.7628 84.3706L74.8571 83.2878C74.6098 83.2662 74.4038 83.3997 74.2993 83.5718L75.2285 84.1358ZM74.7838 84.372L81.7128 84.7064L81.7651 83.6207L74.8362 83.2863L74.7838 84.372ZM82.1112 84.5595L84.9407 81.899L84.1961 81.1071L81.3667 83.7676L82.1112 84.5595ZM84.9387 81.9008C84.7435 82.0826 84.4315 82.0786 84.2426 81.8758L85.038 81.135C84.8107 80.8909 84.4344 80.8853 84.1981 81.1053L84.9387 81.9008ZM84.2433 81.8766C84.0567 81.677 84.0693 81.3667 84.265 81.1821L85.0107 81.9729C85.2475 81.7497 85.2622 81.3748 85.0372 81.1342L84.2433 81.8766ZM84.2656 81.1816L81.5777 83.709L82.3223 84.5009L85.0102 81.9735L84.2656 81.1816ZM82.1058 84.6256L90.8403 82.0123L90.5287 80.971L81.7942 83.5842L82.1058 84.6256ZM90.8458 82.0106C90.8085 82.0222 90.7766 82.0273 90.7543 82.0297L90.6364 80.9492C90.6065 80.9524 90.5674 80.9589 90.5232 80.9726L90.8458 82.0106ZM90.7311 82.0318C90.643 82.0376 90.538 82.0196 90.4391 81.958L91.0138 81.0354C90.8969 80.9626 90.7704 80.9398 90.6596 80.9472L90.7311 82.0318ZM90.7264 82.0402H90.7265V80.9532H90.7264V82.0402ZM90.3436 81.8824L90.3437 81.8825L91.1095 81.1111L91.1094 81.111L90.3436 81.8824ZM90.7266 82.0403C90.7477 82.0403 90.6858 82.0426 90.6218 82.0301C90.5793 82.0217 90.5276 82.0063 90.4729 81.9774C90.4182 81.9486 90.3749 81.9138 90.3416 81.8803C90.2848 81.8233 90.2547 81.7663 90.2509 81.7595C90.244 81.747 90.2379 81.7344 90.2403 81.7392L91.2132 81.2547C91.2156 81.2594 91.2094 81.2468 91.2025 81.2342C91.1987 81.2274 91.1686 81.1704 91.1117 81.1133C91.0784 81.0799 91.0351 81.0451 90.9804 81.0162C90.9257 80.9873 90.8739 80.9719 90.8315 80.9635C90.7675 80.9509 90.7055 80.9533 90.7266 80.9533V82.0403ZM90.7267 81.497C90.4821 81.9823 90.4822 81.9823 90.4822 81.9823C90.4822 81.9823 90.4822 81.9823 90.4822 81.9823C90.4823 81.9823 90.4823 81.9824 90.4823 81.9824C90.4824 81.9824 90.4825 81.9824 90.4825 81.9825C90.4827 81.9825 90.4828 81.9826 90.4829 81.9827C90.4832 81.9828 90.4835 81.983 90.4838 81.9831C90.4844 81.9834 90.485 81.9837 90.4857 81.9841C90.487 81.9847 90.4887 81.9856 90.4907 81.9865C90.4936 81.9879 90.5013 81.9916 90.5111 81.9958C90.5159 81.9979 90.5253 82.0019 90.5373 82.0064C90.5433 82.0086 90.5756 82.0209 90.6185 82.0296C90.6341 82.0328 90.6954 82.0454 90.7744 82.0385C90.8181 82.0347 91.1328 81.9993 91.2427 81.6685C91.2892 81.5286 91.2674 81.4084 91.2484 81.3437C91.229 81.2779 91.2015 81.2304 91.1858 81.2058C91.1547 81.1568 91.1228 81.1243 91.1121 81.1135L90.3419 81.8806C90.3312 81.8698 90.2993 81.8373 90.2682 81.7884C90.2526 81.7637 90.225 81.7162 90.2056 81.6505C90.1866 81.5857 90.1648 81.4655 90.2113 81.3256C90.2623 81.1721 90.3695 81.072 90.4703 81.018C90.5591 80.9704 90.6395 80.9592 90.6796 80.9557C90.7586 80.9488 90.8199 80.9613 90.8355 80.9645C90.8784 80.9733 90.9106 80.9855 90.9166 80.9877C90.9286 80.9922 90.9379 80.9962 90.9427 80.9982C90.9525 81.0025 90.96 81.0061 90.9629 81.0075C90.9648 81.0084 90.9665 81.0092 90.9678 81.0099C90.9685 81.0102 90.9691 81.0105 90.9697 81.0108C90.97 81.011 90.9703 81.0111 90.9706 81.0112C90.9707 81.0113 90.9708 81.0114 90.971 81.0114C90.971 81.0115 90.9711 81.0115 90.9712 81.0115C90.9712 81.0116 90.9712 81.0116 90.9713 81.0116C90.9713 81.0116 90.9713 81.0116 90.9713 81.0116C90.9713 81.0116 90.9714 81.0116 90.7267 81.497ZM90.3441 81.8828L90.3442 81.8828L91.11 81.1114L91.1099 81.1113L90.3441 81.8828ZM90.4524 81.9661C90.4338 81.9552 90.4174 81.944 90.4031 81.9333L91.057 81.065C91.0408 81.0528 91.0224 81.0403 91.0018 81.0282L90.4524 81.9661ZM90.345 81.8826C90.3781 81.9159 90.4091 81.9383 90.4287 81.9514C90.4374 81.9572 90.4446 81.9616 90.4446 81.9616C90.4475 81.9634 90.4386 81.958 90.4293 81.9518C90.4136 81.9414 90.3452 81.8964 90.2859 81.8122C90.2158 81.7127 90.1868 81.6012 90.1868 81.4993H91.2737C91.2737 81.3974 91.2447 81.2859 91.1745 81.1862C91.1152 81.1021 91.0468 81.0571 91.0311 81.0466C91.0218 81.0404 91.0128 81.035 91.0157 81.0368C91.0157 81.0368 91.0229 81.0412 91.0316 81.047C91.0512 81.06 91.0821 81.0824 91.1151 81.1156L90.345 81.8826ZM90.4279 81.9509C90.4158 81.9428 90.3971 81.9296 90.3757 81.9112C90.3573 81.8953 90.3426 81.8802 90.3457 81.8832L91.1158 81.1162C91.1187 81.1191 91.1038 81.1038 91.0853 81.0878C91.0638 81.0693 91.0449 81.0559 91.0326 81.0477L90.4279 81.9509ZM90.7307 82.0432C90.7307 82.0432 90.7306 82.0432 90.7303 82.0432C90.7301 82.0432 90.7298 82.0432 90.7293 82.0432C90.7285 82.0432 90.7268 82.0432 90.7247 82.0432C90.7212 82.0431 90.7123 82.043 90.7009 82.0424C90.681 82.0413 90.6243 82.0375 90.556 82.0143C90.4782 81.9879 90.4214 81.9489 90.3848 81.9187C90.3597 81.898 90.3384 81.8758 90.3459 81.8833L91.1161 81.1163C91.1235 81.1238 91.1022 81.1015 91.0771 81.0808C91.0405 81.0505 90.9836 81.0116 90.9057 80.9851C90.8374 80.9619 90.7807 80.9582 90.7607 80.9571C90.7493 80.9564 90.7404 80.9563 90.7368 80.9563C90.7348 80.9562 90.7331 80.9562 90.7322 80.9562C90.7318 80.9562 90.7314 80.9562 90.7312 80.9562C90.7309 80.9562 90.7308 80.9562 90.7307 80.9562V82.0432ZM90.3459 81.8833C90.3772 81.9147 90.4059 81.9353 90.4083 81.9371C90.4204 81.946 90.3812 81.9189 90.3451 81.8825C90.2976 81.8345 90.2509 81.7694 90.2205 81.686C90.1927 81.6097 90.1877 81.5428 90.1877 81.5H91.2746C91.2746 81.4572 91.2696 81.3903 91.2418 81.3139C91.2114 81.2305 91.1646 81.1653 91.1171 81.1173C91.081 81.0809 91.0418 81.0537 91.0538 81.0626C91.0562 81.0643 91.0849 81.0849 91.1161 81.1163L90.3459 81.8833ZM90.7311 82.0435H90.7312V80.9566H90.7311V82.0435ZM90.3953 81.9273C90.3106 81.8607 90.2454 81.7641 90.2192 81.6485L91.2794 81.4088C91.248 81.2697 91.1694 81.1532 91.0671 81.0728L90.3953 81.9273ZM90.7493 82.0721C90.7493 82.0721 90.7492 82.0721 90.7489 82.0721C90.7487 82.0721 90.7484 82.0721 90.7479 82.0721C90.7471 82.0721 90.7454 82.0721 90.7433 82.0721C90.74 82.0721 90.7304 82.0719 90.718 82.0712C90.7147 82.071 90.6145 82.069 90.5056 82.0144C90.4379 81.9804 90.3672 81.9269 90.3101 81.8485C90.2554 81.7734 90.2312 81.6999 90.2198 81.6503C90.2091 81.6039 90.2072 81.5665 90.2066 81.5529C90.2062 81.5446 90.2061 81.5379 90.2061 81.5346C90.206 81.5327 90.206 81.5312 90.206 81.5304C90.206 81.5295 90.206 81.5288 90.206 81.5287H91.293C91.293 81.5287 91.293 81.528 91.293 81.5271C91.293 81.5262 91.293 81.5247 91.293 81.5229C91.2929 81.5195 91.2928 81.5129 91.2924 81.5045C91.2918 81.4909 91.2899 81.4535 91.2792 81.4071C91.2678 81.3575 91.2436 81.284 91.1889 81.2089C91.1318 81.1304 91.0611 81.077 90.9933 81.043C90.8845 80.9883 90.7842 80.9863 90.7808 80.9861C90.7685 80.9854 90.7588 80.9852 90.7555 80.9852C90.7534 80.9852 90.7517 80.9852 90.7508 80.9852C90.7504 80.9852 90.75 80.9852 90.7498 80.9852C90.7495 80.9852 90.7494 80.9852 90.7493 80.9852V82.0721ZM90.206 81.5287C90.206 81.5508 90.2074 81.5693 90.2087 81.5824C90.21 81.5957 90.2116 81.6067 90.2128 81.6141C90.214 81.6217 90.2151 81.6277 90.2157 81.631C90.2161 81.6327 90.2163 81.6341 90.2165 81.635C90.2166 81.6354 90.2167 81.6358 90.2167 81.636C90.2167 81.6361 90.2167 81.6362 90.2167 81.6362C90.2168 81.6363 90.2168 81.6363 90.2168 81.6363C90.2168 81.6363 90.2168 81.6363 90.2168 81.6363C90.2168 81.6363 90.2168 81.6363 90.2168 81.6363C90.2169 81.6368 90.2163 81.6342 90.2157 81.6311C90.2151 81.6279 90.214 81.6219 90.2128 81.6144C90.2117 81.607 90.2101 81.5961 90.2088 81.5828C90.2075 81.5698 90.2061 81.5514 90.2061 81.5293H91.2931C91.2931 81.5072 91.2917 81.4888 91.2904 81.4757C91.2891 81.4624 91.2875 81.4514 91.2863 81.4439C91.2851 81.4364 91.284 81.4304 91.2834 81.4271C91.283 81.4253 91.2828 81.4239 91.2826 81.4231C91.2825 81.4226 91.2824 81.4223 91.2824 81.4221C91.2824 81.422 91.2824 81.4219 91.2824 81.4218C91.2823 81.4218 91.2823 81.4218 91.2823 81.4218C91.2823 81.4218 91.2823 81.4218 91.2823 81.4218C91.2823 81.4217 91.2823 81.4217 91.2823 81.4217C91.2822 81.4213 91.2828 81.4239 91.2833 81.4269C91.284 81.4302 91.2851 81.4361 91.2863 81.4436C91.2874 81.451 91.289 81.4619 91.2903 81.4752C91.2916 81.4883 91.293 81.5067 91.293 81.5287H90.206ZM90.2187 81.6456L93.402 96.1858L94.4638 95.9534L91.2805 81.4131L90.2187 81.6456ZM94.3624 96.4026L96.4185 93.7507L95.5595 93.0847L93.5034 95.7366L94.3624 96.4026ZM96.4186 93.7505C96.3496 93.8396 96.2529 93.9017 96.1446 93.9279L95.8894 92.8713C95.759 92.9028 95.6423 92.9778 95.5593 93.0849L96.4186 93.7505ZM96.1461 93.9275L100.479 92.8679L100.22 91.812L95.8879 92.8717L96.1461 93.9275ZM100.88 92.2232L99.1022 84.1405L98.0406 84.374L99.8186 92.4567L100.88 92.2232ZM99.1026 84.1423C99.1326 84.2811 99.1016 84.4291 99.0122 84.5459L98.1493 83.8848C98.0416 84.0254 98.0039 84.2041 98.0402 84.3721L99.1026 84.1423ZM99.0151 84.542C98.9266 84.6597 98.791 84.7308 98.6458 84.7381L98.5913 83.6525C98.4162 83.6613 98.2528 83.7472 98.1464 83.8886L99.0151 84.542ZM98.6459 84.7381L105.538 84.39L105.483 83.3044L98.5911 83.6525L98.6459 84.7381ZM105.565 84.3879C105.464 84.3982 105.36 84.3768 105.269 84.3251C105.182 84.2757 105.125 84.2089 105.089 84.1493L106.024 83.5945C105.929 83.435 105.728 83.279 105.456 83.3065L105.565 84.3879ZM105.09 84.1507C104.996 83.9928 104.998 83.7978 105.091 83.6436L106.022 84.2054C106.134 84.019 106.137 83.7835 106.023 83.5931L105.09 84.1507ZM105.091 83.6443L100.031 92.0513L100.962 92.6118L106.022 84.2048L105.091 83.6443ZM100.466 92.8741L106.206 93.2039L106.268 92.1187L100.528 91.789L100.466 92.8741ZM106.208 93.204C106.013 93.1934 105.844 93.0691 105.774 92.8886L106.789 92.4989C106.705 92.2812 106.501 92.1314 106.267 92.1186L106.208 93.204ZM105.774 92.8886C105.706 92.7118 105.745 92.5084 105.881 92.3689L106.66 93.1267C106.824 92.9586 106.871 92.7129 106.789 92.4989L105.774 92.8886ZM105.881 92.3692L101.231 97.1571L102.01 97.9144L106.661 93.1264L105.881 92.3692ZM101.347 98.0051L103.232 99.1059L103.78 98.1672L101.895 97.0664L101.347 98.0051ZM103.231 99.1051C102.999 98.9689 102.918 98.6698 103.054 98.4338L103.995 98.979C104.16 98.6943 104.062 98.3328 103.782 98.1681L103.231 99.1051ZM103.055 98.4326C103.192 98.1978 103.493 98.1189 103.727 98.2544L103.183 99.1954C103.466 99.3588 103.829 99.2637 103.994 98.9802L103.055 98.4326ZM103.729 98.2556L101.793 97.125L101.245 98.0637L103.181 99.1943L103.729 98.2556ZM101.671 97.0728L97.7159 95.9125L97.41 96.9556L101.366 98.1158L101.671 97.0728ZM97.0231 96.3715L96.3525 102.161L97.4323 102.286L98.1028 96.4966L97.0231 96.3715ZM96.3527 102.16C96.3779 101.946 96.5401 101.771 96.7559 101.733L96.9451 102.803C97.2053 102.757 97.4016 102.546 97.4321 102.287L96.3527 102.16ZM96.7755 101.73C96.7999 101.726 96.8223 101.725 96.842 101.725V102.812C96.8671 102.812 96.8951 102.81 96.9256 102.806L96.7755 101.73ZM78.5702 98.1463L83.2856 102.149L83.9891 101.321L79.2736 97.3177L78.5702 98.1463ZM84.178 101.68L83.6098 96.1118L82.5284 96.2222L83.0967 101.79L84.178 101.68ZM82.8772 95.6585L78.73 97.2235L79.1138 98.2405L83.261 96.6755L82.8772 95.6585ZM83.2292 102.004L83.7032 103.775L84.7532 103.495L84.2792 101.723L83.2292 102.004ZM84.512 104.098L88.1274 101.885L87.5598 100.958L83.9444 103.171L84.512 104.098ZM88.3778 101.322L87.4607 96.4105L86.3922 96.61L87.3094 101.521L88.3778 101.322ZM86.4589 96.2332L83.2867 101.586L84.2218 102.14L87.394 96.7873L86.4589 96.2332ZM84.1968 103.222C84.2571 103.222 84.3207 103.233 84.3827 103.258L83.9729 104.265C84.0473 104.295 84.1236 104.308 84.1968 104.308V103.222ZM84.3799 103.257C84.5259 103.315 84.6325 103.438 84.6723 103.585L83.6231 103.869C83.6712 104.047 83.8002 104.196 83.9758 104.266L84.3799 103.257ZM84.6727 103.587L84.18 101.743L83.1299 102.024L83.6226 103.868L84.6727 103.587ZM84.0067 101.469L79.1646 97.3588L78.4612 98.1875L83.3032 102.298L84.0067 101.469ZM78.6211 97.2646L76.2098 98.1746L76.5936 99.1915L79.0048 98.2816L78.6211 97.2646ZM76.2022 98.1775C76.4695 98.072 76.7527 98.2153 76.8453 98.4629L75.8272 98.8435C75.9395 99.144 76.2819 99.3146 76.6012 99.1886L76.2022 98.1775ZM76.8451 98.4623C76.9399 98.7151 76.8134 99.0005 76.5562 99.0966L76.1757 98.0785C75.8659 98.1942 75.7128 98.5385 75.8274 98.844L76.8451 98.4623ZM76.5579 99.096L78.9159 98.2061L78.5322 97.1892L76.1741 98.0791L76.5579 99.096ZM79.0757 97.2832L79.051 97.2623L78.3478 98.0911L78.3724 98.112L79.0757 97.2832ZM79.0519 97.2631C79.2568 97.4377 79.2848 97.747 79.1084 97.9556L78.2784 97.2539C78.0657 97.5055 78.0992 97.8792 78.3469 98.0903L79.0519 97.2631ZM79.1078 97.9564C78.9328 98.1625 78.6216 98.1906 78.4125 98.0126L79.1173 97.1851C78.8656 96.9707 78.4904 97.0041 78.279 97.2531L79.1078 97.9564ZM78.4135 98.0134L78.4817 98.0712L79.1845 97.242L79.1163 97.1842L78.4135 98.0134ZM79.025 98.1651L83.2869 96.5568L82.9031 95.5398L78.6412 97.1481L79.025 98.1651ZM83.29 96.5556C83.1445 96.6115 82.9825 96.5952 82.852 96.5138L83.4271 95.5915C83.2699 95.4934 83.0746 95.4739 82.9 95.541L83.29 96.5556ZM82.8553 96.5159C82.7221 96.4341 82.6377 96.2959 82.6226 96.145L83.7042 96.0367C83.6859 95.8542 83.5839 95.6877 83.4238 95.5894L82.8553 96.5159ZM82.6227 96.146L83.1942 101.751L84.2755 101.641L83.7041 96.0357L82.6227 96.146ZM84.2024 101.973L87.3755 96.619L86.4404 96.0649L83.2673 101.419L84.2024 101.973ZM87.3762 96.6179C87.2703 96.7975 87.0665 96.8873 86.869 96.8536L87.0519 95.7821C86.8124 95.7413 86.567 95.8501 86.4398 96.066L87.3762 96.6179ZM86.8659 96.853C86.6629 96.8172 86.5048 96.6592 86.4673 96.4584L87.5359 96.2591C87.4906 96.0164 87.2996 95.8259 87.055 95.7827L86.8659 96.853ZM86.4673 96.4585L87.4157 101.537L88.4842 101.338L87.5358 96.259L86.4673 96.4585ZM87.4153 101.535C87.379 101.337 87.4675 101.135 87.6416 101.027L88.2113 101.953C88.4213 101.824 88.5285 101.58 88.4845 101.339L87.4153 101.535ZM87.6426 101.027L83.9394 103.294L84.507 104.221L88.2102 101.954L87.6426 101.027ZM83.933 103.298C84.0181 103.244 84.1109 103.222 84.1968 103.222V104.308C84.301 104.308 84.4122 104.281 84.5134 104.217L83.933 103.298ZM92.7198 101.849L95.9916 104.291L96.6419 103.42L93.37 100.978L92.7198 101.849ZM96.839 104.006L97.3003 102.406L96.2559 102.105L95.7945 103.705L96.839 104.006ZM96.8977 101.725L93.1645 100.883L92.9253 101.943L96.6585 102.786L96.8977 101.725ZM87.5458 101.802L89.6227 104.843L90.5204 104.23L88.4434 101.189L87.5458 101.802ZM90.4893 104.884L93.129 101.712L92.2936 101.017L89.6538 104.189L90.4893 104.884ZM92.6963 100.822L87.9796 100.952L88.0096 102.038L92.7263 101.908L92.6963 100.822ZM90.0676 104.128C90.0659 104.128 90.073 104.128 90.0813 104.129C90.0908 104.129 90.1063 104.13 90.1255 104.132L90.005 105.212C90.0249 105.214 90.0412 105.215 90.0514 105.215C90.0565 105.215 90.0607 105.215 90.0632 105.215C90.0645 105.215 90.0656 105.215 90.0663 105.215C90.0669 105.215 90.0675 105.215 90.0676 105.215V104.128ZM90.0909 104.129C90.2428 104.136 90.3862 104.214 90.475 104.344L89.5764 104.956C89.6831 105.112 89.8559 105.206 90.0396 105.215L90.0909 104.129ZM90.4745 104.343L88.3069 101.169L87.4093 101.782L89.5769 104.956L90.4745 104.343ZM88.3086 101.172C88.4069 101.317 88.4217 101.508 88.3388 101.671L87.3707 101.176C87.2709 101.372 87.2883 101.603 87.4075 101.78L88.3086 101.172ZM88.3398 101.669C88.2589 101.829 88.0961 101.934 87.9132 101.939L87.8841 100.852C87.6637 100.858 87.4674 100.985 87.3697 101.178L88.3398 101.669ZM87.9136 101.939L92.8358 101.803L92.8058 100.716L87.8836 100.852L87.9136 101.939ZM92.8505 101.802C92.7852 101.806 92.7345 101.796 92.7092 101.79L92.9602 100.732C92.9256 100.724 92.8655 100.713 92.7911 100.717L92.8505 101.802ZM92.715 101.791L96.7064 102.692L96.9456 101.632L92.9543 100.731L92.715 101.791ZM97.2092 102.547L101.886 97.8962L101.12 97.1254L96.4428 101.776L97.2092 102.547ZM101.886 97.8967C101.691 98.09 101.378 98.0857 101.187 97.8923L101.962 97.1301C101.733 96.8969 101.355 96.8917 101.12 97.1249L101.886 97.8967ZM101.189 97.8939C100.996 97.6994 101 97.3881 101.191 97.1982L101.958 97.9685C102.189 97.7389 102.193 97.3631 101.961 97.1285L101.189 97.8939ZM101.191 97.198L96.5039 101.859L97.2703 102.63L101.958 97.9687L101.191 97.198ZM96.3649 102.094L95.8717 103.804L96.9161 104.105L97.4093 102.395L96.3649 102.094ZM95.8711 103.807C95.916 103.648 96.0357 103.525 96.1872 103.474L96.5355 104.504C96.7186 104.442 96.8627 104.294 96.9168 104.103L95.8711 103.807ZM96.1922 103.473C96.3421 103.423 96.5069 103.449 96.6351 103.543L95.9944 104.421C96.1494 104.534 96.3491 104.565 96.5306 104.505L96.1922 103.473ZM96.6399 103.546L93.1559 100.945L92.5056 101.816L95.9896 104.417L96.6399 103.546ZM92.413 101.033L89.6889 104.306L90.5243 105.001L93.2485 101.728L92.413 101.033ZM89.6901 104.304C89.7832 104.193 89.9212 104.128 90.0676 104.128V105.215C90.244 105.215 90.4105 105.137 90.5231 105.003L89.6901 104.304ZM83.6999 101.362C83.9524 101.362 84.1665 101.554 84.1905 101.809L83.1083 101.911C83.1373 102.218 83.3956 102.449 83.6999 102.449V101.362ZM84.1903 101.807C84.2168 102.077 84.0193 102.317 83.75 102.345L83.6401 101.263C83.315 101.296 83.0766 101.586 83.1085 101.913L84.1903 101.807ZM83.7476 102.345L87.9477 101.937L87.8426 100.855L83.6425 101.263L83.7476 102.345ZM87.9213 101.939C87.7011 101.949 87.44 101.797 87.4099 101.496L88.4914 101.388C88.4555 101.031 88.141 100.84 87.8689 100.853L87.9213 101.939ZM87.4096 101.493C87.384 101.224 87.5805 100.983 87.8517 100.957L87.958 102.038C88.2852 102.006 88.5226 101.715 88.4917 101.39L87.4096 101.493ZM87.8523 100.957L83.6523 101.365L83.7575 102.447L87.9574 102.038L87.8523 100.957ZM83.679 101.363C83.6777 101.363 83.6784 101.363 83.6784 101.363C83.6788 101.363 83.6801 101.363 83.6818 101.363C83.6853 101.363 83.6918 101.362 83.6999 101.362V102.449C83.7097 102.449 83.7178 102.449 83.723 102.449C83.7255 102.449 83.7276 102.449 83.7289 102.449C83.7295 102.449 83.73 102.449 83.7303 102.449C83.7308 102.449 83.7307 102.449 83.7309 102.449L83.679 101.363ZM93.771 106.622C93.8653 106.622 93.9637 106.65 94.05 106.709L93.4355 107.605C93.539 107.676 93.657 107.709 93.771 107.709V106.622ZM94.0463 106.706L90.3557 104.221L89.7486 105.123L93.4392 107.608L94.0463 106.706ZM90.0521 104.128H84.7869V105.215H90.0521V104.128ZM84.7869 104.128C85.0615 104.128 85.2796 104.352 85.2796 104.621H84.1926C84.1926 104.947 84.456 105.215 84.7869 105.215V104.128ZM85.2796 104.621C85.2796 104.891 85.061 105.113 84.7869 105.113V104.026C84.4565 104.026 84.1926 104.295 84.1926 104.621H85.2796ZM84.7869 105.113H90.0676V104.026H84.7869V105.113ZM90.0676 105.113C89.969 105.113 89.8715 105.084 89.7885 105.027L90.4033 104.13C90.3036 104.062 90.1864 104.026 90.0676 104.026V105.113ZM89.7923 105.029L93.4957 107.523L94.1029 106.622L90.3995 104.128L89.7923 105.029ZM93.4974 107.524C93.2693 107.372 93.2113 107.065 93.3616 106.841L94.2647 107.446C94.4465 107.174 94.376 106.804 94.1012 106.621L93.4974 107.524ZM93.362 106.84C93.4556 106.701 93.6107 106.622 93.771 106.622V107.709C93.9638 107.709 94.1511 107.615 94.2644 107.446L93.362 106.84ZM86.4097 106.622C86.5677 106.622 86.7226 106.699 86.8172 106.838L85.918 107.449C86.0322 107.617 86.2192 107.709 86.4097 107.709V106.622ZM86.8181 106.84C86.9681 107.062 86.9136 107.368 86.6867 107.522L86.0754 106.623C85.8021 106.809 85.7357 107.179 85.9171 107.447L86.8181 106.84ZM86.6872 107.522L90.3452 105.028L89.7329 104.13L86.0749 106.624L86.6872 107.522ZM90.3444 105.028C90.2642 105.083 90.168 105.113 90.0676 105.113V104.026C89.9467 104.026 89.8307 104.063 89.7336 104.129L90.3444 105.028ZM90.0676 105.113H95.7936V104.026H90.0676V105.113ZM95.7936 105.113C95.52 105.113 95.3009 104.891 95.3009 104.621H96.3879C96.3879 104.294 96.1233 104.026 95.7936 104.026V105.113ZM95.3009 104.621C95.3009 104.351 95.5194 104.128 95.7936 104.128V105.215C96.1238 105.215 96.3879 104.947 96.3879 104.621H95.3009ZM95.7936 104.128H90.0832V105.215H95.7936V104.128ZM89.777 104.223L86.132 106.708L86.7444 107.606L90.3894 105.121L89.777 104.223ZM86.1379 106.704C86.2164 106.652 86.3107 106.622 86.4097 106.622V107.709C86.5283 107.709 86.6424 107.674 86.7385 107.61L86.1379 106.704ZM98.621 83.7538C98.6772 83.7538 98.7283 83.7633 98.7724 83.7776L98.437 84.8116C98.492 84.8294 98.554 84.8408 98.621 84.8408V83.7538ZM98.7804 83.7803L90.8593 81.0743L90.5079 82.1029L98.429 84.8089L98.7804 83.7803ZM90.858 81.0738C91.1185 81.1621 91.2537 81.4441 91.1661 81.6999L90.1377 81.3478C90.0319 81.657 90.1955 81.997 90.5091 82.1033L90.858 81.0738ZM91.1666 81.6984C91.0782 81.959 90.7984 82.0909 90.5468 82.0082L90.886 80.9756C90.581 80.8754 90.2437 81.0354 90.1372 81.3492L91.1666 81.6984ZM90.5407 82.0062L98.4617 84.7122L98.8131 83.6836L90.8921 80.9776L90.5407 82.0062ZM98.4634 84.7128C98.2014 84.6243 98.069 84.3424 98.154 84.0895L99.1843 84.4358C99.2873 84.1296 99.1267 83.7896 98.8113 83.6831L98.4634 84.7128ZM98.1552 84.086C98.2247 83.8839 98.4143 83.7538 98.621 83.7538V84.8408C98.8701 84.8408 99.0991 84.684 99.1832 84.4393L98.1552 84.086Z" fill="white" mask="url(#path-3-outside-1_135_315)"/>
</g>
<defs>
<filter id="filter0_f_135_315" x="46.5979" y="46.5978" width="86.8042" height="86.8043" filterUnits="userSpaceOnUse" color-interpolation-filters="sRGB">
<feFlood flood-opacity="0" result="BackgroundImageFix"/>
<feBlend mode="normal" in="SourceGraphic" in2="BackgroundImageFix" result="shape"/>
<feGaussianBlur stdDeviation="4" result="effect1_foregroundBlur_135_315"/>
</filter>
<filter id="filter1_d_135_315" x="0.222908" y="0.222801" width="179.554" height="179.554" filterUnits="userSpaceOnUse" color-interpolation-filters="sRGB">
<feFlood flood-opacity="0" result="BackgroundImageFix"/>
<feColorMatrix in="SourceAlpha" type="matrix" values="0 0 0 0 0 0 0 0 0 0 0 0 0 0 0 0 0 0 127 0" result="hardAlpha"/>
<feOffset/>
<feGaussianBlur stdDeviation="27.1875"/>
<feComposite in2="hardAlpha" operator="out"/>
<feColorMatrix type="matrix" values="0 0 0 0 0 0 0 0 0 0 0 0 0 0 0 0 0 0 0.1 0"/>
<feBlend mode="normal" in2="BackgroundImageFix" result="effect1_dropShadow_135_315"/>
<feBlend mode="normal" in="SourceGraphic" in2="effect1_dropShadow_135_315" result="shape"/>
</filter>
<linearGradient id="paint0_linear_135_315" x1="64.9686" y1="115.041" x2="115.026" y2="64.9884" gradientUnits="userSpaceOnUse">
<stop stop-color="#FF8FD7"/>
<stop offset="0.520833" stop-color="#F84CBB"/>
<stop offset="1" stop-color="#FF8FD7"/>
</linearGradient>
<radialGradient id="paint1_radial_135_315" cx="0" cy="0" r="1" gradientUnits="userSpaceOnUse" gradientTransform="translate(111.756 71.391) rotate(-157.636) scale(9.56111 4.14762)">
<stop offset="0.24" stop-color="white" stop-opacity="0.98"/>
<stop offset="0.34" stop-color="white" stop-opacity="0.76"/>
<stop offset="0.43" stop-color="white" stop-opacity="0.55"/>
<stop offset="0.52" stop-color="white" stop-opacity="0.38"/>
<stop offset="0.62" stop-color="white" stop-opacity="0.25"/>
<stop offset="0.71" stop-color="white" stop-opacity="0.14"/>
<stop offset="0.8" stop-color="white" stop-opacity="0.06"/>
<stop offset="0.9" stop-color="white" stop-opacity="0.02"/>
<stop offset="1" stop-color="white" stop-opacity="0"/>
</radialGradient>
</defs>
</svg>
