<svg width="185" height="55" viewBox="0 0 185 55" fill="none" xmlns="http://www.w3.org/2000/svg">
<path d="M54.5084 27.3212C54.5084 42.4104 42.3063 54.6425 27.2542 54.6425C12.202 54.6425 0 42.4104 0 27.3212C0 12.2321 12.202 0 27.2542 0C42.3063 0 54.5084 12.2321 54.5084 27.3212Z" fill="#F84CBB"/>
<path d="M13.5615 22.798L17.4513 29.3681L19.0824 23.0649L13.5615 22.798ZM34.9615 22.9952L28.524 20.7966L32.8553 30.476L34.9615 22.9965V22.9952ZM29.9062 20.5686L35.1555 22.362L40.9387 13.9435L33.2233 20.4908L33.1818 20.5203C33.1618 20.5324 33.1404 20.5431 33.1189 20.5498L33.1029 20.5552C33.0708 20.5659 33.0387 20.5699 33.0106 20.5699H29.9062V20.5686ZM23.9704 43.8322L26.2479 42.2802H22.9602L23.9704 43.8322ZM28.0235 41.6176H32.5489L32.751 41.3681L29.9624 39.2862L28.0222 41.6176H28.0235ZM32.0123 42.2802H28.4022L30.7371 43.8523L32.0123 42.2802ZM27.3197 42.3473L24.9499 43.9636H29.7202L27.3197 42.3473ZM22.5293 41.6176H26.6934L25.1854 39.4083L22.259 41.2004L22.5307 41.6176H22.5293ZM21.9446 38.9549L24.8897 38.6692L24.2247 35.1092L21.9446 38.9563V38.9549ZM23.8835 39.4311L21.7479 39.639L22.0008 40.5847L23.8835 39.4324V39.4311ZM31.3513 39.4995L33.04 40.7604L33.2782 39.9341L31.3513 39.4995ZM25.8933 39.2768L27.3438 41.4016L29.1876 39.1856L25.8919 39.2768H25.8933ZM25.5521 38.6249L26.7189 38.5927L25.0369 35.8657L25.5521 38.6249ZM30.3009 38.5847L33.0935 39.2151L31.0543 35.0247L30.3009 38.5847ZM34.1279 38.7886L37.4811 35.4539L34.6123 34.6129L34.1292 38.7886H34.1279ZM38.1622 35.7074L33.9847 39.8617L33.8107 40.4667L39.337 36.3929L38.1635 35.7074H38.1622ZM17.3844 35.5639L20.9196 38.5646L20.4941 34.3902L17.3844 35.5639ZM21.2568 40.35L21.0387 39.5317L16.6779 35.8295L15.1752 36.3969L21.2568 40.35ZM14.6279 35.8966L16.1788 35.3117L12.9165 31.8308L14.6279 35.8979V35.8966ZM17.1636 34.9402L20.2184 33.7866L17.7871 30.971L17.1636 34.9388V34.9402ZM21.1457 34.2869L21.5565 38.3164L23.8313 34.4774L21.1457 34.2869ZM39.7893 35.8912L41.4178 32.3607L38.6399 35.2205L39.7893 35.8912ZM42.2661 30.3996L41.6131 23.4834L37.6122 30.1313L42.2661 30.3982V30.3996ZM41.5409 22.1394L42.1939 13.2822L35.9142 22.4237L41.5409 22.1394ZM35.3268 24.138L33.3986 30.9831L36.6569 30.1863L35.3255 24.138H35.3268ZM32.5462 31.3922L28.924 23.2956L31.1038 33.2527L32.5462 31.3922ZM27.0266 22.4063L22.0717 30.8677L24.2287 33.474L27.0266 22.4076V22.4063ZM21.2193 30.4814L19.5093 24.0522L17.9986 29.8952L21.2193 30.4828V30.4814ZM18.9312 22.3942L13.7127 12.9174L13.338 22.1233L18.9325 22.3929L18.9312 22.3942ZM13.1667 23.4204L12.2796 29.9274L16.999 29.8939L13.1654 23.4204H13.1667ZM35.7737 23.0931L37.1948 29.5518L41.2478 22.8168L35.7737 23.0931ZM27.2099 20.794L19.908 22.9791L21.7894 30.0522L27.2099 20.7953V20.794ZM20.941 33.6082L23.6453 33.8L21.4963 31.2031L18.3719 30.633L20.9423 33.6082H20.941ZM31.5842 33.7155L34.1707 33.8456L36.2568 30.9657L33.1216 31.7329L31.5842 33.7168V33.7155ZM37.4677 30.7859L38.3054 34.6223L41.7898 31.0341L37.4664 30.7859H37.4677ZM34.8759 33.9999L37.6738 34.8208L36.8883 31.2232L34.8772 34.0012L34.8759 33.9999ZM12.6609 30.586L16.536 34.7215L17.1917 30.5525L12.6609 30.5847V30.586ZM24.7479 34.1313L27.0119 37.8027L27.4896 23.2849L24.7479 34.1313ZM28.1627 22.8892L27.6703 37.863L30.5819 33.9395L28.1627 22.8892ZM30.3009 35.4244L27.9767 38.5579L29.6479 38.5109L30.3009 35.4244ZM31.4785 34.3728L33.5003 38.527L33.9673 34.4988L31.4785 34.3741V34.3728ZM19.5936 22.2225L21.7077 20.2333L14.7925 13.5062L19.5936 22.2225ZM22.3152 20.5686L20.755 22.0361L25.6591 20.5686H22.3152ZM30.8094 44.6263C29.3455 44.6263 24.9419 44.8342 23.8166 44.6182C23.7804 44.6115 23.747 44.5981 23.7175 44.578C23.4633 44.4345 22.0222 42.0347 21.5659 41.3345C19.5681 40.0361 15.883 37.9529 14.2185 36.5498L14.1743 36.4921C14.1596 36.4693 14.1489 36.4465 14.1408 36.421C10.6003 28.0092 11.3349 32.0938 12.6823 22.1259C12.7733 19.8885 12.7185 13.3667 13.1172 11.6377C13.1252 11.6082 13.1373 11.5814 13.1533 11.5572L13.1574 11.5505C13.1734 11.521 13.1962 11.4955 13.2216 11.474L13.255 11.4486C13.2778 11.4325 13.3019 11.4217 13.3273 11.4137C13.3607 11.4016 13.3955 11.3949 13.4303 11.3949C13.4611 11.3882 13.524 11.4083 13.5534 11.4164C13.5762 11.4244 13.5976 11.4351 13.6163 11.4486C15.2889 12.5659 20.4847 18.1219 22.3192 19.9073H32.8995C35.8286 17.4217 39.4334 13.9985 42.4374 11.8161C42.4668 11.796 42.4989 11.7812 42.5324 11.7732C42.598 11.7517 42.6609 11.7611 42.7278 11.7785L42.7759 11.8L42.8107 11.8215C42.8562 11.859 42.8723 11.8738 42.9044 11.9234C42.9164 11.9449 42.9271 11.9663 42.9338 11.9891C43.1319 12.7148 42.2956 20.9978 42.1872 22.4613C42.3879 24.5834 43.0195 28.6705 42.9499 30.5793C42.9485 30.6035 42.9445 30.6276 42.9378 30.6504L42.9178 30.7054C39.1899 38.7792 41.4833 35.639 33.4615 41.5518C32.7135 42.4734 31.7621 43.8375 31.0369 44.5391C31.0181 44.5565 30.9967 44.5726 30.974 44.5847C30.9499 44.5981 30.9258 44.6075 30.9017 44.6142C30.8643 44.6249 30.8415 44.6209 30.8121 44.6276L30.8094 44.6263Z" fill="white"/>
<path d="M88.1386 29.9799H91.8554L89.9503 21.9767L88.1386 29.9799ZM93.556 37.1155L92.7158 33.5894H87.2883L86.496 37.1155H83.6851L88.3077 17.5273H91.5336L96.1941 37.1155H93.556Z" fill="white"/>
<path d="M102.125 33.421C103.233 33.421 104.134 32.857 104.827 31.7276C105.521 30.5994 105.868 29.1298 105.868 27.32C105.868 25.5101 105.521 24.0418 104.827 22.9124C104.134 21.7842 103.233 21.2189 102.125 21.2189H99.5689V33.4198H102.125V33.421ZM102.125 17.5259C103.877 17.5259 105.342 18.4681 106.517 20.3526C107.691 22.237 108.278 24.5591 108.278 27.32C108.278 30.0809 107.691 32.4042 106.517 34.2874C105.342 36.1718 103.879 37.114 102.125 37.114H97.0495V17.5259H102.125Z" fill="white"/>
<path d="M117.016 37.5076C114.735 37.5076 112.85 36.5287 111.363 34.5696C109.875 32.6105 109.132 30.1949 109.132 27.3214C109.132 24.4302 109.875 22.0095 111.363 20.0593C112.85 18.1104 114.734 17.1353 117.016 17.1353C118.387 17.1353 119.654 17.5501 120.817 18.381C121.979 19.2107 122.885 20.335 123.535 21.7528L120.957 23.684C120.583 22.8076 120.048 22.1221 119.355 21.6276C118.662 21.1331 117.883 20.8864 117.016 20.8864C115.544 20.8864 114.355 21.4834 113.453 22.6773C112.551 23.8712 112.099 25.4192 112.099 27.3227C112.099 29.2071 112.551 30.7463 113.453 31.9402C114.355 33.1341 115.544 33.7311 117.016 33.7311C117.883 33.7311 118.666 33.4844 119.366 32.9899C120.067 32.4954 120.598 31.8188 120.959 30.9613L123.536 32.8925C122.886 34.3103 121.984 35.4347 120.829 36.2643C119.673 37.094 118.402 37.5101 117.017 37.5101L117.016 37.5076Z" fill="white"/>
<path d="M128.35 29.9799H131.656L129.962 21.9767L128.35 29.9799ZM133.169 37.1155L132.422 33.5894H127.595L126.889 37.1155H124.389L128.499 17.5273H131.368L135.513 37.1155H133.166H133.169Z" fill="white"/>
<path d="M145.01 17.5259V21.2202H141.839V37.1153H139.523V21.2202H136.369V17.5259H145.01Z" fill="white"/>
<path d="M148.853 33.421H156.983V37.1153H145.864V17.5259H148.853V33.421Z" fill="white"/>
<path d="M161.892 29.9799H165.277L163.542 21.9767L161.893 29.9799H161.892ZM166.826 37.1155L166.062 33.5894H161.119L160.397 37.1155H157.837L162.047 17.5273H164.986L169.23 37.1155H166.828H166.826Z" fill="white"/>
<path d="M175.187 33.5048C175.588 33.5048 175.92 33.286 176.184 32.8471C176.447 32.4083 176.579 31.8543 176.579 31.1815C176.579 30.5289 176.446 29.9825 176.184 29.5449C175.92 29.1061 175.588 28.8873 175.187 28.8873H172.456V33.5048H175.187ZM174.826 21.1357H172.456V25.4447H174.826C175.192 25.4447 175.499 25.2398 175.746 24.8287C175.992 24.4177 176.116 23.9055 176.116 23.2896C176.116 22.6736 175.996 22.1614 175.755 21.7504C175.514 21.3393 175.205 21.1344 174.827 21.1344L174.826 21.1357ZM177.352 26.956C178.405 27.945 178.933 29.4374 178.933 31.4332C178.933 33.0938 178.572 34.4559 177.85 35.5182C177.129 36.5819 176.241 37.1131 175.187 37.1131H170.084V17.5249H174.826C175.857 17.5249 176.725 18.0422 177.429 19.078C178.133 20.1138 178.486 21.4329 178.486 23.0379C178.486 24.6605 178.108 25.967 177.352 26.956Z" fill="white"/>
<path d="M82.8309 17.5259V37.1153H79.2618V24.4098L74.1194 33.4957L73.698 33.5146L68.5771 24.4566V37.1153H64.9802V17.5259H68.6805L73.91 26.7749L79.118 17.5259H82.8309Z" fill="white"/>
<path d="M182.838 37.5079C184.032 37.5079 185 36.5373 185 35.3401C185 34.1429 184.032 33.1724 182.838 33.1724C181.643 33.1724 180.675 34.1429 180.675 35.3401C180.675 36.5373 181.643 37.5079 182.838 37.5079Z" fill="#F84CBB"/>
</svg>
