<svg width="237" height="71" viewBox="0 0 237 71" fill="none" xmlns="http://www.w3.org/2000/svg">
<path d="M69.8296 35.0007C69.8296 54.3312 54.1978 70.0014 34.9148 70.0014C15.6318 70.0014 0 54.3312 0 35.0007C0 15.6702 15.6318 0 34.9148 0C54.1978 0 69.8296 15.6702 69.8296 35.0007Z" fill="#F84CBB"/>
<path d="M17.3733 29.2062L22.3565 37.623L24.4461 29.5482L17.3733 29.2062ZM44.7885 29.4588L36.5415 26.6423L42.0903 39.0424L44.7885 29.4605V29.4588ZM38.3122 26.3502L45.037 28.6477L52.4458 17.863L42.5617 26.2505L42.5086 26.2883C42.4829 26.3038 42.4554 26.3176 42.428 26.3262L42.4074 26.333C42.3663 26.3468 42.3252 26.3519 42.2892 26.3519H38.3122V26.3502ZM30.708 56.1527L33.6256 54.1645H29.4138L30.708 56.1527ZM35.9004 53.3156H41.6978L41.9566 52.996L38.3842 50.329L35.8986 53.3156H35.9004ZM41.0104 54.1645H36.3855L39.3767 56.1785L41.0104 54.1645ZM34.9987 54.2504L31.9628 56.3211H38.074L34.9987 54.2504ZM28.8619 53.3156H34.1964L32.2645 50.4854L28.5156 52.7812L28.8636 53.3156H28.8619ZM28.1128 49.9046L31.8857 49.5385L31.0337 44.9778L28.1128 49.9063V49.9046ZM30.5966 50.5146L27.8608 50.7809L28.1847 51.9924L30.5966 50.5163V50.5146ZM40.1636 50.6022L42.3269 52.2175L42.632 51.159L40.1636 50.6022ZM33.1713 50.317L35.0295 53.0389L37.3917 50.2001L33.1696 50.317H33.1713ZM32.7342 49.4818L34.229 49.4406L32.0743 45.947L32.7342 49.4818ZM38.8179 49.4303L42.3954 50.2379L39.783 44.8696L38.8179 49.4303ZM43.7205 49.6915L48.0163 45.4195L44.3411 44.342L43.7222 49.6915H43.7205ZM48.8888 45.7443L43.5371 51.0662L43.3143 51.8412L50.3939 46.6224L48.8905 45.7443H48.8888ZM22.2708 45.5604L26.7997 49.4045L26.2546 44.0568L22.2708 45.5604ZM27.2317 51.6917L26.9522 50.6435L21.3657 45.9006L19.4406 46.6275L27.2317 51.6917ZM18.7395 45.9866L20.7263 45.2373L16.5471 40.778L18.7395 45.9883V45.9866ZM21.9879 44.7613L25.9014 43.2835L22.7867 39.6765L21.9879 44.7596V44.7613ZM27.0894 43.9245L27.6156 49.0866L30.5298 44.1685L27.0894 43.9245ZM50.9733 45.9797L53.0595 41.4568L49.5008 45.1205L50.9733 45.9797ZM54.1463 38.9445L53.3097 30.0843L48.1843 38.6008L54.1463 38.9428V38.9445ZM53.2172 28.3625L54.0537 17.0158L46.009 28.7268L53.2172 28.3625ZM45.2564 30.9229L42.7863 39.692L46.9604 38.6713L45.2547 30.9229H45.2564ZM41.6943 40.2161L37.054 29.8438L39.8464 42.5996L41.6943 40.2161ZM34.6233 28.7044L28.2756 39.5442L31.0389 42.8831L34.6233 28.7062V28.7044ZM27.1837 39.0493L24.9929 30.8129L23.0576 38.2984L27.1837 39.051V39.0493ZM24.2524 28.689L17.567 16.5484L17.087 28.3419L24.2541 28.6873L24.2524 28.689ZM16.8676 30.0036L15.7311 38.3396L21.7771 38.2966L16.8659 30.0036H16.8676ZM45.829 29.5843L47.6495 37.8584L52.8418 29.2303L45.829 29.5843ZM34.8581 26.6389L25.5037 29.4382L27.9139 38.4994L34.8581 26.6406V26.6389ZM26.8271 43.0549L30.2915 43.3007L27.5385 39.9738L23.5358 39.2435L26.8288 43.0549H26.8271ZM40.4618 43.1924L43.7754 43.3591L46.4478 39.6697L42.4314 40.6526L40.4618 43.1941V43.1924ZM47.9992 39.4394L49.0723 44.3541L53.536 39.7573L47.9974 39.4394H47.9992ZM44.6788 43.5567L48.2631 44.6084L47.2569 39.9996L44.6805 43.5584L44.6788 43.5567ZM16.2196 39.1833L21.184 44.4812L22.0239 39.1404L16.2196 39.1816V39.1833ZM31.704 43.7251L34.6044 48.4284L35.2164 29.83L31.704 43.7251ZM36.0786 29.3231L35.4478 48.5058L39.1779 43.4794L36.0786 29.3231ZM38.8179 45.3817L35.8404 49.3959L37.9814 49.3358L38.8179 45.3817ZM40.3264 44.0344L42.9166 49.3564L43.5148 44.196L40.3264 44.0362V44.0344ZM25.1009 28.469L27.8093 25.9206L18.9504 17.3027L25.1009 28.469ZM28.5876 26.3502L26.5888 28.2302L32.8714 26.3502H28.5876ZM39.4693 57.17C37.594 57.17 31.9526 57.4364 30.5109 57.1597C30.4646 57.1511 30.4218 57.1339 30.3841 57.1082C30.0584 56.9243 28.2122 53.85 27.6276 52.953C25.0683 51.2896 20.3474 48.6209 18.215 46.8234L18.1584 46.7495C18.1395 46.7203 18.1258 46.6911 18.1155 46.6585C13.5798 35.8823 14.5209 41.1148 16.2471 28.3453C16.3636 25.479 16.2934 17.124 16.8042 14.909C16.8145 14.8712 16.8299 14.8368 16.8505 14.8059L16.8556 14.7973C16.8762 14.7595 16.9053 14.7268 16.9379 14.6993L16.9807 14.6667C17.0099 14.6461 17.0407 14.6323 17.0733 14.622C17.1162 14.6065 17.1607 14.598 17.2053 14.598C17.2447 14.5894 17.3253 14.6151 17.363 14.6255C17.3922 14.6358 17.4196 14.6495 17.4436 14.6667C19.5863 16.0981 26.2426 23.2158 28.5927 25.503H42.1469C45.8993 22.3188 50.5173 17.9334 54.3657 15.1375C54.4034 15.1118 54.4445 15.0929 54.4874 15.0826C54.5714 15.0551 54.652 15.0671 54.7377 15.0894L54.7994 15.1169L54.844 15.1444C54.9022 15.1925 54.9228 15.2114 54.964 15.275C54.9794 15.3025 54.9931 15.33 55.0017 15.3592C55.2554 16.2889 54.184 26.9001 54.0451 28.7749C54.3023 31.4934 55.1114 36.7295 55.0222 39.1748C55.0205 39.2057 55.0154 39.2366 55.0068 39.2658L54.9811 39.3363C50.2053 49.6794 53.1435 45.6566 42.8669 53.2314C41.9086 54.412 40.6898 56.1596 39.7607 57.0583C39.7367 57.0807 39.7093 57.1013 39.6802 57.1167C39.6493 57.1339 39.6184 57.146 39.5876 57.1546C39.5396 57.1683 39.5105 57.1631 39.4727 57.1717L39.4693 57.17Z" fill="white"/>
<path d="M112.913 38.4064H117.674L115.234 28.1537L112.913 38.4064ZM119.853 47.5477L118.776 43.0306H111.823L110.808 47.5477H107.207L113.129 22.4537H117.262L123.232 47.5477H119.853Z" fill="#2B2A29"/>
<path d="M130.83 42.8151C132.249 42.8151 133.403 42.0924 134.292 40.6456C135.181 39.2003 135.626 37.3176 135.626 34.9991C135.626 32.6806 135.181 30.7995 134.292 29.3526C133.403 27.9074 132.249 27.1831 130.83 27.1831H127.556V42.8134H130.83V42.8151ZM130.83 22.4521C133.075 22.4521 134.952 23.6592 136.456 26.0733C137.961 28.4874 138.713 31.4622 138.713 34.9991C138.713 38.5361 137.961 41.5124 136.456 43.9249C134.952 46.3391 133.077 47.5461 130.83 47.5461H124.328V22.4521H130.83Z" fill="#2B2A29"/>
<path d="M149.907 48.05C146.985 48.05 144.57 46.7959 142.664 44.2862C140.759 41.7765 139.807 38.6819 139.807 35.0007C139.807 31.2969 140.759 28.1958 142.664 25.6974C144.57 23.2006 146.983 21.9514 149.907 21.9514C151.664 21.9514 153.286 22.4829 154.777 23.5474C156.265 24.6102 157.426 26.0506 158.258 27.8669L154.956 30.341C154.476 29.2181 153.791 28.34 152.903 27.7065C152.016 27.073 151.017 26.757 149.907 26.757C148.021 26.757 146.498 27.5218 145.343 29.0513C144.187 30.5808 143.608 32.5639 143.608 35.0023C143.608 37.4165 144.187 39.3883 145.343 40.9178C146.498 42.4473 148.021 43.212 149.907 43.212C151.017 43.212 152.021 42.8961 152.918 42.2626C153.815 41.6291 154.495 40.7622 154.958 39.6637L158.26 42.1378C157.427 43.9541 156.272 45.3945 154.791 46.4573C153.311 47.5202 151.683 48.0532 149.908 48.0532L149.907 48.05Z" fill="#2B2A29"/>
<path d="M164.427 38.4064H168.662L166.491 28.1537L164.427 38.4064ZM170.6 47.5477L169.643 43.0306H163.459L162.556 47.5477H159.352L164.618 22.4537H168.293L173.603 47.5477H170.596H170.6Z" fill="#2B2A29"/>
<path d="M185.77 22.4521V27.1848H181.707V47.5477H178.741V27.1848H174.7V22.4521H185.77Z" fill="#2B2A29"/>
<path d="M190.693 42.8151H201.108V47.5477H186.864V22.4521H190.693V42.8151Z" fill="#2B2A29"/>
<path d="M207.397 38.4064H211.733L209.511 28.1537L207.398 38.4064H207.397ZM213.718 47.5477L212.738 43.0306H206.406L205.481 47.5477H202.202L207.596 22.4537H211.36L216.797 47.5477H213.719H213.718Z" fill="#2B2A29"/>
<path d="M224.429 42.922C224.943 42.922 225.368 42.6417 225.706 42.0795C226.043 41.5173 226.211 40.8076 226.211 39.9457C226.211 39.1096 226.042 38.4097 225.706 37.8491C225.368 37.2869 224.943 37.0066 224.429 37.0066H220.93V42.922H224.429ZM223.966 27.0762H220.93V32.5963H223.966C224.435 32.5963 224.828 32.3338 225.145 31.8073C225.46 31.2807 225.618 30.6245 225.618 29.8355C225.618 29.0464 225.465 28.3902 225.156 27.8636C224.847 27.3371 224.451 27.0746 223.968 27.0746L223.966 27.0762ZM227.202 34.5325C228.552 35.7995 229.227 37.7114 229.227 40.2681C229.227 42.3954 228.765 44.1404 227.841 45.5014C226.916 46.864 225.778 47.5445 224.429 47.5445H217.891V22.4505H223.966C225.287 22.4505 226.399 23.1131 227.301 24.4401C228.203 25.7671 228.655 27.457 228.655 29.513C228.655 31.5918 228.17 33.2655 227.202 34.5325Z" fill="#2B2A29"/>
<path d="M106.113 22.4521V47.5477H101.541V31.271L94.9529 42.9107L94.4131 42.935L87.8527 31.3309V47.5477H83.2448V22.4521H87.9853L94.6846 34.3008L101.356 22.4521H106.113Z" fill="#2B2A29"/>
<path d="M234.23 48.05C235.76 48.05 237 46.8067 237 45.2729C237 43.7392 235.76 42.4959 234.23 42.4959C232.7 42.4959 231.459 43.7392 231.459 45.2729C231.459 46.8067 232.7 48.05 234.23 48.05Z" fill="#F84CBB"/>
</svg>
