<svg width="60" height="60" viewBox="0 0 60 60" fill="none" xmlns="http://www.w3.org/2000/svg">
<mask id="mask0_202_152" style="mask-type:alpha" maskUnits="userSpaceOnUse" x="0" y="0" width="60" height="60">
<circle cx="30" cy="30" r="30" fill="#E4E4E4"/>
</mask>
<g mask="url(#mask0_202_152)">
<path d="M5.47684 46.9762H54.523C57.9726 42.0905 59.9999 36.1289 59.9999 29.6933C59.9999 13.1248 46.5685 -0.306641 29.9999 -0.306641C13.4314 -0.306641 0 13.1248 0 29.6933C0 36.1289 2.02724 42.0905 5.47684 46.9762Z" fill="#FFC839"/>
<path d="M53.9539 45.5944C52.0882 41.863 48.8137 40.8211 47.3218 40.5346C47.3218 40.5346 43.506 39.838 40.1345 38.4672C40.0308 38.7986 39.8047 39.0927 39.4731 39.2715C37.1731 40.5117 34.0707 41.5291 30.0815 41.5291C29.2691 41.5291 28.4953 41.485 27.7558 41.4073C27.7749 41.4502 27.793 41.493 27.8132 41.5363C26.992 41.6402 24.3622 42.0398 21.7623 43.1552C17.5965 44.942 15.3945 47.7414 15.3945 51.2507V55.9025C19.7168 58.3167 24.6974 59.6932 30 59.6932C40.1329 59.6932 49.0917 54.6688 54.5231 46.9762C54.3516 46.4752 54.1627 46.0119 53.9539 45.5944Z" fill="#72AAFC"/>
<path d="M20.0089 38.4083C16.6033 39.8179 12.6783 40.5345 12.6783 40.5345C11.1863 40.821 7.91192 41.8629 6.04619 45.5943C5.83741 46.0118 5.6486 46.4752 5.47705 46.9761C8.10649 50.7002 11.5626 53.7989 15.5784 56.005C15.5784 54.7464 15.5784 53.185 15.5784 51.2506C15.5784 42.8615 28.0913 41.6889 28.0913 41.6889C28.0472 41.6013 28.0065 41.5152 27.9671 41.4298C24.9764 41.1459 22.565 40.2825 20.6882 39.2701C20.3376 39.0808 20.1034 38.7633 20.0089 38.4083Z" fill="#548BED"/>
<path d="M40.3172 37.4221L37.966 33.6456C37.6351 33.1142 36.9991 32.8618 36.392 33.0145C34.5569 33.4763 32.4031 33.8249 30.0816 33.8249C29.8396 33.8249 29.6 33.8202 29.3618 33.8129V35.8219C29.007 35.9977 27.9261 36.6221 27.4508 37.9016C27.0591 38.9563 27.181 40.178 27.8131 41.5363C27.6869 41.5522 27.5175 41.5752 27.3125 41.6068C28.1857 41.7134 29.1071 41.7739 30.0815 41.7739C34.2027 41.7739 37.4076 40.723 39.7837 39.4418C40.5111 39.0497 40.7539 38.1235 40.3172 37.4221Z" fill="#548BED"/>
<path d="M23.7697 33.0133C23.1625 32.8603 22.5264 33.1127 22.1954 33.6443L19.8444 37.4205C19.4078 38.1219 19.6504 39.0479 20.3777 39.4402C22.3564 40.5076 24.912 41.413 28.0904 41.6869C25.9526 37.4313 29.5456 35.9389 29.5456 35.9389V33.8179C27.4286 33.7694 25.4634 33.4399 23.7697 33.0133Z" fill="#3E7FDD"/>
<path d="M40.8567 31.6059C40.0303 28.7115 39.6877 26.452 39.6135 24.706C38.9859 26.9709 38.1656 28.9764 37.1664 30.6861C36.5899 31.6728 35.8743 32.5564 35.0433 33.322C33.8018 40.5649 36.1233 46.0211 37.9502 49.0027C38.3352 49.631 39.361 49.3675 39.3511 48.642C39.269 42.6374 43.082 39.3996 40.8567 31.6059Z" fill="#45304C"/>
<path d="M30.08 1.82199C32.0056 1.82199 33.6392 2.19264 35.0142 2.76374C35.0531 2.51272 35.0735 2.25546 35.0735 1.99354C35.0734 -0.764349 32.8377 -3 30.08 -3C27.3222 -3 25.0864 -0.764349 25.0864 1.99354C25.0864 2.25546 25.1069 2.5126 25.1457 2.76374C26.5208 2.19264 28.1544 1.82199 30.08 1.82199Z" fill="#56415E"/>
<path d="M30.08 0.764043C28.1174 -1.19855 30.08 -3 30.08 -3C27.3222 -3 25.0864 -0.764349 25.0864 1.99354C25.0864 2.25546 25.1069 2.5126 25.1457 2.76374C26.5208 2.19264 28.1544 1.82211 30.08 1.82211V0.764043Z" fill="#45304C"/>
<path d="M24.2734 3.48936C25.8142 2.69443 27.7301 2.1428 30.0803 2.1428C32.4304 2.1428 34.3464 2.69443 35.8871 3.48948C36.1608 3.63066 36.4249 3.78421 36.6811 3.94719C35.1346 2.00811 32.7533 0.764038 30.0803 0.764038C27.4072 0.764038 25.026 2.00798 23.4795 3.94707C23.7355 3.78409 23.9998 3.63054 24.2734 3.48936Z" fill="#D3DCFB"/>
<path d="M20.3215 17.4286C20.4612 16.9715 20.6524 16.5757 20.9109 16.2844C21.1435 16.0223 21.2895 15.6979 21.2999 15.3509C21.3604 13.3238 22.1395 6.75618 29.6219 9.62451C29.9159 9.73716 30.2441 9.73716 30.5381 9.62451C38.0205 6.75618 38.7996 13.3238 38.8601 15.3509C38.8705 15.6979 39.0165 16.0223 39.2491 16.2844C39.5076 16.5757 39.6987 16.9715 39.8385 17.4286V17.4285C40.2176 17.1757 40.8062 17.0015 41.3381 17.014L41.3382 17.0124V12.0923C41.3382 8.36391 39.2598 4.90856 35.8868 3.16846C34.3461 2.37353 32.4301 1.8219 30.08 1.8219C27.7298 1.8219 25.8139 2.37353 24.2731 3.16846C20.9002 4.90856 18.8218 8.36391 18.8218 12.0923V17.0124L18.8219 17.014C19.3538 17.0016 19.9424 17.1759 20.3215 17.4286Z" fill="#56415E"/>
<path d="M30.08 1.82202C27.7298 1.82202 25.8139 2.37365 24.2731 3.16858C20.9002 4.90868 18.8218 8.36404 18.8218 12.0924V17.0125L18.8219 17.0141C19.3539 17.0016 19.9424 17.176 20.3215 17.4286C20.4612 16.9715 20.6524 16.5757 20.9109 16.2844C21.1435 16.0223 21.2895 15.6979 21.2999 15.3509C21.3593 13.3627 22.1107 7.00768 29.1993 9.47084C29.1697 9.43215 29.1413 9.39321 29.1092 9.35501C25.7833 5.39627 30.08 1.82202 30.08 1.82202Z" fill="#45304C"/>
<path d="M20.2291 23.2738C20.2291 23.2738 19.6184 19.4093 20.3218 17.1077C19.6836 16.6824 18.4507 16.4747 17.8962 17.0168C16.7609 18.1266 17.5928 19.8027 17.9909 20.8614C18.1131 21.1865 18.1919 21.5152 18.2276 21.8446C18.3051 22.5603 18.6931 23.6079 20.3021 23.5833C20.2777 23.4802 20.2528 23.3787 20.2291 23.2738Z" fill="#FC9460"/>
<path d="M42.2644 17.0168C41.7099 16.4747 40.4769 16.6824 39.8389 17.1077C40.5422 19.4093 39.9316 23.2738 39.9316 23.2738C39.9078 23.3787 39.8829 23.4802 39.8586 23.5833C41.4677 23.608 41.8557 22.5605 41.9332 21.8446C41.9688 21.5152 42.0477 21.1865 42.1699 20.8614C42.5679 19.8027 43.3998 18.1266 42.2644 17.0168Z" fill="#FFAA7B"/>
<path d="M39.3094 15.9104C39.0776 15.6491 38.95 15.3438 38.9406 15.0277C38.9047 13.8243 38.6008 10.8789 36.5596 9.51962C35.1116 8.55546 33.0762 8.5655 30.5097 9.54974C30.2327 9.6559 29.9277 9.6559 29.6508 9.54974C29.3397 9.43047 29.0366 9.32615 28.7412 9.23542C26.6635 10.6286 26.3534 13.6324 26.3168 14.8609C26.3071 15.1844 26.1769 15.4964 25.9396 15.7636C24.6324 17.2366 24.9187 21.5402 25.2236 23.3119C25.899 26.293 26.8774 28.8924 28.131 31.0381C29.1679 32.8126 30.6413 34.2634 32.4347 35.2962C34.4265 34.2766 36.0533 32.7518 37.1664 30.8465C38.3921 28.7489 39.3488 26.207 40.0106 23.2863C40.2972 21.4651 40.6023 17.3674 39.3094 15.9104Z" fill="#FFC7AB"/>
<path d="M28.2323 30.8465C27.0063 28.7484 26.0497 26.2066 25.3893 23.2915C25.091 21.559 24.8112 17.3508 26.0893 15.9104C26.3214 15.6491 26.4488 15.3439 26.4583 15.0276C26.4941 13.8242 26.7981 10.8786 28.8393 9.51946C28.9271 9.46093 29.0173 9.40632 29.1095 9.35501C26.7972 8.57061 24.9454 8.62449 23.6011 9.51946C21.5597 10.8788 21.2559 13.8242 21.2201 15.0276C21.2106 15.3439 21.0832 15.6491 20.8511 15.9104C19.5729 17.3507 19.8528 21.559 20.1511 23.2915C20.8116 26.2066 21.7683 28.7484 22.9941 30.8465C24.2387 32.9765 26.1235 34.6331 28.4446 35.6373C29.4843 36.0869 30.6765 36.0871 31.7159 35.6373C32.0536 35.4912 32.3808 35.3297 32.6993 35.1566C30.8281 34.1394 29.2959 32.6666 28.2323 30.8465Z" fill="#FFAA7B"/>
<path d="M48.3828 5.9856C46.4206 7.58611 44.4454 10.1547 45.6095 13.5618C47.6872 19.6429 42.2543 27.9482 48.3586 34.0525C51.9509 37.6447 56.2449 37.4733 59.1711 36.724C59.7128 34.4689 60.0001 32.1147 60.0001 29.6933C60 20.0519 55.4508 11.4739 48.3828 5.9856Z" fill="#FFDD40"/>
<path d="M11.6171 5.9856C13.5793 7.58611 15.5545 10.1547 14.3904 13.5618C12.3127 19.6429 17.7456 27.9482 11.6414 34.0525C8.0491 37.6447 3.7551 37.4733 0.828849 36.724C0.28714 34.4689 0 32.1147 0 29.6933C0 20.0519 4.54918 11.4739 11.6171 5.9856Z" fill="#FFDD40"/>
<path d="M50.3409 51.7422C49.7371 49.3259 48.2396 47.9243 47.0257 47.1568C46.2603 46.6729 45.2622 47.2176 45.2622 48.1232V55.5251C47.0886 54.4436 48.7903 53.1735 50.3409 51.7422Z" fill="#548BED"/>
<path d="M37.4556 35.9745C37.4556 39.2516 37.9962 42.4475 40.3271 42.8436C41.2421 39.6846 42.2738 36.569 40.8567 31.6059C40.8225 31.4863 40.7904 31.3694 40.7579 31.2518C39.2431 32.0639 37.4556 33.5381 37.4556 35.9745Z" fill="#56415E"/>
</g>
</svg>
