<svg width="60" height="60" viewBox="0 0 60 60" fill="none" xmlns="http://www.w3.org/2000/svg">
<mask id="mask0_202_291" style="mask-type:alpha" maskUnits="userSpaceOnUse" x="0" y="0" width="60" height="60">
<circle cx="30" cy="30" r="30" fill="#E4E4E4"/>
</mask>
<g mask="url(#mask0_202_291)">
<path d="M56.2204 44.2772C58.627 39.9596 60 34.9871 60 29.6934C60 13.1248 46.5686 -0.306641 30 -0.306641C13.4314 -0.306641 0 13.1248 0 29.6934C0 34.9871 1.37301 39.9596 3.7796 44.2772H56.2204Z" fill="#FF4155"/>
<path d="M39.0736 35.5723C39.0741 35.5719 39.0745 35.5714 39.0745 35.5714C39.0022 35.5511 38.9286 35.5325 38.8555 35.5132C38.8313 35.5068 38.8073 35.4998 38.783 35.4934L38.7825 35.4938C38.5361 35.429 38.2883 35.3665 38.0376 35.3085C36.7945 34.0655 36.4793 31.7087 36.4226 30.0598C35.7739 30.8154 35.0931 31.4475 34.4425 31.9526C33.1749 32.937 31.6109 33.4716 30 33.4716C28.389 33.4716 26.8249 32.937 25.5574 31.9526C24.9069 31.4475 24.2259 30.8153 23.5772 30.0598C23.5204 31.7087 23.2053 34.0655 21.9621 35.3085C21.7079 35.3672 21.4566 35.4309 21.2067 35.4965C21.2067 35.4965 21.2065 35.4963 21.2062 35.4961C21.1831 35.5021 21.1602 35.5087 21.1371 35.5149C21.0631 35.5345 20.9886 35.5533 20.9149 35.5735C20.9149 35.5735 20.9159 35.5744 20.9163 35.5747C19.7708 35.8885 18.6653 36.2721 17.585 36.725V39.6472C19.5989 42.4 22.2935 44.1162 23.8358 44.7645C24.529 45.0558 25.2678 45.2034 26.032 45.2034H28.1974L28.727 45.3871H31.2727L31.8023 45.2034H33.9676C34.7317 45.2034 35.4706 45.0556 36.1637 44.7645C37.6974 44.1198 40.3704 42.4195 42.3807 39.6938V36.7111C41.3082 36.2634 40.2107 35.8834 39.0736 35.5723Z" fill="#FFAA7B"/>
<path d="M25.5573 31.9529C24.9068 31.4476 24.2258 30.8156 23.5771 30.0599C23.5203 31.7088 23.2052 34.0656 21.9621 35.3087C21.7078 35.3673 21.4567 35.431 21.2068 35.4967C21.2068 35.4967 21.2065 35.4965 21.2063 35.4964C21.1831 35.5025 21.1602 35.509 21.1371 35.5152C21.0631 35.5348 20.9887 35.5537 20.915 35.5739C20.915 35.5739 20.9159 35.5747 20.9164 35.5751C20.4694 35.6976 20.03 35.8338 19.5942 35.9776C20.8079 38.8756 23.3556 43.8662 26.0509 42.4839C29.7916 40.5655 29.9999 33.4717 29.9999 33.4717C28.3889 33.4717 26.8248 32.9371 25.5573 31.9529Z" fill="#FC9460"/>
<path d="M40.7611 41.459C39.0939 42.9997 37.3104 43.9155 36.1637 44.3975C35.4705 44.6888 34.7316 44.8365 33.9676 44.8365H31.8022L31.2726 45.0201C30.3614 45.0201 29.6382 45.0201 28.7269 45.0201L28.1973 44.8365H26.032C25.2679 44.8365 24.529 44.6887 23.8357 44.3975C23.5893 44.2939 23.312 44.1689 23.0141 44.0233V53.1364C23.0141 53.1364 20.6787 55.443 22.3987 58.72C24.8265 59.354 27.3733 59.6933 29.9998 59.6933C37.286 59.6933 43.965 57.095 49.1624 52.7753C49.1624 52.6255 49.1624 52.477 49.1624 52.3318C49.1624 47.77 43.695 43.4493 40.7611 41.459Z" fill="#FFC839"/>
<path d="M23.2592 53.1363V44.1406C22.1409 43.6169 20.6538 42.7645 19.247 41.4666C16.3191 43.4517 10.8491 47.7702 10.8491 52.33V52.7853C14.2435 55.6035 18.2693 57.6874 22.6829 58.7938C20.8884 55.4778 23.2592 53.1363 23.2592 53.1363Z" fill="#FFB332"/>
<path d="M56.2205 44.2772C56.1943 44.2266 56.1687 44.1753 56.1422 44.1253C55.1625 42.2825 53.5172 40.8823 51.5541 40.1733L43.2486 37.1738C43.4015 37.4823 43.5056 37.9386 43.2096 38.4413C42.4354 39.7567 41.4858 40.8252 40.5098 41.6858C43.2528 43.5141 48.8094 47.7733 48.8094 52.2772V53.0629C51.8088 50.6458 54.3329 47.6636 56.2205 44.2772Z" fill="#FFDD40"/>
<path d="M16.7905 38.4414C16.4945 37.9388 16.5987 37.4824 16.7516 37.174L8.44603 40.1734C6.48307 40.8824 4.83774 42.2826 3.85803 44.1254C3.83146 44.1754 3.80587 44.2267 3.77979 44.2773C5.66732 47.6636 8.19134 50.6459 11.1908 53.063C11.1908 52.7945 11.1908 52.5317 11.1908 52.2773C11.1908 47.7734 16.7473 43.5143 19.4903 41.6859C18.5143 40.8253 17.5649 39.7569 16.7905 38.4414Z" fill="#FFC839"/>
<path d="M44.099 32.9055C43.1915 30.7881 40.2483 29.5505 36.3734 28.2532L36.1076 30.3751C36.1076 30.3751 38.553 40.025 31.2729 45.0201H34.8139C35.8057 45.0201 36.7867 44.8116 37.6902 44.4022C38.826 43.8875 40.4188 43.0508 41.8385 41.8906C44.4919 39.722 45.449 36.0553 44.099 32.9055Z" fill="#FEE77F"/>
<path d="M24.1695 38.7889C22.821 38.4419 19.3634 37.9892 18.4424 42.1139C19.7878 43.1586 21.2484 43.9211 22.3099 44.4022C23.2133 44.8117 24.1943 45.0201 25.1861 45.0201H28.727C26.2205 43.3002 24.8671 41.0285 24.1695 38.7889Z" fill="#FEE77F"/>
<path d="M23.8926 30.3751L23.6268 28.2532C19.7519 29.5505 16.8087 30.788 15.9012 32.9055C14.5512 36.0553 15.5083 39.722 18.1618 41.8905C18.3208 42.0204 18.482 42.1455 18.6444 42.2672C19.5641 37.3437 24.3041 39.196 24.3041 39.196L24.3042 39.1951C22.7743 34.7914 23.8926 30.3751 23.8926 30.3751Z" fill="#FFDD40"/>
<path d="M23.2591 53.1363C22.6844 53.1363 22.2144 52.6662 22.2144 52.0916V43.5101C22.2144 42.9354 22.6844 42.4653 23.2591 42.4653C23.8337 42.4653 24.3038 42.9354 24.3038 43.5101V52.0916C24.3038 52.6662 23.8337 53.1363 23.2591 53.1363Z" fill="#DEEEFF"/>
<path d="M36.7068 53.1363C36.1322 53.1363 35.6621 52.6662 35.6621 52.0916V43.5101C35.6621 42.9354 36.1322 42.4653 36.7068 42.4653C37.2815 42.4653 37.7516 42.9354 37.7516 43.5101V52.0916C37.7516 52.6662 37.2815 53.1363 36.7068 53.1363Z" fill="#DEEEFF"/>
<path d="M49.0531 6.51978C46.8771 8.00691 45.2303 10.2841 45.8037 13.7075C47.3062 22.6772 40.3856 27.2533 51.2016 32.0623C55.0471 33.7722 57.4691 35.7725 58.9773 37.4827C59.6439 34.9987 60.0002 32.3876 60.0002 29.6932C60.0002 20.3597 55.7376 12.022 49.0531 6.51978Z" fill="#FF7186"/>
<path d="M10.9471 6.51978C13.1231 8.00691 14.7699 10.2841 14.1965 13.7075C12.6941 22.6772 19.6146 27.2533 8.79862 32.0623C4.95314 33.7722 2.53112 35.7725 1.02293 37.4827C0.356324 34.9987 0 32.3876 0 29.6932C0 20.3597 4.26266 12.022 10.9471 6.51978Z" fill="#FF7186"/>
<path d="M41.6853 16.3568C42.4817 13.1091 43.1322 8.24277 41.4102 4.19366C38.0805 -3.63616 29.0185 -3.15347 26.617 -2.87772C26.3649 -2.84882 26.2384 -2.56119 26.3818 -2.35192C27.8213 -0.250471 22.1817 -2.15441 19.1165 4.27533C17.1737 8.35027 17.6619 13.148 18.3721 16.3569H41.6853V16.3568Z" fill="#945230"/>
<path d="M29.8682 5.62692C29.8682 5.62692 28.9656 3.55094 31.2515 1.83667C33.5345 0.1246 30.1313 -2.95141 30.1225 -2.95937C28.5912 -3.05635 27.3191 -2.95839 26.617 -2.8777C26.3649 -2.84868 26.2384 -2.56117 26.3818 -2.35191C27.8213 -0.250458 22.1817 -2.1544 19.1165 4.27534C17.1737 8.35041 17.6619 13.1482 18.3721 16.3569H23.7012L25.3939 15.6844L29.8682 5.62692Z" fill="#753616"/>
<path d="M42.1536 15.9452C41.6512 15.4848 40.528 15.7182 40.0952 16.0001C40.19 16.5904 40.1954 17.1943 40.1136 17.7906L39.603 21.5096C39.603 21.8094 39.5936 22.1035 39.5762 22.3925C40.8213 22.768 41.5623 21.6502 41.6665 20.8831C41.7113 20.5528 41.7846 20.2273 41.8864 19.9097C42.2175 18.8755 43.4123 17.0988 42.1536 15.9452Z" fill="#FFAA7B"/>
<path d="M17.8465 15.9452C18.3489 15.4848 19.4721 15.7182 19.9049 16.0001C19.8101 16.5904 19.8047 17.1943 19.8866 17.7906L20.3972 21.5096C20.3972 21.8094 20.4067 22.1035 20.424 22.3925C19.1789 22.768 18.4379 21.6502 18.3337 20.8831C18.2889 20.5528 18.2156 20.2273 18.1138 19.9097C17.7826 18.8755 16.5877 17.0988 17.8465 15.9452Z" fill="#FC9460"/>
<path d="M39.4682 13.9612C38.9024 13.0736 39.0899 12.3486 39.099 11.4996C39.099 11.4996 39.5763 7.59146 34.763 6.20376C33.3696 5.80201 31.4032 5.56177 29.3883 5.63903C27.9861 6.62755 27.0628 8.07807 27.0628 10.1335C27.0628 11.0782 27.2664 11.8164 26.6866 12.7742C26.0615 13.807 25.6977 15.2969 25.9043 16.8813L26.4246 20.8718C26.4246 26.6087 29.3325 30.5081 31.806 32.5309C32.1579 32.8187 32.5335 33.0676 32.9252 33.2817C33.4631 33.0448 33.9732 32.7424 34.4425 32.378C36.8707 30.4923 39.7254 26.8574 39.7254 21.5098L40.236 17.7908C40.4374 16.3254 40.0882 14.9339 39.4682 13.9612Z" fill="#FFC7AB"/>
<path d="M31.8311 32.2973C29.4028 30.3115 26.548 26.4835 26.548 20.8515L26.0373 16.934C25.8345 15.3787 26.1916 13.9161 26.8053 12.9021C27.3743 11.9618 27.1745 11.2372 27.1745 10.3096C27.1745 8.09661 28.2628 6.59588 29.8682 5.62683C25.5904 5.68597 20.9007 7.136 20.9007 11.4997C20.9007 12.3803 21.1007 13.0685 20.5316 13.9614C19.9179 14.9242 19.5608 16.313 19.7636 17.79L20.2743 21.5098C20.2743 26.8576 23.1289 30.4925 25.5573 32.378C26.8248 33.3623 28.3889 33.8969 29.9999 33.8969C31.1081 33.8969 32.1941 33.6439 33.1766 33.1655C32.7018 32.9297 32.25 32.64 31.8311 32.2973Z" fill="#FFAA7B"/>
<path d="M36.8749 25.8172C36.5909 24.124 35.3692 22.4286 33.7382 22.0587L31.2453 21.3263C30.812 21.1991 30.3781 21.4213 30.2036 21.7987C30.1718 21.8676 30.0754 21.8676 30.0435 21.7987C29.8689 21.4213 29.435 21.1991 29.0017 21.3263L26.5088 22.0587C26.4469 22.0727 26.386 22.0891 26.3254 22.1069H26.3486C26.0845 22.7282 25.628 24.2712 26.9274 25.45C27.3471 25.2358 27.796 25.0719 28.2671 24.9678L28.7123 24.8694C29.3613 24.7262 29.8632 24.0926 30.0473 23.4176C30.0683 23.3401 30.1785 23.3401 30.1997 23.4176C30.3838 24.0926 30.8856 24.7262 31.5347 24.8694L31.98 24.9678C33.2598 25.2503 34.3812 25.9665 35.1744 26.9675C35.0102 27.6975 34.4953 28.8069 32.8996 29.3708C31.8289 29.749 30.6605 29.0757 30.5234 27.9611C30.5216 27.9467 30.5199 27.9322 30.5183 27.9175C30.4958 27.7097 30.3218 27.55 30.11 27.55C29.8983 27.55 29.7241 27.7097 29.7016 27.9175C29.7 27.9322 29.6983 27.9467 29.6966 27.9611C29.6229 28.5603 29.2499 29.0297 28.7556 29.2792C28.6182 29.8238 28.4359 30.9981 29.0044 32.1383C29.4156 32.963 30.1374 33.6012 31.1541 34.0436C31.6691 33.9397 32.1737 33.7682 32.6524 33.5246C35.1472 32.2544 38.4642 30.0476 39.5252 24.3705C39.6124 23.9037 39.6568 23.4291 39.6568 22.9541C39.2528 23.9508 38.4133 25.1499 36.8749 25.8172Z" fill="#945230"/>
<path d="M27.3298 33.5232C28.6179 34.1797 30.0904 34.3281 31.4633 33.9726C28.1084 32.6722 28.8018 29.7431 28.9844 29.1424C28.5245 29.4677 27.9081 29.5786 27.3202 29.3709C25.8471 28.8504 25.2134 27.8645 24.9409 27.1417C25.5 26.3769 26.2448 25.7643 27.1053 25.3628C25.6907 24.1395 26.3621 22.4818 26.5803 22.0377L26.5086 22.0588C24.8454 22.4359 23.6071 24.1915 23.3555 25.9175C21.6538 25.2759 20.768 24.0029 20.3433 22.9542V22.9547C20.3433 23.429 20.3875 23.903 20.4745 24.3691C21.5336 30.0452 24.8347 32.2517 27.3298 33.5232Z" fill="#753616"/>
</g>
</svg>
