<svg width="60" height="60" viewBox="0 0 60 60" fill="none" xmlns="http://www.w3.org/2000/svg">
<circle cx="30" cy="30" r="30" fill="#F84CBB"/>
<path d="M16.1019 24.6323L20.1901 31.3358L21.9036 24.9036L16.1008 24.6323H16.1019ZM38.5957 24.8329L31.8299 22.5884L36.3819 32.4639L38.5957 24.8318V24.8329ZM33.2822 22.3578L38.7985 24.1873L44.8779 15.5965L36.7687 22.2763L36.7246 22.3063C36.7037 22.3192 36.6817 22.3299 36.6585 22.3374L36.6409 22.3428C36.6067 22.3535 36.5737 22.3578 36.5439 22.3578H33.2811H33.2822ZM27.0431 46.096L29.4365 44.5121H25.9819L27.0442 46.096H27.0431ZM31.302 43.8354H36.0591L36.2717 43.5813L33.3417 41.4569L31.3031 43.8354H31.302ZM35.4938 44.5121H31.6998L34.1538 46.1164L35.4938 44.5121ZM30.5626 44.5807L28.0712 46.2301H33.085L30.5626 44.5807ZM25.5279 43.8365H29.9048L28.3191 41.5824L25.2436 43.4108L25.529 43.8365H25.5279ZM24.9141 41.1202L28.0094 40.8285L27.3108 37.1953L24.9152 41.1202H24.9141ZM26.9516 41.606L24.7069 41.8172L24.9725 42.7813L26.9516 41.6049V41.606ZM34.8007 41.6757L36.5748 42.9625L36.8249 42.1196L34.7996 41.6757H34.8007ZM29.064 41.4483L30.5891 43.6167L32.5274 41.3561L29.064 41.4483ZM28.7048 40.7834L29.9312 40.7502L28.1637 37.9674L28.7048 40.7824V40.7834ZM33.6954 40.7416L36.631 41.3851L34.4877 37.1095L33.6965 40.7427L33.6954 40.7416ZM37.7175 40.9507L41.2415 37.5481L38.2255 36.6891L37.7175 40.9507ZM41.9577 37.8076L37.5665 42.0467L37.3836 42.6633L43.1919 38.5057L41.9577 37.8065V37.8076ZM20.1185 37.6607L23.8342 40.7234L23.3868 36.4639L20.1185 37.6617V37.6607ZM24.189 42.5454L23.9587 41.71L19.3758 37.9331L17.7967 38.5121L24.189 42.5464V42.5454ZM17.2226 38.0006L18.8524 37.4033L15.4232 33.8505L17.2215 38.0006H17.2226ZM19.8871 37.0248L23.0981 35.8484L20.5427 32.9754L19.8871 37.0248ZM24.0722 36.3588L24.5042 40.4703L26.8954 36.5529L24.0722 36.3588ZM43.6679 37.9963L45.3792 34.3942L42.4602 37.3122L43.6679 37.9963ZM46.2718 32.3921L45.5864 25.3358L41.3803 32.1197L46.2718 32.3921ZM45.5093 23.9632L46.1958 14.9251L39.5952 24.2527L45.5093 23.9632ZM38.977 26.0028L36.9505 32.9883L40.3753 32.1755L38.977 26.0028ZM36.0536 33.4055L32.2453 25.1439L34.5362 35.3047L36.0525 33.4055H36.0536ZM30.2519 24.2366L25.0441 32.8704L27.3119 35.5299L30.253 24.2377L30.2519 24.2366ZM24.1472 32.4768L22.3499 25.916L20.762 31.8773L24.1472 32.4768ZM21.7416 24.2248L16.2562 14.5552L15.8617 23.9492L21.7416 24.2248ZM15.6821 25.2715L14.7499 31.9116L19.7108 31.8773L15.681 25.2715H15.6821ZM39.4431 24.9369L40.9362 31.5277L45.1963 24.6548L39.4431 24.9369ZM30.4414 22.5905L22.7664 24.82L24.7433 32.0371L30.4414 22.5916V22.5905ZM23.8518 35.666L26.6937 35.8612L24.4348 33.2114L21.1499 32.6291L23.8507 35.665L23.8518 35.666ZM35.0387 35.7754L37.7572 35.9084L39.95 32.9701L36.6541 33.7518L35.0376 35.7754H35.0387ZM41.2227 32.7856L42.1032 36.7009L45.766 33.0387L41.2216 32.7856H41.2227ZM38.4977 36.065L41.4387 36.9025L40.6123 33.2307L38.4977 36.065ZM15.1488 32.5808L19.2215 36.8006L19.9102 32.5476L15.1477 32.5808H15.1488ZM27.853 36.199L30.2331 39.9459L30.7345 25.1321L27.853 36.2001V36.199ZM31.442 24.7278L30.9241 40.007L33.9841 36.0028L31.442 24.7278ZM33.6888 37.5191L31.2458 40.7159L33.0034 40.6687L33.6899 37.5191H33.6888ZM34.9263 36.4457L37.0508 40.6837L37.5412 36.5733L34.9252 36.4457H34.9263ZM22.4348 24.0468L24.6574 22.0168L17.389 15.1525L22.4348 24.0468ZM25.2954 22.36L23.6557 23.857L28.8106 22.36H25.2965H25.2954ZM34.2233 46.9078C32.685 46.9078 28.0557 47.1201 26.8723 46.9003C26.8348 46.8928 26.7995 46.8789 26.7687 46.8596C26.502 46.7137 24.9857 44.2644 24.5075 43.5502C22.4072 42.2247 18.5339 40.0993 16.784 38.6676L16.7378 38.6087C16.7223 38.5861 16.7113 38.5615 16.7036 38.5368C12.9824 29.9535 13.7548 34.1207 15.1708 23.9503C15.2667 21.6672 15.2094 15.012 15.6281 13.2479C15.6358 13.2179 15.6491 13.1911 15.6656 13.1654L15.67 13.1589C15.6876 13.1289 15.7108 13.1032 15.7383 13.0817L15.7736 13.056C15.7978 13.0399 15.8232 13.0281 15.8496 13.0206C15.8849 13.0077 15.9212 13.0013 15.9587 13.0013C15.9918 12.9949 16.0568 13.0142 16.0876 13.0227C16.1108 13.0313 16.1328 13.042 16.1537 13.0549C17.9124 14.1959 23.3725 19.8645 25.3009 21.6865H36.4216C39.5015 19.1492 43.29 15.6576 46.447 13.4302C46.4779 13.4099 46.512 13.3949 46.5473 13.3873C46.6167 13.3648 46.6828 13.3756 46.7522 13.3927L46.8018 13.4142L46.8382 13.4367C46.8856 13.4753 46.9032 13.4903 46.9374 13.5407C46.9506 13.5621 46.9605 13.5847 46.9682 13.6083C47.1765 14.3482 46.2971 22.8007 46.1836 24.2945C46.3941 26.4597 47.0575 30.6312 46.9858 32.5787C46.9847 32.6033 46.9803 32.628 46.9737 32.6505L46.9528 32.7074C43.0343 40.9454 45.4442 37.7411 37.0133 43.7754C36.2266 44.7159 35.2271 46.1067 34.4646 46.8231C34.4447 46.8413 34.4227 46.8574 34.3985 46.8692C34.3731 46.8831 34.3478 46.8928 34.3224 46.8992C34.2839 46.91 34.2596 46.9067 34.2277 46.9132L34.2233 46.9078Z" fill="white"/>
</svg>
