<svg width="30" height="30" viewBox="0 0 30 30" fill="none" xmlns="http://www.w3.org/2000/svg">
<path d="M25.3125 16.875C25.3125 22.7941 20.9244 27.6885 15.2232 28.4812C14.1421 28.6312 13.0454 28.6312 11.9643 28.4812C6.26309 27.6885 1.875 22.7941 1.875 16.875C1.875 10.9559 6.26309 6.06152 11.9643 5.26875C13.0454 5.11875 14.1421 5.11875 15.2232 5.26875C20.9244 6.06152 25.3125 10.9559 25.3125 16.875Z" fill="#117F40"/>
<path d="M28.125 19.2188C28.125 21.7052 27.1373 24.0897 25.3791 25.8479C23.621 27.606 21.2364 28.5938 18.75 28.5938C16.2636 28.5938 13.879 27.606 12.1209 25.8479C10.3627 24.0897 9.375 21.7052 9.375 19.2188H28.125Z" fill="#85BB40"/>
<path d="M26.25 19.2188C26.25 21.2079 25.4598 23.1155 24.0533 24.5221C22.6468 25.9286 20.7391 26.7188 18.75 26.7188C16.7609 26.7188 14.8532 25.9286 13.4467 24.5221C12.0402 23.1155 11.25 21.2079 11.25 19.2188H26.25Z" fill="#EB5849"/>
<path d="M5.49199 24.6804C3.46726 22.5871 2.33795 19.7873 2.34375 16.875C2.34375 12.3587 5.01926 8.45607 8.86816 6.66709C8.60795 6.97143 8.44166 7.33793 8.28006 7.695C8.15273 7.97625 8.03244 8.24232 7.87441 8.46199C7.73297 8.65863 7.52244 8.84742 7.29955 9.04735C6.94893 9.36188 6.55143 9.71842 6.32437 10.2084C6.11994 10.6495 6.10125 11.1259 6.08309 11.5866C6.07037 11.9119 6.0583 12.2194 5.98242 12.4886C5.91357 12.733 5.76727 12.9904 5.61234 13.263C5.39062 13.6538 5.13867 14.0966 5.07117 14.6038C5.00795 15.0784 5.12268 15.5331 5.23359 15.9728C5.31445 16.2927 5.39062 16.5949 5.39062 16.875C5.39062 17.1551 5.31445 17.4573 5.23365 17.7773C5.12273 18.2168 5.00801 18.6718 5.07123 19.1464C5.13867 19.6535 5.39063 20.0964 5.6124 20.4871C5.76732 20.7598 5.91363 21.0172 5.98248 21.2616C6.05865 21.5312 6.07037 21.8382 6.08314 22.1635C6.10131 22.6242 6.12 23.1006 6.32443 23.5417C6.55148 24.0317 6.94893 24.3882 7.29961 24.7028C7.52227 24.9026 7.7332 25.0915 7.87441 25.2881C8.0195 25.5047 8.14331 25.7348 8.24414 25.9752L9.09768 25.5873C8.97192 25.2905 8.81717 25.0069 8.63566 24.7406C8.43486 24.4615 8.17605 24.2293 7.92586 24.0049C7.6149 23.726 7.32123 23.4626 7.17527 23.1476C7.04971 22.8765 7.03535 22.5123 7.02023 22.1266C7.00582 21.7612 6.99094 21.3834 6.88506 21.0075C6.78545 20.6534 6.60352 20.3337 6.42773 20.0241C6.23051 19.6769 6.04418 19.3491 6.0007 19.0226C5.96127 18.7266 6.04951 18.3769 6.14291 18.0067C6.23385 17.6453 6.32812 17.2716 6.32812 16.875C6.32812 16.4784 6.23385 16.1047 6.14262 15.7434C6.04922 15.3732 5.96098 15.0236 6.00041 14.7276C6.04389 14.4012 6.23021 14.0733 6.42744 13.7262C6.60322 13.4168 6.78486 13.0969 6.88477 12.7427C6.9907 12.3668 7.00559 11.9889 7.01994 11.6236C7.03506 11.2379 7.04924 10.8736 7.17498 10.6027C7.32094 10.2877 7.61443 10.0242 7.92557 9.74531C8.17582 9.52084 8.43463 9.28869 8.63543 9.00961C8.84801 8.71406 8.9935 8.39256 9.13424 8.08166C9.30193 7.71106 9.46037 7.36096 9.69527 7.16074C9.98238 6.916 10.402 6.81627 10.8461 6.71063C11.1332 6.64998 11.4153 6.56747 11.6899 6.46383C11.6957 6.46137 11.7016 6.45832 11.708 6.4558C11.4772 6.77086 11.2045 7.15787 11.0328 7.6592C10.9161 7.99986 10.8771 8.37445 10.8394 8.73668C10.8169 9.00212 10.7792 9.26605 10.7265 9.52717C10.6693 9.75388 10.5977 9.97672 10.5122 10.1943C10.3915 10.5238 10.2544 10.8974 10.1938 11.3059C10.1411 11.6583 10.1571 12.0154 10.1722 12.3606C10.1907 12.6337 10.1907 12.9078 10.1722 13.1809C10.1417 13.4331 10.094 13.683 10.0293 13.9287C9.94781 14.2728 9.86355 14.6286 9.84656 15.0142C9.83068 15.3733 9.88061 15.7239 9.92859 16.063C9.97373 16.3315 10 16.6028 10.0073 16.875C10.0001 17.1477 9.97387 17.4195 9.92877 17.6885L9.92051 17.7468L10.8487 17.8782L10.8569 17.8206C10.9087 17.5079 10.9381 17.1919 10.9448 16.875C10.938 16.5587 10.9086 16.2432 10.8569 15.9311C10.8128 15.6206 10.7711 15.3276 10.7831 15.0557C10.7962 14.7586 10.8668 14.4605 10.9413 14.1449C11.0165 13.8566 11.0714 13.5632 11.1053 13.2671C11.1281 12.9516 11.129 12.6349 11.1081 12.3193C11.0943 12.0045 11.0812 11.7071 11.1204 11.4439C11.1673 11.1298 11.2763 10.832 11.3917 10.5167C11.4919 10.2607 11.5751 9.99844 11.6408 9.73154C11.7019 9.43511 11.7454 9.13533 11.7712 8.83377C11.8049 8.50934 11.8369 8.20283 11.9191 7.96277C12.0553 7.56539 12.2848 7.25285 12.5068 6.95068C12.6059 6.81592 12.6994 6.68842 12.7845 6.55471C12.9918 6.2298 13.3764 5.625 13.5938 5.625C13.8111 5.625 14.1957 6.2298 14.4023 6.55471C14.4874 6.68842 14.5809 6.8158 14.68 6.95068C14.902 7.25285 15.1315 7.56539 15.2677 7.96277C15.3497 8.20301 15.3819 8.50934 15.4156 8.83377C15.4414 9.13533 15.4849 9.43511 15.546 9.73154C15.6117 9.99844 15.6949 10.2607 15.7951 10.5167C15.9105 10.832 16.0196 11.1298 16.0664 11.4439C16.1056 11.7071 16.0925 12.0045 16.0787 12.3193C16.0578 12.6349 16.0587 12.9516 16.0815 13.2671C16.1154 13.5632 16.1703 13.8566 16.2455 14.1449C16.3202 14.4605 16.3908 14.7586 16.4037 15.0557C16.4154 15.3277 16.374 15.6208 16.3299 15.9311C16.2782 16.2432 16.2488 16.5587 16.242 16.875C16.2487 17.1919 16.2781 17.5079 16.3299 17.8206L16.3381 17.8782L17.2663 17.7468L17.258 17.6885C17.2132 17.4195 17.1872 17.1477 17.1802 16.875C17.1874 16.6029 17.2135 16.3316 17.2586 16.0631C17.3067 15.724 17.3566 15.3735 17.3406 15.0143C17.3236 14.6287 17.2393 14.2729 17.1578 13.9288C17.0932 13.6831 17.0454 13.4333 17.0149 13.181C16.9965 12.9079 16.9965 12.6338 17.0149 12.3607C17.0301 12.0154 17.0459 11.6583 16.9934 11.306C16.9325 10.8973 16.7957 10.5239 16.675 10.1944C16.5894 9.97683 16.5179 9.754 16.4607 9.52729C16.4079 9.26617 16.3702 9.00224 16.3477 8.7368C16.31 8.37457 16.2709 7.99998 16.1544 7.65932C15.9827 7.15799 15.7099 6.77098 15.4792 6.45592C15.485 6.45844 15.4909 6.46148 15.4973 6.46395C15.7718 6.56762 16.0539 6.65013 16.341 6.71074C16.7852 6.81621 17.2046 6.91611 17.4919 7.16086C17.7268 7.36107 17.8852 7.71117 18.0529 8.08178C18.1935 8.39268 18.3391 8.71418 18.5517 9.00973C18.7525 9.28881 19.0113 9.52096 19.2616 9.74543C19.5725 10.0243 19.8662 10.2878 20.0122 10.6028C20.1377 10.8738 20.1521 11.238 20.1672 11.6237C20.1816 11.9891 20.1965 12.367 20.3024 12.7429C20.402 13.0971 20.5839 13.4167 20.7597 13.7263C20.9569 14.0735 21.1433 14.4013 21.1867 14.7277C21.2262 15.0237 21.1379 15.3734 21.0445 15.7435C20.9537 16.1047 20.8594 16.4784 20.8594 16.875C20.8594 17.2376 20.9376 17.5793 21.0247 17.9265L21.934 17.6985C21.8617 17.4104 21.7969 17.1306 21.7969 16.875C21.7969 16.5949 21.873 16.2927 21.9539 15.9727C22.0648 15.5332 22.1796 15.0783 22.1163 14.6036C22.0488 14.0965 21.7972 13.6536 21.5752 13.2629C21.4202 12.9903 21.2739 12.7328 21.2051 12.4884C21.1292 12.2189 21.1172 11.9118 21.1044 11.5865C21.0863 11.1258 21.0676 10.6494 20.8631 10.2083C20.6361 9.7183 20.2386 9.36176 19.8879 9.04723C19.6653 8.84731 19.4544 8.65846 19.3131 8.46188C19.1549 8.24221 19.0348 7.97637 18.9074 7.69488C18.7458 7.33781 18.5793 6.97131 18.3193 6.66697C22.1682 8.45607 24.8438 12.3587 24.8438 16.875C24.8438 17.175 24.832 17.478 24.8083 17.7755L25.7428 17.8495C25.7683 17.5273 25.7812 17.1996 25.7812 16.875C25.7812 10.3119 20.5664 4.94467 14.0625 4.6974V3.75H15V2.8125H14.0625V2.34375C14.0625 2.06562 13.98 1.79374 13.8255 1.56248C13.671 1.33122 13.4514 1.15098 13.1944 1.04455C12.9374 0.938109 12.6547 0.910261 12.3819 0.964521C12.1091 1.01878 11.8585 1.15271 11.6619 1.34938C11.4652 1.54605 11.3313 1.79662 11.277 2.0694C11.2228 2.34219 11.2506 2.62494 11.357 2.8819C11.4635 3.13886 11.6437 3.35848 11.875 3.513C12.1062 3.66753 12.3781 3.75 12.6562 3.75H13.125V4.6974C6.62109 4.94467 1.40625 10.3119 1.40625 16.875C1.4063 20.023 2.62439 23.0489 4.80539 25.3189C6.98639 27.5889 9.96114 28.927 13.1066 29.0529L13.1434 28.1162C10.244 28.0061 7.5006 26.7743 5.49199 24.6804ZM12.6562 2.8125C12.5635 2.8125 12.4729 2.78501 12.3958 2.7335C12.3187 2.682 12.2587 2.60879 12.2232 2.52313C12.1877 2.43748 12.1784 2.34323 12.1965 2.2523C12.2146 2.16137 12.2592 2.07785 12.3248 2.01229C12.3903 1.94674 12.4739 1.90209 12.5648 1.88401C12.6557 1.86592 12.75 1.8752 12.8356 1.91068C12.9213 1.94616 12.9945 2.00624 13.046 2.08333C13.0975 2.16041 13.125 2.25104 13.125 2.34375V2.8125H12.6562Z" fill="black"/>
<path d="M28.125 18.75H9.375C9.25068 18.75 9.13145 18.7994 9.04354 18.8873C8.95564 18.9752 8.90625 19.0944 8.90625 19.2188C8.90625 24.6466 13.3221 29.0625 18.75 29.0625C24.1779 29.0625 28.5938 24.6466 28.5938 19.2188C28.5938 19.0944 28.5444 18.9752 28.4565 18.8873C28.3685 18.7994 28.2493 18.75 28.125 18.75ZM25.7653 19.6875C25.6463 21.4671 24.8555 23.135 23.553 24.3534C22.2505 25.5718 20.5336 26.2496 18.75 26.2496C16.9664 26.2496 15.2495 25.5718 13.947 24.3534C12.6445 23.135 11.8537 21.4671 11.7347 19.6875H25.7653ZM18.75 28.125C13.9965 28.125 10.1007 24.3812 9.85594 19.6875H10.7954C11.0391 23.8641 14.5137 27.1875 18.75 27.1875C22.9863 27.1875 26.4609 23.8641 26.7046 19.6875H27.6441C27.3993 24.3812 23.5035 28.125 18.75 28.125Z" fill="black"/>
<path d="M14.0625 21.0938H15V22.0312H14.0625V21.0938Z" fill="black"/>
<path d="M20.1562 23.4375H21.0938V24.375H20.1562V23.4375Z" fill="black"/>
<path d="M15.9375 23.4375H16.875V24.375H15.9375V23.4375Z" fill="black"/>
<path d="M22.9688 21.0938H23.9062V22.0312H22.9688V21.0938Z" fill="black"/>
<path d="M18.2812 21.0938H19.2188V22.0312H18.2812V21.0938Z" fill="black"/>
</svg>
