<svg width="30" height="30" viewBox="0 0 30 30" fill="none" xmlns="http://www.w3.org/2000/svg">
<g clip-path="url(#clip0_111_616)">
<path d="M22.2281 15.9611C22.2281 21.9779 17.3507 26.8556 11.3338 26.8556C5.31694 26.8556 0.439453 21.9779 0.439453 15.9611C0.439453 9.94445 5.31694 5.06674 11.3338 5.06674C17.3507 5.06674 22.2281 9.94445 22.2281 15.9611Z" fill="#FFAE4D"/>
<path d="M16.3149 8.0049C16.3149 7.03879 14.1195 6.25555 11.4111 6.25555C8.70276 6.25555 6.50732 7.03879 6.50732 8.0049C6.50732 8.97101 8.70276 9.75425 11.4111 9.75425C14.1195 9.75425 16.3149 8.97101 16.3149 8.0049Z" fill="#FF9B36"/>
<path d="M12.7364 26.7664C12.2772 26.825 11.8092 26.8556 11.3338 26.8556C5.31739 26.8556 0.439453 21.9777 0.439453 15.9613C0.439453 9.94421 5.31739 5.06696 11.3338 5.06696C11.8092 5.06696 12.2772 5.09763 12.7364 5.15599C7.38191 5.84401 3.24418 10.4191 3.24418 15.9613C3.24418 21.5028 7.38191 26.0786 12.7364 26.7664Z" fill="#FF9B36"/>
<path d="M7.57662 6.44737C8.20375 7.55539 9.46787 8.07747 10.6496 7.81356C10.9149 7.75428 11.1762 7.65495 11.4257 7.51419C12.783 6.74606 13.2609 5.0228 12.4928 3.6653C12.201 3.14986 11.6681 2.57834 11.0449 2.10982C10.0268 1.34398 8.76772 0.853254 7.92589 1.32956C6.56839 2.09769 6.80849 5.08986 7.57662 6.44737Z" fill="#479838"/>
<path d="M10.6497 7.81355C10.915 7.75427 11.1763 7.65493 11.4258 7.51417C12.7831 6.74604 13.261 5.02279 12.4929 3.66529C12.201 3.14984 11.6682 2.57832 11.045 2.1098C10.4469 2.72275 9.97654 3.42061 9.74674 4.00747C9.21001 5.37549 9.61628 6.88452 10.6497 7.81355Z" fill="#317F21"/>
<path d="M11.2239 4.38306C11.868 5.52152 11.6364 6.91656 10.7446 7.7902C10.9774 7.73001 11.2068 7.63823 11.4258 7.51417C12.7831 6.74604 13.261 5.02279 12.4928 3.66529C12.201 3.14984 11.6682 2.57832 11.0449 2.1098C10.7158 2.4474 10.4249 2.81041 10.1919 3.16701C10.6327 3.55725 10.9996 3.98687 11.2239 4.38306Z" fill="#317F21"/>
<path d="M10.3105 4.22881C9.741 5.68107 10.4565 7.31987 11.9087 7.8891C13.3608 8.45856 14.9996 7.74307 15.569 6.29081C16.1385 4.83878 15.9549 1.84294 14.5027 1.27348C13.0506 0.704025 10.8799 2.77678 10.3105 4.22881Z" fill="#77BC4D"/>
<path d="M28.9816 17.5353C29.3149 17.5353 29.5776 17.8159 29.56 18.1487C29.2414 24.1342 24.287 28.8897 18.2221 28.8897C12.1569 28.8897 7.20276 24.1342 6.88416 18.1487C6.86631 17.8159 7.12906 17.5353 7.46232 17.5353H28.9816Z" fill="#FFF4C3"/>
<path d="M27.3762 17.5353C27.3762 20.0631 26.3517 22.3519 24.695 24.0081C23.0386 25.665 20.75 26.6895 18.222 26.6895C15.6942 26.6895 13.4056 25.665 11.7492 24.0081C10.0923 22.3519 9.06787 20.0631 9.06787 17.5353H27.3762Z" fill="#F74F43"/>
<path d="M24.695 24.0081C23.0385 25.665 20.7499 26.6895 18.2222 26.6895V17.5353L24.695 24.0081Z" fill="#FF8E7D"/>
<path d="M18.2218 17.5353V26.6895C15.6938 26.6895 13.4052 25.665 11.749 24.0081L18.2218 17.5353Z" fill="#FF7061"/>
<path d="M0.878908 15.9611C0.878908 13.846 1.50719 11.8085 2.696 10.0692C3.79464 8.46174 5.30114 7.20403 7.06697 6.41439C7.10794 6.5025 7.15028 6.58605 7.19423 6.66364C7.79298 7.72153 8.88636 8.32441 10.0269 8.32441C10.4464 8.32441 10.8721 8.24155 11.2821 8.07126C11.4302 8.15801 11.5856 8.23446 11.7485 8.29832C12.1385 8.45121 12.5405 8.52376 12.9362 8.52376C14.1999 8.52376 15.3981 7.78447 15.9295 6.56888C17.4912 7.33472 18.8457 8.48371 19.8583 9.90713C19.9441 10.0275 20.0794 10.0916 20.2169 10.0916C20.3051 10.0916 20.3939 10.0653 20.4712 10.0104C20.669 9.86959 20.7152 9.59516 20.5745 9.39741C19.4488 7.81537 17.9329 6.54622 16.1852 5.71698C16.5145 4.03103 16.2014 1.46732 14.6636 0.864447C13.6551 0.468938 12.4597 1.05007 11.5013 1.90884C10.939 1.45519 10.3244 1.09974 9.7513 0.899008C8.96051 0.622289 8.25441 0.638998 7.70944 0.947302C6.37987 1.69964 6.32333 3.96512 6.76828 5.58514C4.82827 6.4391 3.17345 7.81286 1.97045 9.57342C0.681383 11.4594 0 13.6681 0 15.9611C0 18.3648 0.74341 20.6616 2.15012 22.6032C2.23618 22.7218 2.37031 22.785 2.50626 22.785C2.59575 22.785 2.68593 22.7577 2.76375 22.7012C2.96036 22.5588 3.00431 22.2839 2.86194 22.0876C1.56464 20.2968 0.878908 18.1785 0.878908 15.9611ZM13.9691 1.61587C14.1012 1.61587 14.2266 1.63715 14.3427 1.6827C15.4658 2.12307 15.6752 4.81656 15.16 6.13034C14.6801 7.35463 13.2935 7.96003 12.0694 7.48006C10.8451 6.99987 10.2397 5.61353 10.7197 4.38923C11.1816 3.21141 12.8247 1.61587 13.9691 1.61587ZM8.14226 1.71223C8.82479 1.32587 9.99415 1.84612 10.8811 2.53872C10.435 3.05142 10.0862 3.59776 9.90145 4.06857C9.58307 4.88019 9.60001 5.76711 9.94906 6.56591C10.0836 6.87421 10.2617 7.15482 10.4759 7.40178C9.49221 7.59084 8.47483 7.14177 7.95915 6.23082C7.26427 5.00264 7.09238 2.30618 8.14226 1.71223Z" fill="black"/>
<path d="M29.7197 17.4133C29.5283 17.2117 29.2594 17.0959 28.9815 17.0959H25.4483C25.2057 17.0959 25.0088 17.2927 25.0088 17.5353C25.0088 17.7782 25.2057 17.9748 25.4483 17.9748H26.9257C26.8261 19.9919 26.0429 21.8829 24.687 23.3789L19.2829 17.9748H23.4254C23.6683 17.9748 23.8651 17.7782 23.8651 17.5353C23.8651 17.2927 23.6683 17.0959 23.4254 17.0959H22.6111C22.6484 16.7198 22.6676 16.3396 22.6676 15.9611C22.6676 14.3392 22.3318 12.7727 21.6701 11.3054C21.5701 11.0841 21.3099 10.9856 21.0888 11.0857C20.8674 11.1852 20.769 11.4457 20.8688 11.6668C21.4792 13.0197 21.7887 14.4646 21.7887 15.9611C21.7887 16.3401 21.7669 16.7205 21.7267 17.0959H7.46225C7.18438 17.0959 6.91545 17.2117 6.7241 17.4133C6.53207 17.6159 6.43022 17.8926 6.44509 18.1721C6.6195 21.4481 8.12143 24.3517 10.4125 26.3754C8.06764 26.1704 5.86946 25.1862 4.14414 23.5513C3.9679 23.3842 3.68981 23.3917 3.52273 23.5678C3.35587 23.744 3.36342 24.0221 3.53943 24.1892C5.65316 26.1921 8.42126 27.2951 11.3338 27.2951C11.4194 27.2951 11.5055 27.2937 11.5913 27.2917C13.4841 28.5791 15.7691 29.3292 18.2218 29.3292C24.4927 29.3292 29.6654 24.4283 29.9985 18.1721C30.0136 17.8926 29.9117 17.6159 29.7197 17.4133ZM12.3782 24.0006L17.7823 18.5964V26.2393C15.7654 26.1397 13.8744 25.3565 12.3782 24.0006ZM9.51807 17.9748H17.1609L11.7568 23.3789C10.4009 21.8829 9.61763 19.9919 9.51807 17.9748ZM18.6612 18.5962L24.0656 24.0006C22.5696 25.3562 20.6786 26.1397 18.6612 26.239V18.5962ZM18.2218 28.4503C15.9121 28.4503 13.7636 27.7311 11.9941 26.5013C11.9818 26.4915 11.9689 26.4826 11.9554 26.4743C9.30017 24.6117 7.50757 21.5939 7.32286 18.1254C7.31988 18.0709 7.3462 18.0348 7.362 18.018C7.38054 17.9984 7.41327 17.975 7.46225 17.975H8.63847C8.74582 20.3728 9.73024 22.6115 11.4384 24.3189C13.2498 26.131 15.659 27.1289 18.2218 27.1289C20.7848 27.1289 23.194 26.131 25.0054 24.3189C26.7135 22.6113 27.698 20.3728 27.8053 17.9748H28.9813C29.0305 17.9748 29.0632 17.9984 29.0818 18.018C29.0976 18.0348 29.1239 18.0709 29.1209 18.1254C28.8128 23.915 24.0253 28.4503 18.2218 28.4503Z" fill="black"/>
<path d="M15.0397 22.9717C15.0383 22.9717 15.0371 22.9717 15.036 22.9717C14.795 22.9717 14.5986 23.1663 14.5965 23.4078L14.5943 23.6964C14.5924 23.9392 14.7877 24.1374 15.0303 24.1395H15.0339C15.2749 24.1395 15.4713 23.9449 15.4732 23.7035L15.4754 23.4149C15.4775 23.172 15.2823 22.9738 15.0397 22.9717Z" fill="black"/>
<path d="M16.747 23.7255C16.5835 23.546 16.3054 23.5332 16.1262 23.6969L15.912 23.8921C15.7325 24.0557 15.7197 24.3336 15.8834 24.513C15.9701 24.608 16.0889 24.6563 16.2082 24.6563C16.3139 24.6563 16.4199 24.6183 16.5041 24.5417L16.7186 24.3462C16.8978 24.1825 16.9106 23.9047 16.747 23.7255Z" fill="black"/>
<path d="M21.8472 23.4078C21.8454 23.1663 21.6487 22.9717 21.4077 22.9717C21.4066 22.9717 21.4054 22.9717 21.4043 22.9717C21.1615 22.9738 20.9664 23.172 20.9683 23.4149L20.9706 23.7035C20.9724 23.9452 21.169 24.1395 21.41 24.1395H21.4135C21.6563 24.1377 21.8513 23.9392 21.8495 23.6966L21.8472 23.4078Z" fill="black"/>
<path d="M20.3176 23.6969C20.1384 23.5332 19.8605 23.546 19.6969 23.7255C19.5332 23.9047 19.546 24.1825 19.7255 24.3462L19.9397 24.5417C20.0239 24.6186 20.1299 24.6563 20.2356 24.6563C20.3549 24.6563 20.4737 24.608 20.5604 24.513C20.7241 24.3336 20.7113 24.0557 20.532 23.8921L20.3176 23.6969Z" fill="black"/>
<path d="M24.8351 19.9347C24.9203 20.0581 25.0576 20.1245 25.1972 20.1245C25.2833 20.1245 25.37 20.0993 25.4463 20.0469C25.6461 19.9088 25.6964 19.6353 25.5584 19.4355L25.3945 19.1977C25.2567 18.9979 24.983 18.9478 24.7832 19.0856C24.5834 19.2233 24.5332 19.4971 24.671 19.6969L24.8351 19.9347Z" fill="black"/>
<path d="M24.1653 21.1652L24.4523 21.2068C24.4736 21.2098 24.4949 21.2114 24.5157 21.2114C24.7306 21.2114 24.9185 21.0535 24.9501 20.8345C24.9847 20.5944 24.818 20.3714 24.5779 20.3369L24.2909 20.2954C24.0511 20.2609 23.8279 20.4273 23.7931 20.6676C23.7586 20.9077 23.9252 21.1306 24.1653 21.1652Z" fill="black"/>
<path d="M11.6089 19.9347L11.7728 19.6969C11.9108 19.4971 11.8604 19.2233 11.6606 19.0856C11.461 18.9478 11.1873 18.9979 11.0495 19.1977L10.8854 19.4355C10.7476 19.6353 10.7977 19.9088 10.9975 20.0469C11.0738 20.0993 11.1607 20.1245 11.2468 20.1245C11.3862 20.1245 11.5235 20.0581 11.6089 19.9347Z" fill="black"/>
<path d="M12.6508 20.6676C12.616 20.4273 12.3933 20.2604 12.153 20.2954L11.866 20.3368C11.6259 20.3714 11.4592 20.5943 11.4938 20.8344C11.5254 21.0535 11.7133 21.2112 11.9282 21.2112C11.949 21.2112 11.9703 21.2098 11.9916 21.2066L12.2786 21.1652C12.5187 21.1306 12.6854 20.9077 12.6508 20.6676Z" fill="black"/>
</g>
<defs>
<clipPath id="clip0_111_616">
<rect width="30" height="30" fill="white"/>
</clipPath>
</defs>
</svg>
