<svg width="30" height="30" viewBox="0 0 30 30" fill="none" xmlns="http://www.w3.org/2000/svg">
<path d="M16.3085 8.75707C15.9788 8.86564 15.6238 8.9601 15.2418 9.03873C15.2418 9.03873 15.0306 8.53002 14.8974 7.74205C14.6017 5.99062 14.6914 2.85744 18.3451 0.858396C18.5633 0.739275 18.7945 0.623728 19.0386 0.51281C19.5132 0.297478 20.0665 0.579724 20.1745 1.08955C20.2214 1.3125 20.2678 1.56832 20.3059 1.84881C20.5864 3.95109 20.3658 7.42166 16.3085 8.75707Z" fill="#368B4C"/>
<path d="M14.8974 7.74205C14.6017 5.99062 14.6914 2.85744 18.3451 0.858398C18.3538 0.913535 18.3621 0.969902 18.3697 1.02738C18.6373 3.03521 18.4484 6.29045 14.8974 7.74205Z" fill="#3FA45A"/>
<path d="M11.0949 12.007C8.14296 17.0342 3.76707 15.176 1.97984 14.1116C1.53218 13.8447 1.44353 13.2303 1.80031 12.8508C2.10013 12.5316 2.39996 12.2499 2.69861 12.0029C6.30822 9.01288 9.74123 11.0166 10.778 11.7612C10.9834 11.909 11.0949 12.007 11.0949 12.007Z" fill="#368B4C"/>
<path d="M10.7776 11.7612C7.95305 14.6332 4.46549 13.1165 2.91826 12.1947C2.83084 12.1425 2.75689 12.0774 2.69824 12.0029C6.30785 9.01288 9.74086 11.0166 10.7776 11.7612Z" fill="#3FA45A"/>
<path d="M13.3057 10.8723C8.48148 14.1457 5.32662 10.5889 4.16957 8.85978C3.87971 8.42677 4.06398 7.83416 4.5492 7.64408C4.91594 7.50035 5.26973 7.38474 5.61062 7.29381C9.62277 6.22125 11.8647 8.59107 12.7923 9.97107C13.1426 10.4921 13.3057 10.8723 13.3057 10.8723Z" fill="#4CBA68"/>
<path d="M12.7921 9.97107C9.17953 11.3452 6.72516 8.84747 5.61035 7.2938C9.6225 6.22118 11.8644 8.59101 12.7921 9.97107Z" fill="#64C37D"/>
<path d="M13.4874 10.7688C18.1297 7.24226 15.7664 3.11685 14.4972 1.46826C14.1794 1.05529 13.559 1.0407 13.2239 1.43984C12.9706 1.74148 12.7481 2.03984 12.5531 2.33386C10.2557 5.79359 11.7857 8.67482 12.7973 9.99447C13.1791 10.4929 13.4874 10.7688 13.4874 10.7688Z" fill="#4CBA68"/>
<path d="M12.7973 9.9945C15.2529 7.00973 13.6695 3.88639 12.553 2.33389C10.2557 5.79356 11.7857 8.67479 12.7973 9.9945Z" fill="#64C37D"/>
<path d="M27.1797 26.8633C27.1158 27.0382 27.0412 27.206 26.9562 27.3673C26.1981 28.8072 24.6403 29.6808 22.9839 29.5465C16.6043 29.0272 10.8419 24.9541 10.8419 24.9541C6.25012 21.9066 5.67982 15.2899 9.75707 12.372L9.89611 12.2729L12.8726 10.1418L15.9882 7.91221C20.0655 4.99436 26.1552 7.66518 27.5476 12.9975C29.1916 19.2908 28.1894 24.1003 27.1797 26.8633Z" fill="#C70024"/>
<path d="M27.1798 26.8633C27.1159 27.0381 27.0413 27.206 26.9563 27.3673C26.2803 27.7246 25.5017 27.8954 24.7002 27.8303C18.3206 27.311 12.5582 23.2379 12.5582 23.2379C8.68637 20.668 7.67364 15.561 9.89621 12.2729L12.8727 10.1418L15.9883 7.91221C20.0656 4.99436 26.1553 7.66518 27.5477 12.9975C29.1917 19.2908 28.1895 24.1003 27.1798 26.8633Z" fill="#FF0C38"/>
<path d="M10.3141 18.6611C10.0767 18.8311 10.1322 19.3154 10.4382 19.7429C10.7442 20.1705 11.1847 20.3793 11.4222 20.2094C11.6596 20.0395 11.604 19.5552 11.298 19.1276C10.992 18.7001 10.5515 18.4912 10.3141 18.6611Z" fill="black"/>
<path d="M13.3568 15.3524C13.5942 15.1825 13.5387 14.6981 13.2327 14.2706C12.9267 13.8431 12.4862 13.6342 12.2487 13.8041C12.0113 13.974 12.0669 14.4584 12.3729 14.8859C12.6789 15.3135 13.1194 15.5223 13.3568 15.3524Z" fill="black"/>
<path d="M17.0055 16.9236C16.7681 17.0935 16.8236 17.5779 17.1296 18.0054C17.4356 18.433 17.8762 18.6418 18.1136 18.4719C18.351 18.302 18.2954 17.8177 17.9894 17.3901C17.6834 16.9626 17.2429 16.7537 17.0055 16.9236Z" fill="black"/>
<path d="M24.89 11.2557C25.1274 11.0858 25.0719 10.6014 24.7659 10.1739C24.4599 9.74631 24.0194 9.53746 23.7819 9.70738C23.5445 9.8773 23.6001 10.3616 23.9061 10.7892C24.2121 11.2167 24.6526 11.4256 24.89 11.2557Z" fill="black"/>
<path d="M23.3321 16.0565C23.0261 15.629 22.5856 15.4201 22.3482 15.5901C22.1107 15.76 22.1663 16.2443 22.4723 16.6719C22.7783 17.0994 23.2188 17.3083 23.4563 17.1384C23.6937 16.9684 23.6381 16.4841 23.3321 16.0565Z" fill="black"/>
<path d="M25.3268 20.5518C25.0893 20.7217 25.1449 21.2061 25.4509 21.6336C25.7569 22.0612 26.1974 22.27 26.4349 22.1001C26.6723 21.9302 26.6167 21.4459 26.3107 21.0183C26.0047 20.5908 25.5642 20.3819 25.3268 20.5518Z" fill="black"/>
<path d="M19.9091 24.747C20.1465 24.5771 20.0909 24.0928 19.7849 23.6652C19.4789 23.2377 19.0384 23.0288 18.801 23.1987C18.5636 23.3687 18.6191 23.853 18.9251 24.2806C19.2311 24.7081 19.6717 24.917 19.9091 24.747Z" fill="black"/>
<path d="M24.4921 27.2011C24.7295 27.0312 24.6739 26.5468 24.3679 26.1193C24.0619 25.6917 23.6214 25.4829 23.384 25.6528C23.1466 25.8227 23.2022 26.3071 23.5081 26.7346C23.8141 27.1622 24.2547 27.371 24.4921 27.2011Z" fill="black"/>
<path d="M13.8851 24.799C14.1226 24.6291 14.067 24.1448 13.761 23.7172C13.455 23.2897 13.0145 23.0808 12.7771 23.2507C12.5396 23.4207 12.5952 23.905 12.9012 24.3326C13.2072 24.7601 13.6477 24.969 13.8851 24.799Z" fill="black"/>
<path d="M19.2245 12.0083C19.4619 11.8384 19.4063 11.3541 19.1003 10.9265C18.7943 10.499 18.3538 10.2901 18.1164 10.46C17.879 10.63 17.9346 11.1143 18.2406 11.5418C18.5466 11.9694 18.9871 12.1782 19.2245 12.0083Z" fill="black"/>
<path d="M28.3895 20.8451C28.146 20.8269 27.9359 21.0088 27.9177 21.2511C27.774 23.1785 27.3868 25.0162 26.7665 26.7124C26.2403 28.1523 24.8543 29.1198 23.3189 29.1198C23.2197 29.1198 23.1188 29.1157 23.0197 29.1075C16.8389 28.6046 11.1522 24.6348 11.0959 24.5949C11.0924 24.592 11.0889 24.5896 11.0854 24.5873C9.58979 23.5951 8.45096 22.1183 7.87709 20.4296C7.79904 20.1997 7.54908 20.0764 7.3191 20.1545C7.08912 20.2325 6.9659 20.4825 7.04395 20.7125C7.67881 22.583 8.9391 24.2177 10.5931 25.3172C10.7076 25.3976 12.1304 26.3874 14.3289 27.4517C16.4048 28.4562 19.5849 29.7113 22.9481 29.9847C23.0713 29.9947 23.1957 29.9999 23.3189 29.9999C25.2229 29.9999 26.9403 28.8 27.5928 27.0146C28.2411 25.2421 28.6454 23.3246 28.7956 21.3167C28.8131 21.0745 28.6318 20.8633 28.3895 20.8451Z" fill="black"/>
<path d="M7.12426 19.2949C7.36543 19.2667 7.53852 19.0485 7.51033 18.8068C7.47629 18.5152 7.45871 18.22 7.45871 17.9308C7.45871 16.9379 7.66461 16.0058 7.99256 15.2561C8.76236 13.4596 10.1205 12.6706 10.1601 12.6244L10.1893 12.6039C10.1895 12.6037 10.1899 12.6035 10.1904 12.6031C10.19 12.6034 10.1896 12.6037 10.1893 12.6039L10.1894 12.6038C10.1905 12.603 10.1914 12.6023 10.1922 12.6018C10.1928 12.6013 10.1934 12.6009 10.1943 12.6003C10.1941 12.6004 10.1939 12.6006 10.1936 12.6008C10.1944 12.6002 10.1946 12.6001 10.1945 12.6002C10.2569 12.5555 10.9049 12.0917 16.2439 8.27022C20.0722 5.52908 25.808 8.07873 27.1221 13.1091C27.6883 15.2771 27.977 17.4357 27.9799 19.5262C27.9805 19.7692 28.1776 19.9657 28.4199 19.9657C28.6623 19.9657 28.8605 19.7692 28.86 19.5251C28.8564 17.36 28.5584 15.1263 27.9734 12.8867C27.0017 9.16676 23.7219 6.43664 20.0964 6.27885C20.4696 5.57361 20.6637 4.84371 20.7553 4.17715C20.7887 3.93598 20.6203 3.7142 20.3792 3.68133C20.1386 3.64787 19.9168 3.81627 19.8833 4.05686C19.7642 4.92229 19.4885 5.67217 19.0578 6.30639C18.1747 6.39381 17.327 6.64553 16.5506 7.05094C16.5829 6.89133 16.6081 6.73061 16.6263 6.56807C16.6539 6.32631 16.4797 6.10863 16.2385 6.08168C15.9962 6.05467 15.7791 6.22834 15.7521 6.4701C15.7011 6.92484 15.582 7.36664 15.3954 7.79496L13.005 9.5059C12.8616 9.30627 12.7467 9.16758 12.7058 9.11572C12.2329 8.3424 11.7775 7.27219 11.7775 6.01482C11.7775 4.56498 12.3772 3.11982 13.5601 1.71932C13.6569 1.6043 13.7807 1.5873 13.8458 1.5873C13.965 1.5873 14.0752 1.64127 14.1474 1.73572C14.4596 2.14412 14.8257 2.68975 15.132 3.32988C15.365 3.81404 15.551 4.32791 15.6635 4.86012C15.714 5.09777 15.9475 5.24971 16.1851 5.19984C16.4228 5.14939 16.5747 4.91584 16.5249 4.67766C16.4292 4.22824 16.2908 3.80051 16.1265 3.4009C16.7261 2.48561 17.6943 1.60605 19.2204 0.913711C19.2696 0.891387 19.3212 0.880254 19.3735 0.880254C19.5261 0.880254 19.7021 0.983496 19.7438 1.18066C19.8294 1.58549 19.8893 1.99447 19.9215 2.3952C19.9409 2.63754 20.1521 2.81824 20.395 2.79885C20.6374 2.77951 20.8181 2.5677 20.7987 2.32535C20.7635 1.88648 20.6984 1.43994 20.605 0.998145C20.4825 0.419531 19.9644 0 19.3736 0C19.1953 0 19.021 0.0375586 18.8567 0.11209C17.3852 0.779238 16.373 1.60711 15.6877 2.4866C15.4096 1.98141 15.111 1.54664 14.8469 1.20105C14.6063 0.887168 14.242 0.706992 13.846 0.706992C13.4757 0.706992 13.126 0.868945 12.8878 1.15113C11.5671 2.71477 10.8976 4.35123 10.8976 6.01459C10.8976 6.24164 10.9111 6.46283 10.9346 6.67816L8.9965 3.97049C8.85512 3.77273 8.5799 3.72756 8.38221 3.86842C8.18504 4.01039 8.13928 4.28502 8.28072 4.48271L10.1812 7.13771C8.79236 6.5134 6.87488 6.26115 4.38828 7.23451C4.03332 7.37355 3.76338 7.66225 3.649 8.02717C3.53398 8.39332 3.59094 8.78643 3.80393 9.10441C4.03566 9.45059 4.35254 9.87832 4.7515 10.3154C3.59563 10.715 2.50074 11.4613 1.47928 12.5491C1.26043 12.7821 1.14014 13.0866 1.14014 13.4064C1.14014 13.8552 1.36953 14.2601 1.75443 14.4895C2.14344 14.7212 2.5465 14.9278 2.95139 15.1026C3.17492 15.1988 3.43367 15.0962 3.52994 14.8732C3.62615 14.6497 3.5235 14.3909 3.30055 14.2946C2.93029 14.1345 2.56127 13.9455 2.20508 13.7331C2.08889 13.6645 2.02027 13.5425 2.02027 13.4063C2.02027 13.3394 2.03727 13.2408 2.12117 13.1517C3.16848 12.0363 4.29096 11.3228 5.46969 11.02C6.42594 11.8562 7.54021 12.4442 8.78533 12.603C8.14174 13.2103 7.62664 13.9342 7.25645 14.7408C6.48037 14.9521 5.67846 14.9476 4.88586 14.7939C4.64703 14.7482 4.41646 14.9037 4.37012 15.1424C4.32377 15.3813 4.47986 15.6118 4.71863 15.6582C5.15223 15.7421 5.5823 15.7849 5.99656 15.7849H5.99715C6.30283 15.7849 6.6009 15.7626 6.89135 15.7186C6.68598 16.4168 6.57863 17.1596 6.57863 17.9306C6.57863 18.2539 6.59797 18.5831 6.63611 18.9087C6.66424 19.1506 6.88309 19.3231 7.12426 19.2949ZM6.68539 10.8535C6.33219 10.6123 6.01356 10.3407 5.72961 10.0632C5.20859 9.55271 4.80723 9.02115 4.535 8.6151C4.47107 8.51947 4.45402 8.40094 4.48924 8.29061C4.50916 8.22668 4.56436 8.11049 4.70926 8.05354C5.72141 7.6575 6.6766 7.45975 7.57021 7.45975C9.27225 7.45975 10.7241 8.19059 11.8452 9.46289L12.1797 9.93053C12.2055 9.96809 12.2313 10.0051 12.2571 10.0409L9.8685 11.7506C8.79113 11.8409 7.72039 11.562 6.68539 10.8535Z" fill="black"/>
<path d="M10.1952 12.6001C10.195 12.6003 10.1945 12.6005 10.1943 12.6007C10.1948 12.6003 10.195 12.6003 10.1952 12.6001Z" fill="black"/>
<path d="M10.1892 12.6039C10.1883 12.6045 10.1881 12.6046 10.1892 12.6039V12.6039Z" fill="black"/>
<path d="M10.189 12.6045L10.1899 12.6038H10.1896L10.189 12.6045Z" fill="black"/>
</svg>
